<svg xmlns="http://www.w3.org/2000/svg" xmlns:xlink="http://www.w3.org/1999/xlink" width="82" zoomAndPan="magnify" viewBox="0 0 61.5 45.749999" height="61" preserveAspectRatio="xMidYMid meet" version="1.0"><defs><clipPath id="7a27018e9c"><path d="M 32 18 L 40 18 L 40 28.777344 L 32 28.777344 Z M 32 18 " clip-rule="nonzero"/></clipPath><clipPath id="ef19ca760a"><path d="M 31 10.921875 L 40.695312 10.921875 L 40.695312 18 L 31 18 Z M 31 10.921875 " clip-rule="nonzero"/></clipPath><clipPath id="59ee4863d8"><path d="M 23.582031 16 L 31 16 L 31 28.777344 L 23.582031 28.777344 Z M 23.582031 16 " clip-rule="nonzero"/></clipPath></defs><g clip-path="url(#7a27018e9c)"><path fill="#000000" d="M 39.640625 20.871094 L 39.011719 20.871094 C 39.128906 20.644531 39.191406 20.398438 39.191406 20.140625 C 39.191406 20.058594 39.121094 19.992188 39.039062 19.992188 L 36.488281 19.992188 L 36.488281 19.261719 C 36.488281 19.183594 36.558594 19.117188 36.640625 19.117188 C 36.722656 19.117188 36.789062 19.183594 36.789062 19.261719 L 36.789062 19.554688 C 36.789062 19.636719 36.855469 19.703125 36.941406 19.703125 L 37.539062 19.703125 C 37.621094 19.703125 37.691406 19.636719 37.691406 19.554688 L 37.691406 19.261719 C 37.691406 18.699219 37.21875 18.238281 36.640625 18.238281 C 36.0625 18.238281 35.589844 18.699219 35.589844 19.261719 L 35.589844 19.992188 L 33.039062 19.992188 C 32.957031 19.992188 32.890625 20.058594 32.890625 20.140625 C 32.890625 20.398438 32.949219 20.644531 33.070312 20.871094 L 32.4375 20.871094 C 32.355469 20.871094 32.289062 20.9375 32.289062 21.019531 L 32.289062 27.75 C 32.289062 27.828125 32.355469 27.894531 32.4375 27.894531 L 32.589844 27.894531 L 32.589844 28.628906 C 32.589844 28.707031 32.65625 28.773438 32.738281 28.773438 L 33.339844 28.773438 C 33.421875 28.773438 33.488281 28.707031 33.488281 28.628906 L 33.488281 27.894531 L 38.589844 27.894531 L 38.589844 28.628906 C 38.589844 28.707031 38.65625 28.773438 38.738281 28.773438 L 39.339844 28.773438 C 39.421875 28.773438 39.488281 28.707031 39.488281 28.628906 L 39.488281 27.894531 L 39.640625 27.894531 C 39.722656 27.894531 39.789062 27.828125 39.789062 27.75 L 39.789062 21.019531 C 39.789062 20.9375 39.722656 20.871094 39.640625 20.871094 Z M 35.890625 19.261719 C 35.890625 18.859375 36.226562 18.53125 36.640625 18.53125 C 37.050781 18.53125 37.390625 18.859375 37.390625 19.261719 L 37.390625 19.410156 L 37.089844 19.410156 L 37.089844 19.261719 C 37.089844 19.019531 36.886719 18.824219 36.640625 18.824219 C 36.390625 18.824219 36.191406 19.019531 36.191406 19.261719 L 36.191406 19.992188 L 35.890625 19.992188 Z M 33.195312 20.285156 L 38.882812 20.285156 C 38.859375 20.496094 38.785156 20.695312 38.660156 20.871094 L 33.417969 20.871094 C 33.292969 20.695312 33.21875 20.496094 33.195312 20.285156 Z M 33.1875 28.480469 L 32.890625 28.480469 L 32.890625 27.894531 L 33.1875 27.894531 Z M 39.191406 28.480469 L 38.890625 28.480469 L 38.890625 27.894531 L 39.191406 27.894531 Z M 39.488281 27.601562 L 32.589844 27.601562 L 32.589844 21.164062 L 39.488281 21.164062 Z M 39.488281 27.601562 " fill-opacity="1" fill-rule="nonzero"/></g><path fill="#000000" d="M 32.890625 21.605469 L 32.890625 23.066406 C 32.890625 23.148438 32.957031 23.214844 33.039062 23.214844 L 39.039062 23.214844 C 39.121094 23.214844 39.191406 23.148438 39.191406 23.066406 L 39.191406 21.605469 C 39.191406 21.523438 39.121094 21.457031 39.039062 21.457031 L 33.039062 21.457031 C 32.957031 21.457031 32.890625 21.523438 32.890625 21.605469 Z M 33.1875 21.75 L 38.890625 21.75 L 38.890625 22.921875 L 33.1875 22.921875 Z M 33.1875 21.75 " fill-opacity="1" fill-rule="nonzero"/><path fill="#000000" d="M 35.738281 23.503906 L 33.039062 23.503906 C 32.957031 23.503906 32.890625 23.570312 32.890625 23.652344 L 32.890625 27.164062 C 32.890625 27.246094 32.957031 27.308594 33.039062 27.308594 L 35.738281 27.308594 C 35.820312 27.308594 35.890625 27.246094 35.890625 27.164062 L 35.890625 23.652344 C 35.890625 23.570312 35.820312 23.503906 35.738281 23.503906 Z M 35.589844 27.015625 L 33.1875 27.015625 L 33.1875 23.796875 L 35.589844 23.796875 Z M 35.589844 27.015625 " fill-opacity="1" fill-rule="nonzero"/><path fill="#000000" d="M 34.839844 26.140625 L 35.140625 26.140625 C 35.222656 26.140625 35.289062 26.074219 35.289062 25.992188 C 35.289062 25.914062 35.222656 25.847656 35.140625 25.847656 L 34.988281 25.847656 L 34.988281 24.96875 L 35.140625 24.96875 C 35.222656 24.96875 35.289062 24.902344 35.289062 24.824219 C 35.289062 24.742188 35.222656 24.675781 35.140625 24.675781 L 34.839844 24.675781 C 34.757812 24.675781 34.6875 24.742188 34.6875 24.824219 L 34.6875 25.992188 C 34.6875 26.074219 34.757812 26.140625 34.839844 26.140625 Z M 34.839844 26.140625 " fill-opacity="1" fill-rule="nonzero"/><path fill="#000000" d="M 36.941406 25.847656 C 36.855469 25.847656 36.789062 25.914062 36.789062 25.992188 C 36.789062 26.074219 36.855469 26.140625 36.941406 26.140625 L 37.238281 26.140625 C 37.320312 26.140625 37.390625 26.074219 37.390625 25.992188 L 37.390625 24.824219 C 37.390625 24.742188 37.320312 24.675781 37.238281 24.675781 L 36.941406 24.675781 C 36.855469 24.675781 36.789062 24.742188 36.789062 24.824219 C 36.789062 24.902344 36.855469 24.96875 36.941406 24.96875 L 37.089844 24.96875 L 37.089844 25.847656 Z M 36.941406 25.847656 " fill-opacity="1" fill-rule="nonzero"/><path fill="#000000" d="M 39.039062 23.503906 L 36.339844 23.503906 C 36.257812 23.503906 36.191406 23.570312 36.191406 23.652344 L 36.191406 27.164062 C 36.191406 27.246094 36.257812 27.308594 36.339844 27.308594 L 39.039062 27.308594 C 39.121094 27.308594 39.191406 27.246094 39.191406 27.164062 L 39.191406 23.652344 C 39.191406 23.570312 39.121094 23.503906 39.039062 23.503906 Z M 38.890625 27.015625 L 36.488281 27.015625 L 36.488281 23.796875 L 38.890625 23.796875 Z M 38.890625 27.015625 " fill-opacity="1" fill-rule="nonzero"/><path fill="#000000" d="M 36.640625 22.042969 C 36.558594 22.042969 36.488281 22.109375 36.488281 22.1875 L 36.488281 22.335938 L 35.589844 22.335938 L 35.589844 22.1875 C 35.589844 22.109375 35.523438 22.042969 35.4375 22.042969 C 35.355469 22.042969 35.289062 22.109375 35.289062 22.1875 L 35.289062 22.480469 C 35.289062 22.5625 35.355469 22.628906 35.4375 22.628906 L 36.640625 22.628906 C 36.722656 22.628906 36.789062 22.5625 36.789062 22.480469 L 36.789062 22.1875 C 36.789062 22.109375 36.722656 22.042969 36.640625 22.042969 Z M 36.640625 22.042969 " fill-opacity="1" fill-rule="nonzero"/><g clip-path="url(#ef19ca760a)"><path fill="#000000" d="M 40.539062 17.066406 L 39.765625 17.066406 C 39.777344 17.019531 39.789062 16.972656 39.789062 16.921875 L 39.789062 11.359375 C 39.789062 11.121094 39.585938 10.921875 39.339844 10.921875 L 32.738281 10.921875 C 32.492188 10.921875 32.289062 11.121094 32.289062 11.359375 L 32.289062 16.921875 C 32.289062 16.972656 32.300781 17.019531 32.316406 17.066406 L 31.539062 17.066406 C 31.457031 17.066406 31.386719 17.132812 31.386719 17.214844 L 31.386719 17.800781 C 31.386719 17.878906 31.457031 17.945312 31.539062 17.945312 L 40.539062 17.945312 C 40.621094 17.945312 40.691406 17.878906 40.691406 17.800781 L 40.691406 17.214844 C 40.691406 17.132812 40.621094 17.066406 40.539062 17.066406 Z M 32.589844 16.921875 L 32.589844 11.359375 C 32.589844 11.28125 32.65625 11.214844 32.738281 11.214844 L 39.339844 11.214844 C 39.421875 11.214844 39.488281 11.28125 39.488281 11.359375 L 39.488281 16.921875 C 39.488281 17 39.421875 17.066406 39.339844 17.066406 L 32.738281 17.066406 C 32.65625 17.066406 32.589844 17 32.589844 16.921875 Z M 40.390625 17.652344 L 31.6875 17.652344 L 31.6875 17.359375 L 40.390625 17.359375 Z M 40.390625 17.652344 " fill-opacity="1" fill-rule="nonzero"/></g><path fill="#000000" d="M 24.789062 19.554688 C 24.789062 20.765625 25.796875 21.75 27.039062 21.75 C 28.277344 21.75 29.289062 20.765625 29.289062 19.554688 L 29.289062 18.96875 C 29.289062 17.757812 28.277344 16.773438 27.039062 16.773438 C 25.796875 16.773438 24.789062 17.757812 24.789062 18.96875 Z M 25.085938 18.96875 C 25.085938 17.921875 25.960938 17.066406 27.039062 17.066406 C 28.113281 17.066406 28.988281 17.921875 28.988281 18.96875 L 28.988281 19.554688 C 28.988281 20.605469 28.113281 21.457031 27.039062 21.457031 C 25.960938 21.457031 25.085938 20.605469 25.085938 19.554688 Z M 25.085938 18.96875 " fill-opacity="1" fill-rule="nonzero"/><g clip-path="url(#59ee4863d8)"><path fill="#000000" d="M 29.964844 16.773438 L 28.785156 16.773438 C 28.300781 16.410156 27.699219 16.191406 27.039062 16.191406 C 26.378906 16.191406 25.773438 16.410156 25.289062 16.773438 L 24.113281 16.773438 C 23.824219 16.773438 23.585938 17.003906 23.585938 17.289062 L 23.585938 21.164062 C 23.585938 21.554688 23.785156 21.902344 24.089844 22.117188 C 23.96875 22.195312 23.886719 22.328125 23.886719 22.480469 C 23.886719 22.671875 24.011719 22.832031 24.1875 22.894531 L 24.1875 23.359375 C 24.1875 24.367188 24.738281 25.25 25.558594 25.738281 L 25.386719 28.621094 C 25.382812 28.660156 25.398438 28.699219 25.429688 28.730469 C 25.457031 28.757812 25.496094 28.777344 25.539062 28.777344 L 28.539062 28.777344 C 28.578125 28.777344 28.621094 28.757812 28.648438 28.730469 C 28.675781 28.699219 28.6875 28.660156 28.6875 28.621094 L 28.515625 25.738281 C 29.339844 25.25 29.886719 24.367188 29.886719 23.359375 L 29.886719 22.894531 C 30.066406 22.832031 30.1875 22.671875 30.1875 22.480469 C 30.1875 22.328125 30.109375 22.195312 29.984375 22.117188 C 30.289062 21.902344 30.488281 21.554688 30.488281 21.164062 L 30.488281 17.289062 C 30.488281 17.003906 30.253906 16.773438 29.964844 16.773438 Z M 30.1875 17.289062 L 30.1875 17.652344 L 29.546875 17.652344 C 29.425781 17.441406 29.28125 17.242188 29.113281 17.066406 L 29.964844 17.066406 C 30.085938 17.066406 30.1875 17.167969 30.1875 17.289062 Z M 29.589844 18.96875 L 29.589844 19.554688 C 29.589844 20.925781 28.445312 22.042969 27.039062 22.042969 C 25.632812 22.042969 24.488281 20.925781 24.488281 19.554688 L 24.488281 18.96875 C 24.488281 17.597656 25.632812 16.480469 27.039062 16.480469 C 28.445312 16.480469 29.589844 17.597656 29.589844 18.96875 Z M 24.113281 17.066406 L 24.960938 17.066406 C 24.792969 17.242188 24.644531 17.441406 24.523438 17.652344 L 23.886719 17.652344 L 23.886719 17.289062 C 23.886719 17.167969 23.988281 17.066406 24.113281 17.066406 Z M 23.886719 21.164062 L 23.886719 17.945312 L 24.390625 17.945312 C 24.257812 18.265625 24.1875 18.609375 24.1875 18.96875 L 24.1875 19.554688 C 24.1875 20.640625 24.832031 21.585938 25.765625 22.042969 L 24.789062 22.042969 C 24.292969 22.042969 23.886719 21.648438 23.886719 21.164062 Z M 28.378906 28.480469 L 25.695312 28.480469 L 25.851562 25.886719 C 26.210938 26.046875 26.613281 26.140625 27.039062 26.140625 C 27.460938 26.140625 27.863281 26.046875 28.222656 25.886719 Z M 27.039062 25.847656 C 25.632812 25.847656 24.488281 24.730469 24.488281 23.359375 L 24.488281 22.921875 L 29.589844 22.921875 L 29.589844 23.359375 C 29.589844 24.730469 28.445312 25.847656 27.039062 25.847656 Z M 29.738281 22.335938 C 29.820312 22.335938 29.886719 22.402344 29.886719 22.480469 C 29.886719 22.5625 29.820312 22.628906 29.738281 22.628906 L 24.335938 22.628906 C 24.253906 22.628906 24.1875 22.5625 24.1875 22.480469 C 24.1875 22.402344 24.253906 22.335938 24.335938 22.335938 Z M 30.1875 21.164062 C 30.1875 21.648438 29.785156 22.042969 29.289062 22.042969 L 28.308594 22.042969 C 29.242188 21.585938 29.886719 20.640625 29.886719 19.554688 L 29.886719 18.96875 C 29.886719 18.609375 29.816406 18.265625 29.6875 17.945312 L 30.1875 17.945312 Z M 30.1875 21.164062 " fill-opacity="1" fill-rule="nonzero"/></g></svg>