<svg xmlns="http://www.w3.org/2000/svg" xmlns:xlink="http://www.w3.org/1999/xlink" width="82" zoomAndPan="magnify" viewBox="0 0 61.5 45.749999" height="61" preserveAspectRatio="xMidYMid meet" version="1.0"><defs><clipPath id="a0e8095c2b"><path d="M 18.226562 16 L 40.546875 16 L 40.546875 29.519531 L 18.226562 29.519531 Z M 18.226562 16 " clip-rule="nonzero"/></clipPath><clipPath id="1daa5a5c6f"><path d="M 23 11.667969 L 36 11.667969 L 36 19 L 23 19 Z M 23 11.667969 " clip-rule="nonzero"/></clipPath></defs><g clip-path="url(#a0e8095c2b)"><path fill="#000000" d="M 40.355469 23.917969 L 39.769531 23.917969 L 39.449219 22.988281 C 39.441406 22.960938 39.425781 22.9375 39.402344 22.921875 L 39.453125 22.738281 C 39.464844 22.683594 39.453125 22.628906 39.421875 22.589844 C 39.386719 22.546875 39.335938 22.523438 39.277344 22.523438 L 38.199219 22.523438 C 38.117188 22.523438 38.046875 22.574219 38.023438 22.65625 L 37.699219 23.921875 L 36.941406 23.921875 L 36.941406 22.523438 L 37.839844 22.523438 C 37.894531 22.523438 37.941406 22.5 37.980469 22.457031 C 38.015625 22.414062 38.027344 22.367188 38.015625 22.3125 L 37.65625 20.5625 C 37.636719 20.480469 37.566406 20.421875 37.480469 20.421875 L 36.042969 20.421875 C 35.957031 20.421875 35.882812 20.480469 35.867188 20.5625 L 35.507812 22.3125 C 35.5 22.367188 35.511719 22.417969 35.542969 22.457031 C 35.574219 22.496094 35.628906 22.523438 35.683594 22.523438 L 36.582031 22.523438 L 36.582031 23.921875 L 35.144531 23.921875 L 35.144531 21.472656 C 35.144531 20.894531 34.65625 20.421875 34.066406 20.421875 L 25.074219 20.421875 C 24.484375 20.421875 23.996094 20.894531 23.996094 21.472656 L 23.996094 23.921875 L 22.558594 23.921875 L 22.558594 22.523438 L 23.457031 22.523438 C 23.511719 22.523438 23.5625 22.5 23.597656 22.457031 C 23.632812 22.414062 23.648438 22.367188 23.632812 22.3125 L 23.273438 20.5625 C 23.257812 20.480469 23.183594 20.421875 23.097656 20.421875 L 21.660156 20.421875 C 21.574219 20.421875 21.503906 20.480469 21.484375 20.5625 L 21.125 22.3125 C 21.117188 22.367188 21.128906 22.417969 21.160156 22.457031 C 21.191406 22.496094 21.246094 22.523438 21.300781 22.523438 L 22.199219 22.523438 L 22.199219 23.921875 L 20.761719 23.921875 L 20.761719 22.738281 C 20.761719 22.453125 20.695312 22.171875 20.5625 21.917969 C 20.460938 21.714844 20.402344 21.484375 20.402344 21.253906 L 20.402344 20.59375 C 20.402344 20.496094 20.320312 20.417969 20.222656 20.417969 L 20.078125 20.417969 C 20.140625 19.5625 20.292969 18.707031 20.523438 17.875 C 20.554688 17.839844 20.574219 17.789062 20.601562 17.6875 C 20.648438 17.828125 20.675781 17.871094 20.742188 17.902344 C 20.789062 17.925781 20.84375 17.929688 20.886719 17.910156 C 20.933594 17.894531 20.972656 17.859375 20.992188 17.816406 C 21.019531 17.75 21.011719 17.699219 20.960938 17.5625 C 21.085938 17.644531 21.132812 17.664062 21.203125 17.652344 C 21.25 17.644531 21.296875 17.617188 21.324219 17.578125 C 21.351562 17.539062 21.359375 17.488281 21.351562 17.4375 C 21.335938 17.371094 21.300781 17.332031 21.171875 17.253906 C 21.324219 17.253906 21.371094 17.238281 21.421875 17.1875 C 21.457031 17.152344 21.476562 17.105469 21.476562 17.058594 C 21.476562 17.007812 21.449219 16.960938 21.414062 16.929688 C 21.359375 16.882812 21.304688 16.875 21.15625 16.882812 C 21.277344 16.796875 21.308594 16.753906 21.324219 16.6875 C 21.332031 16.636719 21.320312 16.589844 21.289062 16.550781 C 21.257812 16.511719 21.210938 16.488281 21.160156 16.484375 C 21.089844 16.476562 21.042969 16.496094 20.929688 16.59375 C 20.972656 16.453125 20.976562 16.402344 20.941406 16.339844 C 20.917969 16.296875 20.878906 16.265625 20.828125 16.253906 C 20.78125 16.238281 20.730469 16.246094 20.683594 16.269531 C 20.621094 16.304688 20.601562 16.347656 20.558594 16.496094 C 20.511719 16.355469 20.484375 16.3125 20.414062 16.28125 C 20.371094 16.261719 20.316406 16.257812 20.273438 16.273438 C 20.226562 16.292969 20.1875 16.328125 20.167969 16.371094 C 20.140625 16.4375 20.144531 16.484375 20.199219 16.625 C 20.074219 16.542969 20.023438 16.519531 19.957031 16.53125 C 19.90625 16.542969 19.863281 16.566406 19.835938 16.605469 C 19.808594 16.644531 19.800781 16.699219 19.808594 16.746094 C 19.824219 16.8125 19.859375 16.851562 19.988281 16.929688 C 19.835938 16.929688 19.785156 16.949219 19.738281 16.996094 C 19.699219 17.03125 19.683594 17.078125 19.683594 17.128906 C 19.683594 17.175781 19.710938 17.222656 19.746094 17.253906 C 19.800781 17.300781 19.855469 17.3125 20.003906 17.300781 C 19.878906 17.390625 19.847656 17.429688 19.835938 17.5 C 19.828125 17.546875 19.839844 17.597656 19.871094 17.636719 C 19.902344 17.675781 19.949219 17.695312 19.996094 17.699219 C 20.070312 17.707031 20.113281 17.6875 20.230469 17.597656 C 20.136719 17.910156 20.054688 18.226562 19.988281 18.550781 C 19.988281 18.550781 19.984375 18.546875 19.984375 18.546875 C 19.929688 18.496094 19.878906 18.484375 19.726562 18.488281 C 19.855469 18.40625 19.886719 18.367188 19.898438 18.296875 C 19.90625 18.246094 19.894531 18.199219 19.867188 18.160156 C 19.839844 18.121094 19.789062 18.09375 19.742188 18.089844 C 19.667969 18.082031 19.621094 18.101562 19.503906 18.191406 C 19.550781 18.050781 19.558594 18 19.527344 17.9375 C 19.503906 17.894531 19.460938 17.859375 19.417969 17.84375 C 19.371094 17.832031 19.320312 17.835938 19.273438 17.859375 C 19.210938 17.894531 19.183594 17.9375 19.140625 18.082031 C 19.09375 17.9375 19.066406 17.894531 19.003906 17.859375 C 18.960938 17.835938 18.90625 17.832031 18.859375 17.84375 C 18.816406 17.859375 18.773438 17.894531 18.753906 17.9375 C 18.722656 18 18.726562 18.050781 18.773438 18.191406 C 18.652344 18.101562 18.605469 18.082031 18.535156 18.089844 C 18.488281 18.09375 18.441406 18.121094 18.410156 18.160156 C 18.382812 18.199219 18.371094 18.253906 18.378906 18.296875 C 18.394531 18.367188 18.429688 18.402344 18.550781 18.488281 C 18.398438 18.484375 18.347656 18.496094 18.292969 18.546875 C 18.257812 18.582031 18.234375 18.625 18.234375 18.675781 C 18.234375 18.726562 18.257812 18.773438 18.292969 18.808594 C 18.347656 18.855469 18.398438 18.871094 18.550781 18.863281 C 18.425781 18.949219 18.394531 18.988281 18.378906 19.058594 C 18.371094 19.105469 18.382812 19.152344 18.410156 19.191406 C 18.4375 19.234375 18.488281 19.257812 18.535156 19.261719 C 18.609375 19.273438 18.660156 19.25 18.773438 19.164062 C 18.726562 19.300781 18.722656 19.355469 18.753906 19.417969 C 18.773438 19.460938 18.816406 19.496094 18.859375 19.507812 C 18.90625 19.519531 18.960938 19.515625 19.003906 19.496094 C 19.066406 19.460938 19.09375 19.417969 19.140625 19.273438 C 19.183594 19.417969 19.210938 19.460938 19.273438 19.496094 C 19.300781 19.507812 19.332031 19.515625 19.363281 19.515625 C 19.367188 19.515625 19.367188 19.515625 19.371094 19.515625 C 19.472656 19.816406 19.542969 20.117188 19.597656 20.425781 L 19.503906 20.425781 C 19.40625 20.425781 19.324219 20.507812 19.324219 20.601562 L 19.324219 21.261719 C 19.324219 21.492188 19.269531 21.722656 19.160156 21.929688 C 19.03125 22.183594 18.964844 22.464844 18.964844 22.746094 L 18.964844 23.917969 L 18.785156 23.917969 C 18.683594 23.917969 18.605469 24 18.605469 24.09375 C 18.605469 24.191406 18.683594 24.269531 18.785156 24.269531 L 18.964844 24.269531 L 18.964844 27.59375 C 18.964844 27.691406 19.042969 27.769531 19.144531 27.769531 L 22.917969 27.769531 L 22.917969 29.347656 C 22.917969 29.441406 23 29.519531 23.097656 29.519531 L 36.042969 29.519531 C 36.140625 29.519531 36.222656 29.441406 36.222656 29.347656 L 36.222656 27.769531 L 39.996094 27.769531 C 40.097656 27.769531 40.175781 27.691406 40.175781 27.59375 L 40.175781 24.269531 L 40.355469 24.269531 C 40.457031 24.269531 40.535156 24.191406 40.535156 24.09375 C 40.535156 24 40.457031 23.917969 40.355469 23.917969 Z M 36.191406 20.769531 L 37.332031 20.769531 L 37.621094 22.167969 L 35.902344 22.167969 Z M 21.808594 20.769531 L 22.949219 20.769531 L 23.238281 22.167969 L 21.519531 22.167969 Z M 39.390625 23.917969 L 39.152344 23.917969 L 39.253906 23.519531 Z M 38.339844 22.871094 L 39.046875 22.871094 L 38.777344 23.917969 L 38.070312 23.917969 Z M 36.042969 26.71875 L 35.863281 26.71875 L 35.863281 26.371094 L 39.097656 26.371094 L 39.097656 26.71875 Z M 35.503906 26.71875 L 23.636719 26.71875 L 23.636719 25.84375 C 23.636719 25.363281 24.042969 24.96875 24.535156 24.96875 L 34.605469 24.96875 C 35.097656 24.96875 35.503906 25.363281 35.503906 25.84375 Z M 23.097656 26.71875 L 20.042969 26.71875 L 20.042969 26.371094 L 23.277344 26.371094 L 23.277344 26.71875 Z M 33.886719 24.621094 L 33.886719 23.480469 C 33.886719 23.367188 33.847656 23.257812 33.796875 23.167969 L 33.871094 23.097656 L 34.066406 23.273438 L 34.066406 24.621094 Z M 30.46875 24.621094 L 30.46875 23.480469 C 30.46875 23.335938 30.589844 23.21875 30.738281 23.21875 L 33.253906 23.21875 C 33.402344 23.21875 33.523438 23.335938 33.523438 23.480469 L 33.523438 24.621094 Z M 30.054688 24.621094 L 30.109375 24.570312 L 30.109375 24.621094 Z M 25.617188 24.621094 L 25.617188 23.480469 C 25.617188 23.335938 25.738281 23.21875 25.886719 23.21875 L 28.402344 23.21875 C 28.550781 23.21875 28.671875 23.335938 28.671875 23.480469 L 28.671875 24.621094 Z M 33.523438 22.929688 C 33.445312 22.890625 33.351562 22.871094 33.253906 22.871094 L 31.992188 22.871094 L 32.804688 22.132812 L 33.605469 22.855469 Z M 31.460938 22.871094 L 30.738281 22.871094 C 30.5 22.871094 30.292969 22.996094 30.1875 23.1875 L 29.835938 22.871094 L 30.648438 22.132812 Z M 30.109375 23.59375 L 30.109375 24.09375 L 29.570312 24.582031 L 29.03125 24.09375 L 29.03125 23.59375 L 29.570312 23.109375 Z M 28.953125 23.1875 C 28.847656 23 28.640625 22.871094 28.402344 22.871094 L 27.679688 22.871094 L 28.492188 22.132812 L 29.304688 22.871094 Z M 27.148438 22.871094 L 25.886719 22.871094 C 25.78125 22.871094 25.683594 22.894531 25.597656 22.9375 L 25.519531 22.871094 L 26.335938 22.132812 Z M 29.03125 24.570312 L 29.085938 24.621094 L 29.03125 24.621094 Z M 34.066406 22.445312 L 33.871094 22.621094 L 33.070312 21.898438 L 33.542969 21.472656 L 33.800781 21.472656 C 33.949219 21.472656 34.070312 21.589844 34.070312 21.734375 L 34.070312 22.445312 Z M 32.804688 21.65625 L 32.597656 21.46875 L 33.011719 21.46875 Z M 32.074219 21.46875 L 32.546875 21.894531 L 31.726562 22.628906 L 30.914062 21.894531 L 31.386719 21.46875 Z M 30.648438 21.65625 L 30.441406 21.46875 L 30.855469 21.46875 Z M 29.917969 21.46875 L 30.386719 21.894531 L 29.570312 22.628906 L 28.757812 21.894531 L 29.230469 21.46875 Z M 28.492188 21.65625 L 28.285156 21.46875 L 28.699219 21.46875 Z M 27.757812 21.46875 L 28.230469 21.894531 L 27.414062 22.628906 L 26.601562 21.894531 L 27.070312 21.46875 Z M 26.335938 21.65625 L 26.128906 21.46875 L 26.542969 21.46875 Z M 25.601562 21.46875 L 26.074219 21.894531 L 25.257812 22.628906 L 25.074219 22.464844 L 25.074219 21.730469 C 25.074219 21.585938 25.199219 21.46875 25.347656 21.46875 Z M 25.074219 23.273438 L 25.257812 23.109375 L 25.335938 23.183594 C 25.289062 23.273438 25.257812 23.375 25.257812 23.484375 L 25.257812 24.625 L 25.074219 24.625 Z M 24.355469 21.46875 C 24.355469 21.082031 24.679688 20.769531 25.074219 20.769531 L 34.066406 20.769531 C 34.460938 20.769531 34.785156 21.082031 34.785156 21.46875 L 34.785156 24.632812 C 34.726562 24.625 34.667969 24.621094 34.605469 24.621094 L 34.425781 24.621094 L 34.425781 21.730469 C 34.425781 21.394531 34.140625 21.117188 33.796875 21.117188 L 25.347656 21.117188 C 25 21.117188 24.714844 21.394531 24.714844 21.730469 L 24.714844 24.621094 L 24.535156 24.621094 C 24.472656 24.621094 24.414062 24.625 24.355469 24.632812 Z M 19.929688 18.835938 C 19.917969 18.894531 19.90625 18.960938 19.894531 19.023438 C 19.875 18.96875 19.835938 18.929688 19.726562 18.855469 C 19.832031 18.855469 19.890625 18.851562 19.929688 18.835938 Z M 19.746094 19.253906 C 19.796875 19.25 19.839844 19.222656 19.867188 19.183594 C 19.839844 19.347656 19.816406 19.503906 19.796875 19.664062 C 19.753906 19.527344 19.710938 19.386719 19.660156 19.246094 C 19.691406 19.257812 19.71875 19.257812 19.746094 19.253906 Z M 19.324219 22.734375 C 19.324219 22.507812 19.378906 22.273438 19.484375 22.066406 C 19.617188 21.816406 19.683594 21.53125 19.683594 21.25 L 19.683594 20.769531 L 20.042969 20.769531 L 20.042969 21.253906 C 20.042969 21.539062 20.109375 21.820312 20.242188 22.074219 C 20.34375 22.277344 20.402344 22.507812 20.402344 22.738281 L 20.402344 23.917969 L 19.324219 23.917969 Z M 19.324219 27.421875 L 19.324219 24.269531 L 23.996094 24.269531 L 23.996094 24.738281 C 23.863281 24.800781 23.742188 24.886719 23.636719 24.988281 L 23.636719 24.792969 C 23.636719 24.699219 23.558594 24.621094 23.457031 24.621094 L 19.863281 24.621094 C 19.765625 24.621094 19.683594 24.699219 19.683594 24.792969 L 19.683594 25.496094 C 19.683594 25.589844 19.765625 25.671875 19.863281 25.671875 L 23.292969 25.671875 C 23.28125 25.726562 23.277344 25.785156 23.277344 25.84375 L 23.277344 26.019531 L 19.863281 26.019531 C 19.765625 26.019531 19.683594 26.097656 19.683594 26.195312 L 19.683594 26.894531 C 19.683594 26.992188 19.765625 27.070312 19.863281 27.070312 L 22.917969 27.070312 L 22.917969 27.421875 Z M 23.277344 24.96875 L 23.277344 25.320312 L 20.042969 25.320312 L 20.042969 24.96875 Z M 35.863281 29.171875 L 23.277344 29.171875 L 23.277344 27.070312 L 35.863281 27.070312 Z M 39.816406 27.421875 L 36.222656 27.421875 L 36.222656 27.070312 L 39.277344 27.070312 C 39.375 27.070312 39.457031 26.992188 39.457031 26.894531 L 39.457031 26.195312 C 39.457031 26.097656 39.375 26.019531 39.277344 26.019531 L 35.863281 26.019531 L 35.863281 25.84375 C 35.863281 25.785156 35.859375 25.726562 35.847656 25.671875 L 39.277344 25.671875 C 39.375 25.671875 39.457031 25.589844 39.457031 25.496094 L 39.457031 24.792969 C 39.457031 24.699219 39.375 24.621094 39.277344 24.621094 L 35.683594 24.621094 C 35.582031 24.621094 35.503906 24.699219 35.503906 24.792969 L 35.503906 24.988281 C 35.398438 24.886719 35.277344 24.800781 35.144531 24.738281 L 35.144531 24.269531 L 39.816406 24.269531 Z M 35.863281 25.320312 L 35.863281 24.96875 L 39.097656 24.96875 L 39.097656 25.320312 Z M 35.863281 25.320312 " fill-opacity="1" fill-rule="nonzero"/></g><path fill="#000000" d="M 34.246094 12.367188 L 24.894531 12.367188 C 24.796875 12.367188 24.714844 12.445312 24.714844 12.542969 L 24.714844 17.792969 C 24.714844 17.890625 24.796875 17.96875 24.894531 17.96875 L 34.246094 17.96875 C 34.34375 17.96875 34.425781 17.890625 34.425781 17.792969 L 34.425781 12.542969 C 34.425781 12.445312 34.34375 12.367188 34.246094 12.367188 Z M 34.066406 12.714844 L 34.066406 14.984375 L 31.832031 13.445312 C 31.769531 13.402344 31.691406 13.402344 31.628906 13.441406 L 28.222656 15.65625 L 26.433594 14.496094 C 26.375 14.457031 26.296875 14.457031 26.238281 14.492188 L 25.074219 15.171875 L 25.074219 12.714844 Z M 25.074219 15.582031 L 26.328125 14.851562 L 27.898438 15.871094 L 25.203125 17.621094 L 25.074219 17.621094 Z M 25.847656 17.617188 L 28.324219 16.011719 L 31.726562 13.804688 L 34.070312 15.417969 L 34.070312 17.617188 Z M 25.847656 17.617188 " fill-opacity="1" fill-rule="nonzero"/><g clip-path="url(#1daa5a5c6f)"><path fill="#000000" d="M 24.175781 18.667969 L 34.964844 18.667969 C 35.0625 18.667969 35.144531 18.589844 35.144531 18.492188 L 35.144531 11.839844 C 35.144531 11.746094 35.0625 11.667969 34.964844 11.667969 L 24.175781 11.667969 C 24.078125 11.667969 23.996094 11.746094 23.996094 11.839844 L 23.996094 18.492188 C 23.996094 18.589844 24.078125 18.667969 24.175781 18.667969 Z M 24.355469 12.015625 L 34.785156 12.015625 L 34.785156 18.316406 L 24.355469 18.316406 Z M 24.355469 12.015625 " fill-opacity="1" fill-rule="nonzero"/></g><path fill="#000000" d="M 28.132812 14.816406 C 28.625 14.816406 29.03125 14.421875 29.03125 13.941406 C 29.03125 13.460938 28.625 13.066406 28.132812 13.066406 C 27.636719 13.066406 27.234375 13.460938 27.234375 13.941406 C 27.234375 14.421875 27.636719 14.816406 28.132812 14.816406 Z M 28.132812 13.417969 C 28.429688 13.417969 28.671875 13.652344 28.671875 13.941406 C 28.671875 14.230469 28.429688 14.46875 28.132812 14.46875 C 27.835938 14.46875 27.59375 14.230469 27.59375 13.941406 C 27.59375 13.652344 27.835938 13.417969 28.132812 13.417969 Z M 28.132812 13.417969 " fill-opacity="1" fill-rule="nonzero"/></svg>