<svg xmlns="http://www.w3.org/2000/svg" xmlns:xlink="http://www.w3.org/1999/xlink" width="82" zoomAndPan="magnify" viewBox="0 0 61.5 45.749999" height="61" preserveAspectRatio="xMidYMid meet" version="1.0"><defs><clipPath id="f52ad741a0"><path d="M 16.886719 26 L 22 26 L 22 29.59375 L 16.886719 29.59375 Z M 16.886719 26 " clip-rule="nonzero"/></clipPath><clipPath id="0d5143544f"><path d="M 20 26 L 28 26 L 28 29.59375 L 20 29.59375 Z M 20 26 " clip-rule="nonzero"/></clipPath><clipPath id="5a2cfe9009"><path d="M 26 26 L 33 26 L 33 29.59375 L 26 29.59375 Z M 26 26 " clip-rule="nonzero"/></clipPath><clipPath id="208fd7181e"><path d="M 31 26 L 36.230469 26 L 36.230469 29.59375 L 31 29.59375 Z M 31 26 " clip-rule="nonzero"/></clipPath><clipPath id="d621f002a0"><path d="M 16.886719 24 L 21 24 L 21 28 L 16.886719 28 Z M 16.886719 24 " clip-rule="nonzero"/></clipPath><clipPath id="0f57b6a06c"><path d="M 16.886719 22 L 20 22 L 20 26 L 16.886719 26 Z M 16.886719 22 " clip-rule="nonzero"/></clipPath><clipPath id="367f606df9"><path d="M 16.886719 19 L 22 19 L 22 23 L 16.886719 23 Z M 16.886719 19 " clip-rule="nonzero"/></clipPath><clipPath id="1565fb2124"><path d="M 29 11.742188 L 35 11.742188 L 35 17 L 29 17 Z M 29 11.742188 " clip-rule="nonzero"/></clipPath><clipPath id="c3ce300c7d"><path d="M 16.886719 17 L 21 17 L 21 21 L 16.886719 21 Z M 16.886719 17 " clip-rule="nonzero"/></clipPath><clipPath id="042d25b5db"><path d="M 16.886719 15 L 22 15 L 22 19 L 16.886719 19 Z M 16.886719 15 " clip-rule="nonzero"/></clipPath></defs><g clip-path="url(#f52ad741a0)"><path fill="#000000" d="M 21.066406 29.59375 L 17.28125 29.59375 C 17.070312 29.59375 16.902344 29.425781 16.902344 29.21875 L 16.902344 26.953125 C 16.902344 26.746094 17.070312 26.578125 17.28125 26.578125 L 21.066406 26.578125 C 21.277344 26.578125 21.445312 26.746094 21.445312 26.953125 L 21.445312 29.21875 C 21.445312 29.425781 21.277344 29.59375 21.066406 29.59375 Z M 17.660156 28.839844 L 20.6875 28.839844 L 20.6875 27.332031 L 17.660156 27.332031 Z M 17.660156 28.839844 " fill-opacity="1" fill-rule="nonzero"/></g><g clip-path="url(#0d5143544f)"><path fill="#000000" d="M 26.75 29.59375 L 21.066406 29.59375 C 20.859375 29.59375 20.6875 29.425781 20.6875 29.21875 L 20.6875 26.953125 C 20.6875 26.746094 20.859375 26.578125 21.066406 26.578125 L 26.75 26.578125 C 26.957031 26.578125 27.128906 26.746094 27.128906 26.953125 L 27.128906 29.21875 C 27.128906 29.425781 26.957031 29.59375 26.75 29.59375 Z M 21.445312 28.839844 L 26.371094 28.839844 L 26.371094 27.332031 L 21.445312 27.332031 Z M 21.445312 28.839844 " fill-opacity="1" fill-rule="nonzero"/></g><g clip-path="url(#5a2cfe9009)"><path fill="#000000" d="M 31.671875 29.59375 L 26.75 29.59375 C 26.539062 29.59375 26.371094 29.425781 26.371094 29.21875 L 26.371094 26.953125 C 26.371094 26.746094 26.539062 26.578125 26.75 26.578125 L 31.671875 26.578125 C 31.882812 26.578125 32.050781 26.746094 32.050781 26.953125 L 32.050781 29.21875 C 32.050781 29.425781 31.882812 29.59375 31.671875 29.59375 Z M 27.128906 28.839844 L 31.292969 28.839844 L 31.292969 27.332031 L 27.128906 27.332031 Z M 27.128906 28.839844 " fill-opacity="1" fill-rule="nonzero"/></g><g clip-path="url(#208fd7181e)"><path fill="#000000" d="M 35.839844 29.59375 L 31.671875 29.59375 C 31.464844 29.59375 31.292969 29.425781 31.292969 29.21875 L 31.292969 26.953125 C 31.292969 26.746094 31.464844 26.578125 31.671875 26.578125 L 35.839844 26.578125 C 36.046875 26.578125 36.21875 26.746094 36.21875 26.953125 L 36.21875 29.21875 C 36.21875 29.425781 36.046875 29.59375 35.839844 29.59375 Z M 32.050781 28.839844 L 35.460938 28.839844 L 35.460938 27.332031 L 32.050781 27.332031 Z M 32.050781 28.839844 " fill-opacity="1" fill-rule="nonzero"/></g><g clip-path="url(#d621f002a0)"><path fill="#000000" d="M 20.308594 27.332031 L 17.28125 27.332031 C 17.070312 27.332031 16.902344 27.164062 16.902344 26.953125 L 16.902344 24.691406 C 16.902344 24.484375 17.070312 24.316406 17.28125 24.316406 L 20.308594 24.316406 C 20.519531 24.316406 20.6875 24.484375 20.6875 24.691406 L 20.6875 26.953125 C 20.6875 27.164062 20.519531 27.332031 20.308594 27.332031 Z M 17.660156 26.578125 L 19.929688 26.578125 L 19.929688 25.070312 L 17.660156 25.070312 Z M 17.660156 26.578125 " fill-opacity="1" fill-rule="nonzero"/></g><path fill="#000000" d="M 24.855469 27.332031 L 20.308594 27.332031 C 20.101562 27.332031 19.929688 27.164062 19.929688 26.953125 L 19.929688 24.691406 C 19.929688 24.484375 20.101562 24.316406 20.308594 24.316406 L 24.855469 24.316406 C 25.0625 24.316406 25.234375 24.484375 25.234375 24.691406 L 25.234375 26.953125 C 25.234375 27.164062 25.0625 27.332031 24.855469 27.332031 Z M 20.6875 26.578125 L 24.476562 26.578125 L 24.476562 25.070312 L 20.6875 25.070312 Z M 20.6875 26.578125 " fill-opacity="1" fill-rule="nonzero"/><path fill="#000000" d="M 29.777344 27.332031 L 24.855469 27.332031 C 24.644531 27.332031 24.476562 27.164062 24.476562 26.953125 L 24.476562 24.691406 C 24.476562 24.484375 24.644531 24.316406 24.855469 24.316406 L 29.777344 24.316406 C 29.988281 24.316406 30.15625 24.484375 30.15625 24.691406 L 30.15625 26.953125 C 30.15625 27.164062 29.988281 27.332031 29.777344 27.332031 Z M 25.234375 26.578125 L 29.398438 26.578125 L 29.398438 25.070312 L 25.234375 25.070312 Z M 25.234375 26.578125 " fill-opacity="1" fill-rule="nonzero"/><path fill="#000000" d="M 33.945312 27.332031 L 29.777344 27.332031 C 29.570312 27.332031 29.398438 27.164062 29.398438 26.953125 L 29.398438 24.691406 C 29.398438 24.484375 29.570312 24.316406 29.777344 24.316406 L 33.945312 24.316406 C 34.152344 24.316406 34.324219 24.484375 34.324219 24.691406 L 34.324219 26.953125 C 34.324219 27.164062 34.152344 27.332031 33.945312 27.332031 Z M 30.15625 26.578125 L 33.566406 26.578125 L 33.566406 25.070312 L 30.15625 25.070312 Z M 30.15625 26.578125 " fill-opacity="1" fill-rule="nonzero"/><g clip-path="url(#0f57b6a06c)"><path fill="#000000" d="M 19.550781 25.070312 L 17.28125 25.070312 C 17.070312 25.070312 16.902344 24.898438 16.902344 24.691406 L 16.902344 22.429688 C 16.902344 22.222656 17.070312 22.050781 17.28125 22.050781 L 19.550781 22.050781 C 19.761719 22.050781 19.929688 22.222656 19.929688 22.429688 L 19.929688 24.691406 C 19.929688 24.898438 19.761719 25.070312 19.550781 25.070312 Z M 17.660156 24.316406 L 19.171875 24.316406 L 19.171875 22.804688 L 17.660156 22.804688 Z M 17.660156 24.316406 " fill-opacity="1" fill-rule="nonzero"/></g><path fill="#000000" d="M 22.960938 25.070312 L 19.550781 25.070312 C 19.34375 25.070312 19.171875 24.898438 19.171875 24.691406 L 19.171875 22.429688 C 19.171875 22.222656 19.34375 22.050781 19.550781 22.050781 L 22.960938 22.050781 C 23.171875 22.050781 23.339844 22.222656 23.339844 22.429688 L 23.339844 24.691406 C 23.339844 24.898438 23.171875 25.070312 22.960938 25.070312 Z M 19.929688 24.316406 L 22.582031 24.316406 L 22.582031 22.804688 L 19.929688 22.804688 Z M 19.929688 24.316406 " fill-opacity="1" fill-rule="nonzero"/><path fill="#000000" d="M 27.882812 25.070312 L 22.960938 25.070312 C 22.75 25.070312 22.582031 24.898438 22.582031 24.691406 L 22.582031 22.429688 C 22.582031 22.222656 22.75 22.050781 22.960938 22.050781 L 27.882812 22.050781 C 28.09375 22.050781 28.261719 22.222656 28.261719 22.429688 L 28.261719 24.691406 C 28.261719 24.898438 28.09375 25.070312 27.882812 25.070312 Z M 23.339844 24.316406 L 27.507812 24.316406 L 27.507812 22.804688 L 23.339844 22.804688 Z M 23.339844 24.316406 " fill-opacity="1" fill-rule="nonzero"/><path fill="#000000" d="M 32.050781 25.070312 L 27.882812 25.070312 C 27.675781 25.070312 27.507812 24.898438 27.507812 24.691406 L 27.507812 22.429688 C 27.507812 22.222656 27.675781 22.050781 27.882812 22.050781 L 32.050781 22.050781 C 32.261719 22.050781 32.429688 22.222656 32.429688 22.429688 L 32.429688 24.691406 C 32.429688 24.898438 32.261719 25.070312 32.050781 25.070312 Z M 28.261719 24.316406 L 31.671875 24.316406 L 31.671875 22.804688 L 28.261719 22.804688 Z M 28.261719 24.316406 " fill-opacity="1" fill-rule="nonzero"/><g clip-path="url(#367f606df9)"><path fill="#000000" d="M 20.6875 22.804688 L 17.28125 22.804688 C 17.070312 22.804688 16.902344 22.636719 16.902344 22.429688 L 16.902344 20.164062 C 16.902344 19.957031 17.070312 19.789062 17.28125 19.789062 L 20.6875 19.789062 C 20.898438 19.789062 21.066406 19.957031 21.066406 20.164062 L 21.066406 22.429688 C 21.066406 22.636719 20.898438 22.804688 20.6875 22.804688 Z M 17.660156 22.050781 L 20.308594 22.050781 L 20.308594 20.542969 L 17.660156 20.542969 Z M 17.660156 22.050781 " fill-opacity="1" fill-rule="nonzero"/></g><path fill="#000000" d="M 23.339844 22.804688 L 20.6875 22.804688 C 20.480469 22.804688 20.308594 22.636719 20.308594 22.429688 L 20.308594 20.164062 C 20.308594 19.957031 20.480469 19.789062 20.6875 19.789062 L 23.339844 19.789062 C 23.550781 19.789062 23.71875 19.957031 23.71875 20.164062 L 23.71875 22.429688 C 23.71875 22.636719 23.550781 22.804688 23.339844 22.804688 Z M 21.066406 22.050781 L 22.960938 22.050781 L 22.960938 20.542969 L 21.066406 20.542969 Z M 21.066406 22.050781 " fill-opacity="1" fill-rule="nonzero"/><path fill="#000000" d="M 26.371094 22.804688 L 23.339844 22.804688 C 23.128906 22.804688 22.960938 22.636719 22.960938 22.429688 L 22.960938 20.164062 C 22.960938 19.957031 23.128906 19.789062 23.339844 19.789062 L 25.09375 19.789062 C 25.304688 19.789062 25.472656 19.957031 25.472656 20.164062 C 25.472656 20.375 25.304688 20.542969 25.09375 20.542969 L 23.71875 20.542969 L 23.71875 22.050781 L 25.992188 22.050781 L 25.992188 20.96875 C 25.992188 20.761719 26.160156 20.59375 26.371094 20.59375 C 26.578125 20.59375 26.75 20.761719 26.75 20.96875 L 26.75 22.429688 C 26.75 22.636719 26.578125 22.804688 26.371094 22.804688 Z M 26.371094 22.804688 " fill-opacity="1" fill-rule="nonzero"/><path fill="#000000" d="M 30.15625 22.804688 L 26.371094 22.804688 C 26.160156 22.804688 25.992188 22.636719 25.992188 22.429688 L 25.992188 20.96875 C 25.992188 20.761719 26.160156 20.59375 26.371094 20.59375 C 26.578125 20.59375 26.75 20.761719 26.75 20.96875 L 26.75 22.050781 L 29.777344 22.050781 L 29.777344 20.542969 L 28.226562 20.542969 C 28.019531 20.542969 27.847656 20.375 27.847656 20.164062 C 27.847656 19.957031 28.019531 19.789062 28.226562 19.789062 L 30.15625 19.789062 C 30.367188 19.789062 30.535156 19.957031 30.535156 20.164062 L 30.535156 22.429688 C 30.535156 22.636719 30.367188 22.804688 30.15625 22.804688 Z M 30.15625 22.804688 " fill-opacity="1" fill-rule="nonzero"/><path fill="#000000" d="M 25.09375 21.050781 C 24.71875 20.679688 24.613281 20.128906 24.816406 19.644531 L 26.871094 14.84375 C 27.105469 14.296875 27.816406 14.160156 28.234375 14.578125 L 31.5625 17.890625 C 31.980469 18.308594 31.84375 19.011719 31.304688 19.246094 L 26.511719 21.320312 C 26.027344 21.53125 25.46875 21.425781 25.09375 21.050781 Z M 27.625 15.089844 C 27.609375 15.09375 27.582031 15.105469 27.566406 15.136719 L 25.515625 19.941406 C 25.429688 20.140625 25.476562 20.363281 25.628906 20.515625 C 25.78125 20.671875 26.011719 20.714844 26.210938 20.628906 L 31 18.554688 C 31.035156 18.542969 31.042969 18.515625 31.046875 18.496094 C 31.050781 18.476562 31.050781 18.449219 31.027344 18.425781 L 27.699219 15.113281 C 27.679688 15.09375 27.652344 15.085938 27.625 15.089844 Z M 27.625 15.089844 " fill-opacity="1" fill-rule="nonzero"/><g clip-path="url(#1565fb2124)"><path fill="#000000" d="M 31.125 16.390625 L 29.785156 15.054688 C 29.636719 14.90625 29.636719 14.667969 29.785156 14.523438 L 32.058594 12.253906 C 32.578125 11.742188 33.417969 11.742188 33.933594 12.253906 C 34.453125 12.769531 34.453125 13.605469 33.933594 14.121094 L 31.660156 16.390625 C 31.511719 16.535156 31.269531 16.535156 31.125 16.390625 Z M 30.585938 14.789062 L 31.390625 15.589844 L 33.398438 13.589844 C 33.621094 13.367188 33.621094 13.007812 33.398438 12.789062 C 33.179688 12.566406 32.816406 12.566406 32.597656 12.789062 Z M 30.585938 14.789062 " fill-opacity="1" fill-rule="nonzero"/></g><path fill="#000000" d="M 28.558594 17.570312 C 28.410156 17.421875 28.410156 17.183594 28.558594 17.035156 L 30.433594 15.167969 C 30.582031 15.023438 30.820312 15.023438 30.96875 15.167969 C 31.117188 15.316406 31.117188 15.554688 30.96875 15.703125 L 29.09375 17.570312 C 28.945312 17.714844 28.707031 17.714844 28.558594 17.570312 Z M 28.558594 17.570312 " fill-opacity="1" fill-rule="nonzero"/><g clip-path="url(#c3ce300c7d)"><path fill="#000000" d="M 19.929688 20.542969 L 17.28125 20.542969 C 17.070312 20.542969 16.902344 20.375 16.902344 20.164062 L 16.902344 17.902344 C 16.902344 17.695312 17.070312 17.527344 17.28125 17.527344 L 19.929688 17.527344 C 20.140625 17.527344 20.308594 17.695312 20.308594 17.902344 L 20.308594 20.164062 C 20.308594 20.375 20.140625 20.542969 19.929688 20.542969 Z M 17.660156 19.789062 L 19.550781 19.789062 L 19.550781 18.28125 L 17.660156 18.28125 Z M 17.660156 19.789062 " fill-opacity="1" fill-rule="nonzero"/></g><path fill="#000000" d="M 23.339844 20.542969 L 19.929688 20.542969 C 19.722656 20.542969 19.550781 20.375 19.550781 20.164062 L 19.550781 17.902344 C 19.550781 17.695312 19.722656 17.527344 19.929688 17.527344 L 23.339844 17.527344 C 23.550781 17.527344 23.71875 17.695312 23.71875 17.902344 L 23.71875 20.164062 C 23.71875 20.375 23.550781 20.542969 23.339844 20.542969 Z M 20.308594 19.789062 L 22.960938 19.789062 L 22.960938 18.28125 L 20.308594 18.28125 Z M 20.308594 19.789062 " fill-opacity="1" fill-rule="nonzero"/><g clip-path="url(#042d25b5db)"><path fill="#000000" d="M 20.6875 18.28125 L 17.28125 18.28125 C 17.070312 18.28125 16.902344 18.113281 16.902344 17.902344 L 16.902344 15.640625 C 16.902344 15.433594 17.070312 15.261719 17.28125 15.261719 L 20.6875 15.261719 C 20.898438 15.261719 21.066406 15.433594 21.066406 15.640625 L 21.066406 17.902344 C 21.066406 18.109375 20.898438 18.28125 20.6875 18.28125 Z M 17.660156 17.527344 L 20.308594 17.527344 L 20.308594 16.015625 L 17.660156 16.015625 Z M 17.660156 17.527344 " fill-opacity="1" fill-rule="nonzero"/></g></svg>