<svg xmlns="http://www.w3.org/2000/svg" xmlns:xlink="http://www.w3.org/1999/xlink" width="82" zoomAndPan="magnify" viewBox="0 0 61.5 45.749999" height="61" preserveAspectRatio="xMidYMid meet" version="1.0"><defs><clipPath id="3873aa7c09"><path d="M 22 8.394531 L 34 8.394531 L 34 15 L 22 15 Z M 22 8.394531 " clip-rule="nonzero"/></clipPath><clipPath id="c0ff80c4f9"><path d="M 26 8.394531 L 27 8.394531 L 27 10 L 26 10 Z M 26 8.394531 " clip-rule="nonzero"/></clipPath><clipPath id="f1258a4c9f"><path d="M 20 16 L 36 16 L 36 26.246094 L 20 26.246094 Z M 20 16 " clip-rule="nonzero"/></clipPath></defs><g clip-path="url(#3873aa7c09)"><path fill="#000000" d="M 22.496094 14.5625 C 22.734375 14.804688 23.066406 14.957031 23.433594 14.957031 L 32.363281 14.957031 C 33.085938 14.957031 33.675781 14.367188 33.675781 13.644531 L 33.675781 9.707031 C 33.675781 8.980469 33.085938 8.394531 32.363281 8.394531 L 27.675781 8.394531 C 27.53125 8.394531 27.414062 8.511719 27.414062 8.65625 C 27.414062 8.800781 27.53125 8.917969 27.675781 8.917969 L 32.363281 8.917969 C 32.796875 8.917969 33.148438 9.269531 33.148438 9.707031 L 33.148438 12.671875 L 32.042969 11.207031 C 31.511719 10.507812 30.445312 10.515625 29.929688 11.238281 L 29.242188 12.195312 L 27.683594 10.28125 C 27.15625 9.632812 26.167969 9.636719 25.644531 10.285156 L 22.699219 13.925781 C 22.664062 13.839844 22.648438 13.742188 22.648438 13.644531 L 22.648438 9.707031 C 22.648438 9.269531 23 8.917969 23.433594 8.917969 L 25.585938 8.917969 C 25.734375 8.917969 25.851562 8.800781 25.851562 8.65625 C 25.851562 8.511719 25.734375 8.394531 25.585938 8.394531 L 23.433594 8.394531 C 22.710938 8.394531 22.121094 8.980469 22.121094 9.707031 L 22.121094 13.644531 C 22.121094 13.992188 22.257812 14.308594 22.476562 14.542969 C 22.484375 14.546875 22.488281 14.554688 22.496094 14.5625 Z M 30.355469 11.542969 C 30.664062 11.109375 31.304688 11.105469 31.625 11.527344 L 33.148438 13.539062 L 33.148438 13.644531 C 33.148438 14.078125 32.796875 14.433594 32.363281 14.433594 L 31.0625 14.433594 L 29.585938 12.617188 Z M 26.050781 10.613281 C 26.367188 10.226562 26.960938 10.222656 27.277344 10.613281 L 30.386719 14.433594 L 23.433594 14.433594 C 23.292969 14.433594 23.160156 14.394531 23.046875 14.328125 Z M 26.050781 10.613281 " fill-opacity="1" fill-rule="nonzero"/></g><g clip-path="url(#c0ff80c4f9)"><path fill="#000000" d="M 26.894531 8.761719 C 26.894531 8.832031 26.871094 8.894531 26.816406 8.945312 C 26.765625 8.996094 26.703125 9.023438 26.632812 9.023438 C 26.558594 9.023438 26.5 8.996094 26.445312 8.945312 C 26.394531 8.894531 26.371094 8.832031 26.371094 8.761719 C 26.371094 8.6875 26.394531 8.625 26.445312 8.574219 C 26.5 8.523438 26.558594 8.5 26.632812 8.5 C 26.703125 8.5 26.765625 8.523438 26.816406 8.574219 C 26.871094 8.625 26.894531 8.6875 26.894531 8.761719 Z M 26.894531 8.761719 " fill-opacity="1" fill-rule="nonzero"/></g><g clip-path="url(#f1258a4c9f)"><path fill="#000000" d="M 34.460938 18.394531 L 34.460938 18.195312 C 34.460938 17.277344 33.714844 16.53125 32.800781 16.53125 L 29.296875 16.53125 C 28.710938 16.53125 28.195312 16.839844 27.898438 17.300781 C 27.601562 16.839844 27.085938 16.53125 26.496094 16.53125 L 22.996094 16.53125 C 22.078125 16.53125 21.332031 17.277344 21.332031 18.195312 L 21.332031 18.394531 C 20.59375 18.515625 20.019531 19.160156 20.019531 19.945312 L 20.019531 22.308594 C 20.019531 23.613281 21.082031 24.671875 22.382812 24.671875 L 22.382812 25.335938 C 22.382812 25.839844 22.792969 26.246094 23.296875 26.246094 C 23.644531 26.246094 23.957031 26.054688 24.109375 25.742188 L 24.648438 24.671875 L 26.046875 24.671875 C 26.191406 24.671875 26.308594 24.554688 26.308594 24.410156 C 26.308594 24.265625 26.191406 24.148438 26.046875 24.148438 L 22.382812 24.148438 C 21.371094 24.148438 20.546875 23.324219 20.546875 22.308594 L 20.546875 19.945312 C 20.546875 19.359375 21.019531 18.894531 21.597656 18.894531 C 22.175781 18.894531 22.648438 19.367188 22.648438 19.945312 L 22.648438 20.996094 C 22.648438 21.71875 23.234375 22.308594 23.960938 22.308594 L 31.835938 22.308594 C 32.5625 22.308594 33.148438 21.71875 33.148438 20.996094 L 33.148438 19.945312 C 33.148438 19.359375 33.625 18.894531 34.199219 18.894531 C 34.777344 18.894531 35.25 19.367188 35.25 19.945312 L 35.25 22.308594 C 35.25 23.324219 34.425781 24.148438 33.414062 24.148438 L 28.148438 24.148438 C 28 24.148438 27.882812 24.265625 27.882812 24.410156 C 27.882812 24.554688 28 24.671875 28.148438 24.671875 L 31.148438 24.671875 L 31.683594 25.742188 C 31.839844 26.054688 32.152344 26.246094 32.5 26.246094 C 33.003906 26.246094 33.414062 25.839844 33.414062 25.335938 L 33.414062 24.671875 C 34.714844 24.671875 35.773438 23.613281 35.773438 22.308594 L 35.773438 19.945312 C 35.773438 19.167969 35.207031 18.519531 34.460938 18.394531 Z M 23.640625 25.507812 C 23.574219 25.640625 23.441406 25.722656 23.296875 25.722656 C 23.082031 25.722656 22.910156 25.550781 22.910156 25.335938 L 22.910156 24.671875 L 24.058594 24.671875 Z M 21.859375 18.394531 L 21.859375 18.195312 C 21.859375 17.566406 22.371094 17.058594 22.996094 17.058594 L 26.496094 17.058594 C 27.125 17.058594 27.636719 17.566406 27.636719 18.195312 L 27.636719 20.472656 C 27.417969 20.304688 27.144531 20.207031 26.847656 20.207031 L 23.171875 20.207031 L 23.171875 19.945312 C 23.171875 19.167969 22.601562 18.519531 21.859375 18.394531 Z M 23.171875 20.996094 L 23.171875 20.734375 L 26.847656 20.734375 C 27.28125 20.734375 27.636719 21.085938 27.636719 21.519531 L 27.636719 21.785156 L 23.960938 21.785156 C 23.523438 21.785156 23.171875 21.429688 23.171875 20.996094 Z M 31.835938 21.785156 L 28.160156 21.785156 L 28.160156 21.519531 C 28.160156 21.085938 28.515625 20.734375 28.949219 20.734375 L 32.625 20.734375 L 32.625 20.996094 C 32.625 21.429688 32.269531 21.785156 31.835938 21.785156 Z M 32.625 19.945312 L 32.625 20.207031 L 28.949219 20.207031 C 28.652344 20.207031 28.378906 20.304688 28.160156 20.472656 L 28.160156 18.195312 C 28.160156 17.566406 28.671875 17.058594 29.296875 17.058594 L 32.800781 17.058594 C 33.425781 17.058594 33.9375 17.566406 33.9375 18.195312 L 33.9375 18.394531 C 33.195312 18.515625 32.625 19.160156 32.625 19.945312 Z M 32.886719 25.335938 C 32.886719 25.550781 32.714844 25.722656 32.5 25.722656 C 32.351562 25.722656 32.21875 25.640625 32.15625 25.507812 L 31.738281 24.671875 L 32.886719 24.671875 Z M 32.886719 25.335938 " fill-opacity="1" fill-rule="nonzero"/></g><path fill="#000000" d="M 27.359375 24.410156 C 27.359375 24.480469 27.332031 24.542969 27.28125 24.59375 C 27.230469 24.648438 27.167969 24.671875 27.097656 24.671875 C 27.023438 24.671875 26.960938 24.648438 26.910156 24.59375 C 26.859375 24.542969 26.835938 24.480469 26.835938 24.410156 C 26.835938 24.335938 26.859375 24.273438 26.910156 24.222656 C 26.960938 24.171875 27.023438 24.148438 27.097656 24.148438 C 27.167969 24.148438 27.230469 24.171875 27.28125 24.222656 C 27.332031 24.273438 27.359375 24.335938 27.359375 24.410156 Z M 27.359375 24.410156 " fill-opacity="1" fill-rule="nonzero"/></svg>