<svg xmlns="http://www.w3.org/2000/svg" xmlns:xlink="http://www.w3.org/1999/xlink" width="82" zoomAndPan="magnify" viewBox="0 0 61.5 45.749999" height="61" preserveAspectRatio="xMidYMid meet" version="1.2"><defs><clipPath id="989f82ab6c"><path d="M 29.90625 15.757812 L 31.394531 15.757812 L 31.394531 17 L 29.90625 17 Z M 29.90625 15.757812 "/></clipPath><clipPath id="3f99180727"><path d="M 8.25 2.386719 L 53.628906 2.386719 L 53.628906 43.304688 L 8.25 43.304688 Z M 8.25 2.386719 "/></clipPath></defs><g id="dc170b7b0c"><g clip-rule="nonzero" clip-path="url(#989f82ab6c)"><path style=" stroke:none;fill-rule:nonzero;fill:#ffffff;fill-opacity:1;" d="M 31.09375 16.351562 C 31.09375 16.515625 31.035156 16.652344 30.917969 16.769531 C 30.804688 16.886719 30.664062 16.945312 30.5 16.945312 C 30.335938 16.945312 30.195312 16.886719 30.082031 16.769531 C 29.964844 16.652344 29.90625 16.515625 29.90625 16.351562 C 29.90625 16.1875 29.964844 16.046875 30.082031 15.929688 C 30.195312 15.816406 30.335938 15.757812 30.5 15.757812 C 30.664062 15.757812 30.804688 15.816406 30.917969 15.929688 C 31.035156 16.046875 31.09375 16.1875 31.09375 16.351562 Z M 31.09375 16.351562 "/></g><g clip-rule="nonzero" clip-path="url(#3f99180727)"><path style=" stroke:none;fill-rule:nonzero;fill:#000000;fill-opacity:1;" d="M 50.410156 2.476562 L 17.804688 2.476562 C 16.03125 2.476562 14.585938 3.9375 14.585938 5.734375 L 14.585938 10.605469 L 10.535156 10.605469 C 9.273438 10.605469 8.25 11.644531 8.25 12.917969 L 8.25 40.832031 C 8.25 42.105469 9.273438 43.144531 10.535156 43.144531 L 21.261719 43.144531 C 22.519531 43.144531 23.542969 42.105469 23.542969 40.832031 L 23.542969 32.042969 L 27.488281 32.042969 L 27.488281 35.515625 C 25.414062 36.078125 23.878906 37.988281 23.878906 40.261719 C 23.878906 40.558594 24.117188 40.800781 24.414062 40.800781 L 43.804688 40.800781 C 44.097656 40.800781 44.335938 40.558594 44.335938 40.261719 C 44.335938 37.988281 42.800781 36.078125 40.726562 35.519531 L 40.726562 32.042969 L 50.410156 32.042969 C 52.183594 32.042969 53.628906 30.582031 53.628906 28.785156 L 53.628906 5.734375 C 53.628906 3.9375 52.183594 2.476562 50.410156 2.476562 Z M 43.234375 39.722656 L 24.980469 39.722656 C 25.242188 37.859375 26.828125 36.421875 28.738281 36.421875 L 39.476562 36.421875 C 41.390625 36.421875 42.976562 37.859375 43.234375 39.722656 Z M 28.554688 35.347656 L 28.554688 32.042969 L 39.664062 32.042969 L 39.664062 35.347656 C 34.546875 35.347656 42.027344 35.347656 28.554688 35.347656 Z M 21.261719 42.066406 L 10.535156 42.066406 C 9.859375 42.066406 9.3125 41.511719 9.3125 40.832031 L 9.3125 12.917969 C 9.3125 12.234375 9.859375 11.679688 10.535156 11.679688 C 11.035156 11.679688 20.757812 11.679688 21.261719 11.679688 C 21.933594 11.679688 22.480469 12.234375 22.480469 12.917969 C 22.480469 12.925781 22.480469 39.730469 22.480469 40.832031 C 22.480469 41.511719 21.933594 42.066406 21.261719 42.066406 Z M 34.109375 30.074219 C 33.929688 30.074219 33.785156 29.929688 33.785156 29.75 C 33.785156 29.570312 33.929688 29.421875 34.109375 29.421875 C 34.285156 29.421875 34.429688 29.570312 34.429688 29.75 C 34.429688 29.929688 34.285156 30.074219 34.109375 30.074219 Z M 21.261719 10.605469 L 19.125 10.605469 L 19.125 7.070312 L 49.097656 7.070312 L 49.097656 27.457031 L 23.542969 27.457031 L 23.542969 12.917969 C 23.542969 11.644531 22.519531 10.605469 21.261719 10.605469 Z M 23.542969 28.535156 L 33.429688 28.535156 C 33.011719 28.777344 32.722656 29.226562 32.722656 29.75 C 32.722656 30.273438 33.011719 30.726562 33.433594 30.96875 L 23.542969 30.96875 Z M 52.566406 28.785156 C 52.566406 29.988281 51.597656 30.96875 50.410156 30.96875 L 34.785156 30.96875 C 35.207031 30.726562 35.496094 30.273438 35.496094 29.75 C 35.496094 29.226562 35.207031 28.777344 34.789062 28.535156 L 49.628906 28.535156 C 49.921875 28.535156 50.160156 28.292969 50.160156 27.996094 L 50.160156 6.53125 C 50.160156 6.234375 49.921875 5.992188 49.628906 5.992188 L 18.59375 5.992188 C 18.300781 5.992188 18.0625 6.234375 18.0625 6.53125 L 18.0625 10.605469 L 15.648438 10.605469 L 15.648438 5.734375 C 15.648438 4.53125 16.617188 3.554688 17.804688 3.554688 L 50.410156 3.554688 C 51.597656 3.554688 52.566406 4.53125 52.566406 5.734375 Z M 52.566406 28.785156 "/></g><path style=" stroke:none;fill-rule:nonzero;fill:#000000;fill-opacity:1;" d="M 20.929688 12.714844 L 10.863281 12.714844 C 10.570312 12.714844 10.332031 12.953125 10.332031 13.25 L 10.332031 17.242188 C 10.332031 17.539062 10.570312 17.78125 10.863281 17.78125 L 20.929688 17.78125 C 21.222656 17.78125 21.460938 17.539062 21.460938 17.242188 L 21.460938 13.25 C 21.460938 12.953125 21.222656 12.714844 20.929688 12.714844 Z M 20.398438 16.703125 L 11.398438 16.703125 L 11.398438 13.789062 L 20.398438 13.789062 Z M 20.398438 16.703125 "/><path style=" stroke:none;fill-rule:nonzero;fill:#000000;fill-opacity:1;" d="M 20.929688 19.816406 L 10.863281 19.816406 C 10.570312 19.816406 10.332031 20.058594 10.332031 20.355469 L 10.332031 24.347656 C 10.332031 24.644531 10.570312 24.882812 10.863281 24.882812 L 20.929688 24.882812 C 21.222656 24.882812 21.460938 24.644531 21.460938 24.347656 L 21.460938 20.355469 C 21.460938 20.058594 21.222656 19.816406 20.929688 19.816406 Z M 20.398438 23.808594 L 11.398438 23.808594 L 11.398438 20.894531 L 20.398438 20.894531 Z M 20.398438 23.808594 "/><path style=" stroke:none;fill-rule:nonzero;fill:#000000;fill-opacity:1;" d="M 15.898438 27.449219 C 14.460938 27.449219 13.289062 28.632812 13.289062 30.085938 C 13.289062 31.539062 14.460938 32.722656 15.898438 32.722656 C 17.332031 32.722656 18.503906 31.539062 18.503906 30.085938 C 18.503906 28.632812 17.332031 27.449219 15.898438 27.449219 Z M 15.898438 31.648438 C 15.046875 31.648438 14.355469 30.945312 14.355469 30.085938 C 14.355469 29.226562 15.046875 28.527344 15.898438 28.527344 C 16.746094 28.527344 17.4375 29.226562 17.4375 30.085938 C 17.4375 30.945312 16.746094 31.648438 15.898438 31.648438 Z M 15.898438 31.648438 "/><path style=" stroke:none;fill-rule:nonzero;fill:#000000;fill-opacity:1;" d="M 15.898438 35.101562 C 14.703125 35.101562 13.734375 36.082031 13.734375 37.289062 C 13.734375 38.496094 14.703125 39.476562 15.898438 39.476562 C 17.089844 39.476562 18.058594 38.496094 18.058594 37.289062 C 18.058594 36.082031 17.089844 35.101562 15.898438 35.101562 Z M 15.898438 38.402344 C 15.289062 38.402344 14.796875 37.902344 14.796875 37.289062 C 14.796875 36.675781 15.289062 36.175781 15.898438 36.175781 C 16.503906 36.175781 16.996094 36.675781 16.996094 37.289062 C 16.996094 37.902344 16.503906 38.402344 15.898438 38.402344 Z M 15.898438 38.402344 "/></g></svg>