<svg xmlns="http://www.w3.org/2000/svg" xmlns:xlink="http://www.w3.org/1999/xlink" width="82" zoomAndPan="magnify" viewBox="0 0 61.5 45.749999" height="61" preserveAspectRatio="xMidYMid meet" version="1.2"><defs><clipPath id="6e50e08144"><path d="M 29.90625 15.757812 L 31.394531 15.757812 L 31.394531 17 L 29.90625 17 Z M 29.90625 15.757812 "/></clipPath><clipPath id="5c3d1639be"><path d="M 8.59375 4.597656 L 53.230469 4.597656 L 53.230469 40.308594 L 8.59375 40.308594 Z M 8.59375 4.597656 "/></clipPath></defs><g id="ca7cef5997"><g clip-rule="nonzero" clip-path="url(#6e50e08144)"><path style=" stroke:none;fill-rule:nonzero;fill:#ffffff;fill-opacity:1;" d="M 31.09375 16.351562 C 31.09375 16.515625 31.035156 16.652344 30.917969 16.769531 C 30.804688 16.886719 30.664062 16.945312 30.5 16.945312 C 30.335938 16.945312 30.195312 16.886719 30.082031 16.769531 C 29.964844 16.652344 29.90625 16.515625 29.90625 16.351562 C 29.90625 16.1875 29.964844 16.046875 30.082031 15.929688 C 30.195312 15.816406 30.335938 15.757812 30.5 15.757812 C 30.664062 15.757812 30.804688 15.816406 30.917969 15.929688 C 31.035156 16.046875 31.09375 16.1875 31.09375 16.351562 Z M 31.09375 16.351562 "/></g><g clip-rule="nonzero" clip-path="url(#5c3d1639be)"><path style=" stroke:none;fill-rule:evenodd;fill:#000002;fill-opacity:1;" d="M 20.296875 15.71875 L 20.296875 11.707031 C 19.957031 11.597656 19.589844 11.519531 19.226562 11.492188 L 19.226562 15.929688 C 19.589844 15.902344 19.957031 15.824219 20.296875 15.71875 Z M 16.429688 22.8125 C 12.277344 22.8125 8.59375 18.5625 8.59375 13.722656 C 8.59375 9.394531 11.808594 4.609375 16.429688 4.609375 C 16.796875 4.609375 17.1875 4.636719 17.554688 4.714844 L 36.699219 8.011719 L 41.164062 6.761719 C 41.347656 6.710938 41.53125 6.734375 41.6875 6.867188 C 41.816406 6.976562 41.921875 7.132812 41.921875 7.347656 L 41.921875 20.101562 C 41.921875 20.289062 41.816406 20.472656 41.660156 20.582031 C 41.558594 20.660156 41.453125 20.6875 41.320312 20.6875 C 41.269531 20.6875 41.191406 20.6875 41.140625 20.660156 L 36.90625 19.277344 L 23.691406 21.644531 C 22.410156 25.496094 24.136719 32.296875 24.160156 32.378906 C 24.160156 32.429688 24.160156 32.484375 24.160156 32.539062 C 24.160156 35.777344 22.152344 37.878906 22.046875 37.957031 C 21.941406 38.0625 21.785156 38.144531 21.628906 38.144531 L 21.417969 38.144531 L 21.417969 39.683594 C 21.417969 40.03125 21.160156 40.296875 20.820312 40.296875 L 19.09375 40.296875 C 18.753906 40.296875 18.496094 40.03125 18.496094 39.683594 L 18.496094 38.144531 L 18.257812 38.144531 C 17.945312 38.144531 17.683594 37.851562 17.683594 37.53125 L 17.683594 22.707031 L 17.554688 22.707031 C 17.1875 22.785156 16.824219 22.8125 16.429688 22.8125 Z M 22.386719 21.855469 L 18.859375 22.492188 L 18.859375 36.921875 L 21.367188 36.921875 C 21.8125 36.417969 22.960938 34.796875 22.988281 32.617188 C 22.777344 31.820312 21.394531 25.894531 22.386719 21.855469 Z M 16.429688 5.804688 C 12.617188 5.804688 9.796875 9.976562 9.796875 13.722656 C 9.796875 17.445312 12.644531 21.617188 16.429688 21.617188 C 16.746094 21.617188 17.058594 21.589844 17.371094 21.535156 L 23.144531 20.5 L 23.167969 20.5 L 36.230469 18.1875 L 36.230469 9.152344 L 17.371094 5.886719 C 17.058594 5.832031 16.746094 5.804688 16.429688 5.804688 Z M 37.429688 18.1875 L 40.722656 19.277344 L 40.722656 8.117188 L 37.429688 9.046875 Z M 21.496094 12.238281 L 21.496094 15.1875 C 22.074219 14.789062 22.410156 14.257812 22.410156 13.722656 C 22.410156 13.167969 22.074219 12.636719 21.496094 12.238281 Z M 18.625 17.179688 C 15.832031 17.179688 13.664062 15.664062 13.664062 13.722656 C 13.664062 11.757812 15.832031 10.242188 18.625 10.242188 C 21.417969 10.242188 23.613281 11.757812 23.613281 13.722656 C 23.613281 15.664062 21.417969 17.179688 18.625 17.179688 Z M 18.050781 11.492188 C 17.660156 11.519531 17.292969 11.597656 16.953125 11.707031 L 16.953125 15.71875 C 17.292969 15.824219 17.660156 15.902344 18.050781 15.929688 Z M 15.777344 12.238281 C 15.203125 12.636719 14.835938 13.167969 14.835938 13.722656 C 14.835938 14.257812 15.203125 14.789062 15.777344 15.1875 Z M 20.21875 38.144531 L 19.667969 38.144531 L 19.667969 39.074219 L 20.21875 39.074219 Z M 49.394531 11.066406 C 48.738281 11.066406 47.980469 10.855469 47.199219 10.296875 C 45.527344 9.101562 44.402344 10.191406 44.378906 10.242188 C 44.144531 10.457031 43.75 10.457031 43.542969 10.21875 C 43.308594 9.976562 43.308594 9.605469 43.542969 9.367188 C 44.167969 8.730469 45.894531 7.90625 47.878906 9.3125 C 49.550781 10.484375 50.648438 9.417969 50.699219 9.367188 C 50.933594 9.128906 51.300781 9.128906 51.535156 9.367188 C 51.769531 9.605469 51.769531 10.003906 51.535156 10.242188 C 51.144531 10.617188 50.386719 11.066406 49.394531 11.066406 Z M 50.515625 14.972656 C 49.785156 14.972656 48.921875 14.789062 47.957031 14.230469 C 45.816406 12.980469 44.351562 14.175781 44.324219 14.175781 C 44.066406 14.390625 43.699219 14.363281 43.488281 14.097656 C 43.28125 13.832031 43.332031 13.457031 43.566406 13.246094 C 43.671875 13.167969 45.710938 11.519531 48.558594 13.191406 C 50.699219 14.441406 52.1875 13.246094 52.1875 13.246094 C 52.449219 13.035156 52.8125 13.085938 53.023438 13.324219 C 53.230469 13.589844 53.207031 13.964844 52.945312 14.175781 C 52.894531 14.230469 51.953125 14.972656 50.515625 14.972656 Z M 49.394531 18.878906 C 48.738281 18.878906 47.980469 18.695312 47.199219 18.109375 C 45.527344 16.941406 44.402344 18.003906 44.378906 18.054688 C 44.144531 18.296875 43.75 18.296875 43.542969 18.054688 C 43.308594 17.816406 43.308594 17.417969 43.542969 17.207031 C 44.167969 16.566406 45.894531 15.71875 47.878906 17.125 C 49.496094 18.269531 50.59375 17.3125 50.699219 17.179688 C 50.933594 16.964844 51.300781 16.964844 51.535156 17.207031 C 51.769531 17.445312 51.769531 17.816406 51.535156 18.054688 C 51.144531 18.429688 50.386719 18.878906 49.394531 18.878906 Z M 21.027344 28.738281 L 20.035156 28.738281 C 19.722656 28.738281 19.460938 28.472656 19.460938 28.152344 C 19.460938 27.808594 19.722656 27.542969 20.035156 27.542969 L 21.027344 27.542969 C 21.339844 27.542969 21.601562 27.808594 21.601562 28.152344 C 21.601562 28.472656 21.339844 28.738281 21.027344 28.738281 Z M 21.027344 31.074219 L 20.035156 31.074219 C 19.722656 31.074219 19.460938 30.808594 19.460938 30.492188 C 19.460938 30.144531 19.722656 29.878906 20.035156 29.878906 L 21.027344 29.878906 C 21.339844 29.878906 21.601562 30.144531 21.601562 30.492188 C 21.601562 30.808594 21.339844 31.074219 21.027344 31.074219 Z M 21.027344 31.074219 "/></g></g></svg>