<svg xmlns="http://www.w3.org/2000/svg" xmlns:xlink="http://www.w3.org/1999/xlink" width="82" zoomAndPan="magnify" viewBox="0 0 61.5 45.749999" height="61" preserveAspectRatio="xMidYMid meet" version="1.2"><defs><clipPath id="0822637bbc"><path d="M 29.90625 15.757812 L 31.394531 15.757812 L 31.394531 17 L 29.90625 17 Z M 29.90625 15.757812 "/></clipPath><clipPath id="30328a5346"><path d="M 16.449219 1.707031 L 45.460938 1.707031 L 45.460938 41.136719 L 16.449219 41.136719 Z M 16.449219 1.707031 "/></clipPath></defs><g id="2f1eb69e60"><g clip-rule="nonzero" clip-path="url(#0822637bbc)"><path style=" stroke:none;fill-rule:nonzero;fill:#ffffff;fill-opacity:1;" d="M 31.09375 16.351562 C 31.09375 16.515625 31.035156 16.652344 30.917969 16.769531 C 30.804688 16.886719 30.664062 16.945312 30.5 16.945312 C 30.335938 16.945312 30.195312 16.886719 30.082031 16.769531 C 29.964844 16.652344 29.90625 16.515625 29.90625 16.351562 C 29.90625 16.1875 29.964844 16.046875 30.082031 15.929688 C 30.195312 15.816406 30.335938 15.757812 30.5 15.757812 C 30.664062 15.757812 30.804688 15.816406 30.917969 15.929688 C 31.035156 16.046875 31.09375 16.1875 31.09375 16.351562 Z M 31.09375 16.351562 "/></g><g clip-rule="nonzero" clip-path="url(#30328a5346)"><path style=" stroke:none;fill-rule:nonzero;fill:#000000;fill-opacity:1;" d="M 45.230469 22.808594 C 43.957031 21.035156 43.070312 19.023438 42.207031 17.019531 C 40.558594 13.191406 39.402344 9.152344 38.582031 5.0625 C 38.480469 4.574219 38.410156 4.074219 38.292969 3.589844 C 38.234375 3.339844 38.144531 3.089844 37.980469 2.894531 C 37.484375 2.308594 36.507812 2.28125 35.8125 2.1875 C 34.992188 2.078125 34.171875 1.933594 33.34375 1.859375 C 33.1875 1.84375 33.027344 1.832031 32.863281 1.824219 C 32.164062 1.714844 31.390625 1.707031 30.6875 1.804688 C 29.992188 1.902344 29.257812 1.796875 28.566406 1.859375 C 27.738281 1.933594 26.917969 2.078125 26.097656 2.1875 C 25.402344 2.28125 24.429688 2.308594 23.929688 2.894531 C 23.765625 3.089844 23.675781 3.339844 23.617188 3.589844 C 23.503906 4.074219 23.429688 4.574219 23.332031 5.0625 C 22.507812 9.152344 21.351562 13.191406 19.703125 17.019531 C 18.84375 19.023438 17.953125 21.035156 16.679688 22.808594 C 16.460938 23.117188 16.792969 23.476562 17.109375 23.441406 C 17.179688 23.453125 17.25 23.453125 17.304688 23.457031 C 17.695312 23.472656 18.078125 23.410156 18.46875 23.445312 C 19.523438 23.546875 20.210938 24.160156 21.046875 24.730469 C 21.367188 24.953125 21.726562 25.132812 22.117188 25.167969 C 22.308594 25.183594 22.507812 25.171875 22.710938 25.148438 C 22.707031 25.402344 22.707031 25.660156 22.710938 25.914062 C 22.730469 26.757812 22.84375 27.597656 22.777344 28.4375 C 21.714844 29.011719 21.808594 31.003906 23.207031 31.039062 C 24.109375 31.0625 24.453125 30.167969 24.324219 29.378906 C 24.265625 29.03125 24.109375 28.660156 23.769531 28.523438 C 23.695312 28.492188 23.613281 28.472656 23.527344 28.46875 C 23.597656 27.617188 23.488281 26.765625 23.457031 25.914062 C 23.445312 25.628906 23.449219 25.332031 23.457031 25.039062 C 23.527344 25.027344 23.59375 25.019531 23.664062 25.011719 C 24.832031 24.894531 26 24.949219 27.164062 24.851562 C 27.199219 24.851562 27.234375 24.84375 27.269531 24.832031 C 27.304688 25.351562 27.390625 25.863281 27.554688 26.359375 C 27.851562 27.238281 28.433594 27.964844 28.835938 28.785156 C 28.464844 28.992188 28.152344 29.300781 28.101562 29.753906 C 28.027344 30.402344 28.496094 30.785156 28.898438 31.203125 C 29.082031 31.390625 29.21875 31.546875 29.046875 31.78125 C 28.878906 32.007812 28.636719 32.175781 28.457031 32.394531 C 28.089844 32.855469 27.964844 33.488281 28.269531 34.011719 C 28.488281 34.386719 29.164062 34.777344 29.117188 35.265625 C 29.089844 35.597656 28.644531 35.828125 28.390625 35.964844 C 27.445312 36.480469 26.339844 36.761719 25.335938 37.132812 C 24.105469 37.585938 22.835938 37.976562 21.621094 38.46875 C 21.007812 38.71875 19.773438 39.222656 20.144531 40.117188 C 20.371094 40.652344 21.058594 40.820312 21.5625 40.917969 C 22.402344 41.082031 23.269531 41.113281 24.121094 41.125 C 25.15625 41.136719 26.191406 41.101562 27.226562 41.050781 C 27.625 41.03125 28.027344 40.996094 28.425781 40.941406 C 29.253906 40.90625 30.078125 40.898438 30.914062 40.925781 C 31.890625 40.957031 32.867188 40.96875 33.84375 40.984375 C 34.121094 41.015625 34.402344 41.035156 34.683594 41.050781 C 35.71875 41.101562 36.753906 41.136719 37.789062 41.125 C 38.640625 41.113281 39.507812 41.082031 40.347656 40.917969 C 40.851562 40.820312 41.539062 40.652344 41.765625 40.117188 C 42.136719 39.226562 40.902344 38.71875 40.289062 38.46875 C 39.074219 37.976562 37.808594 37.589844 36.574219 37.132812 C 35.570312 36.761719 34.464844 36.480469 33.519531 35.964844 C 33.265625 35.828125 32.824219 35.597656 32.792969 35.265625 C 32.746094 34.777344 33.421875 34.386719 33.640625 34.011719 C 33.945312 33.488281 33.820312 32.855469 33.453125 32.394531 C 33.273438 32.175781 33.03125 32.007812 32.863281 31.78125 C 32.691406 31.546875 32.828125 31.390625 33.011719 31.203125 C 33.414062 30.785156 33.882812 30.402344 33.8125 29.753906 C 33.757812 29.300781 33.445312 28.992188 33.074219 28.785156 C 33.476562 27.964844 34.058594 27.238281 34.355469 26.359375 C 34.523438 25.863281 34.605469 25.351562 34.640625 24.832031 C 34.675781 24.84375 34.710938 24.851562 34.746094 24.851562 C 35.910156 24.949219 37.082031 24.898438 38.246094 25.011719 C 38.75 25.0625 39.289062 25.210938 39.792969 25.167969 C 40.183594 25.136719 40.542969 24.953125 40.867188 24.730469 C 41.699219 24.160156 42.386719 23.546875 43.441406 23.445312 C 43.832031 23.410156 44.214844 23.472656 44.605469 23.457031 C 44.660156 23.453125 44.730469 23.453125 44.800781 23.441406 C 45.117188 23.476562 45.453125 23.117188 45.230469 22.808594 Z M 22.71875 24.273438 C 22.503906 24.308594 22.28125 24.363281 22.066406 24.328125 C 21.644531 24.261719 21.269531 23.9375 20.933594 23.695312 C 20.414062 23.316406 19.859375 23.023438 19.261719 22.867188 C 19.664062 22.835938 20.074219 22.832031 20.472656 22.824219 C 21.039062 22.816406 21.613281 22.84375 22.171875 22.945312 C 22.382812 22.980469 22.582031 23.03125 22.78125 23.089844 C 22.71875 23.480469 22.722656 23.878906 22.71875 24.273438 Z M 20.171875 22.003906 C 19.617188 22.019531 19.050781 22.027344 18.5 22.113281 C 18.355469 22.132812 18.214844 22.171875 18.082031 22.214844 C 18.835938 20.976562 19.453125 19.65625 20.035156 18.324219 C 20.800781 16.566406 21.507812 14.789062 22.105469 12.964844 C 22.722656 11.074219 23.246094 9.152344 23.6875 7.214844 C 23.898438 6.289062 24.089844 5.355469 24.261719 4.421875 C 24.316406 4.140625 24.332031 3.761719 24.476562 3.503906 C 24.628906 3.226562 25.007812 3.1875 25.285156 3.125 C 26.128906 2.945312 27.003906 2.835938 27.859375 2.726562 C 27.757812 3.960938 27.757812 5.210938 27.652344 6.445312 C 27.53125 7.839844 27.378906 9.230469 27.164062 10.613281 C 26.75 13.28125 26.125 15.921875 25.269531 18.480469 C 25.027344 19.210938 24.757812 19.929688 24.488281 20.652344 C 24.347656 21.023438 24.210938 21.394531 24.074219 21.769531 C 23.984375 22.019531 23.875 22.273438 23.828125 22.535156 C 23.664062 22.488281 23.496094 22.421875 23.308594 22.363281 C 22.296875 22.042969 21.226562 21.976562 20.171875 22.003906 Z M 23.488281 29.035156 C 23.75 29.03125 23.808594 29.316406 23.828125 29.542969 C 23.867188 30.003906 23.578125 30.558594 23.054688 30.398438 C 22.441406 30.214844 22.613281 29.332031 23.105469 29.109375 C 23.230469 29.085938 23.347656 29.035156 23.488281 29.035156 Z M 27.25 24.066406 C 27.222656 24.058594 27.191406 24.050781 27.164062 24.050781 C 26.019531 23.949219 24.808594 24.058594 23.664062 24.164062 C 23.597656 24.171875 23.53125 24.179688 23.464844 24.1875 C 23.460938 23.886719 23.449219 23.589844 23.410156 23.300781 C 23.511719 23.332031 23.613281 23.367188 23.714844 23.402344 C 24.59375 23.695312 25.421875 23.160156 26.277344 23.003906 C 26.613281 22.945312 26.964844 22.890625 27.3125 22.820312 C 27.28125 23.234375 27.253906 23.648438 27.25 24.066406 Z M 32.941406 33.597656 C 32.632812 34.113281 32.085938 34.375 31.964844 35.019531 C 31.789062 35.917969 32.609375 36.519531 33.304688 36.855469 C 34.25 37.3125 35.28125 37.609375 36.265625 37.976562 C 37.433594 38.40625 38.617188 38.796875 39.78125 39.238281 C 40.195312 39.394531 40.558594 39.601562 40.941406 39.816406 C 40.945312 39.816406 40.949219 39.820312 40.953125 39.820312 C 40.925781 39.84375 40.886719 39.878906 40.914062 39.859375 C 40.519531 40.109375 39.820312 40.1875 39.28125 40.230469 C 38.519531 40.296875 37.753906 40.304688 36.988281 40.296875 C 36.660156 40.242188 36.296875 40.253906 36.003906 40.214844 C 35.453125 40.140625 34.910156 40.085938 34.355469 40.082031 C 33.183594 40.070312 32.007812 40.042969 30.835938 40.050781 C 29.699219 40.054688 28.574219 40.109375 27.445312 40.210938 C 27.445312 40.210938 27.445312 40.210938 27.441406 40.210938 C 26.695312 40.234375 25.945312 40.277344 25.195312 40.292969 C 24.339844 40.308594 23.480469 40.304688 22.628906 40.230469 C 22.089844 40.1875 21.390625 40.109375 20.996094 39.859375 C 21.023438 39.878906 20.984375 39.84375 20.960938 39.820312 C 20.964844 39.820312 20.964844 39.816406 20.972656 39.816406 C 21.355469 39.601562 21.714844 39.394531 22.128906 39.238281 C 23.292969 38.796875 24.480469 38.40625 25.648438 37.976562 C 26.628906 37.609375 27.660156 37.3125 28.605469 36.855469 C 29.304688 36.519531 30.121094 35.917969 29.949219 35.019531 C 29.824219 34.375 29.28125 34.113281 28.96875 33.597656 C 28.625 33.027344 29.460938 32.546875 29.71875 32.132812 C 29.757812 32.074219 29.789062 32.011719 29.8125 31.949219 C 30.113281 32.082031 30.46875 32.125 30.773438 32.128906 C 31.117188 32.132812 31.464844 32.085938 31.800781 32.011719 C 31.890625 31.996094 31.996094 31.976562 32.097656 31.949219 C 32.121094 32.011719 32.152344 32.074219 32.191406 32.136719 C 32.449219 32.546875 33.285156 33.027344 32.941406 33.597656 Z M 32.484375 30.664062 C 32.320312 30.835938 32.183594 31.03125 32.105469 31.238281 C 32.03125 31.257812 31.953125 31.28125 31.871094 31.304688 C 31.597656 31.382812 31.320312 31.441406 31.039062 31.464844 C 30.5625 31.503906 30.203125 31.40625 29.808594 31.246094 C 29.730469 31.039062 29.59375 30.839844 29.425781 30.664062 C 29.25 30.480469 28.886719 30.242188 28.863281 29.960938 C 28.804688 29.210938 30.550781 29.496094 30.90625 29.527344 C 31.390625 29.574219 31.894531 29.347656 32.363281 29.425781 C 32.621094 29.464844 33.074219 29.628906 33.046875 29.960938 C 33.023438 30.242188 32.660156 30.480469 32.484375 30.664062 Z M 33.566406 26.304688 C 33.214844 27.117188 32.621094 27.789062 32.230469 28.578125 C 32.050781 28.621094 31.886719 28.714844 31.695312 28.765625 C 31.417969 28.835938 31.125 28.835938 30.839844 28.808594 C 30.433594 28.765625 30.050781 28.628906 29.660156 28.539062 C 29.269531 27.765625 28.6875 27.105469 28.347656 26.304688 C 28.046875 25.605469 27.949219 24.839844 27.886719 24.089844 C 27.859375 23.707031 27.839844 23.324219 27.816406 22.945312 C 27.804688 22.699219 27.804688 22.695312 28.039062 22.621094 C 28.238281 22.558594 28.453125 22.464844 28.660156 22.441406 C 28.871094 22.421875 29.101562 22.425781 29.316406 22.417969 C 29.777344 22.394531 30.238281 22.386719 30.699219 22.394531 C 31.703125 22.410156 32.707031 22.488281 33.703125 22.636719 C 33.820312 22.65625 33.9375 22.675781 34.054688 22.699219 C 34.074219 22.707031 34.089844 22.710938 34.109375 22.714844 C 34.027344 23.894531 34.027344 25.21875 33.566406 26.304688 Z M 33.601562 21.773438 C 32.566406 21.644531 31.519531 21.578125 30.476562 21.582031 C 29.429688 21.589844 28.386719 21.667969 27.355469 21.847656 C 26.773438 21.949219 26.054688 22.058594 25.441406 22.3125 C 25.191406 22.382812 24.945312 22.464844 24.691406 22.546875 C 24.6875 22.546875 24.683594 22.546875 24.679688 22.550781 C 24.855469 22.152344 24.960938 21.695312 25.101562 21.316406 C 25.351562 20.644531 25.601562 19.976562 25.832031 19.296875 C 26.277344 17.996094 26.660156 16.671875 26.988281 15.332031 C 27.644531 12.65625 28.09375 9.910156 28.289062 7.160156 C 28.394531 5.683594 28.527344 4.140625 28.417969 2.65625 C 29.160156 2.578125 29.910156 2.613281 30.660156 2.617188 C 31.503906 2.625 32.371094 2.6875 33.214844 2.632812 C 33.304688 2.640625 33.398438 2.648438 33.492188 2.65625 C 33.382812 4.140625 33.515625 5.683594 33.621094 7.160156 C 33.816406 9.910156 34.265625 12.65625 34.921875 15.332031 C 35.25 16.671875 35.632812 17.996094 36.078125 19.296875 C 36.308594 19.976562 36.5625 20.644531 36.808594 21.316406 C 36.949219 21.695312 37.054688 22.152344 37.230469 22.550781 C 37.226562 22.546875 37.222656 22.546875 37.21875 22.546875 C 36.765625 22.398438 36.332031 22.25 35.859375 22.171875 C 35.695312 22.144531 35.527344 22.125 35.359375 22.105469 C 34.777344 21.957031 34.175781 21.847656 33.601562 21.773438 Z M 40.976562 23.695312 C 40.644531 23.9375 40.265625 24.261719 39.84375 24.328125 C 39.605469 24.367188 39.359375 24.292969 39.121094 24.261719 C 38.832031 24.226562 38.539062 24.191406 38.246094 24.164062 C 37.101562 24.058594 35.890625 23.949219 34.746094 24.050781 C 34.71875 24.050781 34.691406 24.058594 34.660156 24.066406 C 34.65625 23.652344 34.632812 23.234375 34.601562 22.828125 C 34.796875 22.875 34.996094 22.929688 35.191406 22.980469 C 35.671875 23.109375 36.175781 23.148438 36.648438 23.296875 C 37.152344 23.453125 37.683594 23.574219 38.195312 23.402344 C 38.710938 23.230469 39.199219 23.039062 39.738281 22.945312 C 40.296875 22.84375 40.871094 22.816406 41.4375 22.824219 C 41.835938 22.832031 42.246094 22.835938 42.648438 22.867188 C 42.050781 23.023438 41.5 23.316406 40.976562 23.695312 Z M 43.410156 22.113281 C 42.859375 22.027344 42.296875 22.019531 41.738281 22.003906 C 40.683594 21.976562 39.617188 22.042969 38.601562 22.363281 C 38.414062 22.421875 38.246094 22.488281 38.082031 22.535156 C 38.039062 22.273438 37.925781 22.019531 37.835938 21.769531 C 37.699219 21.394531 37.5625 21.023438 37.421875 20.652344 C 37.152344 19.929688 36.886719 19.210938 36.640625 18.480469 C 35.785156 15.921875 35.160156 13.28125 34.746094 10.613281 C 34.53125 9.230469 34.378906 7.839844 34.257812 6.445312 C 34.152344 5.210938 34.15625 3.960938 34.050781 2.726562 C 34.910156 2.835938 35.78125 2.945312 36.625 3.125 C 36.90625 3.1875 37.28125 3.226562 37.433594 3.503906 C 37.578125 3.761719 37.59375 4.140625 37.648438 4.421875 C 37.824219 5.355469 38.015625 6.289062 38.226562 7.214844 C 38.664062 9.152344 39.1875 11.074219 39.804688 12.964844 C 40.402344 14.789062 41.109375 16.566406 41.875 18.324219 C 42.457031 19.65625 43.074219 20.976562 43.832031 22.214844 C 43.695312 22.171875 43.554688 22.132812 43.410156 22.113281 Z M 43.410156 22.113281 "/></g></g></svg>