<svg xmlns="http://www.w3.org/2000/svg" xmlns:xlink="http://www.w3.org/1999/xlink" width="82" zoomAndPan="magnify" viewBox="0 0 61.5 45.749999" height="61" preserveAspectRatio="xMidYMid meet" version="1.2"><defs><clipPath id="024c412f1a"><path d="M 29.90625 15.757812 L 31.394531 15.757812 L 31.394531 17 L 29.90625 17 Z M 29.90625 15.757812 "/></clipPath><clipPath id="ed98600a94"><path d="M 7.105469 8.859375 L 53.972656 8.859375 L 53.972656 36.386719 L 7.105469 36.386719 Z M 7.105469 8.859375 "/></clipPath></defs><g id="c6e595017d"><g clip-rule="nonzero" clip-path="url(#024c412f1a)"><path style=" stroke:none;fill-rule:nonzero;fill:#ffffff;fill-opacity:1;" d="M 31.09375 16.351562 C 31.09375 16.515625 31.035156 16.652344 30.917969 16.769531 C 30.804688 16.886719 30.664062 16.945312 30.5 16.945312 C 30.335938 16.945312 30.195312 16.886719 30.082031 16.769531 C 29.964844 16.652344 29.90625 16.515625 29.90625 16.351562 C 29.90625 16.1875 29.964844 16.046875 30.082031 15.929688 C 30.195312 15.816406 30.335938 15.757812 30.5 15.757812 C 30.664062 15.757812 30.804688 15.816406 30.917969 15.929688 C 31.035156 16.046875 31.09375 16.1875 31.09375 16.351562 Z M 31.09375 16.351562 "/></g><g clip-rule="nonzero" clip-path="url(#ed98600a94)"><path style=" stroke:none;fill-rule:nonzero;fill:#000000;fill-opacity:1;" d="M 34.769531 34.113281 L 34.769531 34.824219 L 26.164062 34.824219 L 26.164062 34.113281 L 7.515625 34.113281 L 7.515625 34.398438 C 7.515625 34.824219 7.65625 35.390625 8.089844 35.816406 C 8.519531 36.242188 8.949219 36.386719 9.523438 36.386719 L 51.554688 36.386719 C 51.984375 36.386719 52.558594 36.242188 52.988281 35.816406 C 53.421875 35.390625 53.5625 34.964844 53.5625 34.398438 L 53.5625 34.113281 Z M 13.828125 35.390625 L 11.816406 35.390625 L 11.816406 35.109375 L 13.828125 35.109375 Z M 12.964844 33.40625 L 47.96875 33.40625 C 48.257812 33.40625 48.542969 33.261719 48.828125 32.980469 C 49.117188 32.695312 49.261719 32.414062 49.261719 32.128906 L 49.261719 10.136719 C 49.261719 9.851562 49.117188 9.566406 48.828125 9.285156 C 48.542969 9 48.257812 8.859375 47.96875 8.859375 L 12.964844 8.859375 C 12.679688 8.859375 12.390625 9 12.105469 9.285156 C 11.816406 9.425781 11.816406 9.710938 11.816406 10.136719 L 11.816406 32.269531 C 11.816406 32.554688 11.960938 32.835938 12.25 33.121094 C 12.390625 33.261719 12.679688 33.40625 12.964844 33.40625 Z M 30.46875 9.425781 C 30.753906 9.425781 30.898438 9.566406 30.898438 9.851562 C 30.898438 10.136719 30.753906 10.277344 30.46875 10.277344 C 30.179688 10.277344 30.039062 10.136719 30.039062 9.851562 C 30.039062 9.566406 30.179688 9.425781 30.46875 9.425781 Z M 13.683594 10.84375 L 47.25 10.84375 L 47.25 31.5625 L 13.683594 31.5625 Z M 13.683594 10.84375 "/></g></g></svg>