<svg xmlns="http://www.w3.org/2000/svg" xmlns:xlink="http://www.w3.org/1999/xlink" width="82" zoomAndPan="magnify" viewBox="0 0 61.5 45.749999" height="61" preserveAspectRatio="xMidYMid meet" version="1.2"><defs><clipPath id="d5e5ec52d4"><path d="M 29.90625 15.757812 L 31.394531 15.757812 L 31.394531 17 L 29.90625 17 Z M 29.90625 15.757812 "/></clipPath><clipPath id="11d316fb33"><path d="M 5.09375 11 L 14 11 L 14 31 L 5.09375 31 Z M 5.09375 11 "/></clipPath><clipPath id="d284a49dc2"><path d="M 45 11 L 55.683594 11 L 55.683594 31 L 45 31 Z M 45 11 "/></clipPath><clipPath id="3de342fb23"><path d="M 11 28 L 16 28 L 16 37.332031 L 11 37.332031 Z M 11 28 "/></clipPath><clipPath id="604f549368"><path d="M 18 28 L 23 28 L 23 37.332031 L 18 37.332031 Z M 18 28 "/></clipPath><clipPath id="4e2a1c7720"><path d="M 25 28 L 30 28 L 30 37.332031 L 25 37.332031 Z M 25 28 "/></clipPath><clipPath id="713f480236"><path d="M 33 28 L 38 28 L 38 37.332031 L 33 37.332031 Z M 33 28 "/></clipPath><clipPath id="fc3827f138"><path d="M 40 28 L 45 28 L 45 37.332031 L 40 37.332031 Z M 40 28 "/></clipPath><clipPath id="091de4b50f"><path d="M 17 4.597656 L 19 4.597656 L 19 19 L 17 19 Z M 17 4.597656 "/></clipPath></defs><g id="b196dccfb8"><g clip-rule="nonzero" clip-path="url(#d5e5ec52d4)"><path style=" stroke:none;fill-rule:nonzero;fill:#ffffff;fill-opacity:1;" d="M 31.09375 16.351562 C 31.09375 16.515625 31.035156 16.652344 30.917969 16.769531 C 30.804688 16.886719 30.664062 16.945312 30.5 16.945312 C 30.335938 16.945312 30.195312 16.886719 30.082031 16.769531 C 29.964844 16.652344 29.90625 16.515625 29.90625 16.351562 C 29.90625 16.1875 29.964844 16.046875 30.082031 15.929688 C 30.195312 15.816406 30.335938 15.757812 30.5 15.757812 C 30.664062 15.757812 30.804688 15.816406 30.917969 15.929688 C 31.035156 16.046875 31.09375 16.1875 31.09375 16.351562 Z M 31.09375 16.351562 "/></g><path style=" stroke:none;fill-rule:nonzero;fill:#000000;fill-opacity:1;" d="M 47.121094 30.445312 L 45.640625 30.445312 C 45.355469 30.445312 45.125 30.214844 45.125 29.929688 C 45.125 29.648438 45.355469 29.417969 45.640625 29.417969 L 47.121094 29.417969 C 49.910156 29.417969 52.179688 27.15625 52.179688 24.378906 L 52.179688 14.167969 C 52.179688 13.035156 51.253906 12.113281 50.113281 12.113281 L 26.679688 12.113281 C 26.394531 12.113281 26.164062 11.882812 26.164062 11.601562 C 26.164062 11.316406 26.394531 11.085938 26.679688 11.085938 L 50.113281 11.085938 C 51.820312 11.085938 53.210938 12.46875 53.210938 14.167969 L 53.210938 24.378906 C 53.210938 27.722656 50.480469 30.445312 47.121094 30.445312 Z M 47.121094 30.445312 "/><g clip-rule="nonzero" clip-path="url(#11d316fb33)"><path style=" stroke:none;fill-rule:nonzero;fill:#000000;fill-opacity:1;" d="M 13.082031 30.445312 L 11.1875 30.445312 C 7.828125 30.445312 5.09375 27.722656 5.09375 24.378906 L 5.09375 14.167969 C 5.09375 12.46875 6.484375 11.085938 8.191406 11.085938 L 9.371094 11.085938 C 9.65625 11.085938 9.886719 11.316406 9.886719 11.597656 C 9.886719 11.882812 9.65625 12.113281 9.371094 12.113281 L 8.191406 12.113281 C 7.054688 12.113281 6.125 13.035156 6.125 14.167969 L 6.125 24.378906 C 6.125 27.15625 8.394531 29.417969 11.1875 29.417969 L 13.082031 29.417969 C 13.363281 29.417969 13.59375 29.648438 13.59375 29.929688 C 13.597656 30.214844 13.363281 30.445312 13.082031 30.445312 Z M 13.082031 30.445312 "/></g><g clip-rule="nonzero" clip-path="url(#d284a49dc2)"><path style=" stroke:none;fill-rule:nonzero;fill:#000000;fill-opacity:1;" d="M 52.585938 11.085938 L 50.527344 11.085938 C 50.242188 11.085938 50.011719 11.316406 50.011719 11.597656 C 50.011719 11.882812 50.242188 12.113281 50.527344 12.113281 C 51.664062 12.113281 52.59375 13.035156 52.59375 14.167969 L 52.59375 24.378906 C 52.59375 27.15625 50.324219 29.417969 47.53125 29.417969 L 46.050781 29.417969 C 45.765625 29.417969 45.535156 29.648438 45.535156 29.929688 C 45.535156 30.214844 45.765625 30.441406 46.050781 30.441406 L 47.53125 30.441406 C 47.683594 30.441406 47.832031 30.4375 47.976562 30.425781 C 48.019531 30.4375 48.066406 30.441406 48.113281 30.441406 L 49.59375 30.441406 C 52.953125 30.441406 55.683594 27.722656 55.683594 24.378906 L 55.683594 14.167969 C 55.683594 12.46875 54.296875 11.085938 52.585938 11.085938 Z M 52.585938 11.085938 "/></g><path style=" stroke:none;fill-rule:nonzero;fill:#000000;fill-opacity:1;" d="M 47.699219 25.828125 L 10.609375 25.828125 C 10.324219 25.828125 10.09375 25.597656 10.09375 25.316406 C 10.09375 25.03125 10.324219 24.804688 10.609375 24.804688 L 47.699219 24.804688 C 47.984375 24.804688 48.214844 25.03125 48.214844 25.316406 C 48.214844 25.597656 47.984375 25.828125 47.699219 25.828125 Z M 47.699219 25.828125 "/><path style=" stroke:none;fill-rule:nonzero;fill:#000000;fill-opacity:1;" d="M 47.699219 15.570312 L 43.785156 15.570312 C 43.5 15.570312 43.269531 15.339844 43.269531 15.058594 C 43.269531 14.773438 43.5 14.546875 43.785156 14.546875 L 47.699219 14.546875 C 47.984375 14.546875 48.214844 14.773438 48.214844 15.058594 C 48.214844 15.339844 47.984375 15.570312 47.699219 15.570312 Z M 47.699219 15.570312 "/><path style=" stroke:none;fill-rule:nonzero;fill:#000000;fill-opacity:1;" d="M 43.789062 27.496094 L 14.007812 27.496094 C 12.929688 27.496094 12.054688 26.625 12.054688 25.554688 L 12.054688 25.316406 C 12.054688 25.03125 12.285156 24.804688 12.570312 24.804688 C 12.855469 24.804688 13.085938 25.03125 13.085938 25.316406 L 13.085938 25.554688 C 13.085938 26.058594 13.5 26.472656 14.007812 26.472656 L 43.789062 26.472656 C 44.296875 26.472656 44.710938 26.058594 44.710938 25.554688 L 44.710938 25.316406 C 44.710938 25.03125 44.941406 24.804688 45.226562 24.804688 C 45.511719 24.804688 45.742188 25.03125 45.742188 25.316406 L 45.742188 25.554688 C 45.742188 26.625 44.867188 27.496094 43.789062 27.496094 Z M 43.789062 27.496094 "/><g clip-rule="nonzero" clip-path="url(#3de342fb23)"><path style=" stroke:none;fill-rule:nonzero;fill:#000000;fill-opacity:1;" d="M 11.878906 37.332031 C 11.742188 37.332031 11.605469 37.277344 11.503906 37.171875 C 11.308594 36.964844 11.316406 36.640625 11.519531 36.445312 C 13.53125 34.535156 14.496094 31.546875 13.988281 28.828125 C 13.933594 28.550781 14.121094 28.28125 14.398438 28.230469 C 14.679688 28.179688 14.949219 28.359375 15 28.640625 C 15.574219 31.6875 14.488281 35.042969 12.234375 37.1875 C 12.132812 37.285156 12.003906 37.332031 11.878906 37.332031 Z M 11.878906 37.332031 "/></g><g clip-rule="nonzero" clip-path="url(#604f549368)"><path style=" stroke:none;fill-rule:nonzero;fill:#000000;fill-opacity:1;" d="M 19.191406 37.332031 C 19.058594 37.332031 18.921875 37.277344 18.820312 37.171875 C 18.625 36.964844 18.632812 36.640625 18.835938 36.445312 C 20.84375 34.535156 21.8125 31.546875 21.304688 28.828125 C 21.25 28.550781 21.433594 28.28125 21.714844 28.230469 C 21.996094 28.179688 22.265625 28.359375 22.316406 28.640625 C 22.886719 31.6875 21.800781 35.042969 19.546875 37.1875 C 19.449219 37.285156 19.320312 37.332031 19.191406 37.332031 Z M 19.191406 37.332031 "/></g><g clip-rule="nonzero" clip-path="url(#4e2a1c7720)"><path style=" stroke:none;fill-rule:nonzero;fill:#000000;fill-opacity:1;" d="M 26.507812 37.332031 C 26.371094 37.332031 26.238281 37.277344 26.136719 37.171875 C 25.9375 36.964844 25.945312 36.640625 26.152344 36.445312 C 28.160156 34.535156 29.128906 31.546875 28.617188 28.828125 C 28.566406 28.550781 28.75 28.28125 29.03125 28.230469 C 29.308594 28.179688 29.578125 28.359375 29.632812 28.640625 C 30.203125 31.6875 29.117188 35.042969 26.863281 37.1875 C 26.765625 37.285156 26.636719 37.332031 26.507812 37.332031 Z M 26.507812 37.332031 "/></g><g clip-rule="nonzero" clip-path="url(#713f480236)"><path style=" stroke:none;fill-rule:nonzero;fill:#000000;fill-opacity:1;" d="M 33.824219 37.332031 C 33.6875 37.332031 33.550781 37.277344 33.449219 37.171875 C 33.253906 36.964844 33.261719 36.640625 33.46875 36.445312 C 35.476562 34.535156 36.441406 31.546875 35.933594 28.828125 C 35.882812 28.550781 36.066406 28.28125 36.34375 28.230469 C 36.625 28.179688 36.894531 28.359375 36.945312 28.640625 C 37.519531 31.6875 36.433594 35.042969 34.179688 37.1875 C 34.078125 37.285156 33.949219 37.332031 33.824219 37.332031 Z M 33.824219 37.332031 "/></g><g clip-rule="nonzero" clip-path="url(#fc3827f138)"><path style=" stroke:none;fill-rule:nonzero;fill:#000000;fill-opacity:1;" d="M 41.136719 37.332031 C 41.003906 37.332031 40.867188 37.277344 40.765625 37.171875 C 40.570312 36.964844 40.578125 36.640625 40.78125 36.445312 C 42.789062 34.535156 43.757812 31.546875 43.25 28.828125 C 43.195312 28.550781 43.382812 28.28125 43.660156 28.230469 C 43.941406 28.179688 44.210938 28.359375 44.261719 28.640625 C 44.832031 31.6875 43.746094 35.042969 41.496094 37.1875 C 41.394531 37.285156 41.265625 37.332031 41.136719 37.332031 Z M 41.136719 37.332031 "/></g><g clip-rule="nonzero" clip-path="url(#091de4b50f)"><path style=" stroke:none;fill-rule:nonzero;fill:#000000;fill-opacity:1;" d="M 18.140625 18.695312 C 17.855469 18.695312 17.625 18.464844 17.625 18.183594 L 17.625 5.109375 C 17.625 4.824219 17.855469 4.597656 18.140625 4.597656 C 18.421875 4.597656 18.652344 4.824219 18.652344 5.109375 L 18.652344 18.183594 C 18.652344 18.464844 18.421875 18.695312 18.140625 18.695312 Z M 18.140625 18.695312 "/></g><path style=" stroke:none;fill-rule:nonzero;fill:#000000;fill-opacity:1;" d="M 18.125 8.96875 L 15.742188 6.199219 C 15.558594 5.984375 15.582031 5.660156 15.800781 5.476562 C 16.015625 5.292969 16.339844 5.316406 16.527344 5.53125 L 18.152344 7.421875 L 19.902344 5.519531 C 20.09375 5.308594 20.417969 5.296875 20.628906 5.488281 C 20.839844 5.679688 20.855469 6.003906 20.660156 6.210938 Z M 18.125 8.96875 "/><path style=" stroke:none;fill-rule:nonzero;fill:#000000;fill-opacity:1;" d="M 20.28125 18.066406 C 20.144531 18.066406 20.007812 18.011719 19.90625 17.902344 L 18.207031 16.109375 L 16.507812 17.902344 C 16.3125 18.109375 15.988281 18.121094 15.78125 17.925781 C 15.574219 17.730469 15.5625 17.40625 15.757812 17.199219 L 18.207031 14.613281 L 20.65625 17.199219 C 20.851562 17.40625 20.839844 17.730469 20.632812 17.925781 C 20.535156 18.019531 20.410156 18.066406 20.28125 18.066406 Z M 20.28125 18.066406 "/><path style=" stroke:none;fill-rule:nonzero;fill:#000000;fill-opacity:1;" d="M 12.480469 15.351562 C 12.300781 15.351562 12.128906 15.261719 12.03125 15.09375 C 11.890625 14.847656 11.976562 14.535156 12.222656 14.394531 L 23.613281 7.886719 C 23.859375 7.746094 24.171875 7.832031 24.316406 8.078125 C 24.457031 8.324219 24.371094 8.636719 24.125 8.777344 L 12.734375 15.285156 C 12.65625 15.332031 12.566406 15.351562 12.480469 15.351562 Z M 12.480469 15.351562 "/><path style=" stroke:none;fill-rule:nonzero;fill:#000000;fill-opacity:1;" d="M 24.277344 11.070312 C 24.238281 11.070312 24.199219 11.066406 24.164062 11.058594 L 20.5 10.242188 L 21.726562 6.804688 C 21.820312 6.539062 22.117188 6.398438 22.382812 6.496094 C 22.652344 6.589844 22.792969 6.882812 22.695312 7.148438 L 21.859375 9.496094 L 24.390625 10.058594 C 24.667969 10.121094 24.839844 10.394531 24.777344 10.671875 C 24.722656 10.910156 24.511719 11.070312 24.277344 11.070312 Z M 24.277344 11.070312 "/><path style=" stroke:none;fill-rule:nonzero;fill:#000000;fill-opacity:1;" d="M 14.09375 16.890625 C 14.042969 16.890625 13.992188 16.882812 13.945312 16.867188 C 13.671875 16.785156 13.519531 16.5 13.601562 16.226562 L 14.320312 13.867188 L 11.910156 13.292969 C 11.632812 13.230469 11.460938 12.953125 11.527344 12.675781 C 11.59375 12.402344 11.871094 12.230469 12.148438 12.296875 L 15.621094 13.121094 L 14.585938 16.523438 C 14.519531 16.746094 14.316406 16.890625 14.09375 16.890625 Z M 14.09375 16.890625 "/><path style=" stroke:none;fill-rule:nonzero;fill:#000000;fill-opacity:1;" d="M 24.003906 15.289062 C 23.921875 15.289062 23.835938 15.269531 23.757812 15.226562 L 12.230469 8.96875 C 11.980469 8.832031 11.890625 8.519531 12.027344 8.269531 C 12.160156 8.023438 12.472656 7.929688 12.726562 8.066406 L 24.253906 14.328125 C 24.503906 14.464844 24.59375 14.773438 24.457031 15.023438 C 24.363281 15.195312 24.1875 15.289062 24.003906 15.289062 Z M 24.003906 15.289062 "/><path style=" stroke:none;fill-rule:nonzero;fill:#000000;fill-opacity:1;" d="M 22.3125 16.800781 C 22.097656 16.800781 21.898438 16.667969 21.824219 16.453125 L 20.609375 12.917969 L 24.191406 12.160156 C 24.46875 12.101562 24.742188 12.28125 24.800781 12.558594 C 24.859375 12.835938 24.683594 13.105469 24.40625 13.164062 L 21.960938 13.679688 L 22.800781 16.121094 C 22.890625 16.390625 22.746094 16.679688 22.480469 16.773438 C 22.425781 16.792969 22.367188 16.800781 22.3125 16.800781 Z M 22.3125 16.800781 "/><path style=" stroke:none;fill-rule:nonzero;fill:#000000;fill-opacity:1;" d="M 12.007812 11.203125 C 11.777344 11.203125 11.570312 11.050781 11.507812 10.820312 C 11.4375 10.546875 11.601562 10.265625 11.875 10.195312 L 14.273438 9.570312 L 13.503906 7.226562 C 13.414062 6.957031 13.5625 6.667969 13.832031 6.578125 C 14.105469 6.492188 14.394531 6.636719 14.484375 6.90625 L 15.59375 10.285156 L 12.136719 11.1875 C 12.09375 11.199219 12.050781 11.203125 12.007812 11.203125 Z M 12.007812 11.203125 "/></g></svg>