<svg xmlns="http://www.w3.org/2000/svg" xmlns:xlink="http://www.w3.org/1999/xlink" width="82" zoomAndPan="magnify" viewBox="0 0 61.5 45.749999" height="61" preserveAspectRatio="xMidYMid meet" version="1.2"><defs><clipPath id="af25476d06"><path d="M 29.90625 15.757812 L 31.394531 15.757812 L 31.394531 17 L 29.90625 17 Z M 29.90625 15.757812 "/></clipPath><clipPath id="1bdb994505"><path d="M 3.375 4.597656 L 56.195312 4.597656 L 56.195312 38.078125 L 3.375 38.078125 Z M 3.375 4.597656 "/></clipPath></defs><g id="79dbf7936e"><g clip-rule="nonzero" clip-path="url(#af25476d06)"><path style=" stroke:none;fill-rule:nonzero;fill:#ffffff;fill-opacity:1;" d="M 31.09375 16.351562 C 31.09375 16.515625 31.035156 16.652344 30.917969 16.769531 C 30.804688 16.886719 30.664062 16.945312 30.5 16.945312 C 30.335938 16.945312 30.195312 16.886719 30.082031 16.769531 C 29.964844 16.652344 29.90625 16.515625 29.90625 16.351562 C 29.90625 16.1875 29.964844 16.046875 30.082031 15.929688 C 30.195312 15.816406 30.335938 15.757812 30.5 15.757812 C 30.664062 15.757812 30.804688 15.816406 30.917969 15.929688 C 31.035156 16.046875 31.09375 16.1875 31.09375 16.351562 Z M 31.09375 16.351562 "/></g><g clip-rule="nonzero" clip-path="url(#1bdb994505)"><path style=" stroke:none;fill-rule:nonzero;fill:#1a1a1a;fill-opacity:1;" d="M 4.855469 4.597656 C 4.039062 4.597656 3.382812 5.261719 3.382812 6.082031 L 3.382812 32.378906 C 3.382812 33.199219 4.039062 33.863281 4.855469 33.863281 L 27.1875 33.863281 C 26.609375 34.738281 25.957031 35.859375 25.847656 36.613281 L 23.183594 36.613281 C 23.074219 36.613281 22.988281 36.699219 22.988281 36.808594 L 22.988281 37.878906 C 22.988281 37.988281 23.074219 38.078125 23.183594 38.078125 L 36.390625 38.078125 C 36.5 38.078125 36.585938 37.988281 36.585938 37.878906 L 36.585938 36.808594 C 36.585938 36.699219 36.5 36.613281 36.390625 36.613281 L 33.726562 36.613281 C 33.617188 35.859375 32.964844 34.738281 32.382812 33.863281 L 54.71875 33.863281 C 55.535156 33.863281 56.191406 33.199219 56.191406 32.378906 L 56.191406 6.082031 C 56.191406 5.261719 55.535156 4.597656 54.71875 4.597656 Z M 4.570312 6.183594 L 55.003906 6.183594 L 55.003906 32.273438 L 4.570312 32.273438 Z M 4.570312 6.183594 "/></g></g></svg>