<svg xmlns="http://www.w3.org/2000/svg" xmlns:xlink="http://www.w3.org/1999/xlink" width="82" zoomAndPan="magnify" viewBox="0 0 61.5 45.749999" height="61" preserveAspectRatio="xMidYMid meet" version="1.2"><defs><clipPath id="2600b12e90"><path d="M 29.90625 15.757812 L 31.394531 15.757812 L 31.394531 17 L 29.90625 17 Z M 29.90625 15.757812 "/></clipPath><clipPath id="b849f7e9f6"><path d="M 14.007812 4.597656 L 46.742188 4.597656 L 46.742188 42.539062 L 14.007812 42.539062 Z M 14.007812 4.597656 "/></clipPath></defs><g id="61a3a0cf5b"><g clip-rule="nonzero" clip-path="url(#2600b12e90)"><path style=" stroke:none;fill-rule:nonzero;fill:#ffffff;fill-opacity:1;" d="M 31.09375 16.351562 C 31.09375 16.515625 31.035156 16.652344 30.917969 16.769531 C 30.804688 16.886719 30.664062 16.945312 30.5 16.945312 C 30.335938 16.945312 30.195312 16.886719 30.082031 16.769531 C 29.964844 16.652344 29.90625 16.515625 29.90625 16.351562 C 29.90625 16.1875 29.964844 16.046875 30.082031 15.929688 C 30.195312 15.816406 30.335938 15.757812 30.5 15.757812 C 30.664062 15.757812 30.804688 15.816406 30.917969 15.929688 C 31.035156 16.046875 31.09375 16.1875 31.09375 16.351562 Z M 31.09375 16.351562 "/></g><path style=" stroke:none;fill-rule:nonzero;fill:#000000;fill-opacity:1;" d="M 37.929688 10.296875 L 39.1875 10.296875 L 39.1875 11.558594 L 37.929688 11.558594 Z M 37.929688 10.296875 "/><path style=" stroke:none;fill-rule:nonzero;fill:#000000;fill-opacity:1;" d="M 40.449219 10.296875 L 41.707031 10.296875 L 41.707031 11.558594 L 40.449219 11.558594 Z M 40.449219 10.296875 "/><path style=" stroke:none;fill-rule:nonzero;fill:#000000;fill-opacity:1;" d="M 42.964844 10.296875 L 44.226562 10.296875 L 44.226562 11.558594 L 42.964844 11.558594 Z M 42.964844 10.296875 "/><path style=" stroke:none;fill-rule:nonzero;fill:#000000;fill-opacity:1;" d="M 17.15625 10.929688 L 23.453125 10.929688 C 23.800781 10.929688 24.082031 10.644531 24.082031 10.296875 L 24.082031 7.769531 C 24.082031 7.417969 23.800781 7.136719 23.453125 7.136719 L 17.15625 7.136719 C 16.808594 7.136719 16.527344 7.417969 16.527344 7.769531 L 16.527344 10.296875 C 16.527344 10.644531 16.808594 10.929688 17.15625 10.929688 Z M 17.785156 8.398438 L 22.820312 8.398438 L 22.820312 9.664062 L 17.785156 9.664062 Z M 17.785156 8.398438 "/><path style=" stroke:none;fill-rule:nonzero;fill:#000000;fill-opacity:1;" d="M 30.375 18.511719 C 25.167969 18.511719 20.933594 22.765625 20.933594 27.992188 C 20.933594 33.222656 25.167969 37.476562 30.375 37.476562 C 35.582031 37.476562 39.820312 33.222656 39.820312 27.992188 C 39.820312 22.765625 35.582031 18.511719 30.375 18.511719 Z M 30.375 36.210938 C 27.613281 36.210938 25.175781 34.828125 23.691406 32.71875 C 24.777344 32.472656 25.402344 31.609375 25.914062 30.890625 C 26.519531 30.039062 26.929688 29.515625 27.730469 29.515625 C 28.53125 29.515625 28.941406 30.039062 29.546875 30.890625 C 30.148438 31.734375 30.898438 32.789062 32.386719 32.789062 C 33.875 32.789062 34.628906 31.734375 35.230469 30.886719 C 35.835938 30.039062 36.246094 29.515625 37.046875 29.515625 C 37.515625 29.515625 37.875 29.703125 38.269531 30.132812 C 37.328125 33.628906 34.152344 36.210938 30.375 36.210938 Z M 38.523438 28.683594 C 38.132812 28.429688 37.652344 28.253906 37.046875 28.253906 C 35.558594 28.253906 34.808594 29.308594 34.207031 30.152344 C 33.601562 31.003906 33.1875 31.527344 32.386719 31.527344 C 31.585938 31.527344 31.175781 31.003906 30.570312 30.152344 C 29.96875 29.308594 29.21875 28.253906 27.730469 28.253906 C 26.242188 28.253906 25.492188 29.304688 24.890625 30.152344 C 24.285156 31.003906 23.871094 31.527344 23.070312 31.527344 C 23.046875 31.527344 23.019531 31.523438 22.996094 31.519531 C 22.488281 30.453125 22.191406 29.257812 22.191406 27.992188 C 22.191406 23.464844 25.863281 19.777344 30.375 19.777344 C 34.886719 19.777344 38.558594 23.464844 38.558594 27.992188 C 38.558594 28.226562 38.542969 28.457031 38.523438 28.683594 Z M 38.523438 28.683594 "/><g clip-rule="nonzero" clip-path="url(#b849f7e9f6)"><path style=" stroke:none;fill-rule:nonzero;fill:#000000;fill-opacity:1;" d="M 16.527344 42.53125 L 44.226562 42.53125 C 45.613281 42.53125 46.742188 41.398438 46.742188 40.003906 L 46.742188 7.136719 C 46.742188 5.742188 45.613281 4.609375 44.226562 4.609375 L 16.527344 4.609375 C 15.136719 4.609375 14.007812 5.742188 14.007812 7.136719 L 14.007812 40.003906 C 14.007812 41.398438 15.136719 42.53125 16.527344 42.53125 Z M 44.226562 41.265625 L 16.527344 41.265625 C 15.832031 41.265625 15.269531 40.699219 15.269531 40.003906 L 15.269531 14.71875 L 45.484375 14.71875 L 45.484375 40.003906 C 45.484375 40.699219 44.917969 41.265625 44.226562 41.265625 Z M 16.527344 5.871094 L 44.226562 5.871094 C 44.917969 5.871094 45.484375 6.4375 45.484375 7.136719 L 45.484375 13.457031 L 15.269531 13.457031 L 15.269531 7.136719 C 15.269531 6.4375 15.832031 5.871094 16.527344 5.871094 Z M 16.527344 5.871094 "/></g><path style=" stroke:none;fill-rule:nonzero;fill:#000000;fill-opacity:1;" d="M 37.929688 7.769531 L 39.1875 7.769531 L 39.1875 9.03125 L 37.929688 9.03125 Z M 37.929688 7.769531 "/><path style=" stroke:none;fill-rule:nonzero;fill:#000000;fill-opacity:1;" d="M 40.449219 7.769531 L 41.707031 7.769531 L 41.707031 9.03125 L 40.449219 9.03125 Z M 40.449219 7.769531 "/><path style=" stroke:none;fill-rule:nonzero;fill:#000000;fill-opacity:1;" d="M 42.964844 7.769531 L 44.226562 7.769531 L 44.226562 9.03125 L 42.964844 9.03125 Z M 42.964844 7.769531 "/><path style=" stroke:none;fill-rule:nonzero;fill:#000000;fill-opacity:1;" d="M 34.152344 12.191406 C 35.542969 12.191406 36.671875 11.058594 36.671875 9.664062 C 36.671875 8.269531 35.542969 7.136719 34.152344 7.136719 C 32.765625 7.136719 31.636719 8.269531 31.636719 9.664062 C 31.636719 11.058594 32.765625 12.191406 34.152344 12.191406 Z M 34.152344 8.398438 C 34.847656 8.398438 35.410156 8.96875 35.410156 9.664062 C 35.410156 10.359375 34.847656 10.929688 34.152344 10.929688 C 33.457031 10.929688 32.894531 10.359375 32.894531 9.664062 C 32.894531 8.96875 33.457031 8.398438 34.152344 8.398438 Z M 34.152344 8.398438 "/><path style=" stroke:none;fill-rule:nonzero;fill:#000000;fill-opacity:1;" d="M 30.375 20.410156 L 30.375 21.671875 C 32.753906 21.671875 34.902344 22.996094 35.984375 25.121094 L 37.105469 24.546875 C 35.808594 21.996094 33.226562 20.410156 30.375 20.410156 Z M 30.375 20.410156 "/><path style=" stroke:none;fill-rule:nonzero;fill:#000000;fill-opacity:1;" d="M 30.375 15.984375 C 23.78125 15.984375 18.414062 21.371094 18.414062 27.992188 C 18.414062 34.617188 23.78125 40.003906 30.375 40.003906 C 36.972656 40.003906 42.335938 34.617188 42.335938 27.992188 C 42.335938 21.371094 36.972656 15.984375 30.375 15.984375 Z M 30.375 38.738281 C 24.476562 38.738281 19.675781 33.917969 19.675781 27.992188 C 19.675781 22.070312 24.476562 17.25 30.375 17.25 C 36.277344 17.25 41.078125 22.070312 41.078125 27.992188 C 41.078125 33.917969 36.277344 38.738281 30.375 38.738281 Z M 30.375 38.738281 "/></g></svg>