<svg xmlns="http://www.w3.org/2000/svg" xmlns:xlink="http://www.w3.org/1999/xlink" width="82" zoomAndPan="magnify" viewBox="0 0 61.5 45.749999" height="61" preserveAspectRatio="xMidYMid meet" version="1.2"><defs><clipPath id="2e22e8bd76"><path d="M 18.402344 13.675781 L 42.949219 13.675781 L 42.949219 31.53125 L 18.402344 31.53125 Z M 18.402344 13.675781 "/></clipPath><clipPath id="c6e5b73bad"><path d="M 29.382812 24.128906 L 31.613281 24.128906 L 31.613281 25.613281 L 29.382812 25.613281 Z M 29.382812 24.128906 "/></clipPath></defs><g id="b252d8dcbc"><g clip-rule="nonzero" clip-path="url(#2e22e8bd76)"><path style=" stroke:none;fill-rule:nonzero;fill:#000000;fill-opacity:1;" d="M 42.910156 24.816406 C 42.789062 23.683594 41.605469 13.726562 37.554688 13.726562 C 36.128906 13.675781 34.714844 14.042969 33.503906 14.78125 C 32.660156 15.324219 31.679688 15.601562 30.675781 15.585938 C 29.667969 15.601562 28.691406 15.324219 27.847656 14.78125 C 26.636719 14.042969 25.222656 13.6875 23.796875 13.726562 C 19.730469 13.726562 18.5625 23.683594 18.441406 24.816406 C 18.441406 24.832031 18.441406 24.84375 18.441406 24.855469 L 18.441406 28.667969 C 18.441406 30.25 19.757812 31.53125 21.390625 31.53125 L 21.429688 31.53125 C 22.382812 31.515625 23.28125 31.082031 23.835938 30.328125 C 24.449219 29.539062 26.148438 28.195312 30.675781 28.195312 C 35.203125 28.195312 36.902344 29.523438 37.511719 30.328125 C 38.070312 31.082031 38.96875 31.53125 39.917969 31.53125 L 39.960938 31.53125 C 41.59375 31.53125 42.910156 30.25 42.910156 28.667969 L 42.910156 24.855469 C 42.910156 24.84375 42.910156 24.832031 42.910156 24.816406 Z M 42.148438 28.679688 C 42.148438 29.855469 41.171875 30.792969 39.960938 30.804688 L 39.917969 30.804688 C 39.214844 30.792969 38.546875 30.460938 38.125 29.894531 C 37.269531 28.785156 35.285156 27.46875 30.675781 27.46875 C 26.066406 27.46875 24.082031 28.785156 23.226562 29.894531 C 22.816406 30.460938 22.152344 30.792969 21.429688 30.804688 L 21.390625 30.804688 C 20.179688 30.804688 19.214844 29.855469 19.203125 28.679688 L 19.203125 24.882812 C 19.515625 21.96875 20.941406 14.480469 23.796875 14.480469 C 25.101562 14.441406 26.378906 14.769531 27.480469 15.441406 C 28.433594 16.035156 29.546875 16.351562 30.675781 16.339844 C 31.804688 16.351562 32.917969 16.035156 33.871094 15.441406 C 34.972656 14.769531 36.25 14.441406 37.554688 14.480469 C 40.394531 14.480469 41.824219 21.96875 42.148438 24.882812 Z M 42.148438 28.679688 "/></g><path style=" stroke:none;fill-rule:nonzero;fill:#000000;fill-opacity:1;" d="M 28.378906 20.03125 L 26.476562 20.03125 L 26.476562 18.183594 C 26.476562 17.972656 26.296875 17.816406 26.09375 17.816406 L 23.796875 17.816406 C 23.578125 17.816406 23.417969 17.988281 23.417969 18.183594 L 23.417969 20.042969 L 21.5 20.042969 C 21.28125 20.042969 21.117188 20.214844 21.117188 20.414062 L 21.117188 22.640625 C 21.117188 22.851562 21.296875 23.011719 21.5 23.011719 L 23.417969 23.011719 L 23.417969 24.871094 C 23.417969 25.082031 23.59375 25.238281 23.796875 25.238281 L 26.09375 25.238281 C 26.3125 25.238281 26.476562 25.066406 26.476562 24.871094 L 26.476562 24.132812 C 26.476562 23.921875 26.296875 23.761719 26.09375 23.761719 C 25.890625 23.761719 25.714844 23.933594 25.714844 24.132812 L 25.714844 24.5 L 24.175781 24.5 L 24.175781 22.628906 C 24.175781 22.417969 24 22.257812 23.796875 22.257812 L 21.878906 22.257812 L 21.878906 20.78125 L 23.796875 20.78125 C 24.015625 20.78125 24.175781 20.609375 24.175781 20.414062 L 24.175781 18.554688 L 25.714844 18.554688 L 25.714844 20.414062 C 25.714844 20.625 25.890625 20.78125 26.09375 20.78125 L 28.011719 20.78125 L 28.011719 22.273438 L 26.082031 22.273438 C 25.863281 22.273438 25.699219 22.445312 25.699219 22.640625 C 25.699219 22.839844 25.875 23.011719 26.082031 23.011719 L 28.378906 23.011719 C 28.59375 23.011719 28.757812 22.839844 28.757812 22.640625 L 28.757812 20.414062 C 28.757812 20.203125 28.59375 20.03125 28.378906 20.03125 Z M 28.378906 20.03125 "/><path style=" stroke:none;fill-rule:nonzero;fill:#000000;fill-opacity:1;" d="M 36.03125 20.414062 C 36.875 20.414062 37.566406 19.753906 37.566406 18.921875 C 37.566406 18.09375 36.886719 17.433594 36.03125 17.433594 C 35.1875 17.433594 34.496094 18.09375 34.496094 18.921875 C 34.496094 19.753906 35.1875 20.414062 36.03125 20.414062 Z M 36.03125 18.183594 C 36.453125 18.183594 36.792969 18.515625 36.792969 18.921875 C 36.792969 19.332031 36.453125 19.660156 36.03125 19.660156 C 35.609375 19.660156 35.269531 19.332031 35.269531 18.921875 C 35.269531 18.515625 35.609375 18.183594 36.03125 18.183594 Z M 36.03125 18.183594 "/><path style=" stroke:none;fill-rule:nonzero;fill:#000000;fill-opacity:1;" d="M 36.03125 22.628906 C 35.1875 22.628906 34.496094 23.289062 34.496094 24.117188 C 34.496094 24.9375 35.175781 25.609375 36.03125 25.609375 C 36.875 25.609375 37.566406 24.949219 37.566406 24.117188 C 37.554688 23.300781 36.875 22.628906 36.03125 22.628906 Z M 36.03125 24.855469 C 35.609375 24.855469 35.269531 24.527344 35.269531 24.117188 C 35.269531 23.710938 35.609375 23.378906 36.03125 23.378906 C 36.453125 23.378906 36.792969 23.710938 36.792969 24.117188 C 36.792969 24.527344 36.453125 24.855469 36.03125 24.855469 Z M 36.03125 24.855469 "/><path style=" stroke:none;fill-rule:nonzero;fill:#000000;fill-opacity:1;" d="M 37.171875 21.519531 C 37.171875 22.339844 37.851562 23.011719 38.710938 23.011719 C 39.554688 23.011719 40.246094 22.351562 40.246094 21.519531 C 40.246094 20.691406 39.566406 20.03125 38.710938 20.03125 C 37.851562 20.03125 37.171875 20.703125 37.171875 21.519531 Z M 39.472656 21.519531 C 39.472656 21.929688 39.132812 22.257812 38.710938 22.257812 C 38.289062 22.257812 37.949219 21.929688 37.949219 21.519531 C 37.949219 21.113281 38.289062 20.78125 38.710938 20.78125 C 39.132812 20.78125 39.472656 21.113281 39.472656 21.519531 Z M 39.472656 21.519531 "/><path style=" stroke:none;fill-rule:nonzero;fill:#000000;fill-opacity:1;" d="M 33.355469 20.03125 C 32.511719 20.03125 31.816406 20.691406 31.816406 21.519531 C 31.816406 22.351562 32.496094 23.011719 33.355469 23.011719 C 34.210938 23.011719 34.890625 22.351562 34.890625 21.519531 C 34.890625 20.691406 34.195312 20.03125 33.355469 20.03125 Z M 33.355469 22.257812 C 32.933594 22.257812 32.59375 21.929688 32.59375 21.519531 C 32.59375 21.113281 32.933594 20.78125 33.355469 20.78125 C 33.773438 20.78125 34.113281 21.113281 34.113281 21.519531 C 34.113281 21.929688 33.773438 22.257812 33.355469 22.257812 Z M 33.355469 22.257812 "/><g clip-rule="nonzero" clip-path="url(#c6e5b73bad)"><path style=" stroke:none;fill-rule:nonzero;fill:#191919;fill-opacity:1;" d="M 29.503906 25.613281 L 31.492188 25.613281 C 31.558594 25.613281 31.609375 25.558594 31.609375 25.492188 L 31.609375 24.25 C 31.609375 24.179688 31.558594 24.128906 31.492188 24.128906 L 29.503906 24.128906 C 29.4375 24.128906 29.386719 24.179688 29.386719 24.25 L 29.386719 25.492188 C 29.386719 25.558594 29.4375 25.613281 29.503906 25.613281 "/></g></g></svg>