<svg xmlns="http://www.w3.org/2000/svg" xmlns:xlink="http://www.w3.org/1999/xlink" width="82" zoomAndPan="magnify" viewBox="0 0 61.5 45.749999" height="61" preserveAspectRatio="xMidYMid meet" version="1.2"><defs><clipPath id="d84c5d0f29"><path d="M 29.90625 15.757812 L 31.394531 15.757812 L 31.394531 17 L 29.90625 17 Z M 29.90625 15.757812 "/></clipPath><clipPath id="043736f598"><path d="M 9.113281 3.582031 L 52.261719 3.582031 L 52.261719 42.265625 L 9.113281 42.265625 Z M 9.113281 3.582031 "/></clipPath></defs><g id="b3eceed43e"><g clip-rule="nonzero" clip-path="url(#d84c5d0f29)"><path style=" stroke:none;fill-rule:nonzero;fill:#ffffff;fill-opacity:1;" d="M 31.09375 16.351562 C 31.09375 16.515625 31.035156 16.652344 30.917969 16.769531 C 30.804688 16.886719 30.664062 16.945312 30.5 16.945312 C 30.335938 16.945312 30.195312 16.886719 30.082031 16.769531 C 29.964844 16.652344 29.90625 16.515625 29.90625 16.351562 C 29.90625 16.1875 29.964844 16.046875 30.082031 15.929688 C 30.195312 15.816406 30.335938 15.757812 30.5 15.757812 C 30.664062 15.757812 30.804688 15.816406 30.917969 15.929688 C 31.035156 16.046875 31.09375 16.1875 31.09375 16.351562 Z M 31.09375 16.351562 "/></g><g clip-rule="nonzero" clip-path="url(#043736f598)"><path style=" stroke:none;fill-rule:nonzero;fill:#000000;fill-opacity:1;" d="M 52.246094 35.527344 C 52.238281 35.324219 52.136719 35.148438 52 35.007812 L 38.167969 23.074219 L 38.167969 4.324219 C 38.167969 3.917969 37.835938 3.582031 37.425781 3.582031 L 23.949219 3.582031 C 23.542969 3.582031 23.207031 3.917969 23.207031 4.324219 L 23.207031 23.074219 L 9.382812 35.007812 C 9.226562 35.164062 9.136719 35.355469 9.121094 35.570312 L 9.121094 41.523438 C 9.121094 41.933594 9.457031 42.265625 9.867188 42.265625 L 51.511719 42.265625 C 51.917969 42.265625 52.253906 41.933594 52.253906 41.523438 L 52.253906 35.570312 C 52.253906 35.554688 52.246094 35.542969 52.246094 35.527344 Z M 24.695312 5.070312 L 36.6875 5.070312 L 36.6875 22.671875 L 24.695312 22.671875 Z M 24.226562 24.160156 L 37.148438 24.160156 L 49.511719 34.828125 L 11.867188 34.828125 Z M 50.765625 40.777344 L 10.609375 40.777344 L 10.609375 36.316406 L 50.765625 36.316406 Z M 50.765625 40.777344 "/></g><path style=" stroke:none;fill-rule:nonzero;fill:#000000;fill-opacity:1;" d="M 45.5625 39.292969 L 48.105469 39.292969 C 48.511719 39.292969 48.847656 38.957031 48.847656 38.546875 C 48.847656 38.136719 48.511719 37.804688 48.105469 37.804688 L 45.5625 37.804688 C 45.152344 37.804688 44.816406 38.136719 44.816406 38.546875 C 44.816406 38.957031 45.152344 39.292969 45.5625 39.292969 Z M 45.5625 39.292969 "/><path style=" stroke:none;fill-rule:nonzero;fill:#000000;fill-opacity:1;" d="M 39.105469 39.292969 L 41.648438 39.292969 C 42.058594 39.292969 42.394531 38.957031 42.394531 38.546875 C 42.394531 38.136719 42.058594 37.804688 41.648438 37.804688 L 39.105469 37.804688 C 38.695312 37.804688 38.363281 38.136719 38.363281 38.546875 C 38.363281 38.957031 38.691406 39.292969 39.105469 39.292969 Z M 39.105469 39.292969 "/><path style=" stroke:none;fill-rule:nonzero;fill:#000000;fill-opacity:1;" d="M 32.644531 39.292969 L 35.1875 39.292969 C 35.597656 39.292969 35.929688 38.957031 35.929688 38.546875 C 35.929688 38.136719 35.597656 37.804688 35.1875 37.804688 L 32.644531 37.804688 C 32.234375 37.804688 31.898438 38.136719 31.898438 38.546875 C 31.898438 38.957031 32.234375 39.292969 32.644531 39.292969 Z M 32.644531 39.292969 "/></g></svg>