<svg xmlns="http://www.w3.org/2000/svg" xmlns:xlink="http://www.w3.org/1999/xlink" width="82" zoomAndPan="magnify" viewBox="0 0 61.5 45.749999" height="61" preserveAspectRatio="xMidYMid meet" version="1.2"><defs><clipPath id="99efbd9e6c"><path d="M 16.707031 2.65625 L 44.234375 2.65625 L 44.234375 40.597656 L 16.707031 40.597656 Z M 16.707031 2.65625 "/></clipPath><clipPath id="12650fd0e1"><path d="M 29.90625 15.757812 L 31.394531 15.757812 L 31.394531 17 L 29.90625 17 Z M 29.90625 15.757812 "/></clipPath></defs><g id="528a00ea87"><g clip-rule="nonzero" clip-path="url(#99efbd9e6c)"><path style=" stroke:none;fill-rule:nonzero;fill:#231f20;fill-opacity:1;" d="M 30.460938 2.65625 C 22.894531 2.65625 16.738281 8.773438 16.738281 16.304688 C 16.738281 22.921875 21.480469 28.558594 28.011719 29.722656 C 28.011719 29.722656 28.011719 29.722656 28.019531 29.722656 C 27.863281 31.449219 27.25 32.890625 26.203125 33.941406 C 25.15625 34.980469 23.902344 35.484375 22.902344 35.902344 C 21.929688 36.300781 21.226562 36.585938 21.226562 37.203125 L 21.226562 39.390625 C 21.226562 39.757812 21.488281 40.066406 21.847656 40.132812 C 22.75 40.304688 25.039062 40.589844 30.3125 40.597656 L 30.476562 40.597656 C 35.757812 40.589844 38.046875 40.304688 38.941406 40.140625 C 39.300781 40.074219 39.5625 39.765625 39.5625 39.402344 L 39.5625 37.210938 C 39.5625 36.585938 38.859375 36.300781 37.882812 35.910156 C 36.878906 35.503906 35.632812 34.996094 34.585938 33.957031 C 33.539062 32.914062 32.921875 31.480469 32.769531 29.773438 C 39.25 28.683594 44.203125 23.066406 44.203125 16.320312 C 44.1875 8.773438 38.023438 2.65625 30.460938 2.65625 Z M 28.527344 28.542969 C 28.542969 28.542969 28.558594 28.550781 28.578125 28.550781 C 28.691406 28.566406 28.804688 28.585938 28.921875 28.601562 C 28.953125 28.609375 28.984375 28.609375 29.019531 28.617188 C 29.140625 28.632812 29.265625 28.640625 29.394531 28.65625 C 29.4375 28.65625 29.46875 28.664062 29.511719 28.664062 C 29.640625 28.675781 29.765625 28.683594 29.894531 28.691406 C 29.917969 28.691406 29.9375 28.691406 29.960938 28.691406 C 30.074219 28.699219 30.199219 28.699219 30.3125 28.699219 C 30.335938 28.699219 30.351562 28.699219 30.378906 28.699219 C 30.386719 28.699219 30.394531 28.699219 30.402344 28.699219 C 30.417969 28.699219 30.433594 28.699219 30.460938 28.699219 C 31.058594 28.699219 31.648438 28.65625 32.226562 28.578125 C 32.21875 28.84375 32.21875 29.105469 32.234375 29.359375 C 31.65625 29.4375 31.066406 29.480469 30.460938 29.480469 C 29.804688 29.480469 29.15625 29.429688 28.527344 29.332031 C 28.535156 29.066406 28.535156 28.804688 28.527344 28.542969 Z M 28.117188 27.972656 L 29.910156 19.582031 C 30.007812 19.597656 30.117188 19.617188 30.214844 19.617188 L 30.066406 28.195312 C 30.035156 28.195312 29.992188 28.195312 29.960938 28.195312 C 29.9375 28.195312 29.917969 28.195312 29.894531 28.195312 C 29.820312 28.195312 29.753906 28.1875 29.683594 28.1875 C 29.664062 28.1875 29.648438 28.1875 29.632812 28.1875 C 29.550781 28.175781 29.476562 28.175781 29.394531 28.167969 C 29.386719 28.167969 29.378906 28.167969 29.371094 28.167969 C 29.019531 28.136719 28.675781 28.089844 28.339844 28.023438 C 28.332031 28.023438 28.324219 28.023438 28.324219 28.023438 L 28.289062 28.015625 C 28.234375 28 28.175781 27.980469 28.117188 27.972656 Z M 20.457031 17.996094 C 20.433594 17.824219 20.414062 17.664062 20.40625 17.5 L 27.144531 16.792969 C 27.160156 16.898438 27.183594 17.003906 27.210938 17.109375 L 20.667969 19.09375 C 20.578125 18.71875 20.503906 18.347656 20.457031 17.996094 Z M 18.492188 16.304688 C 18.492188 15.863281 18.515625 15.433594 18.566406 15.007812 L 20.390625 15.230469 C 20.0625 15.683594 19.898438 16.386719 19.914062 17.253906 L 18.539062 17.402344 C 18.507812 17.035156 18.492188 16.667969 18.492188 16.304688 Z M 20.839844 15.425781 C 20.882812 15.375 20.929688 15.335938 20.980469 15.292969 L 23.050781 15.546875 C 23.304688 15.652344 23.558594 15.765625 23.828125 15.878906 C 24.507812 16.179688 25.203125 16.484375 25.84375 16.628906 L 20.390625 17.199219 C 20.390625 16.410156 20.539062 15.78125 20.839844 15.425781 Z M 36 8.695312 L 34.878906 10.175781 C 34.625 10.378906 34.347656 10.574219 34.0625 10.785156 C 33.53125 11.175781 32.980469 11.566406 32.554688 11.988281 L 34.691406 7.210938 C 35.355469 7.59375 35.796875 8.027344 35.953125 8.449219 C 35.984375 8.523438 36 8.613281 36 8.695312 Z M 32.226562 13.480469 C 32.269531 12.8125 33.003906 12.167969 33.832031 11.550781 L 32.324219 13.535156 C 32.292969 13.519531 32.261719 13.503906 32.226562 13.480469 Z M 31.679688 13.203125 C 31.566406 13.160156 31.449219 13.121094 31.328125 13.089844 L 32.867188 6.464844 C 33.242188 6.570312 33.59375 6.691406 33.90625 6.820312 C 34.085938 6.894531 34.265625 6.976562 34.429688 7.066406 Z M 31.03125 13.023438 C 30.894531 13 30.753906 12.984375 30.605469 12.976562 L 30.605469 6.105469 C 31.277344 6.136719 31.949219 6.234375 32.570312 6.390625 Z M 30.304688 12.976562 C 30.179688 12.984375 30.058594 12.992188 29.9375 13.007812 L 28.617188 6.269531 C 29.148438 6.136719 29.722656 6.082031 30.304688 6.089844 Z M 29.640625 13.074219 C 29.5 13.105469 29.371094 13.152344 29.230469 13.203125 L 26.644531 7.417969 C 26.949219 7.066406 27.324219 6.773438 27.765625 6.5625 C 27.945312 6.480469 28.125 6.40625 28.324219 6.351562 Z M 28.960938 13.324219 C 28.886719 13.367188 28.8125 13.40625 28.742188 13.445312 C 28.675781 13.414062 28.609375 13.382812 28.542969 13.347656 L 25.875 9.558594 C 25.875 8.863281 26.078125 8.222656 26.449219 7.683594 Z M 27.914062 13 C 26.816406 12.273438 26.105469 11.273438 25.917969 10.167969 Z M 27.121094 16.101562 C 26.546875 16.402344 25.679688 16.132812 24.769531 15.757812 L 27.128906 16.042969 C 27.121094 16.066406 27.121094 16.082031 27.121094 16.101562 Z M 27.300781 17.410156 C 27.347656 17.558594 27.414062 17.703125 27.488281 17.832031 L 21.511719 21.261719 C 21.191406 20.664062 20.9375 20.023438 20.757812 19.394531 Z M 27.636719 18.101562 C 27.691406 18.191406 27.75 18.273438 27.816406 18.363281 L 22.625 22.847656 C 22.257812 22.472656 21.929688 22.023438 21.652344 21.535156 Z M 28.019531 18.582031 C 28.125 18.695312 28.25 18.800781 28.371094 18.90625 L 24.679688 23.960938 C 24.199219 23.886719 23.730469 23.703125 23.304688 23.410156 C 23.148438 23.300781 23.003906 23.179688 22.855469 23.050781 Z M 28.617188 19.085938 C 28.683594 19.128906 28.75 19.167969 28.824219 19.207031 C 28.824219 19.257812 28.832031 19.304688 28.832031 19.355469 L 26.867188 23.554688 C 26.292969 23.886719 25.65625 24.035156 25.023438 24.003906 Z M 28.832031 20.070312 C 28.75 21.382812 28.234375 22.488281 27.355469 23.214844 Z M 27.59375 16.304688 C 27.59375 14.734375 28.878906 13.453125 30.453125 13.453125 C 30.957031 13.453125 31.441406 13.585938 31.851562 13.820312 C 31.851562 13.820312 31.859375 13.820312 31.859375 13.828125 C 32.726562 14.316406 33.308594 15.246094 33.308594 16.304688 C 33.308594 17.875 32.023438 19.152344 30.441406 19.152344 C 30.269531 19.152344 30.097656 19.136719 29.925781 19.101562 C 28.585938 18.859375 27.59375 17.679688 27.59375 16.304688 Z M 42.425781 16.304688 C 42.425781 16.667969 42.410156 17.035156 42.378906 17.394531 L 40.570312 17.207031 C 40.324219 16.613281 39.914062 16.074219 39.382812 15.667969 L 42.394531 15.410156 C 42.417969 15.703125 42.425781 16.003906 42.425781 16.304688 Z M 38.695312 15.789062 C 39.269531 16.117188 39.71875 16.589844 40.003906 17.140625 L 33.800781 16.492188 C 33.800781 16.441406 33.808594 16.394531 33.808594 16.34375 C 33.832031 16.335938 33.863281 16.328125 33.890625 16.3125 C 33.988281 16.238281 34.085938 16.171875 34.183594 16.117188 L 38.597656 15.734375 C 38.628906 15.757812 38.660156 15.773438 38.695312 15.789062 Z M 40.355469 18.933594 C 40.339844 19.121094 40.308594 19.316406 40.265625 19.5 L 33.667969 17.246094 C 33.710938 17.101562 33.742188 16.953125 33.765625 16.800781 L 40.144531 17.46875 C 40.332031 17.921875 40.40625 18.417969 40.355469 18.933594 Z M 34.242188 24.839844 L 33.726562 23.636719 C 33.644531 23.214844 33.59375 22.734375 33.539062 22.238281 C 33.472656 21.601562 33.398438 20.949219 33.25 20.390625 L 36.320312 24.589844 C 35.664062 24.960938 35.066406 25.125 34.632812 25.042969 C 34.480469 25.011719 34.355469 24.945312 34.242188 24.839844 Z M 32.007812 19.257812 C 32.710938 19.609375 32.890625 20.789062 33.023438 21.984375 L 31.882812 19.316406 C 31.925781 19.296875 31.964844 19.273438 32.007812 19.257812 Z M 32.546875 18.898438 C 32.628906 18.835938 32.710938 18.761719 32.785156 18.6875 L 37.867188 23.398438 C 37.597656 23.660156 37.328125 23.886719 37.066406 24.09375 C 36.902344 24.214844 36.738281 24.328125 36.582031 24.425781 Z M 32.996094 18.46875 C 33.105469 18.347656 33.195312 18.222656 33.277344 18.09375 L 39.359375 21.585938 C 38.988281 22.171875 38.546875 22.707031 38.082031 23.1875 Z M 33.429688 17.832031 C 33.480469 17.734375 33.53125 17.636719 33.570312 17.53125 L 40.191406 19.792969 C 40.046875 20.316406 39.808594 20.828125 39.523438 21.324219 Z M 34.855469 15.757812 C 35.929688 15.269531 37.023438 15.171875 37.992188 15.480469 Z M 32.433594 28.015625 C 31.777344 28.136719 31.097656 28.203125 30.410156 28.210938 C 30.402344 28.210938 30.386719 28.210938 30.378906 28.210938 L 30.523438 19.632812 C 30.6875 19.632812 30.851562 19.617188 31.007812 19.589844 L 32.800781 27.972656 C 32.777344 27.980469 32.761719 27.980469 32.734375 27.980469 L 32.734375 27.949219 Z M 33.09375 27.917969 L 31.304688 19.527344 C 31.402344 19.5 31.507812 19.46875 31.597656 19.4375 L 33.136719 23.042969 C 33.265625 24.066406 33.488281 24.996094 34.136719 25.371094 L 34.96875 27.332031 C 34.371094 27.574219 33.742188 27.769531 33.09375 27.917969 Z M 35.257812 27.210938 L 34.535156 25.515625 C 34.542969 25.515625 34.542969 25.515625 34.550781 25.515625 C 34.652344 25.53125 34.757812 25.539062 34.871094 25.539062 C 35.378906 25.539062 35.976562 25.34375 36.617188 24.972656 L 37.375 26.011719 C 36.714844 26.484375 36 26.882812 35.257812 27.210938 Z M 37.613281 25.839844 L 36.871094 24.824219 C 37.03125 24.71875 37.195312 24.605469 37.359375 24.484375 C 37.648438 24.269531 37.933594 24.019531 38.21875 23.742188 L 39.085938 24.546875 C 38.636719 25.011719 38.144531 25.441406 37.613281 25.839844 Z M 39.300781 24.320312 L 38.433594 23.523438 C 38.914062 23.027344 39.382812 22.449219 39.773438 21.828125 L 40.742188 22.382812 C 40.332031 23.074219 39.847656 23.726562 39.300781 24.320312 Z M 40.898438 22.121094 L 39.929688 21.570312 C 40.234375 21.046875 40.488281 20.503906 40.652344 19.957031 L 41.722656 20.324219 C 41.503906 20.949219 41.222656 21.554688 40.898438 22.121094 Z M 41.828125 20.039062 L 40.734375 19.664062 C 40.789062 19.4375 40.824219 19.207031 40.847656 18.972656 C 40.886719 18.46875 40.832031 17.980469 40.691406 17.523438 L 42.355469 17.695312 C 42.253906 18.5 42.074219 19.289062 41.828125 20.039062 Z M 38.980469 15.398438 C 38.964844 15.390625 38.949219 15.382812 38.933594 15.375 C 37.410156 14.503906 35.492188 14.675781 33.765625 15.816406 C 33.75 15.683594 33.71875 15.546875 33.683594 15.425781 L 41.886719 12.769531 C 42.125 13.519531 42.289062 14.300781 42.363281 15.105469 Z M 33.59375 15.132812 C 33.554688 15.015625 33.503906 14.910156 33.449219 14.804688 L 40.988281 10.648438 C 41.304688 11.234375 41.578125 11.84375 41.789062 12.476562 Z M 33.300781 14.546875 C 33.226562 14.421875 33.136719 14.300781 33.046875 14.195312 L 39.457031 8.457031 C 39.980469 9.050781 40.445312 9.695312 40.847656 10.386719 Z M 32.839844 13.96875 C 32.761719 13.878906 32.667969 13.796875 32.570312 13.722656 L 34.691406 10.933594 C 35.675781 10.207031 36.582031 9.449219 36.484375 8.570312 L 37.761719 6.886719 C 38.292969 7.292969 38.792969 7.75 39.25 8.246094 Z M 36.378906 8.199219 C 36.15625 7.683594 35.648438 7.1875 34.894531 6.765625 L 35.46875 5.496094 C 36.199219 5.828125 36.878906 6.234375 37.515625 6.699219 Z M 34.625 6.617188 C 34.460938 6.539062 34.28125 6.457031 34.09375 6.375 C 33.75 6.234375 33.375 6.105469 32.972656 5.992188 L 33.265625 4.730469 C 33.929688 4.894531 34.570312 5.105469 35.191406 5.367188 Z M 32.679688 5.917969 C 32.023438 5.757812 31.3125 5.648438 30.605469 5.625 L 30.605469 4.40625 C 31.417969 4.414062 32.203125 4.503906 32.964844 4.664062 Z M 30.304688 5.617188 C 29.691406 5.609375 29.09375 5.667969 28.527344 5.804688 L 28.289062 4.601562 C 28.945312 4.476562 29.617188 4.414062 30.304688 4.40625 Z M 27.996094 4.648438 L 28.234375 5.878906 C 28.003906 5.941406 27.773438 6.03125 27.5625 6.128906 C 27.128906 6.332031 26.742188 6.609375 26.425781 6.9375 L 25.71875 5.367188 C 26.449219 5.054688 27.210938 4.820312 27.996094 4.648438 Z M 25.449219 5.496094 L 26.210938 7.1875 C 25.808594 7.691406 25.539062 8.296875 25.433594 8.945312 L 23.699219 6.488281 C 24.253906 6.105469 24.835938 5.773438 25.449219 5.496094 Z M 23.453125 6.660156 L 25.382812 9.402344 C 25.382812 9.460938 25.382812 9.507812 25.382812 9.566406 C 25.390625 11.289062 26.472656 12.84375 28.289062 13.765625 C 28.214844 13.828125 28.144531 13.894531 28.078125 13.960938 L 21.667969 8.222656 C 22.207031 7.652344 22.804688 7.125 23.453125 6.660156 Z M 21.464844 8.457031 L 27.871094 14.195312 C 27.800781 14.285156 27.726562 14.382812 27.667969 14.480469 L 20.277344 10.070312 C 20.628906 9.492188 21.019531 8.953125 21.464844 8.457031 Z M 20.113281 10.3125 L 27.503906 14.722656 C 27.4375 14.855469 27.375 14.984375 27.324219 15.125 L 19.121094 12.46875 C 19.382812 11.722656 19.710938 10.996094 20.113281 10.3125 Z M 19.023438 12.769531 L 27.226562 15.425781 C 27.195312 15.53125 27.167969 15.644531 27.152344 15.757812 L 23.78125 15.351562 C 22.578125 14.832031 21.375 14.359375 20.628906 14.96875 L 18.589844 14.714844 C 18.6875 14.039062 18.828125 13.398438 19.023438 12.769531 Z M 19.925781 17.558594 C 19.933594 17.71875 19.949219 17.890625 19.972656 18.0625 C 20.023438 18.4375 20.105469 18.835938 20.210938 19.25 L 18.957031 19.632812 C 18.777344 19.003906 18.648438 18.363281 18.566406 17.703125 Z M 20.292969 19.542969 C 20.488281 20.203125 20.757812 20.878906 21.09375 21.503906 L 20.015625 22.121094 C 19.621094 21.421875 19.300781 20.691406 19.046875 19.917969 Z M 21.242188 21.773438 C 21.535156 22.285156 21.878906 22.757812 22.265625 23.15625 L 21.308594 23.984375 C 20.882812 23.488281 20.496094 22.953125 20.160156 22.390625 Z M 22.488281 23.367188 C 22.660156 23.53125 22.839844 23.675781 23.027344 23.808594 C 23.445312 24.09375 23.894531 24.289062 24.359375 24.394531 L 23.296875 25.839844 C 22.640625 25.363281 22.042969 24.808594 21.503906 24.207031 Z M 24.6875 24.457031 C 24.851562 24.484375 25.015625 24.492188 25.1875 24.492188 C 25.644531 24.492188 26.105469 24.410156 26.546875 24.238281 L 25.246094 27.023438 C 24.648438 26.738281 24.082031 26.402344 23.550781 26.027344 Z M 26.964844 24.042969 C 27.011719 24.019531 27.0625 23.996094 27.113281 23.960938 C 28.59375 23.105469 29.402344 21.429688 29.320312 19.429688 C 29.421875 19.460938 29.519531 19.492188 29.617188 19.519531 L 27.824219 27.910156 C 27.011719 27.730469 26.242188 27.46875 25.515625 27.144531 Z M 37.679688 36.347656 C 38.417969 36.648438 39.054688 36.910156 39.054688 37.203125 L 39.054688 39.390625 C 39.054688 39.523438 38.964844 39.636719 38.824219 39.660156 C 38.113281 39.800781 35.878906 40.109375 30.453125 40.117188 L 30.289062 40.117188 C 24.851562 40.109375 22.617188 39.800781 21.90625 39.660156 C 21.773438 39.636719 21.683594 39.523438 21.683594 39.390625 L 21.683594 37.382812 C 24.269531 37.714844 27.160156 37.804688 29.632812 37.804688 C 30.460938 37.804688 31.246094 37.796875 31.949219 37.78125 C 32.03125 37.78125 32.097656 37.707031 32.097656 37.625 C 32.097656 37.542969 32.023438 37.472656 31.941406 37.480469 C 29.15625 37.542969 25.15625 37.519531 21.71875 37.082031 C 21.855469 36.828125 22.421875 36.601562 23.058594 36.339844 C 24.050781 35.941406 25.402344 35.386719 26.523438 34.273438 C 27.332031 33.46875 27.898438 32.449219 28.214844 31.269531 C 28.984375 31.523438 29.722656 31.613281 30.371094 31.613281 C 31.375 31.613281 32.164062 31.410156 32.515625 31.292969 C 32.832031 32.464844 33.40625 33.476562 34.207031 34.273438 C 35.339844 35.394531 36.699219 35.941406 37.679688 36.347656 Z M 32.417969 30.832031 C 31.933594 30.984375 30.214844 31.441406 28.339844 30.804688 C 28.40625 30.480469 28.453125 30.148438 28.488281 29.804688 C 29.125 29.902344 29.789062 29.953125 30.453125 29.953125 C 31.066406 29.953125 31.664062 29.910156 32.261719 29.828125 C 32.292969 30.179688 32.351562 30.503906 32.417969 30.832031 Z M 32.71875 29.277344 C 32.710938 29.015625 32.710938 28.753906 32.71875 28.488281 C 38.515625 27.429688 42.917969 22.367188 42.917969 16.304688 C 42.917969 9.476562 37.328125 3.917969 30.460938 3.917969 C 23.589844 3.917969 18 9.476562 18 16.304688 C 18 22.238281 22.207031 27.316406 28.035156 28.453125 C 28.042969 28.722656 28.042969 28.984375 28.035156 29.242188 C 21.765625 28.097656 17.214844 22.667969 17.214844 16.304688 C 17.214844 9.042969 23.148438 3.136719 30.453125 3.136719 C 37.753906 3.136719 43.695312 9.042969 43.695312 16.304688 C 43.695312 22.796875 38.949219 28.203125 32.71875 29.277344 Z M 32.71875 29.277344 "/></g><path style=" stroke:none;fill-rule:nonzero;fill:#231f20;fill-opacity:1;" d="M 30.460938 17.679688 C 31.222656 17.679688 31.84375 17.058594 31.84375 16.304688 C 31.84375 15.546875 31.222656 14.929688 30.460938 14.929688 C 29.699219 14.929688 29.074219 15.546875 29.074219 16.304688 C 29.074219 16.972656 29.550781 17.539062 30.214844 17.65625 C 30.289062 17.671875 30.378906 17.679688 30.460938 17.679688 Z M 29.566406 16.304688 C 29.566406 15.816406 29.96875 15.417969 30.460938 15.417969 C 30.949219 15.417969 31.351562 15.816406 31.351562 16.304688 C 31.351562 16.792969 30.949219 17.191406 30.460938 17.191406 C 30.402344 17.191406 30.351562 17.183594 30.296875 17.175781 C 29.871094 17.101562 29.566406 16.734375 29.566406 16.304688 Z M 29.566406 16.304688 "/><path style=" stroke:none;fill-rule:nonzero;fill:#231f20;fill-opacity:1;" d="M 34.816406 37.527344 C 34.824219 37.609375 34.886719 37.675781 34.96875 37.675781 C 34.96875 37.675781 34.976562 37.675781 34.976562 37.675781 C 36.214844 37.609375 36.984375 37.554688 36.992188 37.554688 C 37.074219 37.542969 37.140625 37.472656 37.132812 37.390625 C 37.121094 37.308594 37.050781 37.242188 36.96875 37.25 C 36.960938 37.25 36.191406 37.308594 34.960938 37.375 C 34.871094 37.375 34.804688 37.445312 34.816406 37.527344 Z M 34.816406 37.527344 "/><path style=" stroke:none;fill-rule:nonzero;fill:#231f20;fill-opacity:1;" d="M 28.25 35.65625 C 28.199219 35.445312 28.003906 35.289062 27.78125 35.289062 L 26.261719 35.289062 C 26.039062 35.289062 25.851562 35.4375 25.792969 35.65625 L 25.546875 36.683594 C 25.523438 36.761719 25.546875 36.851562 25.597656 36.917969 L 25.703125 37.023438 L 27.980469 37.023438 C 28.125 37.023438 28.265625 36.957031 28.355469 36.84375 C 28.445312 36.730469 28.480469 36.585938 28.445312 36.4375 Z M 26.078125 36.542969 L 26.261719 35.769531 L 27.773438 35.761719 L 27.972656 36.535156 L 26.078125 36.535156 Z M 26.078125 36.542969 "/><path style=" stroke:none;fill-rule:nonzero;fill:#231f20;fill-opacity:1;" d="M 31.058594 35.289062 L 29.535156 35.289062 C 29.3125 35.289062 29.125 35.4375 29.066406 35.65625 L 28.824219 36.683594 C 28.796875 36.761719 28.824219 36.851562 28.871094 36.917969 L 28.976562 37.023438 L 31.507812 37.023438 C 31.597656 37.023438 31.671875 36.984375 31.726562 36.917969 L 31.808594 36.796875 L 31.53125 35.648438 C 31.476562 35.4375 31.277344 35.289062 31.058594 35.289062 Z M 29.355469 36.542969 L 29.535156 35.769531 L 31.050781 35.761719 L 31.238281 36.542969 Z M 29.355469 36.542969 "/><path style=" stroke:none;fill-rule:nonzero;fill:#231f20;fill-opacity:1;" d="M 32.34375 35.65625 L 32.097656 36.683594 C 32.070312 36.761719 32.097656 36.851562 32.144531 36.917969 L 32.253906 37.023438 L 34.78125 37.023438 C 34.871094 37.023438 34.945312 36.984375 35.003906 36.917969 L 35.085938 36.796875 L 34.804688 35.648438 C 34.757812 35.4375 34.5625 35.28125 34.339844 35.28125 L 32.816406 35.28125 C 32.589844 35.289062 32.398438 35.4375 32.34375 35.65625 Z M 34.511719 36.542969 L 32.621094 36.542969 L 32.800781 35.769531 L 34.316406 35.761719 Z M 34.511719 36.542969 "/><path style=" stroke:none;fill-rule:nonzero;fill:#231f20;fill-opacity:1;" d="M 34.4375 39.359375 C 34.355469 39.359375 34.28125 39.425781 34.28125 39.507812 C 34.28125 39.585938 34.347656 39.660156 34.429688 39.660156 C 34.585938 39.667969 34.742188 39.667969 34.894531 39.667969 C 35.65625 39.667969 36.425781 39.605469 37.171875 39.472656 C 37.253906 39.457031 37.3125 39.382812 37.292969 39.304688 C 37.277344 39.222656 37.203125 39.164062 37.121094 39.179688 C 36.238281 39.328125 35.332031 39.390625 34.4375 39.359375 Z M 34.4375 39.359375 "/><path style=" stroke:none;fill-rule:nonzero;fill:#231f20;fill-opacity:1;" d="M 37.925781 39.441406 C 37.933594 39.441406 37.941406 39.441406 37.949219 39.441406 L 38.335938 39.367188 C 38.417969 39.351562 38.472656 39.269531 38.457031 39.1875 C 38.441406 39.109375 38.359375 39.050781 38.277344 39.066406 L 37.890625 39.140625 C 37.8125 39.15625 37.753906 39.238281 37.769531 39.320312 C 37.785156 39.390625 37.851562 39.441406 37.925781 39.441406 Z M 37.925781 39.441406 "/><path style=" stroke:none;fill-rule:nonzero;fill:#231f20;fill-opacity:1;" d="M 31.335938 18.273438 C 31.359375 18.328125 31.417969 18.363281 31.476562 18.363281 C 31.5 18.363281 31.515625 18.355469 31.539062 18.347656 C 32.234375 18.035156 32.777344 17.410156 32.980469 16.679688 C 33.003906 16.597656 32.957031 16.515625 32.875 16.492188 C 32.792969 16.464844 32.710938 16.515625 32.6875 16.597656 C 32.507812 17.238281 32.03125 17.792969 31.410156 18.070312 C 31.335938 18.109375 31.304688 18.199219 31.335938 18.273438 Z M 31.335938 18.273438 "/><path style=" stroke:none;fill-rule:nonzero;fill:#231f20;fill-opacity:1;" d="M 30.648438 18.417969 C 30.582031 18.453125 30.507812 18.460938 30.441406 18.445312 C 30.363281 18.425781 30.28125 18.476562 30.261719 18.558594 C 30.246094 18.640625 30.296875 18.71875 30.378906 18.738281 C 30.417969 18.746094 30.46875 18.753906 30.515625 18.753906 C 30.613281 18.753906 30.714844 18.730469 30.796875 18.6875 C 30.867188 18.648438 30.902344 18.558594 30.859375 18.484375 C 30.8125 18.410156 30.722656 18.378906 30.648438 18.417969 Z M 30.648438 18.417969 "/><path style=" stroke:none;fill-rule:nonzero;fill:#231f20;fill-opacity:1;" d="M 28.535156 32.074219 C 28.453125 32.050781 28.371094 32.09375 28.339844 32.164062 C 28.199219 32.5625 27.996094 32.9375 27.734375 33.273438 C 27.683594 33.335938 27.691406 33.433594 27.757812 33.484375 C 27.78125 33.507812 27.816406 33.515625 27.847656 33.515625 C 27.898438 33.515625 27.9375 33.492188 27.972656 33.460938 C 28.25 33.101562 28.46875 32.703125 28.617188 32.269531 C 28.660156 32.191406 28.617188 32.101562 28.535156 32.074219 Z M 28.535156 32.074219 "/><g clip-rule="nonzero" clip-path="url(#12650fd0e1)"><path style=" stroke:none;fill-rule:nonzero;fill:#ffffff;fill-opacity:1;" d="M 31.09375 16.351562 C 31.09375 16.515625 31.035156 16.652344 30.917969 16.769531 C 30.804688 16.886719 30.664062 16.945312 30.5 16.945312 C 30.335938 16.945312 30.195312 16.886719 30.082031 16.769531 C 29.964844 16.652344 29.90625 16.515625 29.90625 16.351562 C 29.90625 16.1875 29.964844 16.046875 30.082031 15.929688 C 30.195312 15.816406 30.335938 15.757812 30.5 15.757812 C 30.664062 15.757812 30.804688 15.816406 30.917969 15.929688 C 31.035156 16.046875 31.09375 16.1875 31.09375 16.351562 Z M 31.09375 16.351562 "/></g></g></svg>