<svg xmlns="http://www.w3.org/2000/svg" xmlns:xlink="http://www.w3.org/1999/xlink" width="82" zoomAndPan="magnify" viewBox="0 0 61.5 45.749999" height="61" preserveAspectRatio="xMidYMid meet" version="1.2"><defs><clipPath id="8069575fc9"><path d="M 29.90625 15.757812 L 31.394531 15.757812 L 31.394531 17 L 29.90625 17 Z M 29.90625 15.757812 "/></clipPath><clipPath id="075b7bc51d"><path d="M 8.613281 4.597656 L 51 4.597656 L 51 39.5625 L 8.613281 39.5625 Z M 8.613281 4.597656 "/></clipPath></defs><g id="4dc97260de"><g clip-rule="nonzero" clip-path="url(#8069575fc9)"><path style=" stroke:none;fill-rule:nonzero;fill:#ffffff;fill-opacity:1;" d="M 31.09375 16.351562 C 31.09375 16.515625 31.035156 16.652344 30.917969 16.769531 C 30.804688 16.886719 30.664062 16.945312 30.5 16.945312 C 30.335938 16.945312 30.195312 16.886719 30.082031 16.769531 C 29.964844 16.652344 29.90625 16.515625 29.90625 16.351562 C 29.90625 16.1875 29.964844 16.046875 30.082031 15.929688 C 30.195312 15.816406 30.335938 15.757812 30.5 15.757812 C 30.664062 15.757812 30.804688 15.816406 30.917969 15.929688 C 31.035156 16.046875 31.09375 16.1875 31.09375 16.351562 Z M 31.09375 16.351562 "/></g><path style=" stroke:none;fill-rule:nonzero;fill:#000000;fill-opacity:1;" d="M 26.183594 32.441406 L 26.105469 32.441406 C 25.886719 32.441406 25.699219 32.363281 25.542969 32.207031 C 25.390625 32.050781 25.3125 31.863281 25.3125 31.640625 C 25.3125 31.421875 25.390625 31.234375 25.542969 31.078125 C 25.699219 30.921875 25.886719 30.84375 26.105469 30.84375 L 26.183594 30.84375 C 26.402344 30.84375 26.585938 30.921875 26.742188 31.078125 C 26.898438 31.234375 26.976562 31.421875 26.976562 31.640625 C 26.976562 31.863281 26.898438 32.050781 26.742188 32.207031 C 26.585938 32.363281 26.402344 32.441406 26.183594 32.441406 Z M 26.183594 32.441406 "/><path style=" stroke:none;fill-rule:nonzero;fill:#000000;fill-opacity:1;" d="M 29.710938 32.441406 L 29.632812 32.441406 C 29.414062 32.441406 29.230469 32.363281 29.074219 32.207031 C 28.917969 32.050781 28.84375 31.863281 28.84375 31.640625 C 28.84375 31.421875 28.917969 31.234375 29.074219 31.078125 C 29.230469 30.921875 29.414062 30.84375 29.632812 30.84375 L 29.710938 30.84375 C 29.929688 30.84375 30.117188 30.921875 30.273438 31.078125 C 30.425781 31.234375 30.503906 31.421875 30.503906 31.640625 C 30.503906 31.863281 30.425781 32.050781 30.273438 32.207031 C 30.117188 32.363281 29.929688 32.441406 29.710938 32.441406 Z M 29.710938 32.441406 "/><path style=" stroke:none;fill-rule:nonzero;fill:#000000;fill-opacity:1;" d="M 33.390625 32.441406 L 33.316406 32.441406 C 33.097656 32.441406 32.910156 32.363281 32.753906 32.207031 C 32.597656 32.050781 32.523438 31.863281 32.523438 31.640625 C 32.523438 31.421875 32.597656 31.234375 32.753906 31.078125 C 32.910156 30.921875 33.097656 30.84375 33.316406 30.84375 L 33.390625 30.84375 C 33.609375 30.84375 33.796875 30.921875 33.953125 31.078125 C 34.105469 31.234375 34.183594 31.421875 34.183594 31.640625 C 34.183594 31.863281 34.105469 32.050781 33.953125 32.207031 C 33.796875 32.363281 33.609375 32.441406 33.390625 32.441406 Z M 33.390625 32.441406 "/><g clip-rule="nonzero" clip-path="url(#075b7bc51d)"><path style=" stroke:none;fill-rule:nonzero;fill:#000000;fill-opacity:1;" d="M 50.757812 28.652344 L 48.21875 18.515625 L 47.222656 14.539062 C 47.222656 14.527344 47.214844 14.511719 47.210938 14.496094 C 47.054688 13.984375 46.789062 13.535156 46.414062 13.152344 C 46.039062 12.769531 45.597656 12.5 45.089844 12.335938 C 45.683594 10.394531 47.0625 7.066406 49.054688 6.257812 C 49.257812 6.175781 49.402344 6.03125 49.488281 5.828125 C 49.574219 5.625 49.578125 5.421875 49.496094 5.214844 C 49.414062 5.011719 49.273438 4.863281 49.074219 4.777344 C 48.871094 4.691406 48.667969 4.6875 48.464844 4.769531 C 45.515625 5.964844 43.964844 10.503906 43.484375 12.183594 L 17.296875 12.183594 C 17.070312 12.183594 16.847656 12.207031 16.625 12.253906 C 16.402344 12.300781 16.1875 12.367188 15.984375 12.460938 C 15.777344 12.550781 15.582031 12.664062 15.394531 12.796875 C 15.210938 12.929688 15.042969 13.078125 14.890625 13.246094 C 14.738281 13.414062 14.605469 13.597656 14.488281 13.792969 C 14.371094 13.992188 14.277344 14.195312 14.203125 14.414062 C 14.132812 14.628906 14.082031 14.851562 14.054688 15.078125 C 14.027344 15.304688 14.019531 15.53125 14.039062 15.757812 L 14.070312 16.136719 C 14.101562 16.546875 14.207031 16.941406 14.386719 17.316406 C 14.566406 17.6875 14.808594 18.015625 15.109375 18.296875 C 15.410156 18.574219 15.753906 18.789062 16.136719 18.941406 C 16.519531 19.089844 16.917969 19.164062 17.328125 19.160156 L 31.414062 19.160156 C 32.042969 19.160156 32.65625 19.253906 33.257812 19.433594 C 33.859375 19.617188 34.421875 19.882812 34.945312 20.230469 C 35.472656 20.582031 35.933594 21 36.335938 21.484375 C 36.738281 21.972656 37.0625 22.507812 37.3125 23.09375 C 37.511719 23.566406 37.714844 24.050781 37.917969 24.53125 C 37.476562 24.523438 36.9375 24.511719 36.335938 24.5 C 36.25 24.148438 36.113281 23.820312 35.917969 23.519531 C 35.726562 23.214844 35.488281 22.949219 35.207031 22.726562 C 34.925781 22.503906 34.617188 22.332031 34.277344 22.210938 C 33.941406 22.09375 33.59375 22.035156 33.234375 22.035156 L 28.964844 22.035156 C 28.082031 22.03125 27.328125 22.34375 26.707031 22.976562 C 26.277344 23.410156 26.035156 23.925781 25.855469 24.53125 C 25.691406 24.539062 25.539062 24.546875 25.398438 24.558594 C 19.148438 25.039062 15.101562 27.527344 12.8125 29.527344 C 9.9375 32.039062 8.636719 34.804688 8.613281 36.441406 C 8.613281 36.457031 8.613281 36.46875 8.613281 36.484375 L 8.613281 38.761719 C 8.613281 38.980469 8.691406 39.167969 8.847656 39.328125 C 9 39.484375 9.1875 39.5625 9.40625 39.5625 L 47.523438 39.5625 C 47.742188 39.5625 47.929688 39.484375 48.085938 39.328125 C 48.238281 39.167969 48.316406 38.980469 48.316406 38.761719 L 48.316406 37.230469 C 48.515625 37.175781 48.695312 37.082031 48.855469 36.949219 C 49.015625 36.816406 49.140625 36.65625 49.234375 36.46875 C 49.328125 36.285156 49.378906 36.085938 49.386719 35.878906 C 49.398438 35.667969 49.363281 35.46875 49.289062 35.273438 L 48.335938 32.832031 C 48.558594 32.78125 48.769531 32.710938 48.972656 32.617188 C 49.179688 32.523438 49.371094 32.410156 49.554688 32.277344 C 49.734375 32.140625 49.902344 31.992188 50.050781 31.820312 C 50.203125 31.652344 50.335938 31.46875 50.449219 31.273438 C 50.5625 31.078125 50.65625 30.871094 50.726562 30.65625 C 50.796875 30.441406 50.847656 30.222656 50.871094 29.996094 C 50.898438 29.769531 50.902344 29.542969 50.882812 29.316406 C 50.863281 29.089844 50.820312 28.867188 50.753906 28.652344 Z M 38.78125 13.785156 L 44.089844 13.785156 C 44.453125 13.78125 44.785156 13.890625 45.078125 14.105469 C 45.375 14.324219 45.578125 14.609375 45.6875 14.960938 L 46.421875 17.898438 L 43.636719 17.898438 C 40.960938 17.898438 38.78125 16.207031 38.78125 14.125 Z M 27.558594 24.46875 C 27.703125 24.210938 27.898438 24.011719 28.152344 23.859375 C 28.402344 23.710938 28.671875 23.636719 28.964844 23.636719 L 33.234375 23.636719 C 33.527344 23.636719 33.796875 23.710938 34.050781 23.859375 C 34.300781 24.007812 34.496094 24.210938 34.640625 24.46875 Z M 46.730469 37.960938 L 10.203125 37.960938 L 10.203125 37.285156 L 46.730469 37.285156 Z M 48.976562 30.617188 C 48.644531 31.078125 48.191406 31.308594 47.625 31.308594 L 47.199219 31.308594 C 47.070312 31.308594 46.945312 31.339844 46.832031 31.402344 C 46.714844 31.464844 46.621094 31.546875 46.546875 31.65625 C 46.472656 31.765625 46.429688 31.886719 46.417969 32.019531 C 46.402344 32.148438 46.417969 32.277344 46.464844 32.398438 L 47.746094 35.679688 L 10.332031 35.679688 C 10.679688 34.472656 11.726562 32.59375 13.847656 30.734375 C 15.972656 28.878906 19.703125 26.597656 25.519531 26.152344 C 25.8125 26.128906 26.160156 26.109375 26.566406 26.09375 L 26.597656 26.09375 C 28.953125 26.003906 32.800781 26.039062 35.617188 26.082031 L 35.628906 26.082031 C 37.613281 26.117188 39.089844 26.152344 39.105469 26.152344 C 39.394531 26.160156 39.621094 26.046875 39.78125 25.804688 C 39.945312 25.5625 39.96875 25.308594 39.855469 25.042969 L 39.824219 24.964844 C 39.476562 24.132812 39.121094 23.285156 38.769531 22.453125 C 38.460938 21.726562 38.054688 21.058594 37.554688 20.453125 C 37.050781 19.84375 36.476562 19.324219 35.820312 18.886719 C 35.167969 18.453125 34.464844 18.121094 33.714844 17.894531 C 32.964844 17.667969 32.199219 17.554688 31.414062 17.554688 L 17.328125 17.554688 C 17.117188 17.554688 16.910156 17.519531 16.714844 17.441406 C 16.515625 17.363281 16.339844 17.253906 16.183594 17.109375 C 16.03125 16.964844 15.90625 16.796875 15.8125 16.605469 C 15.722656 16.414062 15.667969 16.210938 15.648438 16 L 15.621094 15.621094 C 15.601562 15.382812 15.628906 15.152344 15.703125 14.929688 C 15.78125 14.703125 15.898438 14.503906 16.058594 14.328125 C 16.21875 14.15625 16.40625 14.019531 16.621094 13.925781 C 16.835938 13.828125 17.058594 13.78125 17.296875 13.78125 L 37.195312 13.78125 L 37.195312 14.121094 C 37.195312 17.085938 40.085938 19.5 43.636719 19.5 L 46.828125 19.5 L 49.222656 29.0625 C 49.222656 29.074219 49.230469 29.089844 49.234375 29.101562 C 49.40625 29.652344 49.320312 30.15625 48.976562 30.617188 Z M 48.976562 30.617188 "/></g></g></svg>