<svg xmlns="http://www.w3.org/2000/svg" xmlns:xlink="http://www.w3.org/1999/xlink" width="1920" zoomAndPan="magnify" viewBox="0 0 1440 809.999993" height="1080" preserveAspectRatio="xMidYMid meet" version="1.2"><defs><clipPath id="ec6d616364"><path d="M 628.5 406 L 810.75 406 L 810.75 447 L 628.5 447 Z M 628.5 406 "/></clipPath><clipPath id="4e51286e9a"><path d="M 628.5 433 L 810.75 433 L 810.75 512 L 628.5 512 Z M 628.5 433 "/></clipPath><clipPath id="157dc5eb35"><path d="M 701.667969 542.804688 L 715.992188 542.804688 L 715.992188 557.054688 L 701.667969 557.054688 Z M 701.667969 542.804688 "/></clipPath><clipPath id="37879852be"><path d="M 723.242188 542.804688 L 737.570312 542.804688 L 737.570312 557.054688 L 723.242188 557.054688 Z M 723.242188 542.804688 "/></clipPath></defs><g id="20702e8f89"><g clip-rule="nonzero" clip-path="url(#ec6d616364)"><path style=" stroke:none;fill-rule:nonzero;fill:#000000;fill-opacity:1;" d="M 804.261719 446.390625 L 634.988281 446.390625 C 634.5625 446.390625 634.144531 446.347656 633.726562 446.265625 C 633.308594 446.183594 632.90625 446.058594 632.511719 445.898438 C 632.121094 445.734375 631.746094 445.535156 631.394531 445.300781 C 631.039062 445.0625 630.714844 444.796875 630.414062 444.496094 C 630.113281 444.195312 629.84375 443.867188 629.609375 443.515625 C 629.371094 443.160156 629.171875 442.789062 629.011719 442.398438 C 628.847656 442.003906 628.722656 441.601562 628.640625 441.183594 C 628.558594 440.769531 628.515625 440.347656 628.515625 439.921875 L 628.515625 412.894531 C 628.515625 412.46875 628.558594 412.046875 628.640625 411.632812 C 628.722656 411.214844 628.847656 410.8125 629.011719 410.417969 C 629.171875 410.027344 629.371094 409.652344 629.609375 409.300781 C 629.84375 408.949219 630.113281 408.621094 630.414062 408.320312 C 630.714844 408.019531 631.039062 407.753906 631.394531 407.515625 C 631.746094 407.28125 632.121094 407.082031 632.511719 406.917969 C 632.90625 406.757812 633.308594 406.632812 633.726562 406.550781 C 634.144531 406.46875 634.5625 406.425781 634.988281 406.425781 L 804.261719 406.425781 C 804.6875 406.425781 805.105469 406.46875 805.523438 406.550781 C 805.941406 406.632812 806.34375 406.757812 806.738281 406.917969 C 807.128906 407.082031 807.503906 407.28125 807.855469 407.515625 C 808.210938 407.753906 808.535156 408.019531 808.835938 408.320312 C 809.136719 408.621094 809.40625 408.949219 809.640625 409.300781 C 809.878906 409.652344 810.078125 410.027344 810.238281 410.417969 C 810.402344 410.8125 810.523438 411.214844 810.609375 411.632812 C 810.691406 412.046875 810.734375 412.46875 810.734375 412.894531 L 810.734375 439.921875 C 810.734375 440.347656 810.691406 440.769531 810.609375 441.183594 C 810.523438 441.601562 810.402344 442.003906 810.238281 442.398438 C 810.078125 442.789062 809.878906 443.160156 809.640625 443.515625 C 809.40625 443.867188 809.136719 444.195312 808.835938 444.496094 C 808.535156 444.796875 808.210938 445.0625 807.855469 445.300781 C 807.503906 445.535156 807.128906 445.734375 806.738281 445.898438 C 806.34375 446.058594 805.941406 446.183594 805.523438 446.265625 C 805.105469 446.347656 804.6875 446.390625 804.261719 446.390625 Z M 641.460938 433.457031 L 797.789062 433.457031 L 797.789062 419.359375 L 641.460938 419.359375 Z M 641.460938 433.457031 "/></g><g clip-rule="nonzero" clip-path="url(#4e51286e9a)"><path style=" stroke:none;fill-rule:nonzero;fill:#000000;fill-opacity:1;" d="M 770.320312 511.070312 L 668.929688 511.070312 C 667.605469 511.066406 666.285156 511 664.96875 510.871094 C 663.652344 510.738281 662.34375 510.542969 661.046875 510.285156 C 659.75 510.023438 658.46875 509.703125 657.203125 509.316406 C 655.9375 508.933594 654.691406 508.488281 653.46875 507.980469 C 652.246094 507.472656 651.054688 506.910156 649.886719 506.285156 C 648.71875 505.660156 647.585938 504.980469 646.488281 504.246094 C 645.386719 503.511719 644.324219 502.722656 643.300781 501.886719 C 642.28125 501.046875 641.300781 500.160156 640.367188 499.226562 C 639.429688 498.289062 638.542969 497.3125 637.703125 496.289062 C 636.863281 495.265625 636.074219 494.207031 635.339844 493.109375 C 634.605469 492.007812 633.925781 490.875 633.300781 489.710938 C 632.675781 488.542969 632.113281 487.351562 631.605469 486.128906 C 631.097656 484.910156 630.652344 483.667969 630.265625 482.402344 C 629.882812 481.136719 629.558594 479.855469 629.300781 478.558594 C 629.042969 477.261719 628.847656 475.957031 628.714844 474.640625 C 628.585938 473.324219 628.519531 472.007812 628.515625 470.683594 L 628.515625 439.921875 C 628.515625 439.496094 628.558594 439.078125 628.640625 438.660156 C 628.722656 438.246094 628.847656 437.839844 629.011719 437.449219 C 629.171875 437.054688 629.371094 436.683594 629.609375 436.332031 C 629.84375 435.976562 630.113281 435.652344 630.414062 435.351562 C 630.714844 435.050781 631.039062 434.78125 631.394531 434.546875 C 631.746094 434.308594 632.121094 434.109375 632.511719 433.949219 C 632.90625 433.785156 633.308594 433.664062 633.726562 433.582031 C 634.144531 433.496094 634.5625 433.457031 634.988281 433.457031 L 804.261719 433.457031 C 804.6875 433.457031 805.105469 433.496094 805.523438 433.582031 C 805.941406 433.664062 806.34375 433.785156 806.738281 433.949219 C 807.128906 434.109375 807.503906 434.308594 807.855469 434.546875 C 808.210938 434.78125 808.535156 435.050781 808.835938 435.351562 C 809.136719 435.652344 809.40625 435.976562 809.640625 436.332031 C 809.878906 436.683594 810.078125 437.054688 810.238281 437.449219 C 810.402344 437.839844 810.523438 438.246094 810.609375 438.660156 C 810.691406 439.078125 810.734375 439.496094 810.734375 439.921875 L 810.734375 470.683594 C 810.730469 472.007812 810.664062 473.324219 810.535156 474.640625 C 810.402344 475.957031 810.207031 477.261719 809.949219 478.558594 C 809.691406 479.855469 809.367188 481.136719 808.984375 482.402344 C 808.597656 483.667969 808.152344 484.910156 807.644531 486.128906 C 807.136719 487.351562 806.574219 488.542969 805.949219 489.710938 C 805.324219 490.875 804.644531 492.007812 803.910156 493.109375 C 803.175781 494.207031 802.386719 495.265625 801.546875 496.289062 C 800.707031 497.3125 799.820312 498.289062 798.882812 499.226562 C 797.949219 500.160156 796.96875 501.046875 795.945312 501.886719 C 794.925781 502.722656 793.863281 503.511719 792.761719 504.246094 C 791.664062 504.980469 790.53125 505.660156 789.363281 506.285156 C 788.195312 506.910156 787.003906 507.472656 785.78125 507.980469 C 784.558594 508.488281 783.3125 508.933594 782.046875 509.316406 C 780.78125 509.703125 779.5 510.023438 778.203125 510.285156 C 776.90625 510.542969 775.597656 510.738281 774.28125 510.871094 C 772.964844 511 771.644531 511.066406 770.320312 511.070312 Z M 641.460938 446.40625 L 641.460938 470.683594 C 641.460938 471.582031 641.507812 472.480469 641.59375 473.375 C 641.683594 474.269531 641.816406 475.15625 641.992188 476.039062 C 642.167969 476.917969 642.386719 477.789062 642.648438 478.648438 C 642.910156 479.507812 643.214844 480.355469 643.558594 481.183594 C 643.902344 482.015625 644.289062 482.824219 644.710938 483.617188 C 645.136719 484.410156 645.597656 485.179688 646.097656 485.925781 C 646.597656 486.675781 647.132812 487.394531 647.703125 488.089844 C 648.273438 488.785156 648.878906 489.449219 649.511719 490.085938 C 650.148438 490.71875 650.8125 491.324219 651.507812 491.894531 C 652.203125 492.464844 652.925781 493 653.671875 493.5 C 654.421875 494 655.191406 494.460938 655.984375 494.882812 C 656.777344 495.308594 657.589844 495.691406 658.421875 496.035156 C 659.25 496.382812 660.097656 496.683594 660.957031 496.945312 C 661.816406 497.207031 662.6875 497.425781 663.570312 497.601562 C 664.453125 497.777344 665.339844 497.910156 666.238281 498 C 667.132812 498.089844 668.027344 498.136719 668.929688 498.136719 L 770.320312 498.136719 C 771.222656 498.136719 772.117188 498.089844 773.011719 498 C 773.910156 497.910156 774.796875 497.777344 775.679688 497.601562 C 776.5625 497.425781 777.433594 497.207031 778.292969 496.945312 C 779.152344 496.683594 780 496.382812 780.828125 496.035156 C 781.660156 495.691406 782.472656 495.308594 783.265625 494.882812 C 784.058594 494.460938 784.828125 494 785.574219 493.5 C 786.324219 493 787.046875 492.464844 787.742188 491.894531 C 788.433594 491.324219 789.101562 490.71875 789.738281 490.085938 C 790.371094 489.449219 790.976562 488.785156 791.546875 488.089844 C 792.117188 487.394531 792.652344 486.675781 793.152344 485.925781 C 793.652344 485.179688 794.113281 484.410156 794.539062 483.617188 C 794.960938 482.824219 795.347656 482.015625 795.691406 481.183594 C 796.035156 480.355469 796.339844 479.507812 796.601562 478.648438 C 796.863281 477.789062 797.082031 476.917969 797.257812 476.039062 C 797.433594 475.15625 797.566406 474.269531 797.652344 473.375 C 797.742188 472.480469 797.789062 471.582031 797.789062 470.683594 L 797.789062 446.390625 Z M 641.460938 446.40625 "/></g><path style=" stroke:none;fill-rule:nonzero;fill:#000000;fill-opacity:1;" d="M 746.488281 589.992188 L 692.761719 589.992188 C 691.964844 589.992188 691.167969 589.949219 690.371094 589.871094 C 689.578125 589.792969 688.785156 589.675781 688.003906 589.519531 C 687.21875 589.363281 686.445312 589.167969 685.683594 588.933594 C 684.917969 588.703125 684.167969 588.433594 683.429688 588.128906 C 682.691406 587.824219 681.96875 587.480469 681.265625 587.105469 C 680.5625 586.726562 679.875 586.316406 679.210938 585.875 C 678.546875 585.429688 677.90625 584.957031 677.289062 584.449219 C 676.671875 583.941406 676.082031 583.40625 675.515625 582.84375 C 674.953125 582.277344 674.417969 581.6875 673.910156 581.070312 C 673.402344 580.453125 672.925781 579.8125 672.484375 579.148438 C 672.039062 578.484375 671.628906 577.800781 671.253906 577.097656 C 670.875 576.394531 670.535156 575.671875 670.230469 574.933594 C 669.921875 574.199219 669.652344 573.449219 669.421875 572.683594 C 669.1875 571.917969 668.996094 571.148438 668.839844 570.363281 C 668.683594 569.582031 668.566406 568.792969 668.484375 567.996094 C 668.40625 567.203125 668.367188 566.40625 668.367188 565.609375 L 668.367188 504.601562 C 668.367188 504.179688 668.410156 503.757812 668.492188 503.339844 C 668.574219 502.925781 668.695312 502.519531 668.859375 502.128906 C 669.023438 501.734375 669.222656 501.363281 669.457031 501.011719 C 669.695312 500.65625 669.960938 500.332031 670.261719 500.03125 C 670.5625 499.730469 670.890625 499.460938 671.242188 499.226562 C 671.597656 498.988281 671.96875 498.789062 672.363281 498.628906 C 672.753906 498.464844 673.160156 498.34375 673.578125 498.261719 C 673.992188 498.175781 674.414062 498.136719 674.839844 498.136719 C 675.265625 498.136719 675.683594 498.175781 676.101562 498.261719 C 676.519531 498.34375 676.921875 498.464844 677.316406 498.628906 C 677.707031 498.789062 678.082031 498.988281 678.433594 499.226562 C 678.789062 499.460938 679.113281 499.730469 679.414062 500.03125 C 679.714844 500.332031 679.984375 500.65625 680.21875 501.011719 C 680.457031 501.363281 680.65625 501.734375 680.820312 502.128906 C 680.980469 502.519531 681.105469 502.925781 681.1875 503.339844 C 681.269531 503.757812 681.3125 504.179688 681.3125 504.601562 L 681.3125 565.609375 C 681.3125 566.359375 681.386719 567.105469 681.53125 567.839844 C 681.679688 568.578125 681.898438 569.292969 682.183594 569.984375 C 682.472656 570.679688 682.824219 571.339844 683.242188 571.964844 C 683.660156 572.585938 684.136719 573.164062 684.667969 573.695312 C 685.199219 574.226562 685.777344 574.703125 686.402344 575.121094 C 687.027344 575.535156 687.6875 575.890625 688.382812 576.175781 C 689.074219 576.464844 689.792969 576.683594 690.527344 576.828125 C 691.265625 576.976562 692.011719 577.050781 692.761719 577.050781 L 746.488281 577.050781 C 747.238281 577.050781 747.984375 576.976562 748.722656 576.828125 C 749.457031 576.683594 750.175781 576.464844 750.867188 576.175781 C 751.5625 575.890625 752.222656 575.535156 752.847656 575.121094 C 753.472656 574.703125 754.050781 574.226562 754.582031 573.695312 C 755.113281 573.164062 755.589844 572.585938 756.007812 571.964844 C 756.425781 571.339844 756.777344 570.679688 757.066406 569.984375 C 757.351562 569.292969 757.570312 568.578125 757.71875 567.839844 C 757.863281 567.105469 757.9375 566.359375 757.9375 565.609375 L 757.9375 504.601562 C 757.9375 504.179688 757.980469 503.757812 758.0625 503.339844 C 758.144531 502.925781 758.269531 502.519531 758.429688 502.128906 C 758.59375 501.734375 758.792969 501.363281 759.03125 501.011719 C 759.265625 500.65625 759.535156 500.332031 759.835938 500.03125 C 760.136719 499.730469 760.460938 499.460938 760.816406 499.226562 C 761.167969 498.988281 761.542969 498.789062 761.933594 498.628906 C 762.328125 498.464844 762.730469 498.34375 763.148438 498.261719 C 763.566406 498.175781 763.984375 498.136719 764.410156 498.136719 C 764.835938 498.136719 765.257812 498.175781 765.671875 498.261719 C 766.089844 498.34375 766.496094 498.464844 766.886719 498.628906 C 767.28125 498.789062 767.652344 498.988281 768.007812 499.226562 C 768.359375 499.460938 768.6875 499.730469 768.988281 500.03125 C 769.289062 500.332031 769.554688 500.65625 769.792969 501.011719 C 770.027344 501.363281 770.226562 501.734375 770.390625 502.128906 C 770.550781 502.519531 770.675781 502.925781 770.757812 503.339844 C 770.839844 503.757812 770.882812 504.179688 770.882812 504.601562 L 770.882812 565.609375 C 770.882812 566.40625 770.84375 567.203125 770.765625 567.996094 C 770.683594 568.792969 770.566406 569.582031 770.410156 570.363281 C 770.253906 571.148438 770.0625 571.917969 769.828125 572.683594 C 769.597656 573.449219 769.328125 574.199219 769.019531 574.933594 C 768.714844 575.671875 768.375 576.394531 767.996094 577.097656 C 767.621094 577.800781 767.210938 578.484375 766.765625 579.148438 C 766.324219 579.8125 765.847656 580.453125 765.339844 581.070312 C 764.832031 581.6875 764.296875 582.277344 763.734375 582.84375 C 763.167969 583.40625 762.578125 583.941406 761.960938 584.449219 C 761.34375 584.957031 760.703125 585.429688 760.039062 585.875 C 759.375 586.316406 758.6875 586.726562 757.984375 587.105469 C 757.28125 587.480469 756.558594 587.824219 755.820312 588.128906 C 755.082031 588.433594 754.332031 588.703125 753.566406 588.933594 C 752.804688 589.167969 752.03125 589.363281 751.246094 589.519531 C 750.464844 589.675781 749.671875 589.792969 748.878906 589.871094 C 748.082031 589.949219 747.285156 589.992188 746.488281 589.992188 Z M 746.488281 589.992188 "/><path style=" stroke:none;fill-rule:nonzero;fill:#000000;fill-opacity:1;" d="M 674.839844 535.753906 C 674.414062 535.769531 673.992188 535.742188 673.570312 535.675781 C 673.152344 535.609375 672.742188 535.503906 672.34375 535.355469 C 671.945312 535.207031 671.5625 535.023438 671.203125 534.800781 C 670.839844 534.578125 670.5 534.324219 670.191406 534.035156 C 669.878906 533.746094 669.597656 533.429688 669.347656 533.085938 C 669.097656 532.742188 668.882812 532.378906 668.707031 531.992188 C 668.527344 531.605469 668.390625 531.207031 668.289062 530.792969 C 668.191406 530.378906 668.132812 529.960938 668.117188 529.535156 C 668.101562 529.113281 668.125 528.691406 668.191406 528.269531 C 668.257812 527.851562 668.367188 527.441406 668.515625 527.042969 C 668.660156 526.644531 668.847656 526.265625 669.070312 525.902344 C 669.292969 525.539062 669.546875 525.203125 669.835938 524.890625 C 670.125 524.578125 670.441406 524.296875 670.785156 524.046875 C 671.128906 523.800781 671.496094 523.585938 671.882812 523.40625 C 672.265625 523.230469 672.667969 523.09375 673.082031 522.992188 C 673.496094 522.894531 673.914062 522.835938 674.339844 522.820312 L 763.902344 515.828125 C 764.328125 515.792969 764.75 515.800781 765.175781 515.851562 C 765.597656 515.902344 766.011719 515.992188 766.417969 516.125 C 766.824219 516.257812 767.214844 516.425781 767.585938 516.636719 C 767.957031 516.84375 768.304688 517.085938 768.628906 517.363281 C 768.953125 517.640625 769.25 517.945312 769.511719 518.28125 C 769.777344 518.613281 770.003906 518.972656 770.199219 519.351562 C 770.390625 519.730469 770.546875 520.125 770.660156 520.535156 C 770.777344 520.945312 770.851562 521.363281 770.886719 521.789062 C 770.917969 522.214844 770.910156 522.636719 770.859375 523.0625 C 770.808594 523.484375 770.71875 523.898438 770.585938 524.304688 C 770.453125 524.707031 770.28125 525.097656 770.074219 525.46875 C 769.863281 525.839844 769.621094 526.1875 769.34375 526.511719 C 769.066406 526.835938 768.761719 527.128906 768.425781 527.390625 C 768.089844 527.65625 767.730469 527.882812 767.351562 528.078125 C 766.972656 528.269531 766.574219 528.421875 766.164062 528.539062 C 765.753906 528.652344 765.335938 528.726562 764.910156 528.761719 L 675.347656 535.753906 Z M 674.839844 535.753906 "/><path style=" stroke:none;fill-rule:nonzero;fill:#000000;fill-opacity:1;" d="M 674.839844 563.515625 C 674.414062 563.53125 673.992188 563.503906 673.574219 563.4375 C 673.152344 563.371094 672.746094 563.261719 672.347656 563.113281 C 671.949219 562.96875 671.566406 562.78125 671.207031 562.558594 C 670.84375 562.335938 670.507812 562.082031 670.195312 561.792969 C 669.882812 561.503906 669.601562 561.1875 669.355469 560.84375 C 669.105469 560.5 668.890625 560.136719 668.714844 559.75 C 668.535156 559.367188 668.398438 558.964844 668.296875 558.554688 C 668.199219 558.140625 668.140625 557.722656 668.125 557.296875 C 668.109375 556.875 668.132812 556.453125 668.203125 556.03125 C 668.269531 555.613281 668.375 555.203125 668.523438 554.804688 C 668.667969 554.40625 668.855469 554.027344 669.074219 553.664062 C 669.296875 553.304688 669.554688 552.96875 669.839844 552.65625 C 670.128906 552.34375 670.445312 552.0625 670.789062 551.8125 C 671.132812 551.5625 671.496094 551.351562 671.882812 551.171875 C 672.269531 550.996094 672.667969 550.855469 673.082031 550.757812 C 673.496094 550.65625 673.914062 550.597656 674.339844 550.582031 L 763.902344 543.589844 C 764.320312 543.566406 764.734375 543.585938 765.148438 543.640625 C 765.566406 543.699219 765.96875 543.796875 766.363281 543.933594 C 766.761719 544.070312 767.140625 544.242188 767.5 544.453125 C 767.863281 544.664062 768.203125 544.90625 768.515625 545.183594 C 768.832031 545.457031 769.117188 545.761719 769.371094 546.089844 C 769.628906 546.421875 769.851562 546.773438 770.039062 547.148438 C 770.226562 547.519531 770.375 547.910156 770.488281 548.3125 C 770.601562 548.714844 770.671875 549.125 770.703125 549.542969 C 770.738281 549.957031 770.730469 550.375 770.679688 550.789062 C 770.632812 551.207031 770.546875 551.613281 770.417969 552.011719 C 770.292969 552.410156 770.128906 552.792969 769.925781 553.15625 C 769.726562 553.523438 769.488281 553.867188 769.222656 554.1875 C 768.953125 554.511719 768.65625 554.800781 768.332031 555.066406 C 768.007812 555.328125 767.660156 555.558594 767.292969 555.753906 C 766.921875 555.953125 766.535156 556.109375 766.136719 556.234375 C 765.734375 556.355469 765.328125 556.4375 764.910156 556.480469 L 675.347656 563.480469 Z M 674.839844 563.515625 "/><path style=" stroke:none;fill-rule:nonzero;fill:#000000;fill-opacity:1;" d="M 708.675781 419.671875 L 648.003906 419.671875 C 647.578125 419.671875 647.15625 419.628906 646.738281 419.546875 C 646.324219 419.464844 645.917969 419.339844 645.523438 419.179688 C 645.132812 419.015625 644.761719 418.816406 644.40625 418.582031 C 644.054688 418.34375 643.726562 418.078125 643.425781 417.777344 C 643.125 417.476562 642.855469 417.148438 642.621094 416.796875 C 642.386719 416.445312 642.183594 416.070312 642.023438 415.679688 C 641.859375 415.285156 641.738281 414.882812 641.65625 414.464844 C 641.570312 414.050781 641.53125 413.628906 641.53125 413.203125 L 641.53125 238.113281 C 641.53125 236.371094 641.652344 234.636719 641.898438 232.90625 C 642.144531 231.179688 642.515625 229.480469 643.003906 227.804688 C 643.492188 226.132812 644.097656 224.5 644.820312 222.910156 C 645.539062 221.320312 646.371094 219.792969 647.308594 218.320312 C 648.25 216.851562 649.289062 215.453125 650.425781 214.132812 C 651.566406 212.808594 652.792969 211.574219 654.105469 210.425781 C 655.421875 209.277344 656.808594 208.226562 658.273438 207.277344 C 659.738281 206.324219 661.261719 205.484375 662.84375 204.75 C 664.429688 204.015625 666.054688 203.394531 667.726562 202.894531 C 669.398438 202.390625 671.097656 202.007812 672.824219 201.746094 C 674.550781 201.488281 676.289062 201.347656 678.035156 201.335938 C 679.78125 201.320312 681.519531 201.429688 683.25 201.664062 C 684.980469 201.894531 686.683594 202.25 688.363281 202.726562 C 690.042969 203.199219 691.683594 203.792969 693.277344 204.5 C 694.871094 205.210938 696.410156 206.027344 697.890625 206.953125 C 699.367188 207.878906 700.773438 208.90625 702.109375 210.035156 C 702.410156 210.316406 702.679688 210.621094 702.921875 210.957031 C 703.167969 211.289062 703.375 211.640625 703.550781 212.015625 C 703.726562 212.386719 703.863281 212.773438 703.964844 213.171875 C 704.066406 213.570312 704.128906 213.976562 704.152344 214.386719 C 704.175781 214.796875 704.160156 215.207031 704.105469 215.617188 C 704.050781 216.023438 703.960938 216.425781 703.828125 216.816406 C 703.699219 217.207031 703.53125 217.578125 703.328125 217.9375 C 703.125 218.296875 702.890625 218.632812 702.625 218.949219 C 702.355469 219.261719 702.0625 219.546875 701.742188 219.804688 C 701.421875 220.0625 701.078125 220.289062 700.710938 220.480469 C 700.347656 220.671875 699.96875 220.828125 699.574219 220.949219 C 699.179688 221.066406 698.777344 221.148438 698.367188 221.191406 C 697.957031 221.234375 697.546875 221.238281 697.136719 221.203125 C 696.726562 221.167969 696.324219 221.09375 695.925781 220.980469 C 695.527344 220.871094 695.148438 220.722656 694.777344 220.535156 C 694.410156 220.351562 694.0625 220.132812 693.738281 219.878906 C 692.871094 219.152344 691.960938 218.488281 691.003906 217.886719 C 690.042969 217.289062 689.046875 216.761719 688.011719 216.304688 C 686.976562 215.847656 685.917969 215.464844 684.828125 215.15625 C 683.738281 214.851562 682.636719 214.621094 681.515625 214.472656 C 680.394531 214.324219 679.265625 214.253906 678.136719 214.261719 C 677.003906 214.273438 675.878906 214.363281 674.761719 214.53125 C 673.644531 214.703125 672.542969 214.953125 671.460938 215.277344 C 670.378906 215.605469 669.324219 216.003906 668.296875 216.480469 C 667.273438 216.957031 666.285156 217.503906 665.335938 218.121094 C 664.390625 218.734375 663.488281 219.417969 662.640625 220.160156 C 661.789062 220.90625 660.992188 221.707031 660.257812 222.5625 C 659.519531 223.417969 658.847656 224.324219 658.238281 225.277344 C 657.628906 226.230469 657.089844 227.21875 656.625 228.25 C 656.15625 229.277344 655.765625 230.335938 655.449219 231.417969 C 655.128906 232.503906 654.890625 233.605469 654.730469 234.726562 C 654.570312 235.84375 654.492188 236.96875 654.492188 238.097656 L 654.492188 406.738281 L 706.679688 406.738281 C 707.316406 406.535156 707.972656 406.433594 708.640625 406.4375 C 709.066406 406.433594 709.484375 406.476562 709.902344 406.558594 C 710.320312 406.640625 710.722656 406.761719 711.117188 406.925781 C 711.507812 407.085938 711.882812 407.285156 712.234375 407.519531 C 712.589844 407.757812 712.914062 408.023438 713.214844 408.324219 C 713.515625 408.625 713.785156 408.949219 714.019531 409.304688 C 714.257812 409.65625 714.457031 410.027344 714.617188 410.421875 C 714.78125 410.8125 714.90625 411.214844 714.988281 411.632812 C 715.070312 412.050781 715.113281 412.46875 715.113281 412.894531 L 715.113281 413.203125 C 715.113281 413.628906 715.070312 414.046875 714.988281 414.460938 C 714.90625 414.875 714.785156 415.28125 714.621094 415.671875 C 714.460938 416.0625 714.261719 416.433594 714.027344 416.785156 C 713.792969 417.136719 713.527344 417.464844 713.226562 417.765625 C 712.929688 418.0625 712.605469 418.332031 712.253906 418.570312 C 711.902344 418.804688 711.53125 419.003906 711.140625 419.167969 C 710.75 419.332031 710.347656 419.457031 709.933594 419.539062 C 709.515625 419.625 709.097656 419.667969 708.675781 419.671875 Z M 708.675781 419.671875 "/><path style=" stroke:none;fill-rule:nonzero;fill:#000000;fill-opacity:1;" d="M 791.246094 419.671875 L 730.585938 419.671875 C 730.160156 419.671875 729.738281 419.628906 729.320312 419.546875 C 728.90625 419.464844 728.5 419.339844 728.105469 419.179688 C 727.714844 419.015625 727.34375 418.816406 726.988281 418.582031 C 726.636719 418.34375 726.308594 418.078125 726.007812 417.777344 C 725.707031 417.476562 725.4375 417.148438 725.203125 416.796875 C 724.96875 416.445312 724.765625 416.070312 724.605469 415.679688 C 724.441406 415.285156 724.320312 414.882812 724.238281 414.464844 C 724.152344 414.050781 724.113281 413.628906 724.113281 413.203125 L 724.113281 412.917969 C 724.113281 412.410156 724.171875 411.90625 724.289062 411.414062 C 724.40625 410.917969 724.578125 410.441406 724.808594 409.988281 C 725.039062 409.53125 725.320312 409.109375 725.648438 408.722656 C 725.980469 408.332031 726.351562 407.988281 726.761719 407.6875 C 727.171875 407.386719 727.613281 407.136719 728.082031 406.941406 C 728.554688 406.742188 729.039062 406.601562 729.542969 406.519531 C 730.046875 406.4375 730.550781 406.414062 731.058594 406.453125 C 731.570312 406.488281 732.066406 406.582031 732.550781 406.738281 L 784.777344 406.738281 L 784.777344 238.113281 C 784.777344 236.984375 784.699219 235.859375 784.539062 234.738281 C 784.378906 233.617188 784.144531 232.515625 783.828125 231.429688 C 783.511719 230.34375 783.117188 229.285156 782.652344 228.253906 C 782.183594 227.222656 781.648438 226.230469 781.039062 225.277344 C 780.429688 224.324219 779.757812 223.417969 779.019531 222.558594 C 778.285156 221.699219 777.488281 220.898438 776.636719 220.152344 C 775.785156 219.410156 774.886719 218.726562 773.9375 218.109375 C 772.988281 217.492188 772 216.945312 770.972656 216.46875 C 769.945312 215.992188 768.890625 215.589844 767.808594 215.261719 C 766.722656 214.9375 765.621094 214.6875 764.503906 214.519531 C 763.382812 214.347656 762.257812 214.257812 761.125 214.25 C 759.992188 214.238281 758.867188 214.308594 757.746094 214.457031 C 756.621094 214.609375 755.515625 214.839844 754.425781 215.144531 C 753.335938 215.453125 752.273438 215.835938 751.242188 216.296875 C 750.207031 216.753906 749.207031 217.285156 748.25 217.882812 C 747.289062 218.484375 746.378906 219.148438 745.511719 219.878906 C 745.1875 220.15625 744.839844 220.394531 744.46875 220.601562 C 744.097656 220.808594 743.710938 220.976562 743.304688 221.105469 C 742.898438 221.238281 742.488281 221.324219 742.0625 221.375 C 741.640625 221.421875 741.21875 221.429688 740.796875 221.394531 C 740.371094 221.359375 739.957031 221.285156 739.546875 221.167969 C 739.136719 221.050781 738.746094 220.898438 738.367188 220.703125 C 737.988281 220.507812 737.632812 220.28125 737.300781 220.015625 C 736.964844 219.753906 736.664062 219.457031 736.386719 219.132812 C 736.113281 218.8125 735.871094 218.464844 735.664062 218.09375 C 735.457031 217.722656 735.289062 217.332031 735.160156 216.929688 C 735.03125 216.523438 734.941406 216.109375 734.890625 215.6875 C 734.84375 215.265625 734.835938 214.84375 734.871094 214.421875 C 734.90625 214 734.980469 213.582031 735.097656 213.171875 C 735.214844 212.765625 735.371094 212.371094 735.5625 211.996094 C 735.757812 211.617188 735.988281 211.261719 736.25 210.929688 C 736.515625 210.597656 736.808594 210.292969 737.132812 210.015625 C 738.46875 208.890625 739.875 207.867188 741.351562 206.941406 C 742.832031 206.015625 744.367188 205.199219 745.964844 204.492188 C 747.558594 203.785156 749.195312 203.195312 750.875 202.71875 C 752.554688 202.246094 754.261719 201.894531 755.988281 201.660156 C 757.71875 201.429688 759.457031 201.320312 761.203125 201.335938 C 762.949219 201.347656 764.683594 201.488281 766.410156 201.75 C 768.132812 202.011719 769.832031 202.390625 771.503906 202.894531 C 773.175781 203.398438 774.800781 204.015625 776.386719 204.75 C 777.96875 205.484375 779.492188 206.328125 780.953125 207.277344 C 782.417969 208.226562 783.804688 209.277344 785.121094 210.425781 C 786.433594 211.570312 787.660156 212.808594 788.796875 214.128906 C 789.9375 215.449219 790.976562 216.847656 791.914062 218.316406 C 792.855469 219.785156 793.683594 221.3125 794.40625 222.902344 C 795.128906 224.488281 795.734375 226.121094 796.222656 227.792969 C 796.714844 229.46875 797.082031 231.167969 797.328125 232.894531 C 797.578125 234.621094 797.703125 236.355469 797.703125 238.097656 L 797.703125 413.203125 C 797.703125 413.628906 797.660156 414.046875 797.578125 414.464844 C 797.496094 414.878906 797.375 415.28125 797.210938 415.675781 C 797.050781 416.066406 796.851562 416.4375 796.617188 416.792969 C 796.378906 417.144531 796.113281 417.46875 795.8125 417.769531 C 795.511719 418.070312 795.1875 418.339844 794.835938 418.574219 C 794.484375 418.8125 794.109375 419.011719 793.71875 419.171875 C 793.328125 419.335938 792.925781 419.460938 792.507812 419.542969 C 792.09375 419.625 791.671875 419.667969 791.246094 419.671875 Z M 791.246094 419.671875 "/><path style=" stroke:none;fill-rule:nonzero;fill:#000000;fill-opacity:1;" d="M 756.109375 419.386719 L 683.140625 419.386719 C 682.714844 419.386719 682.292969 419.34375 681.878906 419.261719 C 681.460938 419.179688 681.054688 419.054688 680.664062 418.894531 C 680.269531 418.730469 679.898438 418.53125 679.542969 418.296875 C 679.191406 418.058594 678.863281 417.792969 678.5625 417.492188 C 678.261719 417.191406 677.996094 416.863281 677.757812 416.511719 C 677.523438 416.160156 677.324219 415.785156 677.160156 415.394531 C 677 415 676.875 414.597656 676.792969 414.179688 C 676.710938 413.765625 676.667969 413.34375 676.667969 412.917969 L 676.667969 244.261719 C 676.667969 242.855469 676.738281 241.453125 676.875 240.054688 C 677.011719 238.65625 677.21875 237.269531 677.492188 235.890625 C 677.769531 234.511719 678.109375 233.148438 678.519531 231.804688 C 678.925781 230.457031 679.398438 229.136719 679.9375 227.839844 C 680.476562 226.539062 681.078125 225.269531 681.742188 224.03125 C 682.402344 222.792969 683.125 221.585938 683.90625 220.417969 C 684.691406 219.25 685.527344 218.121094 686.417969 217.035156 C 687.3125 215.949219 688.253906 214.910156 689.25 213.914062 C 690.246094 212.921875 691.285156 211.976562 692.375 211.085938 C 693.460938 210.195312 694.589844 209.359375 695.757812 208.578125 C 696.929688 207.796875 698.132812 207.074219 699.375 206.410156 C 700.617188 205.75 701.886719 205.148438 703.1875 204.609375 C 704.484375 204.074219 705.808594 203.601562 707.15625 203.191406 C 708.5 202.785156 709.863281 202.441406 711.246094 202.167969 C 712.625 201.894531 714.015625 201.6875 715.414062 201.550781 C 716.816406 201.414062 718.21875 201.34375 719.625 201.34375 C 721.03125 201.34375 722.433594 201.414062 723.835938 201.550781 C 725.234375 201.6875 726.625 201.894531 728.003906 202.167969 C 729.386719 202.441406 730.75 202.785156 732.09375 203.191406 C 733.441406 203.601562 734.765625 204.074219 736.0625 204.609375 C 737.363281 205.148438 738.632812 205.75 739.875 206.410156 C 741.117188 207.074219 742.320312 207.796875 743.492188 208.578125 C 744.660156 209.359375 745.789062 210.195312 746.875 211.085938 C 747.964844 211.976562 749.003906 212.921875 750 213.914062 C 750.996094 214.910156 751.9375 215.949219 752.832031 217.035156 C 753.722656 218.121094 754.558594 219.25 755.34375 220.417969 C 756.125 221.585938 756.847656 222.792969 757.507812 224.03125 C 758.171875 225.269531 758.773438 226.539062 759.3125 227.839844 C 759.851562 229.136719 760.324219 230.457031 760.730469 231.804688 C 761.140625 233.148438 761.480469 234.511719 761.757812 235.890625 C 762.03125 237.269531 762.238281 238.65625 762.375 240.054688 C 762.511719 241.453125 762.582031 242.855469 762.582031 244.261719 L 762.582031 412.917969 C 762.582031 413.34375 762.539062 413.765625 762.457031 414.179688 C 762.375 414.597656 762.25 415 762.089844 415.394531 C 761.925781 415.785156 761.726562 416.160156 761.492188 416.511719 C 761.253906 416.863281 760.984375 417.191406 760.6875 417.492188 C 760.386719 417.792969 760.058594 418.058594 759.703125 418.296875 C 759.351562 418.53125 758.980469 418.730469 758.585938 418.894531 C 758.195312 419.054688 757.789062 419.179688 757.371094 419.261719 C 756.957031 419.34375 756.535156 419.386719 756.109375 419.386719 Z M 689.613281 406.453125 L 749.636719 406.453125 L 749.636719 244.261719 C 749.636719 243.28125 749.589844 242.300781 749.492188 241.324219 C 749.398438 240.347656 749.253906 239.375 749.0625 238.414062 C 748.867188 237.449219 748.628906 236.496094 748.34375 235.558594 C 748.058594 234.617188 747.730469 233.695312 747.351562 232.789062 C 746.976562 231.878906 746.558594 230.992188 746.09375 230.128906 C 745.628906 229.261719 745.125 228.417969 744.578125 227.601562 C 744.035156 226.785156 743.449219 226 742.824219 225.238281 C 742.203125 224.480469 741.542969 223.753906 740.847656 223.058594 C 740.152344 222.363281 739.425781 221.707031 738.664062 221.082031 C 737.90625 220.460938 737.117188 219.875 736.300781 219.328125 C 735.480469 218.785156 734.640625 218.28125 733.773438 217.816406 C 732.90625 217.355469 732.019531 216.933594 731.109375 216.558594 C 730.203125 216.183594 729.277344 215.851562 728.335938 215.566406 C 727.398438 215.28125 726.445312 215.042969 725.480469 214.851562 C 724.515625 214.660156 723.546875 214.515625 722.566406 214.421875 C 721.589844 214.324219 720.609375 214.277344 719.625 214.277344 C 718.640625 214.277344 717.660156 214.324219 716.683594 214.421875 C 715.703125 214.515625 714.734375 214.660156 713.769531 214.851562 C 712.804688 215.042969 711.851562 215.28125 710.914062 215.566406 C 709.972656 215.851562 709.046875 216.183594 708.140625 216.558594 C 707.230469 216.933594 706.34375 217.355469 705.476562 217.816406 C 704.609375 218.28125 703.769531 218.785156 702.949219 219.328125 C 702.132812 219.875 701.34375 220.460938 700.585938 221.082031 C 699.824219 221.707031 699.097656 222.363281 698.402344 223.058594 C 697.707031 223.753906 697.046875 224.480469 696.425781 225.238281 C 695.800781 226 695.214844 226.785156 694.671875 227.601562 C 694.125 228.417969 693.621094 229.261719 693.15625 230.128906 C 692.691406 230.992188 692.273438 231.878906 691.898438 232.789062 C 691.519531 233.695312 691.191406 234.617188 690.90625 235.558594 C 690.621094 236.496094 690.378906 237.449219 690.1875 238.414062 C 689.996094 239.375 689.851562 240.347656 689.757812 241.324219 C 689.660156 242.300781 689.613281 243.28125 689.613281 244.261719 Z M 689.613281 406.453125 "/><path style=" stroke:none;fill-rule:nonzero;fill:#000000;fill-opacity:1;" d="M 729.738281 419.367188 C 729.3125 419.371094 728.894531 419.328125 728.476562 419.246094 C 728.058594 419.164062 727.65625 419.042969 727.261719 418.882812 C 726.871094 418.722656 726.496094 418.523438 726.144531 418.289062 C 725.789062 418.050781 725.464844 417.785156 725.164062 417.484375 C 724.863281 417.1875 724.59375 416.859375 724.359375 416.507812 C 724.121094 416.15625 723.921875 415.78125 723.757812 415.390625 C 723.597656 415 723.472656 414.597656 723.390625 414.179688 C 723.308594 413.765625 723.265625 413.34375 723.265625 412.917969 L 723.265625 244.261719 C 723.265625 243.78125 723.175781 243.316406 722.988281 242.871094 C 722.804688 242.425781 722.542969 242.03125 722.199219 241.691406 C 721.859375 241.347656 721.464844 241.085938 721.019531 240.902344 C 720.574219 240.714844 720.109375 240.625 719.625 240.625 C 719.140625 240.625 718.675781 240.714844 718.230469 240.902344 C 717.785156 241.085938 717.390625 241.347656 717.050781 241.691406 C 716.707031 242.03125 716.445312 242.425781 716.261719 242.871094 C 716.074219 243.316406 715.984375 243.78125 715.984375 244.261719 L 715.984375 412.894531 C 715.984375 413.316406 715.941406 413.738281 715.859375 414.15625 C 715.777344 414.570312 715.652344 414.976562 715.492188 415.367188 C 715.328125 415.761719 715.128906 416.132812 714.894531 416.484375 C 714.65625 416.839844 714.386719 417.164062 714.085938 417.464844 C 713.789062 417.765625 713.460938 418.035156 713.105469 418.269531 C 712.753906 418.507812 712.378906 418.707031 711.988281 418.867188 C 711.59375 419.03125 711.191406 419.152344 710.773438 419.234375 C 710.355469 419.320312 709.9375 419.359375 709.511719 419.359375 C 709.085938 419.359375 708.664062 419.320312 708.25 419.234375 C 707.832031 419.152344 707.425781 419.03125 707.035156 418.867188 C 706.640625 418.707031 706.269531 418.507812 705.914062 418.269531 C 705.5625 418.035156 705.234375 417.765625 704.933594 417.464844 C 704.632812 417.164062 704.367188 416.839844 704.128906 416.484375 C 703.894531 416.132812 703.695312 415.761719 703.53125 415.367188 C 703.371094 414.976562 703.246094 414.570312 703.164062 414.15625 C 703.082031 413.738281 703.039062 413.316406 703.039062 412.894531 L 703.039062 244.261719 C 703.039062 243.71875 703.066406 243.179688 703.121094 242.636719 C 703.171875 242.097656 703.253906 241.5625 703.359375 241.03125 C 703.464844 240.496094 703.597656 239.972656 703.753906 239.453125 C 703.910156 238.933594 704.09375 238.421875 704.300781 237.921875 C 704.511719 237.417969 704.742188 236.929688 704.996094 236.449219 C 705.253906 235.972656 705.53125 235.507812 705.835938 235.054688 C 706.136719 234.605469 706.460938 234.167969 706.804688 233.75 C 707.148438 233.332031 707.511719 232.929688 707.898438 232.546875 C 708.28125 232.160156 708.683594 231.796875 709.101562 231.453125 C 709.523438 231.109375 709.957031 230.785156 710.410156 230.484375 C 710.863281 230.183594 711.328125 229.902344 711.804688 229.648438 C 712.285156 229.390625 712.777344 229.160156 713.277344 228.953125 C 713.78125 228.746094 714.289062 228.5625 714.808594 228.40625 C 715.332031 228.246094 715.855469 228.117188 716.390625 228.011719 C 716.921875 227.902344 717.457031 227.824219 718 227.769531 C 718.539062 227.71875 719.082031 227.691406 719.625 227.691406 C 720.167969 227.691406 720.710938 227.71875 721.25 227.769531 C 721.792969 227.824219 722.328125 227.902344 722.859375 228.011719 C 723.394531 228.117188 723.917969 228.246094 724.4375 228.40625 C 724.960938 228.5625 725.46875 228.746094 725.972656 228.953125 C 726.472656 229.160156 726.964844 229.390625 727.441406 229.648438 C 727.921875 229.902344 728.386719 230.183594 728.839844 230.484375 C 729.289062 230.785156 729.726562 231.109375 730.148438 231.453125 C 730.566406 231.796875 730.96875 232.160156 731.351562 232.546875 C 731.738281 232.929688 732.101562 233.332031 732.445312 233.75 C 732.789062 234.167969 733.113281 234.605469 733.414062 235.054688 C 733.71875 235.507812 733.996094 235.972656 734.253906 236.449219 C 734.507812 236.929688 734.738281 237.417969 734.949219 237.921875 C 735.15625 238.421875 735.339844 238.933594 735.496094 239.453125 C 735.652344 239.972656 735.785156 240.496094 735.890625 241.03125 C 735.996094 241.5625 736.078125 242.097656 736.128906 242.636719 C 736.183594 243.179688 736.210938 243.71875 736.210938 244.261719 L 736.210938 412.894531 C 736.210938 413.320312 736.167969 413.738281 736.085938 414.15625 C 736.003906 414.574219 735.878906 414.976562 735.71875 415.371094 C 735.554688 415.761719 735.355469 416.136719 735.121094 416.488281 C 734.882812 416.839844 734.617188 417.167969 734.316406 417.46875 C 734.015625 417.769531 733.6875 418.039062 733.335938 418.273438 C 732.980469 418.511719 732.609375 418.710938 732.214844 418.875 C 731.824219 419.035156 731.417969 419.160156 731 419.242188 C 730.585938 419.324219 730.164062 419.367188 729.738281 419.367188 Z M 729.738281 419.367188 "/><path style=" stroke:none;fill-rule:nonzero;fill:#000000;fill-opacity:1;" d="M 736.332031 610.871094 L 702.917969 610.871094 C 702.199219 610.871094 701.5 610.753906 700.824219 610.523438 C 700.144531 610.289062 699.519531 609.953125 698.953125 609.511719 C 698.386719 609.074219 697.90625 608.554688 697.511719 607.953125 C 697.117188 607.351562 696.832031 606.707031 696.652344 606.011719 L 691.285156 585.128906 C 691.179688 584.71875 691.117188 584.300781 691.09375 583.875 C 691.070312 583.453125 691.089844 583.03125 691.148438 582.609375 C 691.207031 582.1875 691.308594 581.777344 691.449219 581.378906 C 691.589844 580.976562 691.769531 580.59375 691.984375 580.230469 C 692.199219 579.863281 692.449219 579.523438 692.734375 579.207031 C 693.019531 578.890625 693.328125 578.605469 693.667969 578.347656 C 694.007812 578.09375 694.371094 577.875 694.753906 577.691406 C 695.136719 577.507812 695.535156 577.363281 695.945312 577.257812 C 696.359375 577.152344 696.777344 577.085938 697.199219 577.0625 C 697.625 577.039062 698.046875 577.058594 698.46875 577.117188 C 698.886719 577.179688 699.300781 577.277344 699.699219 577.417969 C 700.101562 577.558594 700.484375 577.738281 700.851562 577.953125 C 701.214844 578.171875 701.558594 578.421875 701.875 578.703125 C 702.191406 578.988281 702.476562 579.296875 702.730469 579.636719 C 702.988281 579.976562 703.207031 580.339844 703.390625 580.722656 C 703.574219 581.105469 703.71875 581.5 703.824219 581.914062 L 707.941406 597.941406 L 731.308594 597.941406 L 735.425781 581.914062 C 735.53125 581.5 735.675781 581.105469 735.859375 580.722656 C 736.042969 580.339844 736.261719 579.976562 736.519531 579.636719 C 736.773438 579.296875 737.058594 578.988281 737.375 578.703125 C 737.691406 578.421875 738.035156 578.171875 738.398438 577.953125 C 738.765625 577.738281 739.148438 577.558594 739.550781 577.417969 C 739.949219 577.277344 740.359375 577.179688 740.78125 577.117188 C 741.203125 577.058594 741.625 577.039062 742.050781 577.0625 C 742.472656 577.085938 742.890625 577.152344 743.304688 577.257812 C 743.714844 577.363281 744.113281 577.507812 744.496094 577.691406 C 744.878906 577.875 745.242188 578.09375 745.582031 578.347656 C 745.921875 578.605469 746.230469 578.890625 746.515625 579.207031 C 746.800781 579.523438 747.050781 579.863281 747.265625 580.230469 C 747.480469 580.59375 747.660156 580.976562 747.800781 581.378906 C 747.941406 581.777344 748.042969 582.1875 748.101562 582.609375 C 748.160156 583.03125 748.179688 583.453125 748.15625 583.875 C 748.132812 584.300781 748.070312 584.71875 747.964844 585.128906 L 742.597656 606.011719 C 742.417969 606.707031 742.132812 607.351562 741.738281 607.953125 C 741.34375 608.554688 740.863281 609.074219 740.296875 609.511719 C 739.730469 609.953125 739.105469 610.289062 738.425781 610.523438 C 737.746094 610.753906 737.050781 610.871094 736.332031 610.871094 Z M 736.332031 610.871094 "/><g clip-rule="nonzero" clip-path="url(#157dc5eb35)"><path style=" stroke:none;fill-rule:nonzero;fill:#232323;fill-opacity:1;" d="M 708.796875 554.964844 C 706.011719 554.964844 703.757812 552.710938 703.757812 549.929688 C 703.757812 547.148438 706.011719 544.894531 708.796875 544.894531 C 711.578125 544.894531 713.832031 547.148438 713.832031 549.929688 C 713.832031 552.710938 711.578125 554.964844 708.796875 554.964844 Z M 708.796875 542.804688 C 704.859375 542.804688 701.667969 545.996094 701.667969 549.929688 C 701.667969 553.863281 704.859375 557.054688 708.796875 557.054688 C 712.734375 557.054688 715.925781 553.863281 715.925781 549.929688 C 715.925781 545.996094 712.734375 542.804688 708.796875 542.804688 "/></g><g clip-rule="nonzero" clip-path="url(#37879852be)"><path style=" stroke:none;fill-rule:nonzero;fill:#232323;fill-opacity:1;" d="M 730.441406 554.964844 C 727.65625 554.964844 725.402344 552.710938 725.402344 549.929688 C 725.402344 547.148438 727.65625 544.894531 730.441406 544.894531 C 733.222656 544.894531 735.476562 547.148438 735.476562 549.929688 C 735.476562 552.710938 733.222656 554.964844 730.441406 554.964844 Z M 730.441406 542.804688 C 726.503906 542.804688 723.3125 545.996094 723.3125 549.929688 C 723.3125 553.863281 726.503906 557.054688 730.441406 557.054688 C 734.378906 557.054688 737.570312 553.863281 737.570312 549.929688 C 737.570312 545.996094 734.378906 542.804688 730.441406 542.804688 "/></g><path style=" stroke:none;fill-rule:nonzero;fill:#232323;fill-opacity:1;" d="M 704.828125 549.929688 C 704.828125 547.75 706.597656 545.984375 708.777344 545.984375 C 710.957031 545.984375 712.726562 547.75 712.726562 549.929688 C 712.726562 552.109375 710.957031 553.875 708.777344 553.875 C 706.597656 553.875 704.828125 552.109375 704.828125 549.929688 "/></g></svg>