<svg xmlns="http://www.w3.org/2000/svg" xmlns:xlink="http://www.w3.org/1999/xlink" width="82" zoomAndPan="magnify" viewBox="0 0 61.5 45.749999" height="61" preserveAspectRatio="xMidYMid meet" version="1.2"><defs><clipPath id="619b3b86a2"><path d="M 29.90625 15.757812 L 31.394531 15.757812 L 31.394531 17 L 29.90625 17 Z M 29.90625 15.757812 "/></clipPath><clipPath id="d59ffdac16"><path d="M 15.535156 2.988281 L 46.78125 2.988281 L 46.78125 39.386719 L 15.535156 39.386719 Z M 15.535156 2.988281 "/></clipPath></defs><g id="d3b665e16a"><g clip-rule="nonzero" clip-path="url(#619b3b86a2)"><path style=" stroke:none;fill-rule:nonzero;fill:#ffffff;fill-opacity:1;" d="M 31.09375 16.351562 C 31.09375 16.515625 31.035156 16.652344 30.917969 16.769531 C 30.804688 16.886719 30.664062 16.945312 30.5 16.945312 C 30.335938 16.945312 30.195312 16.886719 30.082031 16.769531 C 29.964844 16.652344 29.90625 16.515625 29.90625 16.351562 C 29.90625 16.1875 29.964844 16.046875 30.082031 15.929688 C 30.195312 15.816406 30.335938 15.757812 30.5 15.757812 C 30.664062 15.757812 30.804688 15.816406 30.917969 15.929688 C 31.035156 16.046875 31.09375 16.1875 31.09375 16.351562 Z M 31.09375 16.351562 "/></g><g clip-rule="nonzero" clip-path="url(#d59ffdac16)"><path style=" stroke:none;fill-rule:nonzero;fill:#141515;fill-opacity:1;" d="M 32.449219 19.90625 C 32.871094 20.003906 33.289062 19.914062 33.644531 19.722656 C 33.898438 19.582031 34.125 19.390625 34.300781 19.179688 C 34.46875 18.972656 34.59375 18.75 34.644531 18.546875 C 34.691406 18.378906 34.6875 18.222656 34.625 18.109375 C 34.59375 18.050781 34.554688 18.003906 34.507812 17.964844 C 34.457031 17.921875 34.398438 17.890625 34.332031 17.871094 C 34.320312 17.867188 34.300781 17.859375 34.28125 17.855469 C 33.898438 17.753906 33.542969 17.949219 33.253906 18.257812 C 32.933594 18.59375 32.695312 19.054688 32.570312 19.433594 C 32.554688 19.480469 32.542969 19.527344 32.527344 19.578125 C 32.5 19.683594 32.472656 19.792969 32.449219 19.90625 Z M 31.046875 18.742188 C 31.136719 18.601562 31.210938 18.449219 31.269531 18.289062 C 31.402344 17.933594 31.472656 17.539062 31.496094 17.15625 C 31.53125 16.671875 31.496094 16.207031 31.433594 15.84375 C 31.425781 15.8125 31.421875 15.785156 31.414062 15.757812 C 31.371094 15.566406 31.296875 15.429688 31.214844 15.347656 C 31.15625 15.289062 31.09375 15.265625 31.039062 15.273438 L 31.027344 15.277344 C 30.914062 15.304688 30.804688 15.515625 30.722656 15.835938 C 30.652344 16.101562 30.613281 16.425781 30.613281 16.773438 C 30.609375 17.125 30.648438 17.503906 30.734375 17.875 C 30.804688 18.175781 30.910156 18.472656 31.046875 18.742188 Z M 29.277344 19.777344 C 29.125 19.132812 28.953125 18.640625 28.761719 18.394531 C 28.417969 17.953125 27.996094 17.773438 27.632812 17.777344 C 27.476562 17.777344 27.328125 17.816406 27.203125 17.878906 C 27.085938 17.941406 26.988281 18.023438 26.925781 18.125 C 26.828125 18.289062 26.808594 18.503906 26.914062 18.75 C 27.117188 19.230469 27.535156 19.53125 28.046875 19.683594 C 28.425781 19.796875 28.851562 19.824219 29.277344 19.777344 Z M 19.589844 7.59375 C 19.503906 7.507812 19.503906 7.367188 19.585938 7.28125 C 19.671875 7.195312 19.808594 7.191406 19.894531 7.277344 L 22.359375 9.71875 C 22.445312 9.800781 22.445312 9.941406 22.359375 10.027344 C 22.277344 10.113281 22.136719 10.117188 22.050781 10.03125 Z M 27.316406 3.257812 C 27.289062 3.140625 27.363281 3.023438 27.480469 2.996094 C 27.597656 2.96875 27.71875 3.042969 27.742188 3.160156 L 28.519531 6.546875 C 28.546875 6.667969 28.472656 6.785156 28.355469 6.8125 C 28.234375 6.839844 28.117188 6.765625 28.09375 6.648438 Z M 36.226562 3.8125 C 36.269531 3.699219 36.394531 3.640625 36.507812 3.679688 C 36.621094 3.71875 36.679688 3.847656 36.640625 3.960938 L 35.464844 7.230469 C 35.425781 7.34375 35.300781 7.402344 35.1875 7.363281 C 35.074219 7.320312 35.015625 7.195312 35.054688 7.082031 Z M 43.457031 9.117188 C 43.554688 9.042969 43.691406 9.0625 43.765625 9.15625 C 43.839844 9.253906 43.820312 9.390625 43.726562 9.464844 L 41 11.605469 C 40.90625 11.679688 40.769531 11.660156 40.695312 11.566406 C 40.621094 11.46875 40.636719 11.332031 40.734375 11.257812 Z M 46.527344 16.941406 C 46.648438 16.921875 46.761719 17 46.78125 17.121094 C 46.804688 17.242188 46.722656 17.355469 46.605469 17.375 L 43.203125 17.988281 C 43.085938 18.007812 42.972656 17.929688 42.949219 17.808594 C 42.925781 17.691406 43.007812 17.574219 43.125 17.554688 Z M 15.699219 15.601562 C 15.582031 15.570312 15.511719 15.449219 15.542969 15.332031 C 15.574219 15.214844 15.695312 15.144531 15.8125 15.175781 L 19.148438 16.074219 C 19.265625 16.101562 19.335938 16.222656 19.304688 16.339844 C 19.273438 16.457031 19.15625 16.527344 19.039062 16.496094 Z M 31.632812 38.945312 C 31.753906 38.945312 31.851562 39.042969 31.851562 39.164062 C 31.855469 39.285156 31.753906 39.386719 31.636719 39.386719 C 31.628906 39.386719 28.796875 39.410156 28.542969 38.363281 C 28.460938 38.027344 28.695312 37.832031 29.121094 37.726562 C 29.613281 37.605469 30.414062 37.59375 31.199219 37.582031 C 32.195312 37.566406 33.15625 37.550781 33.171875 37.425781 C 33.175781 37.40625 32.984375 37.429688 32.695312 37.390625 C 32.203125 37.328125 31.480469 37.304688 30.714844 37.28125 C 28.945312 37.226562 26.980469 37.164062 26.886719 36.464844 C 26.84375 36.128906 27.1875 35.949219 27.769531 35.871094 C 28.605469 35.761719 30.039062 35.8125 31.382812 35.859375 C 32.605469 35.902344 33.757812 35.945312 34.269531 35.863281 C 33.808594 35.726562 32.441406 35.644531 31.019531 35.554688 C 28.992188 35.433594 26.871094 35.300781 26.675781 34.726562 C 26.589844 34.484375 26.71875 34.324219 27.011719 34.222656 C 27.625 34.011719 29.316406 34.054688 30.957031 34.09375 C 32.355469 34.128906 33.710938 34.164062 34.195312 34.089844 C 33.492188 33.890625 31.5625 33.789062 29.933594 33.707031 C 28.738281 33.644531 27.703125 33.589844 27.367188 33.503906 C 27.160156 33.453125 27.023438 33.378906 26.949219 33.292969 C 26.832031 33.152344 26.835938 33.011719 26.949219 32.871094 C 27.011719 32.796875 27.113281 32.726562 27.257812 32.667969 C 27.664062 32.496094 28.5 32.34375 29.660156 32.308594 C 30.703125 32.273438 31.523438 32.261719 32.164062 32.25 C 33.421875 32.230469 33.960938 32.222656 34.152344 32.105469 C 34.234375 32.058594 34.238281 31.914062 34.242188 31.660156 C 34.253906 31.1875 34.273438 30.433594 34.789062 29.226562 C 35.171875 28.34375 35.238281 27.671875 35.304688 27.007812 C 35.402344 26.0625 35.496094 25.128906 36.410156 23.660156 C 36.738281 23.132812 37.082031 22.636719 37.417969 22.15625 C 38.527344 20.5625 39.519531 19.140625 39.515625 16.941406 C 39.507812 14.519531 38.644531 12.652344 37.238281 11.34375 C 35.683594 9.886719 33.457031 9.109375 31.003906 9.011719 C 29.035156 8.933594 27.140625 9.394531 25.574219 10.382812 C 24.109375 11.304688 22.929688 12.6875 22.246094 14.519531 C 21.964844 15.277344 21.820312 16.058594 21.804688 16.816406 C 21.785156 17.609375 21.902344 18.382812 22.140625 19.089844 C 22.566406 20.367188 23.382812 21.488281 24.144531 22.53125 C 24.96875 23.660156 25.726562 24.703125 25.910156 25.808594 C 26.015625 26.449219 26.0625 27.046875 26.101562 27.597656 C 26.191406 28.785156 26.261719 29.746094 26.917969 30.328125 C 27.167969 30.550781 27.488281 30.683594 27.828125 30.722656 C 28.121094 30.757812 28.421875 30.726562 28.707031 30.621094 C 28.988281 30.523438 29.25 30.351562 29.460938 30.109375 C 29.710938 29.828125 29.886719 29.449219 29.945312 28.964844 C 30.078125 27.839844 29.992188 24.945312 29.703125 22.421875 C 29.609375 21.621094 29.5 20.859375 29.371094 20.210938 C 28.871094 20.269531 28.371094 20.238281 27.921875 20.105469 C 27.292969 19.921875 26.769531 19.535156 26.511719 18.921875 C 26.34375 18.53125 26.382812 18.175781 26.554688 17.894531 C 26.660156 17.722656 26.816406 17.582031 27.003906 17.488281 C 27.1875 17.394531 27.398438 17.339844 27.625 17.335938 C 28.113281 17.332031 28.667969 17.558594 29.109375 18.125 C 29.335938 18.417969 29.535156 18.980469 29.703125 19.703125 C 29.808594 19.679688 29.910156 19.652344 30.011719 19.621094 C 30.273438 19.539062 30.523438 19.367188 30.742188 19.140625 L 30.757812 19.125 C 30.550781 18.773438 30.402344 18.378906 30.308594 17.972656 C 30.214844 17.570312 30.175781 17.160156 30.175781 16.773438 C 30.175781 16.386719 30.222656 16.023438 30.296875 15.726562 C 30.421875 15.25 30.644531 14.914062 30.929688 14.847656 C 30.941406 14.84375 30.953125 14.84375 30.960938 14.839844 C 31.160156 14.804688 31.355469 14.871094 31.519531 15.03125 C 31.660156 15.171875 31.777344 15.382812 31.839844 15.660156 C 31.847656 15.695312 31.855469 15.734375 31.863281 15.769531 C 31.933594 16.160156 31.96875 16.664062 31.933594 17.183594 C 31.90625 17.605469 31.828125 18.042969 31.679688 18.441406 C 31.585938 18.695312 31.457031 18.933594 31.304688 19.148438 C 31.5 19.398438 31.738281 19.613281 32.035156 19.757812 C 32.054688 19.65625 32.082031 19.5625 32.105469 19.46875 C 32.117188 19.414062 32.136719 19.359375 32.15625 19.292969 C 32.300781 18.863281 32.574219 18.339844 32.9375 17.953125 C 33.328125 17.539062 33.824219 17.28125 34.390625 17.429688 C 34.414062 17.4375 34.4375 17.441406 34.46875 17.453125 C 34.585938 17.492188 34.691406 17.550781 34.785156 17.625 C 34.875 17.699219 34.949219 17.789062 35.007812 17.898438 C 35.125 18.117188 35.140625 18.382812 35.066406 18.65625 C 35 18.925781 34.847656 19.207031 34.632812 19.464844 C 34.425781 19.714844 34.15625 19.941406 33.851562 20.109375 C 33.410156 20.347656 32.894531 20.460938 32.359375 20.335938 C 31.792969 23.277344 31.851562 27.867188 31.867188 29.378906 C 31.871094 29.601562 31.875 29.769531 31.875 29.789062 C 31.875 29.910156 31.777344 30.007812 31.65625 30.007812 C 31.535156 30.007812 31.4375 29.910156 31.4375 29.789062 C 31.4375 29.636719 31.433594 29.53125 31.433594 29.382812 C 31.414062 27.851562 31.355469 23.183594 31.941406 20.195312 C 31.566406 20.035156 31.261719 19.789062 31.015625 19.488281 C 30.757812 19.746094 30.457031 19.941406 30.140625 20.039062 C 30.027344 20.078125 29.914062 20.109375 29.796875 20.136719 C 29.933594 20.800781 30.046875 21.570312 30.136719 22.375 C 30.429688 24.925781 30.515625 27.863281 30.378906 29.015625 C 30.308594 29.59375 30.09375 30.054688 29.792969 30.402344 C 29.527344 30.703125 29.203125 30.914062 28.855469 31.039062 C 28.507812 31.164062 28.136719 31.203125 27.777344 31.160156 C 27.351562 31.109375 26.949219 30.941406 26.628906 30.65625 C 25.839844 29.957031 25.761719 28.917969 25.664062 27.628906 C 25.625 27.085938 25.582031 26.5 25.480469 25.878906 C 25.3125 24.878906 24.582031 23.875 23.792969 22.792969 C 23.011719 21.722656 22.175781 20.574219 21.726562 19.230469 C 21.472656 18.476562 21.347656 17.652344 21.367188 16.804688 C 21.386719 16 21.539062 15.171875 21.839844 14.363281 C 22.558594 12.4375 23.800781 10.984375 25.34375 10.011719 C 26.988281 8.976562 28.96875 8.492188 31.019531 8.574219 C 33.578125 8.675781 35.902344 9.492188 37.539062 11.019531 C 39.027344 12.410156 39.941406 14.386719 39.949219 16.941406 C 39.957031 19.277344 38.929688 20.753906 37.777344 22.40625 C 37.449219 22.875 37.113281 23.359375 36.78125 23.894531 C 35.917969 25.277344 35.832031 26.15625 35.742188 27.050781 C 35.667969 27.75 35.597656 28.453125 35.191406 29.402344 C 34.707031 30.527344 34.691406 31.230469 34.679688 31.671875 C 34.667969 32.078125 34.664062 32.3125 34.378906 32.484375 C 34.085938 32.660156 33.511719 32.671875 32.171875 32.691406 C 31.535156 32.699219 30.722656 32.714844 29.671875 32.746094 C 28.582031 32.78125 27.808594 32.917969 27.4375 33.070312 C 27.449219 33.070312 27.460938 33.074219 27.472656 33.078125 C 27.773438 33.15625 28.789062 33.207031 29.953125 33.269531 C 31.785156 33.363281 33.984375 33.476562 34.558594 33.757812 C 34.785156 33.871094 34.867188 34.023438 34.773438 34.21875 C 34.574219 34.625 32.792969 34.578125 30.945312 34.535156 C 29.347656 34.492188 27.695312 34.453125 27.152344 34.636719 C 27.125 34.648438 27.070312 34.539062 27.085938 34.585938 C 27.1875 34.878906 29.164062 35 31.046875 35.117188 C 32.90625 35.230469 34.683594 35.339844 34.84375 35.8125 C 34.917969 36.019531 34.816406 36.15625 34.574219 36.242188 C 34.121094 36.398438 32.789062 36.351562 31.367188 36.300781 C 30.039062 36.253906 28.628906 36.203125 27.828125 36.308594 C 27.511719 36.347656 27.316406 36.382812 27.320312 36.410156 C 27.363281 36.738281 29.132812 36.792969 30.726562 36.84375 C 31.5 36.867188 32.238281 36.890625 32.75 36.957031 C 33.308594 37.027344 33.644531 37.179688 33.605469 37.480469 C 33.539062 37.984375 32.394531 38 31.203125 38.019531 C 30.445312 38.03125 29.671875 38.042969 29.226562 38.152344 C 29.058594 38.195312 28.960938 38.230469 28.964844 38.257812 C 29.140625 38.964844 31.628906 38.945312 31.632812 38.945312 "/></g></g></svg>