<svg xmlns="http://www.w3.org/2000/svg" xmlns:xlink="http://www.w3.org/1999/xlink" width="82" zoomAndPan="magnify" viewBox="0 0 61.5 45.749999" height="61" preserveAspectRatio="xMidYMid meet" version="1.0"><defs><clipPath id="06b3c93288"><path d="M 21.269531 17 L 33 17 L 33 32 L 21.269531 32 Z M 21.269531 17 " clip-rule="nonzero"/></clipPath><clipPath id="43c380e3e1"><path d="M 21.269531 22 L 33 22 L 33 24 L 21.269531 24 Z M 21.269531 22 " clip-rule="nonzero"/></clipPath><clipPath id="29c985e2ee"><path d="M 25 30 L 30 30 L 30 34.507812 L 25 34.507812 Z M 25 30 " clip-rule="nonzero"/></clipPath></defs><g clip-path="url(#06b3c93288)"><path fill="#000000" d="M 29.417969 31.359375 L 25.019531 31.359375 C 24.871094 31.355469 24.742188 31.304688 24.636719 31.199219 C 24.527344 31.09375 24.472656 30.96875 24.46875 30.820312 C 24.425781 28.5625 23.785156 27.078125 22.613281 25.128906 C 22.289062 24.585938 22.070312 24.011719 21.953125 23.394531 C 21.835938 22.777344 21.828125 22.160156 21.929688 21.539062 C 22.035156 20.921875 22.238281 20.339844 22.550781 19.792969 C 22.859375 19.246094 23.253906 18.769531 23.734375 18.359375 C 24.214844 17.953125 24.75 17.636719 25.339844 17.417969 C 25.933594 17.199219 26.542969 17.085938 27.175781 17.082031 C 27.808594 17.078125 28.421875 17.179688 29.015625 17.390625 C 29.609375 17.601562 30.152344 17.90625 30.636719 18.304688 C 31.125 18.707031 31.527344 19.175781 31.84375 19.71875 C 32.164062 20.257812 32.378906 20.839844 32.492188 21.457031 C 32.605469 22.074219 32.605469 22.691406 32.5 23.308594 C 32.394531 23.929688 32.183594 24.507812 31.867188 25.054688 C 30.617188 27.214844 30.015625 28.632812 29.96875 30.820312 C 29.964844 30.96875 29.910156 31.09375 29.800781 31.199219 C 29.695312 31.304688 29.566406 31.355469 29.417969 31.359375 Z M 27.21875 17.628906 C 26.355469 17.628906 25.550781 17.847656 24.800781 18.277344 C 24.054688 18.710938 23.46875 19.296875 23.042969 20.042969 C 22.613281 20.789062 22.40625 21.59375 22.414062 22.449219 C 22.421875 23.308594 22.644531 24.105469 23.085938 24.84375 C 24.304688 26.878906 24.976562 28.429688 25.023438 30.808594 L 29.417969 30.808594 C 29.464844 28.515625 30.121094 26.980469 31.390625 24.78125 C 31.824219 24.027344 32.035156 23.214844 32.023438 22.34375 C 31.992188 19.785156 29.871094 17.671875 27.292969 17.632812 Z M 27.21875 17.628906 " fill-opacity="1" fill-rule="nonzero"/></g><g clip-path="url(#43c380e3e1)"><path fill="#000000" d="M 32.25 23.390625 L 22.1875 23.390625 C 22.109375 23.390625 22.042969 23.363281 21.988281 23.308594 C 21.9375 23.257812 21.910156 23.191406 21.910156 23.113281 C 21.910156 23.039062 21.9375 22.972656 21.988281 22.921875 C 22.042969 22.867188 22.109375 22.839844 22.1875 22.839844 L 32.25 22.839844 C 32.328125 22.839844 32.390625 22.867188 32.445312 22.921875 C 32.5 22.972656 32.527344 23.039062 32.527344 23.113281 C 32.527344 23.191406 32.5 23.257812 32.445312 23.308594 C 32.390625 23.363281 32.328125 23.390625 32.25 23.390625 Z M 32.25 23.390625 " fill-opacity="1" fill-rule="nonzero"/></g><path fill="#000000" d="M 25.628906 29.21875 C 25.488281 29.21875 25.398438 29.148438 25.363281 29.011719 L 24.398438 25.273438 C 24.378906 25.199219 24.386719 25.128906 24.425781 25.0625 C 24.464844 24.996094 24.523438 24.953125 24.597656 24.933594 C 24.671875 24.917969 24.742188 24.925781 24.808594 24.964844 C 24.875 25.003906 24.917969 25.0625 24.933594 25.136719 L 25.898438 28.875 C 25.921875 28.960938 25.902344 29.039062 25.847656 29.109375 C 25.792969 29.179688 25.71875 29.214844 25.628906 29.21875 Z M 25.628906 29.21875 " fill-opacity="1" fill-rule="nonzero"/><path fill="#000000" d="M 28.804688 29.21875 C 28.714844 29.214844 28.644531 29.179688 28.585938 29.109375 C 28.53125 29.039062 28.515625 28.960938 28.539062 28.875 L 29.5 25.136719 C 29.519531 25.0625 29.5625 25.003906 29.628906 24.964844 C 29.695312 24.925781 29.765625 24.917969 29.839844 24.933594 C 29.914062 24.953125 29.96875 24.996094 30.007812 25.0625 C 30.046875 25.128906 30.058594 25.199219 30.039062 25.273438 L 29.074219 29.011719 C 29.039062 29.148438 28.949219 29.21875 28.804688 29.21875 Z M 28.804688 29.21875 " fill-opacity="1" fill-rule="nonzero"/><path fill="#000000" d="M 27.71875 29.21875 C 27.710938 29.21875 27.703125 29.21875 27.691406 29.21875 C 27.617188 29.210938 27.554688 29.175781 27.503906 29.117188 C 27.457031 29.058594 27.433594 28.992188 27.441406 28.917969 L 27.789062 25.089844 C 27.796875 25.015625 27.832031 24.953125 27.890625 24.902344 C 27.949219 24.855469 28.015625 24.835938 28.089844 24.839844 C 28.167969 24.847656 28.230469 24.878906 28.28125 24.9375 C 28.328125 24.996094 28.347656 25.066406 28.34375 25.140625 L 27.992188 28.964844 C 27.980469 29.132812 27.886719 29.214844 27.71875 29.21875 Z M 27.71875 29.21875 " fill-opacity="1" fill-rule="nonzero"/><path fill="#000000" d="M 26.71875 29.21875 C 26.550781 29.214844 26.457031 29.132812 26.441406 28.964844 L 26.09375 25.140625 C 26.085938 25.0625 26.109375 24.996094 26.15625 24.9375 C 26.207031 24.878906 26.269531 24.847656 26.34375 24.839844 C 26.421875 24.832031 26.488281 24.855469 26.546875 24.902344 C 26.605469 24.953125 26.640625 25.015625 26.644531 25.089844 L 26.996094 28.917969 C 27 28.992188 26.980469 29.058594 26.929688 29.117188 C 26.882812 29.175781 26.820312 29.207031 26.742188 29.214844 C 26.734375 29.214844 26.726562 29.21875 26.71875 29.21875 Z M 26.71875 29.21875 " fill-opacity="1" fill-rule="nonzero"/><g clip-path="url(#29c985e2ee)"><path fill="#000000" d="M 28.34375 34.507812 L 26.09375 34.507812 C 25.957031 34.507812 25.832031 34.484375 25.707031 34.433594 C 25.582031 34.382812 25.472656 34.308594 25.378906 34.214844 C 25.285156 34.121094 25.210938 34.015625 25.160156 33.890625 C 25.109375 33.769531 25.085938 33.640625 25.085938 33.507812 L 25.085938 31.082031 C 25.085938 31.007812 25.113281 30.941406 25.164062 30.886719 C 25.21875 30.832031 25.285156 30.808594 25.363281 30.808594 C 25.4375 30.808594 25.503906 30.832031 25.558594 30.886719 C 25.613281 30.941406 25.636719 31.007812 25.636719 31.082031 L 25.636719 33.507812 C 25.636719 33.632812 25.683594 33.738281 25.773438 33.828125 C 25.859375 33.914062 25.96875 33.957031 26.09375 33.960938 L 28.34375 33.960938 C 28.46875 33.957031 28.578125 33.914062 28.664062 33.828125 C 28.753906 33.738281 28.800781 33.632812 28.800781 33.507812 L 28.800781 31.082031 C 28.800781 31.007812 28.824219 30.941406 28.878906 30.886719 C 28.933594 30.835938 29 30.808594 29.074219 30.808594 C 29.152344 30.808594 29.21875 30.835938 29.273438 30.886719 C 29.324219 30.941406 29.351562 31.007812 29.351562 31.082031 L 29.351562 33.507812 C 29.351562 33.640625 29.328125 33.769531 29.277344 33.890625 C 29.226562 34.015625 29.152344 34.121094 29.058594 34.214844 C 28.964844 34.308594 28.855469 34.382812 28.730469 34.433594 C 28.605469 34.484375 28.480469 34.507812 28.34375 34.507812 Z M 28.34375 34.507812 " fill-opacity="1" fill-rule="nonzero"/></g><path fill="#000000" d="M 26.433594 32.464844 L 25.359375 32.464844 C 25.285156 32.464844 25.21875 32.4375 25.164062 32.382812 C 25.109375 32.328125 25.082031 32.265625 25.082031 32.1875 C 25.082031 32.113281 25.109375 32.046875 25.164062 31.992188 C 25.21875 31.941406 25.285156 31.914062 25.359375 31.914062 L 26.433594 31.914062 C 26.511719 31.914062 26.578125 31.941406 26.632812 31.992188 C 26.683594 32.046875 26.710938 32.113281 26.710938 32.1875 C 26.710938 32.265625 26.683594 32.328125 26.632812 32.382812 C 26.578125 32.4375 26.511719 32.464844 26.433594 32.464844 Z M 26.433594 32.464844 " fill-opacity="1" fill-rule="nonzero"/><path fill="#000000" d="M 29.074219 32.464844 L 28 32.464844 C 27.925781 32.464844 27.859375 32.4375 27.804688 32.382812 C 27.75 32.328125 27.726562 32.265625 27.726562 32.1875 C 27.726562 32.113281 27.75 32.046875 27.804688 31.992188 C 27.859375 31.941406 27.925781 31.914062 28 31.914062 L 29.074219 31.914062 C 29.152344 31.914062 29.21875 31.941406 29.273438 31.992188 C 29.324219 32.046875 29.351562 32.113281 29.351562 32.1875 C 29.351562 32.265625 29.324219 32.328125 29.273438 32.382812 C 29.21875 32.4375 29.152344 32.464844 29.074219 32.464844 Z M 29.074219 32.464844 " fill-opacity="1" fill-rule="nonzero"/><path fill="#000000" d="M 26.433594 33.574219 L 25.359375 33.574219 C 25.285156 33.574219 25.21875 33.546875 25.164062 33.496094 C 25.109375 33.441406 25.082031 33.375 25.082031 33.300781 C 25.082031 33.222656 25.109375 33.160156 25.164062 33.105469 C 25.21875 33.050781 25.285156 33.023438 25.359375 33.023438 L 26.433594 33.023438 C 26.511719 33.023438 26.578125 33.050781 26.632812 33.105469 C 26.683594 33.160156 26.710938 33.222656 26.710938 33.300781 C 26.710938 33.375 26.683594 33.441406 26.632812 33.496094 C 26.578125 33.546875 26.511719 33.574219 26.433594 33.574219 Z M 26.433594 33.574219 " fill-opacity="1" fill-rule="nonzero"/><path fill="#000000" d="M 29.074219 33.574219 L 28 33.574219 C 27.925781 33.574219 27.859375 33.546875 27.804688 33.496094 C 27.75 33.441406 27.726562 33.375 27.726562 33.300781 C 27.726562 33.222656 27.75 33.160156 27.804688 33.105469 C 27.859375 33.050781 27.925781 33.023438 28 33.023438 L 29.074219 33.023438 C 29.152344 33.023438 29.21875 33.050781 29.273438 33.105469 C 29.324219 33.160156 29.351562 33.222656 29.351562 33.300781 C 29.351562 33.375 29.324219 33.441406 29.273438 33.496094 C 29.21875 33.546875 29.152344 33.574219 29.074219 33.574219 Z M 29.074219 33.574219 " fill-opacity="1" fill-rule="nonzero"/></svg>