<svg xmlns="http://www.w3.org/2000/svg" xmlns:xlink="http://www.w3.org/1999/xlink" width="82" zoomAndPan="magnify" viewBox="0 0 61.5 45.749999" height="61" preserveAspectRatio="xMidYMid meet" version="1.2"><defs><clipPath id="6dff52e2cf"><path d="M 29.90625 15.757812 L 31.394531 15.757812 L 31.394531 17 L 29.90625 17 Z M 29.90625 15.757812 "/></clipPath><clipPath id="611f822611"><path d="M 7.195312 5.898438 L 54.808594 5.898438 L 54.808594 39.378906 L 7.195312 39.378906 Z M 7.195312 5.898438 "/></clipPath></defs><g id="4d91d4c96a"><g clip-rule="nonzero" clip-path="url(#6dff52e2cf)"><path style=" stroke:none;fill-rule:nonzero;fill:#ffffff;fill-opacity:1;" d="M 31.09375 16.351562 C 31.09375 16.515625 31.035156 16.652344 30.917969 16.769531 C 30.804688 16.886719 30.664062 16.945312 30.5 16.945312 C 30.335938 16.945312 30.195312 16.886719 30.082031 16.769531 C 29.964844 16.652344 29.90625 16.515625 29.90625 16.351562 C 29.90625 16.1875 29.964844 16.046875 30.082031 15.929688 C 30.195312 15.816406 30.335938 15.757812 30.5 15.757812 C 30.664062 15.757812 30.804688 15.816406 30.917969 15.929688 C 31.035156 16.046875 31.09375 16.1875 31.09375 16.351562 Z M 31.09375 16.351562 "/></g><g clip-rule="nonzero" clip-path="url(#611f822611)"><path style=" stroke:none;fill-rule:nonzero;fill:#040606;fill-opacity:1;" d="M 44.46875 36.480469 L 47.746094 36.480469 C 47.878906 37.386719 47.257812 38.226562 46.351562 38.359375 C 45.445312 38.492188 44.601562 37.867188 44.46875 36.96875 C 44.449219 36.804688 44.449219 36.644531 44.46875 36.480469 Z M 14.296875 36.480469 L 17.570312 36.480469 C 17.710938 37.386719 17.085938 38.226562 16.183594 38.363281 C 15.277344 38.5 14.433594 37.878906 14.296875 36.980469 C 14.269531 36.816406 14.269531 36.648438 14.296875 36.480469 Z M 44.367188 31.253906 L 53.695312 31.253906 L 53.695312 33.859375 C 53.695312 34.84375 52.894531 35.644531 51.90625 35.644531 L 44.367188 35.644531 Z M 49.007812 27.414062 C 49.378906 27.402344 49.6875 27.691406 49.699219 28.054688 C 49.699219 28.0625 49.699219 28.074219 49.699219 28.082031 C 49.695312 28.449219 49.390625 28.742188 49.019531 28.734375 C 48.660156 28.730469 48.367188 28.4375 48.363281 28.082031 C 48.363281 27.722656 48.648438 27.425781 49.007812 27.414062 Z M 48.96875 26.574219 C 48.152344 26.59375 47.5 27.265625 47.5 28.082031 C 47.503906 28.914062 48.1875 29.585938 49.023438 29.582031 C 49.851562 29.578125 50.523438 28.90625 50.527344 28.082031 C 50.527344 27.25 49.851562 26.570312 49.015625 26.570312 C 49 26.570312 48.988281 26.570312 48.96875 26.574219 Z M 48.886719 24.761719 C 47.28125 24.824219 45.949219 26.015625 45.722656 27.597656 C 45.695312 27.832031 45.863281 28.035156 46.09375 28.058594 C 46.3125 28.085938 46.515625 27.933594 46.550781 27.71875 C 46.753906 26.363281 48.015625 25.429688 49.371094 25.628906 C 50.457031 25.785156 51.308594 26.636719 51.472656 27.71875 C 51.507812 27.949219 51.730469 28.097656 51.960938 28.054688 C 52.175781 28.019531 52.328125 27.820312 52.300781 27.597656 C 52.058594 25.921875 50.585938 24.699219 48.886719 24.761719 Z M 46.425781 22.191406 C 46.203125 22.195312 46.011719 22.378906 46.011719 22.609375 C 46.007812 22.84375 46.195312 23.035156 46.425781 23.039062 C 46.660156 23.042969 46.851562 22.859375 46.855469 22.628906 C 46.855469 22.621094 46.855469 22.617188 46.855469 22.609375 C 46.855469 22.378906 46.667969 22.191406 46.433594 22.191406 C 46.429688 22.191406 46.429688 22.191406 46.425781 22.191406 Z M 51.59375 22.179688 C 51.363281 22.175781 51.171875 22.363281 51.167969 22.59375 C 51.167969 22.601562 51.167969 22.605469 51.167969 22.609375 C 51.167969 22.84375 51.351562 23.027344 51.585938 23.035156 C 51.8125 23.039062 52.003906 22.851562 52.011719 22.621094 C 52.011719 22.617188 52.011719 22.613281 52.011719 22.609375 C 52.015625 22.378906 51.832031 22.183594 51.601562 22.179688 C 51.601562 22.179688 51.597656 22.179688 51.59375 22.179688 Z M 49.015625 22.179688 C 48.785156 22.175781 48.59375 22.363281 48.59375 22.59375 C 48.589844 22.601562 48.589844 22.605469 48.59375 22.609375 C 48.59375 22.84375 48.78125 23.027344 49.011719 23.027344 C 49.246094 23.027344 49.433594 22.84375 49.433594 22.609375 C 49.4375 22.378906 49.257812 22.183594 49.023438 22.179688 C 49.019531 22.179688 49.019531 22.179688 49.015625 22.179688 Z M 46.425781 20.507812 C 46.203125 20.515625 46.011719 20.703125 46.011719 20.929688 C 46.007812 21.160156 46.195312 21.351562 46.425781 21.355469 C 46.660156 21.363281 46.851562 21.179688 46.855469 20.945312 C 46.855469 20.941406 46.855469 20.933594 46.855469 20.929688 C 46.855469 20.695312 46.667969 20.507812 46.433594 20.507812 C 46.429688 20.507812 46.429688 20.507812 46.425781 20.507812 Z M 51.59375 20.5 C 51.363281 20.5 51.171875 20.683594 51.167969 20.917969 C 51.167969 20.921875 51.167969 20.925781 51.167969 20.929688 C 51.167969 21.164062 51.351562 21.351562 51.585938 21.355469 C 51.8125 21.359375 52.003906 21.171875 52.011719 20.941406 C 52.011719 20.9375 52.011719 20.933594 52.011719 20.929688 C 52.015625 20.703125 51.832031 20.507812 51.601562 20.5 C 51.597656 20.5 51.597656 20.5 51.59375 20.5 Z M 49.015625 20.5 C 48.785156 20.5 48.59375 20.683594 48.59375 20.917969 C 48.59375 20.921875 48.59375 20.925781 48.59375 20.929688 C 48.59375 21.164062 48.78125 21.351562 49.011719 21.351562 C 49.246094 21.351562 49.433594 21.164062 49.433594 20.929688 C 49.4375 20.703125 49.253906 20.507812 49.019531 20.5 C 49.019531 20.5 49.015625 20.5 49.015625 20.5 Z M 46.425781 18.835938 C 46.203125 18.839844 46.011719 19.023438 46.011719 19.25 C 46.007812 19.484375 46.195312 19.675781 46.425781 19.679688 C 46.660156 19.683594 46.851562 19.5 46.855469 19.269531 C 46.855469 19.265625 46.855469 19.261719 46.855469 19.25 C 46.855469 19.023438 46.667969 18.835938 46.433594 18.835938 C 46.429688 18.835938 46.429688 18.835938 46.425781 18.835938 Z M 51.59375 18.824219 C 51.363281 18.820312 51.171875 19.003906 51.167969 19.234375 C 51.167969 19.238281 51.167969 19.246094 51.167969 19.25 C 51.167969 19.484375 51.351562 19.671875 51.585938 19.675781 C 51.8125 19.679688 52.003906 19.492188 52.011719 19.265625 C 52.011719 19.261719 52.011719 19.257812 52.011719 19.25 C 52.015625 19.023438 51.832031 18.828125 51.601562 18.824219 C 51.601562 18.824219 51.597656 18.824219 51.59375 18.824219 Z M 49.015625 18.824219 C 48.785156 18.820312 48.59375 19.003906 48.59375 19.234375 C 48.589844 19.238281 48.589844 19.246094 48.59375 19.25 C 48.59375 19.484375 48.78125 19.671875 49.011719 19.671875 C 49.246094 19.671875 49.433594 19.484375 49.433594 19.25 C 49.4375 19.023438 49.257812 18.828125 49.023438 18.824219 C 49.019531 18.824219 49.019531 18.824219 49.015625 18.824219 Z M 46.867188 14.515625 L 51.15625 14.515625 L 51.15625 16.261719 L 46.867188 16.261719 Z M 46.027344 13.679688 L 46.027344 17.097656 L 51.996094 17.097656 L 51.996094 13.679688 Z M 44.347656 11.964844 L 53.679688 11.964844 L 53.679688 30.417969 L 44.347656 30.417969 Z M 13.300781 11.703125 L 40.5 11.703125 L 40.5 30.683594 L 13.300781 30.683594 Z M 12.460938 10.859375 L 12.460938 31.519531 L 41.335938 31.519531 L 41.335938 10.859375 Z M 44.347656 6.738281 L 51.882812 6.738281 C 52.878906 6.738281 53.679688 7.535156 53.679688 8.523438 L 53.679688 11.125 L 44.347656 11.125 Z M 10.058594 6.738281 C 10.078125 6.738281 10.097656 6.738281 10.113281 6.738281 L 43.507812 6.738281 L 43.507812 35.644531 L 10.113281 35.644531 C 9.125 35.644531 8.320312 34.84375 8.320312 33.859375 L 8.320312 8.523438 C 8.320312 7.558594 9.089844 6.765625 10.054688 6.738281 Z M 10.113281 5.898438 C 8.660156 5.898438 7.480469 7.074219 7.480469 8.523438 L 7.480469 33.859375 C 7.480469 35.308594 8.660156 36.480469 10.113281 36.480469 L 13.425781 36.480469 C 13.285156 37.855469 14.289062 39.074219 15.664062 39.214844 C 17.035156 39.355469 18.265625 38.355469 18.402344 36.980469 C 18.417969 36.820312 18.417969 36.648438 18.402344 36.480469 L 43.601562 36.480469 C 43.460938 37.855469 44.464844 39.074219 45.839844 39.214844 C 47.210938 39.355469 48.441406 38.355469 48.578125 36.980469 C 48.59375 36.816406 48.59375 36.648438 48.578125 36.480469 L 51.890625 36.480469 C 53.34375 36.484375 54.519531 35.3125 54.519531 33.863281 C 54.519531 33.859375 54.519531 33.859375 54.519531 33.859375 L 54.519531 8.523438 C 54.519531 7.074219 53.34375 5.898438 51.890625 5.898438 L 10.113281 5.898438 "/></g></g></svg>