<svg xmlns="http://www.w3.org/2000/svg" xmlns:xlink="http://www.w3.org/1999/xlink" width="82" zoomAndPan="magnify" viewBox="0 0 61.5 45.749999" height="61" preserveAspectRatio="xMidYMid meet" version="1.2"><defs><clipPath id="beb86ddc2c"><path d="M 29.90625 15.757812 L 31.394531 15.757812 L 31.394531 17 L 29.90625 17 Z M 29.90625 15.757812 "/></clipPath><clipPath id="e34241997c"><path d="M 8.648438 6.011719 L 53.285156 6.011719 L 53.285156 42.464844 L 8.648438 42.464844 Z M 8.648438 6.011719 "/></clipPath></defs><g id="8fa588e86d"><g clip-rule="nonzero" clip-path="url(#beb86ddc2c)"><path style=" stroke:none;fill-rule:nonzero;fill:#ffffff;fill-opacity:1;" d="M 31.09375 16.351562 C 31.09375 16.515625 31.035156 16.652344 30.917969 16.769531 C 30.804688 16.886719 30.664062 16.945312 30.5 16.945312 C 30.335938 16.945312 30.195312 16.886719 30.082031 16.769531 C 29.964844 16.652344 29.90625 16.515625 29.90625 16.351562 C 29.90625 16.1875 29.964844 16.046875 30.082031 15.929688 C 30.195312 15.816406 30.335938 15.757812 30.5 15.757812 C 30.664062 15.757812 30.804688 15.816406 30.917969 15.929688 C 31.035156 16.046875 31.09375 16.1875 31.09375 16.351562 Z M 31.09375 16.351562 "/></g><g clip-rule="nonzero" clip-path="url(#e34241997c)"><path style=" stroke:none;fill-rule:nonzero;fill:#100f0d;fill-opacity:1;" d="M 10.101562 6.996094 L 51.820312 6.996094 C 52.035156 6.992188 52.214844 7.164062 52.21875 7.378906 C 52.21875 7.378906 52.21875 7.386719 52.21875 7.390625 L 52.21875 33.546875 C 52.21875 33.765625 52.042969 33.941406 51.828125 33.941406 C 51.824219 33.941406 51.824219 33.941406 51.820312 33.941406 L 10.101562 33.941406 C 9.886719 33.945312 9.707031 33.773438 9.703125 33.558594 C 9.703125 33.558594 9.703125 33.550781 9.703125 33.546875 L 9.703125 7.390625 C 9.703125 7.171875 9.878906 6.996094 10.09375 6.996094 C 10.097656 6.996094 10.101562 6.996094 10.101562 6.996094 Z M 9.695312 6.015625 C 9.15625 6.023438 8.730469 6.460938 8.730469 6.996094 L 8.730469 35.980469 C 8.730469 36.515625 9.15625 36.949219 9.695312 36.960938 L 27.691406 36.960938 L 27.691406 40.058594 C 27.691406 40.273438 27.515625 40.453125 27.300781 40.453125 C 27.296875 40.453125 27.292969 40.453125 27.289062 40.453125 L 25.125 40.453125 C 24.179688 40.460938 23.367188 41.105469 23.144531 42.023438 C 23.089844 42.230469 23.222656 42.445312 23.429688 42.496094 C 23.460938 42.503906 23.492188 42.507812 23.527344 42.507812 L 38.421875 42.507812 C 38.640625 42.507812 38.8125 42.328125 38.8125 42.113281 C 38.8125 42.082031 38.808594 42.050781 38.804688 42.023438 C 38.582031 41.097656 37.746094 40.449219 36.796875 40.453125 L 34.632812 40.453125 C 34.417969 40.445312 34.25 40.269531 34.25 40.058594 L 34.25 36.960938 L 52.222656 36.960938 C 52.761719 36.964844 53.203125 36.527344 53.214844 35.988281 C 53.214844 35.988281 53.214844 35.984375 53.214844 35.980469 L 53.214844 6.996094 C 53.210938 6.453125 52.769531 6.015625 52.230469 6.015625 C 52.226562 6.015625 52.226562 6.015625 52.222656 6.015625 L 9.695312 6.015625 "/></g></g></svg>