<svg xmlns="http://www.w3.org/2000/svg" xmlns:xlink="http://www.w3.org/1999/xlink" width="82" zoomAndPan="magnify" viewBox="0 0 61.5 45.749999" height="61" preserveAspectRatio="xMidYMid meet" version="1.0"><defs><clipPath id="f9f3ce2af2"><path d="M 15.175781 7.425781 L 45.679688 7.425781 L 45.679688 37.925781 L 15.175781 37.925781 Z M 15.175781 7.425781 " clip-rule="nonzero"/></clipPath></defs><g clip-path="url(#f9f3ce2af2)"><path fill="#000000" d="M 30.191406 23.027344 C 30.324219 22.886719 30.476562 22.675781 30.46875 22.441406 C 30.460938 22.265625 30.359375 22.085938 30.160156 21.90625 C 30.007812 21.765625 29.996094 21.527344 30.136719 21.371094 C 30.28125 21.214844 30.519531 21.207031 30.675781 21.347656 C 31.027344 21.667969 31.210938 22.027344 31.226562 22.414062 C 31.242188 22.804688 31.078125 23.195312 30.746094 23.546875 C 30.5 23.8125 30.378906 24.027344 30.386719 24.207031 C 30.394531 24.367188 30.507812 24.550781 30.726562 24.75 C 30.878906 24.894531 30.890625 25.132812 30.75 25.289062 C 30.675781 25.371094 30.570312 25.410156 30.46875 25.410156 C 30.378906 25.410156 30.285156 25.378906 30.210938 25.3125 C 29.835938 24.964844 29.644531 24.613281 29.628906 24.234375 C 29.609375 23.714844 29.941406 23.296875 30.191406 23.027344 Z M 27.484375 24.234375 C 27.5 24.613281 27.691406 24.964844 28.070312 25.3125 C 28.140625 25.378906 28.234375 25.410156 28.324219 25.410156 C 28.425781 25.410156 28.53125 25.371094 28.605469 25.289062 C 28.746094 25.132812 28.734375 24.894531 28.582031 24.75 C 28.363281 24.550781 28.25 24.367188 28.242188 24.207031 C 28.238281 24.027344 28.355469 23.8125 28.601562 23.546875 C 28.933594 23.195312 29.097656 22.804688 29.082031 22.414062 C 29.066406 22.027344 28.882812 21.667969 28.53125 21.347656 C 28.375 21.207031 28.136719 21.214844 27.992188 21.371094 C 27.851562 21.527344 27.863281 21.765625 28.019531 21.90625 C 28.214844 22.085938 28.316406 22.269531 28.324219 22.441406 C 28.332031 22.675781 28.179688 22.886719 28.046875 23.027344 C 27.796875 23.296875 27.464844 23.714844 27.484375 24.234375 Z M 31.773438 24.234375 C 31.785156 24.613281 31.976562 24.964844 32.355469 25.3125 C 32.429688 25.378906 32.519531 25.410156 32.613281 25.410156 C 32.714844 25.410156 32.820312 25.371094 32.894531 25.289062 C 33.035156 25.132812 33.023438 24.894531 32.867188 24.75 C 32.652344 24.550781 32.539062 24.367188 32.53125 24.207031 C 32.523438 24.027344 32.640625 23.8125 32.890625 23.546875 C 33.21875 23.195312 33.386719 22.804688 33.371094 22.414062 C 33.355469 22.027344 33.171875 21.667969 32.820312 21.347656 C 32.664062 21.207031 32.421875 21.214844 32.28125 21.371094 C 32.140625 21.527344 32.152344 21.765625 32.304688 21.90625 C 32.503906 22.085938 32.605469 22.269531 32.613281 22.441406 C 32.621094 22.675781 32.46875 22.886719 32.335938 23.027344 C 32.085938 23.296875 31.753906 23.714844 31.773438 24.234375 Z M 45.679688 7.804688 L 45.679688 37.546875 C 45.679688 37.757812 45.507812 37.925781 45.300781 37.925781 L 15.554688 37.925781 C 15.347656 37.925781 15.175781 37.757812 15.175781 37.546875 L 15.175781 7.804688 C 15.175781 7.597656 15.347656 7.425781 15.554688 7.425781 L 45.300781 7.425781 C 45.507812 7.425781 45.679688 7.597656 45.679688 7.804688 Z M 15.9375 8.183594 L 15.9375 12.753906 L 44.917969 12.753906 L 44.917969 8.183594 Z M 21.226562 13.511719 C 21.449219 14.65625 22.472656 15.535156 23.671875 15.535156 L 37.183594 15.535156 C 38.378906 15.535156 39.402344 14.65625 39.628906 13.511719 Z M 44.917969 37.167969 L 44.917969 13.511719 L 40.398438 13.511719 C 40.167969 15.074219 38.792969 16.292969 37.183594 16.292969 L 23.671875 16.292969 C 22.058594 16.292969 20.6875 15.074219 20.457031 13.511719 L 15.9375 13.511719 L 15.9375 37.167969 Z M 42.617188 18.425781 L 42.617188 32.625 C 42.617188 32.835938 42.445312 33.003906 42.238281 33.003906 L 18.617188 33.003906 C 18.410156 33.003906 18.238281 32.835938 18.238281 32.625 L 18.238281 18.425781 C 18.238281 18.214844 18.410156 18.046875 18.617188 18.046875 L 42.234375 18.046875 C 42.445312 18.046875 42.617188 18.214844 42.617188 18.425781 Z M 24.824219 28.707031 C 24.554688 28.707031 24.335938 28.925781 24.335938 29.195312 C 24.335938 29.464844 24.554688 29.6875 24.824219 29.6875 L 36.03125 29.6875 C 36.300781 29.6875 36.519531 29.464844 36.519531 29.195312 C 36.519531 28.925781 36.300781 28.707031 36.03125 28.707031 Z M 34.425781 27.949219 C 33.929688 27.339844 33.183594 26.96875 32.382812 26.96875 L 28.472656 26.96875 C 27.671875 26.96875 26.925781 27.339844 26.429688 27.949219 Z M 25.207031 32.246094 L 35.648438 32.246094 L 35.648438 30.445312 L 25.207031 30.445312 Z M 41.855469 18.804688 L 19 18.804688 L 19 32.246094 L 24.449219 32.246094 L 24.449219 30.386719 C 23.945312 30.226562 23.574219 29.753906 23.574219 29.195312 C 23.574219 28.507812 24.136719 27.949219 24.824219 27.949219 L 25.507812 27.949219 C 26.109375 26.882812 27.246094 26.210938 28.472656 26.210938 L 32.382812 26.210938 C 33.609375 26.210938 34.746094 26.882812 35.34375 27.949219 L 36.03125 27.949219 C 36.71875 27.949219 37.277344 28.507812 37.277344 29.195312 C 37.277344 29.753906 36.910156 30.226562 36.40625 30.386719 L 36.40625 32.246094 L 41.855469 32.246094 Z M 27.605469 11.554688 L 27.605469 9.265625 C 27.605469 9.054688 27.777344 8.882812 27.984375 8.882812 L 32.871094 8.882812 C 33.078125 8.882812 33.25 9.054688 33.25 9.265625 L 33.25 11.554688 C 33.25 11.761719 33.078125 11.933594 32.871094 11.933594 L 27.984375 11.933594 C 27.777344 11.933594 27.605469 11.761719 27.605469 11.554688 Z M 28.367188 11.171875 L 32.492188 11.171875 L 32.492188 9.644531 L 28.367188 9.644531 Z M 35.195312 10.398438 C 35.195312 9.546875 35.890625 8.855469 36.738281 8.855469 C 37.589844 8.855469 38.285156 9.546875 38.285156 10.398438 C 38.285156 11.25 37.589844 11.941406 36.742188 11.941406 C 35.890625 11.941406 35.195312 11.25 35.195312 10.398438 Z M 35.957031 10.398438 C 35.957031 10.832031 36.308594 11.183594 36.738281 11.183594 C 37.171875 11.183594 37.523438 10.832031 37.523438 10.398438 C 37.523438 9.96875 37.171875 9.617188 36.738281 9.617188 C 36.308594 9.617188 35.957031 9.96875 35.957031 10.398438 Z M 39.492188 10.398438 C 39.492188 9.546875 40.183594 8.855469 41.035156 8.855469 C 41.886719 8.855469 42.578125 9.546875 42.578125 10.398438 C 42.578125 11.25 41.886719 11.941406 41.035156 11.941406 C 40.183594 11.941406 39.492188 11.25 39.492188 10.398438 Z M 40.253906 10.398438 C 40.253906 10.832031 40.605469 11.183594 41.035156 11.183594 C 41.46875 11.183594 41.820312 10.832031 41.820312 10.398438 C 41.820312 9.96875 41.46875 9.617188 41.035156 9.617188 C 40.605469 9.617188 40.253906 9.96875 40.253906 10.398438 Z M 18.277344 10.398438 C 18.277344 9.546875 18.96875 8.855469 19.820312 8.855469 C 20.671875 8.855469 21.363281 9.546875 21.363281 10.398438 C 21.363281 11.25 20.671875 11.941406 19.820312 11.941406 C 18.96875 11.941406 18.277344 11.25 18.277344 10.398438 Z M 19.035156 10.398438 C 19.035156 10.832031 19.386719 11.183594 19.820312 11.183594 C 20.25 11.183594 20.601562 10.832031 20.601562 10.398438 C 20.601562 9.96875 20.25 9.617188 19.820312 9.617188 C 19.386719 9.617188 19.035156 9.96875 19.035156 10.398438 Z M 22.570312 10.398438 C 22.570312 9.546875 23.265625 8.855469 24.113281 8.855469 C 24.964844 8.855469 25.65625 9.546875 25.65625 10.398438 C 25.65625 11.25 24.964844 11.941406 24.113281 11.941406 C 23.265625 11.941406 22.570312 11.25 22.570312 10.398438 Z M 23.332031 10.398438 C 23.332031 10.832031 23.683594 11.183594 24.113281 11.183594 C 24.546875 11.183594 24.898438 10.832031 24.898438 10.398438 C 24.898438 9.96875 24.546875 9.617188 24.113281 9.617188 C 23.683594 9.617188 23.332031 9.96875 23.332031 10.398438 Z M 23.332031 10.398438 " fill-opacity="1" fill-rule="nonzero"/></g></svg>