<svg xmlns="http://www.w3.org/2000/svg" xmlns:xlink="http://www.w3.org/1999/xlink" width="82" zoomAndPan="magnify" viewBox="0 0 61.5 45.749999" height="61" preserveAspectRatio="xMidYMid meet" version="1.2"><defs><clipPath id="6f6ad6c9a2"><path d="M 30 18.289062 L 31 18.289062 L 31 19 L 30 19 Z M 30 18.289062 "/></clipPath><clipPath id="9b614fd458"><path d="M 30 18.289062 L 31.394531 18.289062 L 31.394531 19 L 30 19 Z M 30 18.289062 "/></clipPath><clipPath id="1f168bdd3d"><path d="M 29.90625 18.289062 L 31.394531 18.289062 L 31.394531 21.261719 L 29.90625 21.261719 Z M 29.90625 18.289062 "/></clipPath><clipPath id="1d39515ca1"><path d="M 25 2.328125 L 28 2.328125 L 28 10 L 25 10 Z M 25 2.328125 "/></clipPath><clipPath id="1dd417333c"><path d="M 34 2.328125 L 37 2.328125 L 37 10 L 34 10 Z M 34 2.328125 "/></clipPath><clipPath id="8113c2d8e7"><path d="M 22.496094 10 L 39.605469 10 L 39.605469 43.246094 L 22.496094 43.246094 Z M 22.496094 10 "/></clipPath></defs><g id="9064937138"><g clip-rule="nonzero" clip-path="url(#6f6ad6c9a2)"><path style=" stroke:none;fill-rule:nonzero;fill:#000000;fill-opacity:1;" d="M 30.34375 18.375 C 30.34375 18.332031 30.304688 18.296875 30.253906 18.296875 C 30.203125 18.296875 30.160156 18.332031 30.160156 18.375 L 30.160156 18.820312 L 30.34375 18.820312 Z M 30.34375 18.375 "/></g><g clip-rule="nonzero" clip-path="url(#9b614fd458)"><path style=" stroke:none;fill-rule:nonzero;fill:#000000;fill-opacity:1;" d="M 31.132812 18.375 C 31.132812 18.332031 31.09375 18.296875 31.042969 18.296875 C 30.992188 18.296875 30.953125 18.332031 30.953125 18.375 L 30.953125 18.820312 L 31.132812 18.820312 Z M 31.132812 18.375 "/></g><g clip-rule="nonzero" clip-path="url(#1f168bdd3d)"><path style=" stroke:none;fill-rule:nonzero;fill:#000000;fill-opacity:1;" d="M 31.132812 18.878906 L 29.90625 18.878906 L 29.90625 19.019531 L 29.960938 19.078125 L 29.960938 19.515625 C 29.960938 19.75 30.1875 19.941406 30.46875 19.941406 L 30.554688 19.941406 C 30.542969 19.984375 30.53125 20.03125 30.535156 20.082031 C 30.535156 20.113281 30.542969 20.148438 30.558594 20.175781 C 30.574219 20.203125 30.589844 20.230469 30.617188 20.253906 C 30.65625 20.292969 30.707031 20.324219 30.753906 20.351562 C 30.78125 20.367188 30.808594 20.386719 30.832031 20.402344 C 31.027344 20.546875 30.988281 20.742188 30.945312 20.96875 C 30.925781 21.0625 30.90625 21.160156 30.90625 21.257812 L 31.097656 21.253906 C 31.09375 21.175781 31.113281 21.085938 31.132812 20.992188 C 31.152344 20.875 31.179688 20.753906 31.164062 20.632812 C 31.15625 20.566406 31.136719 20.507812 31.109375 20.449219 C 31.089844 20.421875 31.070312 20.390625 31.046875 20.363281 C 31.019531 20.335938 30.992188 20.308594 30.957031 20.285156 C 30.925781 20.261719 30.894531 20.242188 30.863281 20.222656 C 30.777344 20.167969 30.726562 20.136719 30.722656 20.074219 C 30.722656 20.042969 30.730469 20.003906 30.742188 19.96875 C 30.742188 19.960938 30.746094 19.949219 30.75 19.941406 L 30.824219 19.941406 C 31.105469 19.941406 31.332031 19.75 31.332031 19.515625 L 31.332031 19.078125 L 31.390625 19.019531 L 31.390625 18.878906 Z M 31.132812 18.878906 "/></g><g clip-rule="nonzero" clip-path="url(#1d39515ca1)"><path style=" stroke:none;fill-rule:nonzero;fill:#000000;fill-opacity:1;" d="M 27.519531 3.457031 C 27.519531 2.875 27.046875 2.402344 26.46875 2.402344 C 25.890625 2.402344 25.417969 2.875 25.417969 3.457031 L 25.417969 9.636719 L 27.515625 9.636719 L 27.515625 3.457031 Z M 27.519531 3.457031 "/></g><g clip-rule="nonzero" clip-path="url(#1dd417333c)"><path style=" stroke:none;fill-rule:nonzero;fill:#000000;fill-opacity:1;" d="M 36.609375 3.457031 C 36.609375 2.875 36.140625 2.402344 35.558594 2.402344 C 34.980469 2.402344 34.511719 2.875 34.511719 3.457031 L 34.511719 9.636719 L 36.609375 9.636719 Z M 36.609375 3.457031 "/></g><g clip-rule="nonzero" clip-path="url(#8113c2d8e7)"><path style=" stroke:none;fill-rule:nonzero;fill:#000000;fill-opacity:1;" d="M 36.609375 10.433594 L 22.472656 10.433594 L 22.472656 12.359375 L 23.128906 13.152344 L 23.128906 19.207031 C 23.128906 22.457031 25.746094 25.089844 28.96875 25.089844 L 29.945312 25.089844 C 29.820312 25.660156 29.6875 26.300781 29.710938 27.007812 C 29.730469 27.476562 29.824219 27.925781 29.996094 28.339844 C 30.152344 28.707031 30.363281 29.046875 30.640625 29.375 C 31.109375 29.929688 31.675781 30.34375 32.226562 30.742188 C 32.550781 30.980469 32.859375 31.207031 33.128906 31.445312 C 35.371094 33.457031 34.929688 36.136719 34.425781 39.238281 C 34.210938 40.5625 33.988281 41.925781 34.003906 43.246094 L 36.179688 43.21875 C 36.164062 42.09375 36.363281 40.878906 36.574219 39.597656 C 36.839844 37.964844 37.113281 36.28125 36.960938 34.640625 C 36.871094 33.703125 36.65625 32.875 36.300781 32.109375 C 36.105469 31.691406 35.867188 31.289062 35.585938 30.910156 C 35.296875 30.523438 34.957031 30.152344 34.574219 29.808594 C 34.226562 29.496094 33.855469 29.226562 33.5 28.964844 C 32.488281 28.230469 31.914062 27.769531 31.886719 26.929688 C 31.871094 26.457031 31.980469 25.96875 32.09375 25.453125 C 32.121094 25.335938 32.148438 25.214844 32.175781 25.089844 L 33.0625 25.089844 C 36.285156 25.089844 38.898438 22.457031 38.898438 19.207031 L 38.898438 13.152344 L 39.554688 12.359375 L 39.554688 10.433594 Z M 36.609375 10.433594 "/></g></g></svg>