<svg xmlns="http://www.w3.org/2000/svg" xmlns:xlink="http://www.w3.org/1999/xlink" width="82" zoomAndPan="magnify" viewBox="0 0 61.5 45.749999" height="61" preserveAspectRatio="xMidYMid meet" version="1.2"><defs><clipPath id="23db559124"><path d="M 29.90625 15.757812 L 31.394531 15.757812 L 31.394531 17 L 29.90625 17 Z M 29.90625 15.757812 "/></clipPath><clipPath id="f3ff0ebede"><path d="M 4.410156 2.035156 L 55.742188 2.035156 L 55.742188 43.695312 L 4.410156 43.695312 Z M 4.410156 2.035156 "/></clipPath></defs><g id="956d66eddb"><g clip-rule="nonzero" clip-path="url(#23db559124)"><path style=" stroke:none;fill-rule:nonzero;fill:#ffffff;fill-opacity:1;" d="M 31.09375 16.351562 C 31.09375 16.515625 31.035156 16.652344 30.917969 16.769531 C 30.804688 16.886719 30.664062 16.945312 30.5 16.945312 C 30.335938 16.945312 30.195312 16.886719 30.082031 16.769531 C 29.964844 16.652344 29.90625 16.515625 29.90625 16.351562 C 29.90625 16.1875 29.964844 16.046875 30.082031 15.929688 C 30.195312 15.816406 30.335938 15.757812 30.5 15.757812 C 30.664062 15.757812 30.804688 15.816406 30.917969 15.929688 C 31.035156 16.046875 31.09375 16.1875 31.09375 16.351562 Z M 31.09375 16.351562 "/></g><g clip-rule="nonzero" clip-path="url(#f3ff0ebede)"><path style=" stroke:none;fill-rule:nonzero;fill:#000000;fill-opacity:1;" d="M 8.421875 35.683594 L 14.835938 35.683594 L 14.835938 42.894531 C 14.835938 43.375 15.15625 43.695312 15.640625 43.695312 L 44.515625 43.695312 C 44.996094 43.695312 45.316406 43.375 45.316406 42.894531 L 45.316406 35.683594 L 51.734375 35.683594 C 53.898438 35.683594 55.742188 33.921875 55.742188 31.675781 L 55.742188 16.457031 C 55.742188 14.214844 53.976562 12.453125 51.734375 12.453125 L 48.523438 12.453125 L 48.523438 7.644531 C 48.523438 7.164062 48.203125 6.84375 47.722656 6.84375 L 45.316406 6.84375 L 45.316406 2.839844 C 45.316406 2.359375 44.996094 2.039062 44.515625 2.039062 L 15.640625 2.039062 C 15.15625 2.039062 14.835938 2.359375 14.835938 2.839844 L 14.835938 6.84375 L 12.429688 6.84375 C 11.949219 6.84375 11.628906 7.164062 11.628906 7.644531 L 11.628906 12.453125 L 8.421875 12.453125 C 6.253906 12.453125 4.410156 14.214844 4.410156 16.457031 L 4.410156 31.675781 C 4.410156 33.921875 6.253906 35.683594 8.421875 35.683594 Z M 16.441406 3.640625 L 43.710938 3.640625 L 43.710938 13.253906 C 43.710938 13.734375 44.03125 14.054688 44.515625 14.054688 C 44.996094 14.054688 45.316406 13.734375 45.316406 13.253906 L 45.316406 8.445312 L 46.921875 8.445312 L 46.921875 17.257812 L 16.441406 17.257812 Z M 13.234375 8.445312 L 14.835938 8.445312 L 14.835938 17.257812 L 13.234375 17.257812 Z M 6.09375 16.457031 C 6.09375 15.175781 7.136719 14.054688 8.5 14.054688 L 11.710938 14.054688 L 11.710938 17.257812 L 10.023438 17.257812 C 9.542969 17.257812 9.222656 17.578125 9.222656 18.058594 C 9.222656 18.539062 9.542969 18.859375 10.023438 18.859375 L 50.128906 18.859375 C 50.609375 18.859375 50.929688 18.539062 50.929688 18.058594 C 50.929688 17.578125 50.609375 17.257812 50.128906 17.257812 L 48.523438 17.257812 L 48.523438 14.054688 L 51.734375 14.054688 C 53.015625 14.054688 54.140625 15.09375 54.140625 16.457031 L 54.140625 31.675781 C 54.140625 32.960938 53.097656 34.082031 51.734375 34.082031 L 45.316406 34.082031 L 45.316406 31.675781 C 45.316406 31.195312 44.996094 30.875 44.515625 30.875 C 44.03125 30.875 43.710938 31.195312 43.710938 31.675781 L 43.710938 42.09375 L 16.441406 42.09375 L 16.441406 27.671875 L 43.710938 27.671875 L 43.710938 28.472656 C 43.710938 28.953125 44.03125 29.273438 44.515625 29.273438 C 44.996094 29.273438 45.316406 28.953125 45.316406 28.472656 L 45.316406 26.871094 C 45.316406 26.390625 44.996094 26.070312 44.515625 26.070312 L 15.640625 26.070312 C 15.15625 26.070312 14.835938 26.390625 14.835938 26.871094 L 14.835938 34.082031 L 8.421875 34.082031 C 7.136719 34.082031 6.015625 33.039062 6.015625 31.675781 Z M 6.09375 16.457031 "/></g><path style=" stroke:none;fill-rule:nonzero;fill:#000000;fill-opacity:1;" d="M 10.105469 23.667969 C 10.34375 23.667969 10.507812 23.585938 10.667969 23.425781 C 10.828125 23.265625 10.90625 23.105469 10.90625 22.867188 C 10.90625 22.625 10.828125 22.464844 10.667969 22.304688 C 10.34375 21.984375 9.863281 21.984375 9.542969 22.304688 C 9.382812 22.464844 9.304688 22.625 9.304688 22.867188 C 9.304688 23.105469 9.382812 23.265625 9.542969 23.425781 C 9.625 23.585938 9.863281 23.667969 10.105469 23.667969 Z M 10.105469 23.667969 "/><path style=" stroke:none;fill-rule:nonzero;fill:#000000;fill-opacity:1;" d="M 47.722656 23.667969 C 47.960938 23.667969 48.125 23.585938 48.285156 23.425781 C 48.445312 23.265625 48.523438 23.027344 48.523438 22.867188 C 48.523438 22.625 48.445312 22.464844 48.285156 22.304688 C 47.960938 21.984375 47.480469 21.984375 47.160156 22.304688 C 47 22.464844 46.921875 22.625 46.921875 22.867188 C 46.921875 23.105469 47 23.265625 47.160156 23.425781 C 47.320312 23.585938 47.480469 23.667969 47.722656 23.667969 Z M 47.722656 23.667969 "/><path style=" stroke:none;fill-rule:nonzero;fill:#000000;fill-opacity:1;" d="M 39.703125 34.082031 L 20.453125 34.082031 C 19.96875 34.082031 19.648438 34.402344 19.648438 34.882812 C 19.648438 35.363281 19.96875 35.683594 20.453125 35.683594 L 39.703125 35.683594 C 40.183594 35.683594 40.503906 35.363281 40.503906 34.882812 C 40.503906 34.402344 40.183594 34.082031 39.703125 34.082031 Z M 39.703125 34.082031 "/><path style=" stroke:none;fill-rule:nonzero;fill:#000000;fill-opacity:1;" d="M 39.703125 38.085938 L 38.097656 38.085938 C 37.617188 38.085938 37.296875 38.40625 37.296875 38.886719 C 37.296875 39.367188 37.617188 39.6875 38.097656 39.6875 L 39.703125 39.6875 C 40.183594 39.6875 40.503906 39.367188 40.503906 38.886719 C 40.503906 38.40625 40.183594 38.085938 39.703125 38.085938 Z M 39.703125 38.085938 "/><path style=" stroke:none;fill-rule:nonzero;fill:#000000;fill-opacity:1;" d="M 33.285156 38.085938 L 20.453125 38.085938 C 19.96875 38.085938 19.648438 38.40625 19.648438 38.886719 C 19.648438 39.367188 19.96875 39.6875 20.453125 39.6875 L 33.285156 39.6875 C 33.765625 39.6875 34.085938 39.367188 34.085938 38.886719 C 34.085938 38.40625 33.765625 38.085938 33.285156 38.085938 Z M 33.285156 38.085938 "/><path style=" stroke:none;fill-rule:nonzero;fill:#000000;fill-opacity:1;" d="M 20.453125 31.675781 L 27.671875 31.675781 C 28.152344 31.675781 28.472656 31.355469 28.472656 30.875 C 28.472656 30.394531 28.152344 30.074219 27.671875 30.074219 L 20.453125 30.074219 C 19.96875 30.074219 19.648438 30.394531 19.648438 30.875 C 19.648438 31.355469 19.96875 31.675781 20.453125 31.675781 Z M 20.453125 31.675781 "/><path style=" stroke:none;fill-rule:nonzero;fill:#000000;fill-opacity:1;" d="M 39.703125 30.074219 L 32.484375 30.074219 C 32 30.074219 31.679688 30.394531 31.679688 30.875 C 31.679688 31.355469 32 31.675781 32.484375 31.675781 L 39.703125 31.675781 C 40.183594 31.675781 40.503906 31.355469 40.503906 30.875 C 40.503906 30.394531 40.183594 30.074219 39.703125 30.074219 Z M 39.703125 30.074219 "/><path style=" stroke:none;fill-rule:nonzero;fill:#000000;fill-opacity:1;" d="M 40.503906 23.667969 L 44.515625 23.667969 C 44.996094 23.667969 45.316406 23.347656 45.316406 22.867188 C 45.316406 22.386719 44.996094 22.066406 44.515625 22.066406 L 40.503906 22.066406 C 40.023438 22.066406 39.703125 22.386719 39.703125 22.867188 C 39.703125 23.347656 40.023438 23.667969 40.503906 23.667969 Z M 40.503906 23.667969 "/></g></svg>