<svg xmlns="http://www.w3.org/2000/svg" xmlns:xlink="http://www.w3.org/1999/xlink" width="82" zoomAndPan="magnify" viewBox="0 0 61.5 45.749999" height="61" preserveAspectRatio="xMidYMid meet" version="1.2"><defs><clipPath id="f954ced6df"><path d="M 29.90625 15.757812 L 31.394531 15.757812 L 31.394531 17 L 29.90625 17 Z M 29.90625 15.757812 "/></clipPath><clipPath id="919446659f"><path d="M 13.316406 4.597656 L 49.027344 4.597656 L 49.027344 39.5625 L 13.316406 39.5625 Z M 13.316406 4.597656 "/></clipPath></defs><g id="c0716544f6"><g clip-rule="nonzero" clip-path="url(#f954ced6df)"><path style=" stroke:none;fill-rule:nonzero;fill:#ffffff;fill-opacity:1;" d="M 31.09375 16.351562 C 31.09375 16.515625 31.035156 16.652344 30.917969 16.769531 C 30.804688 16.886719 30.664062 16.945312 30.5 16.945312 C 30.335938 16.945312 30.195312 16.886719 30.082031 16.769531 C 29.964844 16.652344 29.90625 16.515625 29.90625 16.351562 C 29.90625 16.1875 29.964844 16.046875 30.082031 15.929688 C 30.195312 15.816406 30.335938 15.757812 30.5 15.757812 C 30.664062 15.757812 30.804688 15.816406 30.917969 15.929688 C 31.035156 16.046875 31.09375 16.1875 31.09375 16.351562 Z M 31.09375 16.351562 "/></g><g clip-rule="nonzero" clip-path="url(#919446659f)"><path style=" stroke:none;fill-rule:nonzero;fill:#000000;fill-opacity:1;" d="M 28.734375 4.621094 C 28.585938 4.625 28.425781 4.648438 28.269531 4.667969 L 28.167969 4.667969 L 28.070312 4.6875 C 27.53125 4.785156 26.957031 5.023438 26.503906 5.511719 L 26.445312 5.574219 L 26.398438 5.644531 L 26.40625 5.648438 C 25.90625 6.261719 25.777344 6.980469 25.777344 7.582031 L 25.777344 14.898438 L 13.765625 22.84375 L 15.679688 22.84375 L 15.625 23.222656 L 16.519531 23.351562 L 16.59375 22.84375 L 19.257812 22.84375 L 19.226562 23.152344 L 20.128906 23.238281 L 20.167969 22.84375 L 22.839844 22.84375 L 22.824219 23.121094 L 23.730469 23.164062 L 23.742188 22.84375 L 26.414062 22.84375 L 26.414062 23.125 L 27.324219 23.125 L 27.324219 22.84375 L 29.996094 22.84375 L 30.007812 23.164062 L 30.914062 23.121094 L 30.898438 22.84375 L 33.570312 22.84375 L 33.609375 23.238281 L 34.507812 23.152344 L 34.480469 22.84375 L 37.144531 22.84375 L 37.214844 23.351562 L 38.113281 23.222656 L 38.058594 22.84375 L 39.972656 22.84375 L 27.960938 14.898438 L 27.960938 7.582031 C 27.960938 7.269531 28.050781 7.042969 28.109375 6.976562 C 28.152344 6.929688 28.285156 6.851562 28.472656 6.816406 C 28.65625 6.78125 28.875 6.777344 29.113281 6.804688 C 29.191406 6.816406 29.269531 6.824219 29.34375 6.839844 C 29.347656 6.839844 29.355469 6.84375 29.359375 6.84375 L 29.375 6.847656 L 29.386719 6.851562 L 29.390625 6.851562 C 29.394531 6.851562 29.394531 6.851562 29.398438 6.855469 L 29.515625 6.886719 L 46.363281 6.886719 L 46.691406 6.992188 C 46.714844 7.011719 46.734375 7.027344 46.75 7.054688 C 46.800781 7.152344 46.847656 7.339844 46.847656 7.582031 L 46.847656 39.546875 L 49.03125 39.546875 L 49.03125 7.582031 C 49.03125 7.117188 48.964844 6.582031 48.683594 6.054688 C 48.488281 5.679688 48.199219 5.351562 47.820312 5.113281 L 47.710938 5.042969 L 47.578125 5.003906 L 47.570312 4.996094 L 46.863281 4.773438 L 46.703125 4.722656 L 29.800781 4.722656 C 29.789062 4.71875 29.777344 4.714844 29.769531 4.714844 L 29.664062 4.695312 L 29.632812 4.695312 C 29.542969 4.679688 29.449219 4.664062 29.359375 4.652344 L 29.296875 4.648438 L 29.238281 4.648438 C 29.074219 4.632812 28.910156 4.621094 28.734375 4.621094 Z M 22.695312 25.816406 L 22.566406 28.507812 L 23.46875 28.550781 L 23.597656 25.855469 Z M 31.042969 25.816406 L 30.136719 25.855469 L 30.269531 28.550781 L 31.171875 28.507812 Z M 26.414062 25.820312 L 26.414062 28.515625 L 27.324219 28.515625 L 27.324219 25.820312 Z M 18.972656 25.839844 L 18.710938 28.523438 L 19.613281 28.605469 L 19.871094 25.921875 Z M 34.765625 25.839844 L 33.863281 25.921875 L 34.125 28.605469 L 35.023438 28.523438 Z M 15.238281 25.894531 L 14.851562 28.5625 L 15.75 28.6875 L 16.136719 26.019531 Z M 38.5 25.894531 L 37.601562 26.019531 L 37.988281 28.6875 L 38.882812 28.5625 Z M 22.4375 31.203125 L 22.304688 33.894531 L 23.210938 33.9375 L 23.339844 31.242188 Z M 31.300781 31.203125 L 30.398438 31.242188 L 30.527344 33.9375 L 31.429688 33.894531 Z M 18.453125 31.207031 L 18.195312 33.894531 L 19.097656 33.980469 L 19.355469 31.292969 Z M 35.285156 31.207031 L 34.378906 31.292969 L 34.636719 33.980469 L 35.539062 33.894531 Z M 26.414062 31.214844 L 26.414062 33.910156 L 27.320312 33.910156 L 27.320312 31.214844 Z M 14.46875 31.230469 L 14.082031 33.902344 L 14.980469 34.03125 L 15.367188 31.359375 Z M 39.265625 31.230469 L 38.367188 31.359375 L 38.753906 34.03125 L 39.652344 33.902344 Z M 13.699219 36.570312 L 13.316406 39.242188 L 14.210938 39.367188 L 14.597656 36.699219 Z M 40.039062 36.570312 L 39.140625 36.699219 L 39.523438 39.367188 L 40.417969 39.242188 Z M 17.9375 36.578125 L 17.679688 39.261719 L 18.582031 39.347656 L 18.839844 36.664062 Z M 35.796875 36.578125 L 34.894531 36.664062 L 35.152344 39.347656 L 36.054688 39.261719 Z M 22.175781 36.589844 L 22.046875 39.28125 L 22.953125 39.328125 L 23.082031 36.632812 Z M 31.558594 36.589844 L 30.652344 36.632812 L 30.78125 39.328125 L 31.6875 39.28125 Z M 26.414062 36.609375 L 26.414062 39.304688 L 27.320312 39.304688 L 27.320312 36.609375 Z M 26.414062 36.609375 "/></g></g></svg>