<svg xmlns="http://www.w3.org/2000/svg" xmlns:xlink="http://www.w3.org/1999/xlink" width="82" zoomAndPan="magnify" viewBox="0 0 61.5 45.749999" height="61" preserveAspectRatio="xMidYMid meet" version="1.2"><defs><clipPath id="e5fed584fb"><path d="M 29.90625 15.757812 L 31.394531 15.757812 L 31.394531 17 L 29.90625 17 Z M 29.90625 15.757812 "/></clipPath><clipPath id="c9ce7835f8"><path d="M 13.476562 4.597656 L 47.695312 4.597656 L 47.695312 38.078125 L 13.476562 38.078125 Z M 13.476562 4.597656 "/></clipPath></defs><g id="233f1443ef"><g clip-rule="nonzero" clip-path="url(#e5fed584fb)"><path style=" stroke:none;fill-rule:nonzero;fill:#ffffff;fill-opacity:1;" d="M 31.09375 16.351562 C 31.09375 16.515625 31.035156 16.652344 30.917969 16.769531 C 30.804688 16.886719 30.664062 16.945312 30.5 16.945312 C 30.335938 16.945312 30.195312 16.886719 30.082031 16.769531 C 29.964844 16.652344 29.90625 16.515625 29.90625 16.351562 C 29.90625 16.1875 29.964844 16.046875 30.082031 15.929688 C 30.195312 15.816406 30.335938 15.757812 30.5 15.757812 C 30.664062 15.757812 30.804688 15.816406 30.917969 15.929688 C 31.035156 16.046875 31.09375 16.1875 31.09375 16.351562 Z M 31.09375 16.351562 "/></g><g clip-rule="nonzero" clip-path="url(#c9ce7835f8)"><path style=" stroke:none;fill-rule:nonzero;fill:#000000;fill-opacity:1;" d="M 14.320312 37.289062 L 14.875 37.835938 C 15.019531 37.976562 15.210938 38.050781 15.402344 38.050781 C 15.550781 38.050781 15.703125 38.007812 15.832031 37.917969 L 18.089844 36.363281 C 18.175781 36.371094 18.265625 36.375 18.351562 36.375 C 19.179688 36.375 19.960938 36.058594 20.546875 35.480469 C 20.769531 35.261719 20.949219 35.015625 21.09375 34.753906 L 46.5 15.882812 C 47.496094 15.140625 47.695312 13.742188 46.945312 12.761719 L 46.710938 12.449219 C 46.503906 12.179688 46.113281 12.128906 45.839844 12.332031 L 45.75 12.398438 L 45.515625 12.09375 C 45.328125 11.847656 44.976562 11.796875 44.726562 11.984375 L 30.335938 22.671875 C 30.085938 22.855469 30.039062 23.203125 30.222656 23.449219 L 30.457031 23.753906 L 29.640625 24.363281 C 29.617188 24.378906 29.597656 24.398438 29.582031 24.425781 L 28.425781 26.207031 L 21.566406 31.304688 C 21.457031 31.382812 21.4375 31.535156 21.515625 31.640625 C 21.597656 31.746094 21.75 31.765625 21.855469 31.6875 L 28.753906 26.5625 C 28.777344 26.546875 28.796875 26.527344 28.8125 26.5 L 29.96875 24.71875 L 46.132812 12.714844 C 46.191406 12.667969 46.277344 12.679688 46.320312 12.738281 L 46.558594 13.050781 C 47.148438 13.820312 46.988281 14.917969 46.207031 15.5 L 21.390625 33.933594 C 21.589844 32.960938 21.3125 31.910156 20.546875 31.15625 C 20.371094 30.984375 20.175781 30.832031 19.972656 30.707031 L 25.566406 23.386719 L 27.375 22.25 C 27.398438 22.234375 27.421875 22.214844 27.4375 22.191406 L 28.054688 21.386719 L 28.363281 21.617188 C 28.613281 21.800781 28.964844 21.753906 29.152344 21.507812 L 39.996094 7.320312 C 40.183594 7.078125 40.136719 6.730469 39.886719 6.542969 L 39.578125 6.3125 L 39.644531 6.226562 C 39.746094 6.09375 39.789062 5.933594 39.765625 5.769531 C 39.742188 5.609375 39.65625 5.464844 39.523438 5.367188 L 39.207031 5.132812 C 38.726562 4.777344 38.132812 4.625 37.53125 4.707031 C 36.933594 4.789062 36.40625 5.097656 36.042969 5.574219 L 16.898438 30.617188 C 16.628906 30.757812 16.378906 30.9375 16.160156 31.15625 C 15.570312 31.734375 15.25 32.5 15.25 33.316406 C 15.25 33.40625 15.253906 33.492188 15.261719 33.578125 L 13.683594 35.804688 C 13.476562 36.097656 13.511719 36.492188 13.769531 36.746094 Z M 36.429688 5.859375 C 36.714844 5.488281 37.132812 5.246094 37.601562 5.179688 C 38.070312 5.117188 38.539062 5.234375 38.917969 5.515625 L 39.230469 5.75 C 39.257812 5.769531 39.277344 5.800781 39.285156 5.835938 C 39.289062 5.871094 39.277344 5.90625 39.257812 5.933594 L 27.078125 21.867188 L 25.269531 23.007812 C 25.242188 23.023438 25.222656 23.042969 25.203125 23.066406 L 19.53125 30.488281 C 19.160156 30.339844 18.761719 30.257812 18.351562 30.257812 C 18.140625 30.257812 17.933594 30.28125 17.730469 30.320312 Z M 19.210938 34.164062 C 20.039062 33.351562 20.394531 32.300781 20.203125 31.492188 C 21.222656 32.5 21.222656 34.136719 20.203125 35.140625 C 19.183594 36.148438 17.523438 36.148438 16.503906 35.140625 C 16.503906 35.140625 16.5 35.140625 16.5 35.140625 C 17.320312 35.332031 18.382812 34.980469 19.210938 34.164062 Z M 14.082031 36.078125 L 15.390625 34.230469 C 15.539062 34.699219 15.796875 35.125 16.160156 35.480469 C 16.519531 35.835938 16.953125 36.09375 17.425781 36.238281 L 15.554688 37.527344 C 15.449219 37.597656 15.308594 37.585938 15.21875 37.496094 L 14.835938 37.121094 L 15.691406 36.277344 C 15.789062 36.183594 15.789062 36.035156 15.691406 35.941406 C 15.597656 35.847656 15.445312 35.847656 15.347656 35.941406 L 14.492188 36.78125 L 14.113281 36.40625 C 14.023438 36.320312 14.011719 36.179688 14.082031 36.078125 Z M 14.082031 36.078125 "/></g></g></svg>