<svg xmlns="http://www.w3.org/2000/svg" xmlns:xlink="http://www.w3.org/1999/xlink" width="82" zoomAndPan="magnify" viewBox="0 0 61.5 45.749999" height="61" preserveAspectRatio="xMidYMid meet" version="1.2"><defs><clipPath id="313ab9a305"><path d="M 30.503906 19.699219 L 32.734375 19.699219 L 32.734375 21.933594 L 30.503906 21.933594 Z M 30.503906 19.699219 "/></clipPath><clipPath id="6709318496"><path d="M 19.492188 14.484375 L 44.042969 14.484375 L 44.042969 30.851562 L 19.492188 30.851562 Z M 19.492188 14.484375 "/></clipPath></defs><g id="bb13c3e8ee"><g clip-rule="nonzero" clip-path="url(#313ab9a305)"><path style=" stroke:none;fill-rule:nonzero;fill:#000000;fill-opacity:1;" d="M 32.734375 20.816406 C 32.734375 20.964844 32.707031 21.105469 32.648438 21.242188 C 32.59375 21.378906 32.511719 21.5 32.40625 21.605469 C 32.300781 21.710938 32.183594 21.792969 32.046875 21.847656 C 31.910156 21.90625 31.765625 21.933594 31.617188 21.933594 C 31.46875 21.933594 31.328125 21.90625 31.191406 21.847656 C 31.054688 21.792969 30.933594 21.710938 30.828125 21.605469 C 30.722656 21.5 30.644531 21.378906 30.585938 21.242188 C 30.53125 21.105469 30.503906 20.964844 30.503906 20.816406 C 30.503906 20.667969 30.53125 20.527344 30.585938 20.390625 C 30.644531 20.253906 30.722656 20.132812 30.828125 20.027344 C 30.933594 19.921875 31.054688 19.84375 31.191406 19.785156 C 31.328125 19.730469 31.46875 19.699219 31.617188 19.699219 C 31.765625 19.699219 31.910156 19.730469 32.046875 19.785156 C 32.183594 19.84375 32.300781 19.921875 32.40625 20.027344 C 32.511719 20.132812 32.59375 20.253906 32.648438 20.390625 C 32.707031 20.527344 32.734375 20.667969 32.734375 20.816406 Z M 32.734375 20.816406 "/></g><g clip-rule="nonzero" clip-path="url(#6709318496)"><path style=" stroke:none;fill-rule:evenodd;fill:#000000;fill-opacity:1;" d="M 23.457031 23.734375 L 20.351562 16.226562 C 20.25 15.980469 20.371094 15.699219 20.621094 15.597656 C 20.871094 15.496094 21.160156 15.617188 21.261719 15.863281 L 24.515625 23.734375 L 39.019531 23.734375 L 42.273438 15.863281 C 42.375 15.617188 42.660156 15.496094 42.910156 15.597656 C 43.164062 15.699219 43.28125 15.980469 43.179688 16.226562 L 40.078125 23.734375 L 42.050781 23.734375 C 42.578125 23.734375 43.082031 23.941406 43.457031 24.308594 C 43.832031 24.675781 44.039062 25.171875 44.039062 25.691406 L 44.039062 27.410156 C 44.039062 27.929688 43.832031 28.425781 43.457031 28.796875 C 43.082031 29.164062 42.578125 29.371094 42.050781 29.371094 L 40.953125 29.371094 C 40.925781 29.75 40.761719 30.113281 40.484375 30.386719 C 40.183594 30.683594 39.773438 30.847656 39.347656 30.847656 L 37.433594 30.847656 C 37.007812 30.847656 36.597656 30.683594 36.296875 30.386719 C 36.019531 30.113281 35.855469 29.75 35.828125 29.371094 L 27.703125 29.371094 C 27.679688 29.75 27.511719 30.113281 27.238281 30.386719 C 26.933594 30.683594 26.527344 30.847656 26.101562 30.847656 L 24.1875 30.847656 C 23.757812 30.847656 23.351562 30.683594 23.046875 30.386719 C 22.773438 30.113281 22.605469 29.75 22.582031 29.371094 L 21.484375 29.371094 C 20.957031 29.371094 20.449219 29.164062 20.078125 28.796875 C 19.703125 28.429688 19.492188 27.929688 19.492188 27.410156 L 19.492188 25.695312 C 19.492188 25.175781 19.703125 24.675781 20.078125 24.308594 C 20.449219 23.941406 20.957031 23.734375 21.484375 23.734375 Z M 23.566406 29.367188 C 23.589844 29.496094 23.648438 29.609375 23.742188 29.703125 C 23.859375 29.816406 24.019531 29.882812 24.1875 29.882812 L 26.101562 29.882812 C 26.265625 29.882812 26.425781 29.816406 26.542969 29.703125 C 26.636719 29.609375 26.695312 29.496094 26.71875 29.367188 Z M 36.816406 29.367188 C 36.835938 29.496094 36.898438 29.609375 36.992188 29.703125 C 37.109375 29.816406 37.269531 29.882812 37.433594 29.882812 L 39.347656 29.882812 C 39.515625 29.882812 39.671875 29.816406 39.789062 29.703125 C 39.882812 29.609375 39.945312 29.496094 39.964844 29.367188 Z M 42.050781 24.699219 L 21.484375 24.699219 C 21.214844 24.699219 20.960938 24.804688 20.769531 24.992188 C 20.582031 25.175781 20.472656 25.429688 20.472656 25.691406 L 20.472656 27.410156 C 20.472656 27.671875 20.582031 27.925781 20.769531 28.113281 C 20.960938 28.296875 21.214844 28.402344 21.484375 28.402344 L 42.050781 28.402344 C 42.316406 28.402344 42.574219 28.296875 42.761719 28.113281 C 42.953125 27.925781 43.058594 27.671875 43.058594 27.410156 L 43.058594 25.691406 C 43.058594 25.429688 42.953125 25.175781 42.761719 24.992188 C 42.574219 24.804688 42.316406 24.699219 42.050781 24.699219 Z M 35.203125 26.070312 C 35.472656 26.070312 35.691406 26.285156 35.691406 26.550781 C 35.691406 26.816406 35.472656 27.035156 35.203125 27.035156 C 34.929688 27.035156 34.710938 26.816406 34.710938 26.550781 C 34.710938 26.285156 34.929688 26.070312 35.203125 26.070312 Z M 40.109375 26.070312 L 37.65625 26.070312 C 37.382812 26.070312 37.164062 26.285156 37.164062 26.550781 C 37.164062 26.816406 37.382812 27.035156 37.65625 27.035156 L 40.109375 27.035156 C 40.378906 27.035156 40.597656 26.816406 40.597656 26.550781 C 40.597656 26.285156 40.378906 26.070312 40.109375 26.070312 Z M 29.046875 21.734375 C 29.625 20.800781 30.65625 20.230469 31.765625 20.230469 C 32.878906 20.230469 33.90625 20.800781 34.484375 21.734375 C 34.625 21.960938 34.929688 22.03125 35.160156 21.894531 C 35.390625 21.753906 35.464844 21.457031 35.324219 21.230469 C 34.566406 20.007812 33.21875 19.265625 31.765625 19.265625 C 30.3125 19.265625 28.964844 20.007812 28.210938 21.230469 C 28.070312 21.457031 28.144531 21.753906 28.375 21.894531 C 28.605469 22.03125 28.90625 21.960938 29.046875 21.734375 Z M 27.667969 19.96875 C 28.539062 18.746094 30.09375 18.011719 31.765625 18.011719 C 33.441406 18.011719 34.996094 18.746094 35.867188 19.96875 C 36.019531 20.1875 36.328125 20.238281 36.550781 20.085938 C 36.769531 19.933594 36.824219 19.632812 36.667969 19.414062 C 35.625 17.949219 33.773438 17.046875 31.765625 17.046875 C 29.761719 17.046875 27.90625 17.949219 26.863281 19.414062 C 26.707031 19.632812 26.761719 19.933594 26.984375 20.085938 C 27.207031 20.238281 27.511719 20.1875 27.667969 19.96875 Z M 26.136719 18.175781 C 27.332031 16.480469 29.46875 15.453125 31.765625 15.453125 C 34.066406 15.453125 36.203125 16.480469 37.398438 18.175781 C 37.550781 18.394531 37.859375 18.449219 38.082031 18.296875 C 38.304688 18.148438 38.359375 17.847656 38.203125 17.625 C 36.835938 15.683594 34.398438 14.488281 31.765625 14.488281 C 29.132812 14.488281 26.699219 15.683594 25.328125 17.625 C 25.175781 17.847656 25.230469 18.148438 25.453125 18.296875 C 25.675781 18.449219 25.980469 18.394531 26.136719 18.175781 Z M 26.136719 18.175781 "/></g></g></svg>