<svg xmlns="http://www.w3.org/2000/svg" xmlns:xlink="http://www.w3.org/1999/xlink" width="82" zoomAndPan="magnify" viewBox="0 0 61.5 45.749999" height="61" preserveAspectRatio="xMidYMid meet" version="1.0"><defs><clipPath id="aa77593267"><path d="M 18.972656 9.136719 L 37.570312 9.136719 L 37.570312 26.992188 L 18.972656 26.992188 Z M 18.972656 9.136719 " clip-rule="nonzero"/></clipPath></defs><g clip-path="url(#aa77593267)"><path fill="#000000" d="M 33.582031 12.597656 C 33.515625 12.492188 33.476562 12.371094 33.476562 12.234375 C 33.476562 12.09375 33.519531 11.972656 33.585938 11.867188 C 33.640625 11.773438 33.710938 11.699219 33.785156 11.636719 C 33.914062 11.519531 34.117188 11.53125 34.234375 11.664062 C 34.351562 11.792969 34.339844 11.996094 34.207031 12.109375 C 34.171875 12.140625 34.144531 12.171875 34.125 12.199219 C 34.121094 12.210938 34.117188 12.222656 34.117188 12.234375 C 34.117188 12.246094 34.117188 12.257812 34.125 12.265625 C 34.140625 12.292969 34.171875 12.324219 34.207031 12.355469 C 34.277344 12.417969 34.347656 12.492188 34.40625 12.585938 C 34.472656 12.691406 34.515625 12.8125 34.515625 12.953125 C 34.515625 13.089844 34.476562 13.210938 34.410156 13.316406 C 34.355469 13.40625 34.285156 13.480469 34.207031 13.550781 C 34.074219 13.667969 33.875 13.65625 33.757812 13.523438 C 33.640625 13.394531 33.652344 13.191406 33.785156 13.074219 C 33.820312 13.042969 33.851562 13.011719 33.867188 12.984375 C 33.871094 12.976562 33.875 12.964844 33.875 12.953125 C 33.875 12.941406 33.871094 12.929688 33.863281 12.917969 C 33.847656 12.890625 33.816406 12.859375 33.785156 12.832031 L 33.785156 12.828125 C 33.707031 12.761719 33.636719 12.683594 33.582031 12.597656 Z M 35.222656 12.832031 C 35.257812 12.859375 35.285156 12.890625 35.304688 12.917969 C 35.308594 12.929688 35.3125 12.941406 35.3125 12.953125 C 35.3125 12.964844 35.308594 12.976562 35.304688 12.984375 C 35.289062 13.011719 35.257812 13.042969 35.222656 13.074219 C 35.089844 13.191406 35.078125 13.390625 35.195312 13.523438 C 35.3125 13.65625 35.515625 13.667969 35.644531 13.550781 C 35.722656 13.480469 35.792969 13.40625 35.847656 13.316406 C 35.914062 13.210938 35.953125 13.089844 35.953125 12.953125 C 35.953125 12.8125 35.910156 12.691406 35.84375 12.585938 C 35.785156 12.492188 35.71875 12.417969 35.644531 12.355469 C 35.609375 12.324219 35.578125 12.292969 35.5625 12.265625 C 35.554688 12.257812 35.550781 12.246094 35.550781 12.234375 C 35.550781 12.222656 35.558594 12.210938 35.5625 12.199219 C 35.582031 12.171875 35.609375 12.140625 35.644531 12.109375 C 35.777344 11.996094 35.789062 11.792969 35.671875 11.664062 C 35.554688 11.53125 35.351562 11.519531 35.222656 11.636719 C 35.148438 11.699219 35.078125 11.773438 35.023438 11.867188 C 34.957031 11.972656 34.914062 12.09375 34.914062 12.234375 C 34.914062 12.371094 34.953125 12.492188 35.019531 12.597656 C 35.074219 12.6875 35.144531 12.761719 35.222656 12.832031 Z M 32.402344 17.035156 L 32.839844 17.035156 C 32.949219 17.035156 33.039062 16.945312 33.039062 16.835938 L 33.039062 16.597656 C 33.039062 16.488281 32.949219 16.398438 32.839844 16.398438 L 32.71875 16.398438 C 32.609375 16.398438 32.519531 16.308594 32.519531 16.199219 L 32.519531 15.675781 C 32.519531 15.5625 32.609375 15.476562 32.71875 15.476562 L 32.839844 15.476562 C 32.949219 15.476562 33.039062 15.386719 33.039062 15.273438 L 33.039062 15.039062 C 33.039062 14.925781 32.949219 14.839844 32.839844 14.839844 L 32.402344 14.839844 C 32.113281 14.839844 31.882812 15.070312 31.882812 15.355469 L 31.882812 16.515625 C 31.882812 16.800781 32.113281 17.035156 32.402344 17.035156 Z M 21.371094 14.984375 L 29.574219 14.984375 C 29.785156 14.984375 29.953125 14.816406 29.953125 14.605469 L 29.953125 9.515625 C 29.953125 9.308594 29.785156 9.136719 29.574219 9.136719 L 21.371094 9.136719 C 21.160156 9.136719 20.988281 9.308594 20.988281 9.515625 L 20.988281 14.605469 C 20.988281 14.816406 21.160156 14.984375 21.371094 14.984375 Z M 24.730469 15.492188 C 24.519531 15.492188 24.347656 15.664062 24.347656 15.871094 L 24.347656 16.25 C 24.347656 16.457031 24.519531 16.628906 24.730469 16.628906 L 26.210938 16.628906 C 26.421875 16.628906 26.59375 16.457031 26.59375 16.25 L 26.59375 15.871094 C 26.59375 15.664062 26.421875 15.492188 26.210938 15.492188 Z M 21.367188 17.878906 L 29.574219 17.878906 C 29.785156 17.878906 29.953125 17.710938 29.953125 17.5 C 29.953125 17.289062 29.785156 17.121094 29.574219 17.121094 L 21.367188 17.121094 C 21.160156 17.121094 20.988281 17.289062 20.988281 17.5 C 20.988281 17.710938 21.160156 17.878906 21.367188 17.878906 Z M 37.148438 18.382812 L 19.394531 18.382812 C 19.167969 18.382812 18.984375 18.566406 18.984375 18.792969 C 18.984375 19.015625 19.167969 19.199219 19.394531 19.199219 L 37.148438 19.199219 C 37.371094 19.199219 37.554688 19.015625 37.554688 18.792969 C 37.554688 18.566406 37.371094 18.382812 37.148438 18.382812 Z M 20.664062 19.835938 L 20.371094 19.835938 C 20.242188 19.835938 20.136719 19.929688 20.117188 20.050781 L 19.082031 26.699219 C 19.058594 26.851562 19.179688 26.992188 19.335938 26.992188 L 19.628906 26.992188 C 19.757812 26.992188 19.863281 26.902344 19.882812 26.777344 L 20.917969 20.128906 C 20.941406 19.976562 20.820312 19.835938 20.664062 19.835938 Z M 31.25 21.523438 L 25.289062 21.523438 C 25.148438 21.523438 25.03125 21.636719 25.03125 21.777344 L 25.03125 22.082031 C 25.03125 22.222656 25.148438 22.335938 25.289062 22.335938 L 31.25 22.335938 C 31.394531 22.335938 31.507812 22.222656 31.507812 22.082031 L 31.507812 21.777344 C 31.507812 21.636719 31.394531 21.523438 31.25 21.523438 Z M 33.785156 14.367188 C 33.621094 14.367188 33.492188 14.5 33.492188 14.660156 L 33.492188 17.210938 C 33.492188 17.371094 33.621094 17.503906 33.785156 17.503906 L 35.644531 17.503906 C 35.808594 17.503906 35.9375 17.371094 35.9375 17.210938 L 35.9375 14.660156 C 35.9375 14.5 35.808594 14.367188 35.644531 14.367188 Z M 36.421875 20.050781 C 36.402344 19.929688 36.296875 19.835938 36.171875 19.835938 L 35.875 19.835938 C 35.71875 19.835938 35.597656 19.976562 35.625 20.128906 L 36.65625 26.777344 C 36.675781 26.902344 36.785156 26.992188 36.910156 26.992188 L 37.203125 26.992188 C 37.363281 26.992188 37.480469 26.851562 37.457031 26.699219 Z M 30.863281 23.179688 C 30.84375 23.0625 30.742188 22.976562 30.625 22.976562 L 30.300781 22.976562 C 30.152344 22.976562 30.039062 23.105469 30.0625 23.253906 L 30.613281 26.789062 C 30.628906 26.90625 30.730469 26.992188 30.851562 26.992188 L 31.171875 26.992188 C 31.320312 26.992188 31.4375 26.859375 31.414062 26.714844 Z M 26.238281 22.976562 L 25.917969 22.976562 C 25.796875 22.976562 25.695312 23.0625 25.675781 23.179688 L 25.128906 26.714844 C 25.105469 26.859375 25.21875 26.992188 25.367188 26.992188 L 25.6875 26.992188 C 25.808594 26.992188 25.910156 26.90625 25.929688 26.789062 L 26.476562 23.253906 C 26.5 23.105469 26.386719 22.976562 26.238281 22.976562 Z M 26.238281 22.976562 " fill-opacity="1" fill-rule="evenodd"/></g></svg>