<svg xmlns="http://www.w3.org/2000/svg" xmlns:xlink="http://www.w3.org/1999/xlink" width="82" zoomAndPan="magnify" viewBox="0 0 61.5 45.749999" height="61" preserveAspectRatio="xMidYMid meet" version="1.0"><defs><clipPath id="c6392e230c"><path d="M 22.246094 10.625 L 40.097656 10.625 L 40.097656 28.480469 L 22.246094 28.480469 Z M 22.246094 10.625 " clip-rule="nonzero"/></clipPath></defs><path fill="#000000" d="M 29.847656 15.332031 C 27.265625 15.332031 25.164062 17.433594 25.164062 20.015625 C 25.164062 22.597656 27.265625 24.699219 29.847656 24.699219 C 32.429688 24.699219 34.53125 22.597656 34.53125 20.015625 C 34.53125 17.433594 32.429688 15.332031 29.847656 15.332031 Z M 29.847656 24.414062 C 27.421875 24.414062 25.445312 22.441406 25.445312 20.015625 C 25.445312 17.589844 27.421875 15.613281 29.847656 15.613281 C 32.273438 15.613281 34.25 17.589844 34.25 20.015625 C 34.25 22.441406 32.273438 24.414062 29.847656 24.414062 Z M 29.847656 24.414062 " fill-opacity="1" fill-rule="nonzero"/><path fill="#000000" d="M 32.296875 17.429688 C 32.292969 17.425781 32.289062 17.421875 32.285156 17.417969 C 32.078125 17.226562 31.851562 17.058594 31.605469 16.917969 C 31.601562 16.914062 31.597656 16.910156 31.59375 16.910156 C 31.402344 16.800781 31.195312 16.710938 30.984375 16.636719 C 30.980469 16.636719 30.976562 16.636719 30.972656 16.632812 C 30.617188 16.515625 30.242188 16.449219 29.847656 16.449219 C 28.171875 16.449219 26.742188 17.589844 26.371094 19.222656 C 26.363281 19.261719 26.375 19.308594 26.398438 19.339844 C 26.425781 19.375 26.46875 19.394531 26.511719 19.394531 L 27.9375 19.394531 C 28.183594 19.394531 28.382812 19.671875 28.382812 20.015625 C 28.382812 20.355469 28.183594 20.636719 27.9375 20.636719 L 26.511719 20.636719 C 26.46875 20.636719 26.425781 20.65625 26.398438 20.6875 C 26.375 20.722656 26.363281 20.765625 26.371094 20.808594 C 26.742188 22.4375 28.171875 23.578125 29.847656 23.578125 C 30.242188 23.578125 30.617188 23.511719 30.972656 23.394531 C 30.976562 23.394531 30.980469 23.394531 30.984375 23.390625 C 31.195312 23.320312 31.402344 23.230469 31.59375 23.121094 C 31.597656 23.117188 31.601562 23.113281 31.605469 23.113281 C 31.851562 22.972656 32.078125 22.804688 32.28125 22.613281 C 32.289062 22.609375 32.292969 22.605469 32.300781 22.597656 C 32.984375 21.949219 33.410156 21.03125 33.410156 20.015625 C 33.410156 19 32.984375 18.082031 32.296875 17.429688 Z M 31.683594 17.296875 C 31.8125 17.386719 31.933594 17.480469 32.050781 17.585938 L 32.050781 22.441406 C 31.9375 22.546875 31.8125 22.644531 31.683594 22.730469 Z M 31.398438 22.902344 C 31.292969 22.960938 31.179688 23.011719 31.066406 23.058594 L 31.066406 16.96875 C 31.179688 17.015625 31.292969 17.066406 31.398438 17.125 Z M 26.691406 20.917969 L 27.9375 20.917969 C 28.339844 20.917969 28.667969 20.511719 28.667969 20.015625 C 28.667969 19.515625 28.339844 19.109375 27.9375 19.109375 L 26.691406 19.109375 C 27.09375 17.703125 28.367188 16.734375 29.847656 16.734375 C 30.171875 16.734375 30.484375 16.78125 30.78125 16.871094 L 30.78125 23.160156 C 30.488281 23.246094 30.171875 23.292969 29.847656 23.292969 C 28.367188 23.292969 27.09375 22.328125 26.691406 20.917969 Z M 32.335938 22.148438 L 32.335938 17.878906 C 32.828125 18.453125 33.128906 19.199219 33.128906 20.015625 C 33.128906 20.828125 32.828125 21.574219 32.335938 22.148438 Z M 32.335938 22.148438 " fill-opacity="1" fill-rule="nonzero"/><path fill="#000000" d="M 23.832031 12.914062 C 24.265625 12.914062 24.617188 12.5625 24.617188 12.128906 C 24.617188 11.695312 24.265625 11.34375 23.832031 11.34375 C 23.398438 11.34375 23.046875 11.695312 23.046875 12.128906 C 23.046875 12.5625 23.398438 12.914062 23.832031 12.914062 Z M 23.832031 11.628906 C 24.109375 11.628906 24.332031 11.851562 24.332031 12.128906 C 24.332031 12.40625 24.109375 12.632812 23.832031 12.632812 C 23.554688 12.632812 23.328125 12.40625 23.328125 12.128906 C 23.328125 11.851562 23.554688 11.628906 23.832031 11.628906 Z M 23.832031 11.628906 " fill-opacity="1" fill-rule="nonzero"/><path fill="#000000" d="M 25.535156 12.953125 L 28.414062 12.953125 C 28.496094 12.953125 28.558594 12.890625 28.558594 12.8125 L 28.558594 11.449219 C 28.558594 11.371094 28.496094 11.308594 28.414062 11.308594 L 25.535156 11.308594 C 25.457031 11.308594 25.394531 11.371094 25.394531 11.449219 L 25.394531 12.8125 C 25.394531 12.890625 25.457031 12.953125 25.535156 12.953125 Z M 25.679688 11.589844 L 28.273438 11.589844 L 28.273438 12.667969 L 25.679688 12.667969 Z M 25.679688 11.589844 " fill-opacity="1" fill-rule="nonzero"/><path fill="#000000" d="M 30.085938 11.554688 C 30.085938 11.660156 30.03125 11.714844 29.925781 11.714844 C 29.816406 11.714844 29.761719 11.660156 29.761719 11.554688 C 29.761719 11.445312 29.816406 11.390625 29.925781 11.390625 C 30.03125 11.390625 30.085938 11.445312 30.085938 11.554688 Z M 30.085938 11.554688 " fill-opacity="1" fill-rule="nonzero"/><path fill="#000000" d="M 30.085938 12.613281 C 30.085938 12.722656 30.03125 12.777344 29.925781 12.777344 C 29.816406 12.777344 29.761719 12.722656 29.761719 12.613281 C 29.761719 12.503906 29.816406 12.453125 29.925781 12.453125 C 30.03125 12.453125 30.085938 12.503906 30.085938 12.613281 Z M 30.085938 12.613281 " fill-opacity="1" fill-rule="nonzero"/><path fill="#000000" d="M 31.191406 11.554688 C 31.191406 11.660156 31.136719 11.714844 31.027344 11.714844 C 30.917969 11.714844 30.867188 11.660156 30.867188 11.554688 C 30.867188 11.445312 30.917969 11.390625 31.027344 11.390625 C 31.136719 11.390625 31.191406 11.445312 31.191406 11.554688 Z M 31.191406 11.554688 " fill-opacity="1" fill-rule="nonzero"/><path fill="#000000" d="M 31.191406 12.613281 C 31.191406 12.722656 31.136719 12.777344 31.027344 12.777344 C 30.917969 12.777344 30.867188 12.722656 30.867188 12.613281 C 30.867188 12.503906 30.917969 12.453125 31.027344 12.453125 C 31.136719 12.453125 31.191406 12.503906 31.191406 12.613281 Z M 31.191406 12.613281 " fill-opacity="1" fill-rule="nonzero"/><path fill="#000000" d="M 32.292969 11.554688 C 32.292969 11.660156 32.238281 11.714844 32.132812 11.714844 C 32.023438 11.714844 31.96875 11.660156 31.96875 11.554688 C 31.96875 11.445312 32.023438 11.390625 32.132812 11.390625 C 32.238281 11.390625 32.292969 11.445312 32.292969 11.554688 Z M 32.292969 11.554688 " fill-opacity="1" fill-rule="nonzero"/><path fill="#000000" d="M 32.292969 12.613281 C 32.292969 12.722656 32.238281 12.777344 32.132812 12.777344 C 32.023438 12.777344 31.96875 12.722656 31.96875 12.613281 C 31.96875 12.503906 32.023438 12.453125 32.132812 12.453125 C 32.238281 12.453125 32.292969 12.503906 32.292969 12.613281 Z M 32.292969 12.613281 " fill-opacity="1" fill-rule="nonzero"/><path fill="#000000" d="M 33.234375 11.714844 C 33.324219 11.714844 33.398438 11.644531 33.398438 11.554688 C 33.398438 11.464844 33.324219 11.390625 33.234375 11.390625 C 33.144531 11.390625 33.074219 11.464844 33.074219 11.554688 C 33.074219 11.644531 33.148438 11.714844 33.234375 11.714844 Z M 33.234375 11.714844 " fill-opacity="1" fill-rule="nonzero"/><path fill="#000000" d="M 33.234375 12.777344 C 33.324219 12.777344 33.398438 12.703125 33.398438 12.613281 C 33.398438 12.523438 33.324219 12.453125 33.234375 12.453125 C 33.144531 12.453125 33.074219 12.523438 33.074219 12.613281 C 33.074219 12.703125 33.148438 12.777344 33.234375 12.777344 Z M 33.234375 12.777344 " fill-opacity="1" fill-rule="nonzero"/><path fill="#000000" d="M 34.5 11.554688 C 34.5 11.660156 34.449219 11.714844 34.339844 11.714844 C 34.230469 11.714844 34.175781 11.660156 34.175781 11.554688 C 34.175781 11.445312 34.230469 11.390625 34.339844 11.390625 C 34.449219 11.390625 34.5 11.445312 34.5 11.554688 Z M 34.5 11.554688 " fill-opacity="1" fill-rule="nonzero"/><path fill="#000000" d="M 34.5 12.613281 C 34.5 12.722656 34.449219 12.777344 34.339844 12.777344 C 34.230469 12.777344 34.175781 12.722656 34.175781 12.613281 C 34.175781 12.503906 34.230469 12.453125 34.339844 12.453125 C 34.449219 12.453125 34.5 12.503906 34.5 12.613281 Z M 34.5 12.613281 " fill-opacity="1" fill-rule="nonzero"/><path fill="#000000" d="M 35.605469 11.554688 C 35.605469 11.660156 35.550781 11.714844 35.445312 11.714844 C 35.335938 11.714844 35.28125 11.660156 35.28125 11.554688 C 35.28125 11.445312 35.335938 11.390625 35.445312 11.390625 C 35.550781 11.390625 35.605469 11.445312 35.605469 11.554688 Z M 35.605469 11.554688 " fill-opacity="1" fill-rule="nonzero"/><path fill="#000000" d="M 35.605469 12.613281 C 35.605469 12.722656 35.550781 12.777344 35.445312 12.777344 C 35.335938 12.777344 35.28125 12.722656 35.28125 12.613281 C 35.28125 12.503906 35.335938 12.453125 35.445312 12.453125 C 35.550781 12.453125 35.605469 12.503906 35.605469 12.613281 Z M 35.605469 12.613281 " fill-opacity="1" fill-rule="nonzero"/><path fill="#000000" d="M 36.710938 11.554688 C 36.710938 11.660156 36.65625 11.714844 36.546875 11.714844 C 36.441406 11.714844 36.386719 11.660156 36.386719 11.554688 C 36.386719 11.445312 36.441406 11.390625 36.546875 11.390625 C 36.65625 11.390625 36.710938 11.445312 36.710938 11.554688 Z M 36.710938 11.554688 " fill-opacity="1" fill-rule="nonzero"/><path fill="#000000" d="M 36.710938 12.613281 C 36.710938 12.722656 36.65625 12.777344 36.546875 12.777344 C 36.441406 12.777344 36.386719 12.722656 36.386719 12.613281 C 36.386719 12.503906 36.441406 12.453125 36.546875 12.453125 C 36.65625 12.453125 36.710938 12.503906 36.710938 12.613281 Z M 36.710938 12.613281 " fill-opacity="1" fill-rule="nonzero"/><g clip-path="url(#c6392e230c)"><path fill="#000000" d="M 40.0625 24.300781 C 40.035156 24.273438 39.996094 24.257812 39.957031 24.257812 L 39.851562 24.257812 C 39.839844 23.296875 39.429688 22.613281 38.707031 22.367188 C 38.347656 22.242188 37.894531 22.25 37.449219 22.351562 L 37.449219 10.765625 C 37.449219 10.6875 37.386719 10.625 37.308594 10.625 L 22.386719 10.625 C 22.308594 10.625 22.246094 10.6875 22.246094 10.765625 L 22.246094 26.867188 C 22.246094 26.945312 22.308594 27.007812 22.386719 27.007812 L 33.925781 27.007812 L 34.027344 28.347656 C 34.035156 28.421875 34.09375 28.480469 34.167969 28.480469 L 39.652344 28.480469 C 39.726562 28.480469 39.789062 28.421875 39.792969 28.347656 L 40.097656 24.410156 C 40.101562 24.371094 40.089844 24.332031 40.0625 24.300781 Z M 38.617188 22.632812 C 39.410156 22.90625 39.558594 23.714844 39.566406 24.257812 L 37.652344 24.257812 C 37.625 24.105469 37.550781 23.859375 37.335938 23.640625 C 37.097656 23.398438 36.753906 23.253906 36.3125 23.210938 C 36.867188 22.699219 37.949219 22.40625 38.617188 22.632812 Z M 36.011719 23.480469 C 36.519531 23.480469 36.894531 23.597656 37.128906 23.835938 C 37.277344 23.984375 37.335938 24.144531 37.363281 24.257812 L 34.371094 24.257812 C 34.542969 23.976562 34.988281 23.480469 36.011719 23.480469 Z M 37.167969 13.257812 L 29.203125 13.257812 L 29.203125 10.90625 L 37.167969 10.90625 Z M 28.917969 10.90625 L 28.917969 13.257812 L 22.527344 13.257812 L 22.527344 10.90625 Z M 22.527344 26.726562 L 22.527344 13.539062 L 37.167969 13.539062 L 37.167969 22.425781 C 36.667969 22.582031 36.210938 22.859375 35.941406 23.199219 C 34.640625 23.226562 34.175781 23.980469 34.050781 24.257812 L 33.863281 24.257812 C 33.824219 24.257812 33.789062 24.273438 33.761719 24.300781 C 33.734375 24.332031 33.722656 24.371094 33.722656 24.410156 L 33.902344 26.726562 Z M 39.523438 28.195312 L 34.300781 28.195312 L 34.019531 24.539062 L 34.144531 24.539062 C 34.144531 24.539062 34.144531 24.539062 34.148438 24.539062 L 39.804688 24.539062 Z M 39.523438 28.195312 " fill-opacity="1" fill-rule="nonzero"/></g><path fill="#000000" d="M 37.816406 25.039062 L 36.003906 25.039062 C 35.769531 25.039062 35.578125 25.226562 35.578125 25.460938 L 35.578125 25.503906 C 35.578125 25.738281 35.769531 25.929688 36.003906 25.929688 L 37.816406 25.929688 C 38.050781 25.929688 38.242188 25.738281 38.242188 25.503906 L 38.242188 25.460938 C 38.242188 25.226562 38.050781 25.039062 37.816406 25.039062 Z M 37.960938 25.503906 C 37.960938 25.582031 37.894531 25.644531 37.816406 25.644531 L 36.003906 25.644531 C 35.925781 25.644531 35.863281 25.582031 35.863281 25.503906 L 35.863281 25.460938 C 35.863281 25.382812 35.925781 25.320312 36.003906 25.320312 L 37.816406 25.320312 C 37.894531 25.320312 37.960938 25.382812 37.960938 25.460938 Z M 37.960938 25.503906 " fill-opacity="1" fill-rule="nonzero"/></svg>