<svg xmlns="http://www.w3.org/2000/svg" xmlns:xlink="http://www.w3.org/1999/xlink" width="82" zoomAndPan="magnify" viewBox="0 0 61.5 45.749999" height="61" preserveAspectRatio="xMidYMid meet" version="1.0"><defs><clipPath id="8cc281eaeb"><path d="M 18.269531 9.148438 L 37.609375 9.148438 L 37.609375 27.003906 L 18.269531 27.003906 Z M 18.269531 9.148438 " clip-rule="nonzero"/></clipPath></defs><g clip-path="url(#8cc281eaeb)"><path fill="#231f20" d="M 37.410156 19.382812 L 32.449219 16.925781 L 32.449219 10.421875 C 32.449219 9.722656 31.867188 9.148438 31.160156 9.148438 L 24.71875 9.148438 C 24.007812 9.148438 23.429688 9.722656 23.429688 10.421875 L 23.429688 16.925781 L 18.46875 19.382812 C 18.339844 19.445312 18.277344 19.542969 18.277344 19.667969 L 18.277344 21.902344 C 18.277344 22.601562 18.855469 23.175781 19.566406 23.175781 L 36.3125 23.175781 C 37.023438 23.175781 37.601562 22.601562 37.601562 21.902344 L 37.601562 19.667969 C 37.601562 19.542969 37.539062 19.445312 37.410156 19.382812 Z M 24.074219 10.421875 C 24.074219 10.070312 24.363281 9.785156 24.71875 9.785156 L 31.160156 9.785156 C 31.515625 9.785156 31.804688 10.070312 31.804688 10.421875 L 31.804688 16.800781 L 24.074219 16.800781 Z M 36.957031 21.902344 C 36.957031 22.25 36.667969 22.539062 36.3125 22.539062 L 19.566406 22.539062 C 19.210938 22.539062 18.921875 22.25 18.921875 21.902344 L 18.921875 19.859375 L 23.816406 17.4375 L 32.03125 17.4375 L 36.957031 19.859375 Z M 21.496094 27.003906 C 21.304688 27.003906 21.175781 26.875 21.175781 26.683594 L 21.175781 24.132812 C 21.175781 23.941406 21.304688 23.8125 21.496094 23.8125 C 21.691406 23.8125 21.820312 23.941406 21.820312 24.132812 L 21.820312 26.683594 C 21.820312 26.875 21.691406 27.003906 21.496094 27.003906 Z M 25.683594 27.003906 C 25.492188 27.003906 25.363281 26.875 25.363281 26.683594 L 25.363281 24.132812 C 25.363281 23.941406 25.492188 23.8125 25.683594 23.8125 C 25.878906 23.8125 26.007812 23.941406 26.007812 24.132812 L 26.007812 26.683594 C 26.007812 26.875 25.878906 27.003906 25.683594 27.003906 Z M 30.195312 27.003906 C 30 27.003906 29.871094 26.875 29.871094 26.683594 L 29.871094 24.132812 C 29.871094 23.941406 30 23.8125 30.195312 23.8125 C 30.386719 23.8125 30.515625 23.941406 30.515625 24.132812 L 30.515625 26.683594 C 30.515625 26.875 30.386719 27.003906 30.195312 27.003906 Z M 34.378906 27.003906 C 34.1875 27.003906 34.058594 26.875 34.058594 26.683594 L 34.058594 24.132812 C 34.058594 23.941406 34.1875 23.8125 34.378906 23.8125 C 34.574219 23.8125 34.703125 23.941406 34.703125 24.132812 L 34.703125 26.683594 C 34.703125 26.875 34.574219 27.003906 34.378906 27.003906 Z M 24.71875 19.351562 L 23.429688 19.351562 C 23.238281 19.351562 23.109375 19.476562 23.109375 19.667969 L 23.109375 20.945312 C 23.109375 21.136719 23.238281 21.261719 23.429688 21.261719 L 24.71875 21.261719 C 24.910156 21.261719 25.039062 21.136719 25.039062 20.945312 L 25.039062 19.667969 C 25.039062 19.476562 24.910156 19.351562 24.71875 19.351562 Z M 24.394531 20.625 L 23.75 20.625 L 23.75 19.988281 L 24.394531 19.988281 Z M 28.582031 19.351562 L 27.292969 19.351562 C 27.101562 19.351562 26.972656 19.476562 26.972656 19.667969 L 26.972656 20.945312 C 26.972656 21.136719 27.101562 21.261719 27.292969 21.261719 L 28.582031 21.261719 C 28.777344 21.261719 28.90625 21.136719 28.90625 20.945312 L 28.90625 19.667969 C 28.90625 19.476562 28.777344 19.351562 28.582031 19.351562 Z M 28.261719 20.625 L 27.617188 20.625 L 27.617188 19.988281 L 28.261719 19.988281 Z M 30.835938 19.667969 L 30.835938 20.945312 C 30.835938 21.136719 30.964844 21.261719 31.160156 21.261719 L 32.449219 21.261719 C 32.640625 21.261719 32.769531 21.136719 32.769531 20.945312 L 32.769531 19.667969 C 32.769531 19.476562 32.640625 19.351562 32.449219 19.351562 L 31.160156 19.351562 C 30.964844 19.351562 30.835938 19.476562 30.835938 19.667969 Z M 31.480469 19.988281 L 32.125 19.988281 L 32.125 20.625 L 31.480469 20.625 Z M 31.480469 19.988281 " fill-opacity="1" fill-rule="nonzero"/></g></svg>