<svg xmlns="http://www.w3.org/2000/svg" xmlns:xlink="http://www.w3.org/1999/xlink" width="82" zoomAndPan="magnify" viewBox="0 0 61.5 45.749999" height="61" preserveAspectRatio="xMidYMid meet" version="1.0"><defs><clipPath id="ef48ce3b2b"><path d="M 23 12 L 43.820312 12 L 43.820312 30 L 23 30 Z M 23 12 " clip-rule="nonzero"/></clipPath><clipPath id="96e85adf16"><path d="M 14.804688 8.09375 L 34 8.09375 L 34 43.0625 L 14.804688 43.0625 Z M 14.804688 8.09375 " clip-rule="nonzero"/></clipPath><clipPath id="d8ac183e40"><path d="M 23 12 L 43.820312 12 L 43.820312 30 L 23 30 Z M 23 12 " clip-rule="nonzero"/></clipPath></defs><path fill="#000000" d="M 18.3125 18.542969 C 18.589844 18.542969 18.8125 18.320312 18.8125 18.046875 L 18.8125 13.546875 C 18.8125 13.269531 18.589844 13.050781 18.3125 13.050781 C 18.035156 13.050781 17.8125 13.269531 17.8125 13.546875 L 17.8125 18.046875 C 17.8125 18.320312 18.035156 18.542969 18.3125 18.542969 Z M 18.3125 18.542969 " fill-opacity="1" fill-rule="nonzero"/><path fill="#000000" d="M 18.265625 24.574219 C 17.992188 24.574219 17.765625 24.796875 17.765625 25.074219 L 17.765625 31.375 C 17.765625 31.652344 17.992188 31.871094 18.265625 31.871094 C 18.542969 31.871094 18.769531 31.652344 18.769531 31.375 L 18.769531 25.074219 C 18.769531 24.796875 18.542969 24.574219 18.265625 24.574219 Z M 18.265625 24.574219 " fill-opacity="1" fill-rule="nonzero"/><g clip-path="url(#ef48ce3b2b)"><path fill="#000000" d="M 43.199219 20.484375 L 40.039062 20.484375 L 41.90625 18.636719 C 42.148438 18.398438 42.148438 18.007812 41.90625 17.769531 C 41.667969 17.53125 41.277344 17.53125 41.035156 17.769531 L 38.292969 20.484375 L 34.804688 20.484375 L 36.546875 17.492188 L 40.292969 16.496094 C 40.621094 16.410156 40.816406 16.074219 40.726562 15.75 C 40.640625 15.421875 40.300781 15.230469 39.972656 15.316406 L 37.417969 15.996094 L 39 13.285156 C 39.167969 12.996094 39.066406 12.621094 38.773438 12.453125 C 38.476562 12.285156 38.097656 12.382812 37.929688 12.675781 L 36.351562 15.382812 L 35.664062 12.859375 C 35.578125 12.535156 35.238281 12.339844 34.910156 12.429688 C 34.578125 12.515625 34.386719 12.851562 34.472656 13.175781 L 35.476562 16.882812 L 33.726562 19.886719 L 31.890625 16.835938 L 32.84375 13.117188 C 32.925781 12.789062 32.726562 12.457031 32.394531 12.375 C 32.066406 12.292969 31.730469 12.488281 31.644531 12.816406 L 30.996094 15.351562 L 29.421875 12.734375 C 29.246094 12.445312 28.867188 12.347656 28.574219 12.523438 C 28.28125 12.695312 28.1875 13.070312 28.359375 13.359375 L 29.9375 15.976562 L 27.375 15.332031 C 27.042969 15.25 26.707031 15.449219 26.625 15.777344 C 26.542969 16.101562 26.742188 16.433594 27.070312 16.519531 L 30.828125 17.460938 L 32.648438 20.484375 L 29.09375 20.484375 L 26.351562 17.769531 C 26.109375 17.53125 25.71875 17.53125 25.480469 17.769531 C 25.238281 18.011719 25.238281 18.398438 25.480469 18.636719 L 27.347656 20.484375 L 24.269531 20.484375 C 23.929688 20.484375 23.652344 20.757812 23.652344 21.09375 C 23.652344 21.433594 23.929688 21.707031 24.269531 21.707031 L 27.347656 21.707031 L 25.480469 23.554688 C 25.238281 23.792969 25.238281 24.179688 25.480469 24.417969 C 25.597656 24.539062 25.757812 24.597656 25.914062 24.597656 C 26.074219 24.597656 26.230469 24.539062 26.351562 24.417969 L 29.09375 21.707031 L 32.667969 21.707031 L 30.882812 24.769531 L 27.136719 25.761719 C 26.808594 25.851562 26.613281 26.183594 26.699219 26.511719 C 26.789062 26.835938 27.128906 27.03125 27.457031 26.941406 L 30.007812 26.265625 L 28.46875 28.902344 C 28.300781 29.195312 28.402344 29.570312 28.695312 29.738281 C 28.792969 29.792969 28.898438 29.820312 29.003906 29.820312 C 29.21875 29.820312 29.425781 29.710938 29.539062 29.515625 L 31.078125 26.875 L 31.761719 29.402344 C 31.835938 29.671875 32.085938 29.851562 32.359375 29.851562 C 32.410156 29.851562 32.464844 29.847656 32.519531 29.832031 C 32.847656 29.746094 33.042969 29.410156 32.953125 29.082031 L 31.949219 25.378906 L 33.742188 22.304688 L 35.539062 25.285156 L 34.585938 29.003906 C 34.5 29.328125 34.699219 29.660156 35.03125 29.746094 C 35.082031 29.757812 35.132812 29.761719 35.183594 29.761719 C 35.460938 29.761719 35.710938 29.578125 35.78125 29.300781 L 36.429688 26.769531 L 38.046875 29.457031 C 38.164062 29.648438 38.367188 29.753906 38.578125 29.753906 C 38.6875 29.753906 38.792969 29.726562 38.894531 29.667969 C 39.1875 29.496094 39.28125 29.121094 39.109375 28.828125 L 37.492188 26.144531 L 40.050781 26.785156 C 40.382812 26.867188 40.71875 26.671875 40.800781 26.34375 C 40.886719 26.015625 40.6875 25.683594 40.355469 25.601562 L 36.597656 24.660156 L 34.820312 21.707031 L 38.292969 21.707031 L 41.035156 24.417969 C 41.15625 24.539062 41.3125 24.597656 41.472656 24.597656 C 41.628906 24.597656 41.789062 24.539062 41.910156 24.417969 C 42.148438 24.179688 42.148438 23.792969 41.910156 23.554688 L 40.039062 21.707031 L 43.199219 21.707031 C 43.542969 21.707031 43.816406 21.433594 43.816406 21.09375 C 43.816406 20.757812 43.539062 20.484375 43.199219 20.484375 Z M 43.199219 20.484375 " fill-opacity="1" fill-rule="nonzero"/></g><path fill="#000000" d="M 33.011719 16.675781 L 33.710938 17.839844 L 33.734375 17.800781 L 33.734375 14.445312 L 33.65625 14.15625 Z M 33.011719 16.675781 " fill-opacity="1" fill-rule="nonzero"/><path fill="#000000" d="M 33.734375 24.390625 L 33.074219 25.523438 L 33.734375 27.964844 Z M 33.734375 24.390625 " fill-opacity="1" fill-rule="nonzero"/><g clip-path="url(#96e85adf16)"><path fill="#000000" d="M 32.789062 30.832031 C 32.769531 30.835938 32.75 30.839844 32.730469 30.847656 L 32.730469 40.203125 C 32.730469 40.671875 32.34375 41.054688 31.867188 41.054688 L 16.671875 41.054688 C 16.195312 41.054688 15.804688 40.671875 15.804688 40.203125 L 15.804688 21.695312 L 22.722656 21.695312 C 22.648438 21.511719 22.605469 21.308594 22.605469 21.09375 C 22.605469 20.960938 22.621094 20.828125 22.652344 20.703125 L 15.804688 20.703125 L 15.804688 9.941406 C 15.804688 9.472656 16.195312 9.089844 16.671875 9.089844 L 31.867188 9.089844 C 32.34375 9.089844 32.730469 9.472656 32.730469 9.941406 L 32.730469 11.394531 C 33.128906 11.511719 33.460938 11.769531 33.671875 12.125 C 33.691406 12.09375 33.714844 12.066406 33.734375 12.039062 L 33.734375 9.941406 C 33.734375 8.925781 32.898438 8.097656 31.867188 8.097656 L 16.671875 8.097656 C 15.640625 8.097656 14.804688 8.925781 14.804688 9.941406 L 14.804688 40.203125 C 14.804688 41.21875 15.640625 42.050781 16.671875 42.050781 L 17.085938 42.050781 L 17.085938 42.617188 C 17.085938 42.863281 17.289062 43.058594 17.535156 43.058594 L 18.550781 43.058594 C 18.796875 43.058594 19 42.863281 19 42.617188 L 19 42.050781 L 29.808594 42.050781 L 29.808594 42.617188 C 29.808594 42.863281 30.007812 43.058594 30.257812 43.058594 L 31.269531 43.058594 C 31.519531 43.058594 31.71875 42.863281 31.71875 42.617188 L 31.71875 42.050781 L 31.867188 42.050781 C 32.898438 42.050781 33.734375 41.21875 33.734375 40.203125 L 33.734375 30.167969 C 33.511719 30.492188 33.179688 30.726562 32.789062 30.832031 Z M 32.789062 30.832031 " fill-opacity="1" fill-rule="nonzero"/></g><g clip-path="url(#d8ac183e40)"><path fill="#000000" d="M 43.199219 20.484375 L 40.039062 20.484375 L 41.90625 18.636719 C 42.148438 18.398438 42.148438 18.007812 41.90625 17.769531 C 41.667969 17.53125 41.277344 17.53125 41.035156 17.769531 L 38.292969 20.484375 L 34.804688 20.484375 L 36.546875 17.492188 L 40.292969 16.496094 C 40.621094 16.410156 40.816406 16.074219 40.726562 15.75 C 40.640625 15.421875 40.300781 15.230469 39.972656 15.316406 L 37.417969 15.996094 L 39 13.285156 C 39.167969 12.996094 39.066406 12.621094 38.773438 12.453125 C 38.476562 12.285156 38.097656 12.382812 37.929688 12.675781 L 36.351562 15.382812 L 35.664062 12.859375 C 35.578125 12.535156 35.238281 12.339844 34.910156 12.429688 C 34.578125 12.515625 34.386719 12.851562 34.472656 13.175781 L 35.476562 16.882812 L 33.726562 19.886719 L 31.890625 16.835938 L 32.84375 13.117188 C 32.925781 12.789062 32.726562 12.457031 32.394531 12.375 C 32.066406 12.292969 31.730469 12.488281 31.644531 12.816406 L 30.996094 15.351562 L 29.421875 12.734375 C 29.246094 12.445312 28.867188 12.347656 28.574219 12.523438 C 28.28125 12.695312 28.1875 13.070312 28.359375 13.359375 L 29.9375 15.976562 L 27.375 15.332031 C 27.042969 15.25 26.707031 15.449219 26.625 15.777344 C 26.542969 16.101562 26.742188 16.433594 27.070312 16.519531 L 30.828125 17.460938 L 32.648438 20.484375 L 29.09375 20.484375 L 26.351562 17.769531 C 26.109375 17.53125 25.71875 17.53125 25.480469 17.769531 C 25.238281 18.011719 25.238281 18.398438 25.480469 18.636719 L 27.347656 20.484375 L 24.269531 20.484375 C 23.929688 20.484375 23.652344 20.757812 23.652344 21.09375 C 23.652344 21.433594 23.929688 21.707031 24.269531 21.707031 L 27.347656 21.707031 L 25.480469 23.554688 C 25.238281 23.792969 25.238281 24.179688 25.480469 24.417969 C 25.597656 24.539062 25.757812 24.597656 25.914062 24.597656 C 26.074219 24.597656 26.230469 24.539062 26.351562 24.417969 L 29.09375 21.707031 L 32.667969 21.707031 L 30.882812 24.769531 L 27.136719 25.761719 C 26.808594 25.851562 26.613281 26.183594 26.699219 26.511719 C 26.789062 26.835938 27.128906 27.03125 27.457031 26.941406 L 30.007812 26.265625 L 28.46875 28.902344 C 28.300781 29.195312 28.402344 29.570312 28.695312 29.738281 C 28.792969 29.792969 28.898438 29.820312 29.003906 29.820312 C 29.21875 29.820312 29.425781 29.710938 29.539062 29.515625 L 31.078125 26.875 L 31.761719 29.402344 C 31.835938 29.671875 32.085938 29.851562 32.359375 29.851562 C 32.410156 29.851562 32.464844 29.847656 32.519531 29.832031 C 32.847656 29.746094 33.042969 29.410156 32.953125 29.082031 L 31.949219 25.378906 L 33.742188 22.304688 L 35.539062 25.285156 L 34.585938 29.003906 C 34.5 29.328125 34.699219 29.660156 35.03125 29.746094 C 35.082031 29.757812 35.132812 29.761719 35.183594 29.761719 C 35.460938 29.761719 35.710938 29.578125 35.78125 29.300781 L 36.429688 26.769531 L 38.046875 29.457031 C 38.164062 29.648438 38.367188 29.753906 38.578125 29.753906 C 38.6875 29.753906 38.792969 29.726562 38.894531 29.667969 C 39.1875 29.496094 39.28125 29.121094 39.109375 28.828125 L 37.492188 26.144531 L 40.050781 26.785156 C 40.382812 26.867188 40.71875 26.671875 40.800781 26.34375 C 40.886719 26.015625 40.6875 25.683594 40.355469 25.601562 L 36.597656 24.660156 L 34.820312 21.707031 L 38.292969 21.707031 L 41.035156 24.417969 C 41.15625 24.539062 41.3125 24.597656 41.472656 24.597656 C 41.628906 24.597656 41.789062 24.539062 41.910156 24.417969 C 42.148438 24.179688 42.148438 23.792969 41.910156 23.554688 L 40.039062 21.707031 L 43.199219 21.707031 C 43.542969 21.707031 43.816406 21.433594 43.816406 21.09375 C 43.816406 20.757812 43.539062 20.484375 43.199219 20.484375 Z M 43.199219 20.484375 " fill-opacity="1" fill-rule="nonzero"/></g></svg>