<svg xmlns="http://www.w3.org/2000/svg" xmlns:xlink="http://www.w3.org/1999/xlink" width="82" zoomAndPan="magnify" viewBox="0 0 61.5 45.749999" height="61" preserveAspectRatio="xMidYMid meet" version="1.0"><defs><clipPath id="5aa44d53ac"><path d="M 14 6 L 45.203125 6 L 45.203125 37.171875 L 14 37.171875 Z M 14 6 " clip-rule="nonzero"/></clipPath></defs><g clip-path="url(#5aa44d53ac)"><path fill="#000000" d="M 44.675781 13.511719 C 44.070312 11.550781 40.488281 8.304688 34.5625 7.097656 C 28.75 5.925781 26.601562 7.058594 25.390625 8.191406 C 24.148438 9.363281 23.808594 11.324219 23.808594 11.398438 C 23.808594 11.4375 23.808594 11.476562 23.808594 11.511719 C 23.808594 11.511719 24.070312 12.191406 23.769531 13.363281 C 23.277344 15.097656 22.710938 17.851562 22.710938 18.945312 C 22.710938 19.851562 23.390625 20.71875 23.617188 21.023438 L 23.582031 21.058594 C 22.296875 21.097656 21.84375 21.476562 21.203125 21.890625 C 20.976562 22.042969 20.789062 22.191406 20.484375 22.34375 C 19.65625 22.832031 18.636719 23.964844 17.769531 24.871094 C 17.429688 25.25 17.128906 25.589844 16.902344 25.777344 C 16.675781 26.003906 16.449219 26.15625 16.183594 26.269531 C 15.769531 26.53125 15.316406 26.796875 14.75 27.625 C 13.957031 28.796875 14.789062 30.003906 15.050781 30.304688 C 15.050781 30.945312 15.882812 31.664062 15.996094 31.777344 C 16.035156 31.816406 17.390625 32.832031 21.542969 35.023438 C 25.730469 37.171875 31.84375 36.984375 31.882812 36.984375 L 33.050781 37.023438 C 33.050781 37.023438 33.089844 37.023438 33.089844 37.023438 C 35.503906 36.417969 36.449219 35.136719 36.941406 34.191406 C 37.050781 33.964844 37.46875 33.703125 37.957031 33.363281 C 38.863281 32.757812 40.109375 31.964844 40.828125 30.644531 C 41.882812 28.757812 41.617188 28.117188 41.429688 27.625 C 41.429688 27.550781 41.429688 27.511719 41.390625 27.476562 C 41.316406 27.285156 41.128906 27.136719 40.941406 27.023438 C 41.242188 27.023438 41.582031 26.984375 41.921875 26.945312 C 42.789062 26.796875 43.882812 25.625 44.296875 22.871094 C 44.449219 21.964844 44.789062 18.644531 44.789062 17.929688 C 44.789062 17.777344 44.828125 17.550781 44.863281 17.285156 C 44.976562 16.378906 45.203125 15.058594 44.675781 13.511719 Z M 23.089844 18.910156 C 23.089844 17.851562 23.65625 15.171875 24.148438 13.4375 C 24.449219 12.34375 24.261719 11.625 24.222656 11.398438 C 24.261719 11.097656 24.636719 9.476562 25.65625 8.492188 C 25.882812 8.417969 27.015625 8.117188 27.316406 8.003906 C 27.582031 7.890625 29.730469 7.324219 32.410156 7.816406 C 35.316406 8.304688 37.808594 9.171875 40.148438 10.492188 C 42.222656 11.664062 42.863281 12.71875 43.054688 13.058594 C 43.128906 13.171875 43.167969 13.25 43.242188 13.25 C 43.355469 13.324219 43.84375 13.738281 43.957031 14.152344 C 44.148438 15.023438 44.296875 16.003906 43.921875 17.476562 C 43.921875 17.476562 43.921875 17.511719 43.921875 17.511719 C 43.921875 17.511719 43.882812 17.511719 43.882812 17.476562 C 43.808594 17.4375 34.976562 14.796875 33.582031 14.417969 C 32.636719 14.152344 29.84375 13.285156 27.84375 12.644531 C 26.863281 12.34375 26.070312 12.078125 25.84375 12.039062 C 25.164062 11.851562 24.789062 11.816406 24.5625 11.890625 C 24.488281 11.929688 24.449219 11.964844 24.449219 12.039062 C 24.449219 12.078125 23.808594 16.003906 23.503906 18.644531 C 23.503906 18.71875 23.46875 18.832031 23.46875 18.910156 C 23.390625 19.363281 23.277344 19.929688 23.921875 20.34375 C 24.597656 20.757812 29.996094 22.457031 30.222656 22.492188 C 30.222656 22.492188 36.75 24.644531 38.109375 25.097656 C 38.410156 25.210938 38.714844 25.285156 39.015625 25.398438 C 40.070312 25.777344 40.75 26.003906 41.089844 26.003906 C 41.128906 26.003906 41.128906 26.003906 41.164062 26.003906 C 41.65625 25.929688 42.183594 25.210938 42.488281 24.796875 C 43.089844 23.851562 44.035156 18.832031 43.769531 18.570312 C 43.808594 18.605469 43.808594 18.605469 43.808594 18.605469 C 43.808594 18.53125 43.84375 18.304688 43.957031 18.042969 C 43.921875 18.910156 43.808594 20.570312 43.65625 21.511719 L 43.617188 21.625 C 43.429688 22.945312 43.167969 24.605469 42.449219 25.398438 C 41.808594 26.15625 41.316406 26.457031 41.054688 26.570312 C 41.054688 26.53125 41.015625 26.53125 41.015625 26.53125 C 40.976562 26.496094 40.035156 25.816406 38.714844 25.4375 C 37.46875 25.097656 36.941406 24.945312 36.902344 24.945312 C 36.75 24.910156 34.9375 24.191406 34.488281 24.078125 C 34.148438 24.003906 32.863281 23.550781 31.921875 23.210938 L 31.316406 22.984375 C 30.523438 22.71875 27.277344 21.625 27.242188 21.625 C 27.203125 21.625 25.996094 21.210938 25.316406 21.058594 C 24.902344 20.945312 24.261719 20.796875 24.035156 20.757812 C 23.769531 20.570312 23.089844 19.738281 23.089844 18.910156 Z M 43.390625 18.757812 C 43.390625 19.25 42.75 23.589844 42.109375 24.605469 C 41.730469 25.210938 41.316406 25.625 41.089844 25.664062 C 40.863281 25.703125 39.921875 25.363281 39.128906 25.097656 C 38.828125 24.984375 38.488281 24.871094 38.222656 24.796875 C 37.429688 24.53125 34.902344 23.703125 32.9375 23.058594 C 33.050781 22.984375 33.203125 22.910156 33.429688 22.832031 C 34.335938 22.378906 35.65625 21.738281 36.714844 21.324219 C 37.882812 20.871094 39.242188 20.15625 39.996094 19.777344 C 40.222656 19.664062 40.449219 19.550781 40.488281 19.511719 C 40.636719 19.476562 41.128906 19.25 43.503906 18.078125 C 43.355469 18.492188 43.355469 18.644531 43.390625 18.757812 Z M 43.277344 17.703125 C 42.109375 18.265625 40.5625 18.984375 40.375 19.097656 C 40.335938 19.097656 40.222656 19.136719 39.808594 19.363281 C 39.089844 19.738281 37.730469 20.457031 36.5625 20.910156 C 35.503906 21.324219 34.148438 22.003906 33.242188 22.417969 C 32.9375 22.570312 32.675781 22.683594 32.523438 22.757812 C 32.636719 22.191406 32.902344 21.097656 32.902344 20.832031 C 32.902344 20.644531 33.277344 18.796875 33.429688 18.117188 C 33.503906 17.816406 33.542969 17.625 33.542969 17.589844 C 33.582031 17.476562 33.882812 15.398438 33.957031 14.945312 C 36.035156 15.511719 41.617188 17.210938 43.277344 17.703125 Z M 33.203125 17.511719 C 33.203125 17.550781 33.164062 17.738281 33.089844 18.042969 C 32.75 19.625 32.523438 20.644531 32.523438 20.832031 C 32.523438 20.984375 32.335938 21.851562 32.183594 22.570312 C 31.921875 22.269531 31.503906 21.738281 31.277344 21.398438 C 30.9375 20.871094 29.164062 18.230469 28.710938 17.664062 C 28.488281 17.363281 27.503906 15.851562 26.601562 14.492188 C 25.882812 13.398438 25.429688 12.683594 25.164062 12.304688 C 25.316406 12.34375 25.46875 12.378906 25.695312 12.417969 C 25.921875 12.492188 26.675781 12.71875 27.695312 13.023438 C 29.730469 13.664062 32.488281 14.53125 33.46875 14.796875 C 33.503906 14.796875 33.582031 14.832031 33.65625 14.832031 C 33.582031 15.171875 33.242188 17.398438 33.203125 17.511719 Z M 30.601562 21.097656 C 30.675781 21.324219 30.675781 21.4375 30.636719 21.476562 C 30.523438 21.589844 30.035156 21.476562 29.65625 21.324219 C 29.617188 21.324219 25.921875 20.15625 25.390625 19.890625 C 25.316406 19.851562 25.242188 19.816406 25.164062 19.777344 C 24.710938 19.589844 24.597656 19.511719 24.597656 19.285156 C 24.636719 18.871094 25.050781 15.097656 25.050781 15.097656 C 25.089844 14.832031 25.277344 14.230469 25.582031 14.117188 C 25.769531 14.078125 25.996094 14.265625 26.148438 14.417969 C 26.183594 14.492188 26.222656 14.53125 26.261719 14.605469 C 27.164062 16.042969 28.148438 17.511719 28.375 17.816406 C 28.710938 18.265625 29.921875 19.964844 30.5625 20.945312 C 30.5625 21.058594 30.5625 21.097656 30.601562 21.097656 Z M 24.75 12.34375 C 24.9375 12.605469 25.277344 13.171875 25.695312 13.777344 C 25.617188 13.777344 25.542969 13.777344 25.46875 13.816406 C 24.902344 14.003906 24.710938 14.984375 24.675781 15.097656 C 24.675781 15.25 24.222656 18.910156 24.183594 19.324219 C 24.148438 19.816406 24.523438 19.964844 24.9375 20.191406 C 25.015625 20.230469 25.089844 20.269531 25.164062 20.304688 C 25.730469 20.570312 29.316406 21.703125 29.46875 21.738281 C 29.582031 21.777344 29.996094 21.964844 30.375 21.964844 C 30.5625 21.964844 30.75 21.929688 30.863281 21.816406 C 30.902344 21.777344 30.9375 21.738281 30.9375 21.703125 C 31.128906 22.003906 31.46875 22.417969 31.695312 22.71875 C 30.824219 22.457031 30.261719 22.230469 30.261719 22.230469 C 28.710938 21.738281 24.5625 20.457031 24.035156 20.117188 C 23.617188 19.851562 23.65625 19.550781 23.730469 19.058594 C 23.730469 18.945312 23.769531 18.871094 23.769531 18.757812 C 24.109375 16.417969 24.636719 13.171875 24.75 12.34375 Z M 39.957031 26.644531 C 39.921875 26.605469 39.84375 26.605469 39.808594 26.605469 C 38.828125 26.605469 36.863281 25.703125 36.828125 25.664062 C 36.789062 25.664062 36.75 25.664062 36.714844 25.664062 C 36.675781 25.589844 36.675781 25.550781 36.675781 25.511719 C 36.675781 25.4375 36.75 25.363281 36.789062 25.324219 C 36.976562 25.363281 37.542969 25.511719 38.523438 25.777344 C 39.355469 26.003906 40.035156 26.382812 40.410156 26.605469 C 40.222656 26.605469 40.070312 26.605469 39.957031 26.644531 Z M 31.582031 23.890625 C 31.128906 23.703125 27.769531 22.644531 27.015625 22.378906 C 27.015625 22.304688 27.050781 22.230469 27.050781 22.230469 C 27.089844 22.191406 27.128906 22.117188 27.164062 22.042969 C 27.769531 22.230469 30.410156 23.136719 31.089844 23.363281 L 31.695312 23.589844 C 32.714844 23.929688 33.957031 24.382812 34.335938 24.457031 C 34.636719 24.53125 35.730469 24.910156 36.410156 25.210938 C 36.375 25.285156 36.335938 25.363281 36.296875 25.476562 C 36.296875 25.476562 36.296875 25.511719 36.296875 25.511719 C 35.242188 25.136719 31.957031 24.042969 31.582031 23.890625 Z M 23.957031 21.136719 C 24.222656 21.210938 24.75 21.324219 25.128906 21.398438 C 25.617188 21.511719 26.375 21.777344 26.789062 21.890625 C 26.75 21.929688 26.710938 22.003906 26.710938 22.042969 C 26.675781 22.078125 26.675781 22.15625 26.675781 22.230469 C 26.222656 22.078125 25.277344 21.703125 25.015625 21.589844 C 24.75 21.550781 24.222656 21.285156 23.957031 21.136719 Z M 33.050781 36.644531 L 31.882812 36.609375 C 31.808594 36.609375 25.808594 36.835938 21.730469 34.683594 C 17.617188 32.570312 16.261719 31.511719 16.261719 31.511719 C 15.921875 31.210938 15.429688 30.644531 15.46875 30.304688 C 15.46875 30.230469 15.46875 30.191406 15.429688 30.15625 C 15.390625 30.117188 14.597656 29.210938 14.9375 28.269531 C 14.902344 28.457031 14.902344 28.644531 14.9375 28.871094 C 15.089844 29.511719 15.277344 29.929688 15.582031 30.078125 C 15.582031 30.15625 15.582031 30.191406 15.582031 30.269531 C 15.730469 31.171875 17.695312 32.417969 21.277344 33.890625 C 26.070312 35.851562 28.863281 36.269531 30.488281 36.269531 C 31.316406 36.269531 31.84375 36.15625 32.183594 36.078125 C 32.523438 36.191406 34.449219 36.53125 36.449219 34.078125 L 36.601562 34.15625 C 36.183594 34.796875 35.355469 36.042969 33.050781 36.644531 Z M 36.75 33.816406 C 36.75 33.777344 36.789062 33.777344 36.789062 33.738281 C 36.789062 33.777344 36.75 33.816406 36.75 33.816406 Z M 40.523438 30.457031 C 39.84375 31.664062 38.675781 32.457031 37.808594 33.023438 C 38.375 32.53125 39.089844 31.851562 39.882812 30.910156 C 40.601562 30.078125 40.976562 29.398438 41.203125 28.871094 C 41.128906 29.25 40.941406 29.738281 40.523438 30.457031 Z M 41.054688 27.589844 C 41.054688 27.589844 41.390625 28.53125 39.617188 30.644531 C 37.769531 32.832031 36.296875 33.625 36.296875 33.625 C 36.296875 33.625 36.261719 33.625 36.261719 33.664062 C 36.261719 33.664062 36.261719 33.664062 36.222656 33.703125 C 34.183594 36.34375 32.261719 35.738281 32.183594 35.703125 C 32.148438 35.703125 32.109375 35.703125 32.070312 35.703125 C 31.242188 35.890625 28.675781 36.53125 21.355469 33.550781 C 16.675781 31.625 15.996094 30.609375 15.882812 30.269531 C 15.84375 30.15625 15.882812 30.117188 15.882812 30.117188 C 15.957031 30.042969 15.957031 29.964844 15.921875 29.890625 C 15.921875 29.777344 15.84375 29.738281 15.769531 29.738281 C 15.695312 29.738281 15.46875 29.550781 15.277344 28.757812 C 15.015625 27.625 16.902344 26.457031 16.9375 26.457031 C 17.015625 26.417969 17.050781 26.304688 17.015625 26.230469 C 17.089844 26.191406 17.128906 26.117188 17.203125 26.078125 C 17.429688 25.890625 17.730469 25.550781 18.070312 25.171875 C 18.863281 24.304688 19.921875 23.171875 20.710938 22.71875 C 21.015625 22.53125 21.242188 22.378906 21.46875 22.230469 C 22.070312 21.816406 22.484375 21.511719 23.695312 21.476562 C 23.882812 21.550781 24.5625 21.890625 24.863281 22.003906 C 25.203125 22.117188 26.75 22.71875 26.75 22.71875 C 26.789062 22.71875 30.976562 24.078125 31.46875 24.269531 C 31.957031 24.457031 36.375 25.890625 36.5625 25.964844 C 36.5625 25.964844 36.5625 25.964844 36.601562 25.964844 C 36.601562 25.964844 36.601562 25.964844 36.636719 25.964844 C 36.636719 26.003906 36.675781 26.003906 36.714844 26.042969 C 36.789062 26.078125 38.789062 26.984375 39.84375 26.984375 C 39.882812 27.058594 39.996094 27.097656 40.148438 27.136719 C 40.375 27.171875 40.941406 27.363281 41.054688 27.589844 Z M 44.449219 17.210938 C 44.410156 17.511719 44.375 17.738281 44.375 17.929688 C 44.375 18.53125 44.035156 21.890625 43.921875 22.796875 C 43.542969 25.363281 42.5625 26.417969 41.84375 26.570312 C 41.808594 26.570312 41.769531 26.570312 41.730469 26.570312 C 42.035156 26.34375 42.335938 26.042969 42.675781 25.664062 C 43.429688 24.757812 43.695312 23.058594 43.921875 21.703125 L 43.957031 21.589844 C 44.148438 20.304688 44.261719 17.816406 44.296875 17.550781 C 44.675781 16.003906 44.523438 14.984375 44.335938 14.078125 C 44.222656 13.625 43.695312 13.058594 43.429688 12.945312 C 43.429688 12.945312 43.390625 12.910156 43.390625 12.910156 C 43.167969 12.53125 42.488281 11.4375 40.335938 10.230469 C 37.957031 8.871094 35.46875 8.003906 32.488281 7.511719 C 29.65625 7.023438 27.503906 7.589844 27.164062 7.738281 C 27.050781 7.777344 26.75 7.890625 26.449219 7.964844 C 27.730469 7.171875 29.921875 6.644531 34.523438 7.550781 C 40.296875 8.644531 43.730469 11.777344 44.335938 13.625 C 44.828125 15.097656 44.601562 16.378906 44.449219 17.210938 Z M 44.449219 17.210938 " fill-opacity="1" fill-rule="nonzero"/></g><path fill="#000000" d="M 25.46875 22.378906 C 24.75 22.15625 24.183594 21.964844 23.957031 21.890625 C 22.976562 21.589844 22.597656 21.550781 21.957031 21.964844 C 21.390625 22.34375 17.769531 25.703125 17.355469 26.078125 C 17.316406 26.078125 17.316406 26.117188 17.316406 26.15625 C 17.316406 26.15625 17.316406 26.15625 17.316406 26.191406 C 17.316406 26.191406 17.316406 26.191406 17.316406 26.230469 C 17.316406 26.269531 17.316406 26.304688 17.316406 26.34375 C 17.316406 26.382812 17.355469 26.382812 17.390625 26.417969 C 17.390625 26.417969 17.390625 26.417969 17.429688 26.417969 C 17.429688 26.417969 17.429688 26.417969 17.46875 26.417969 L 26.523438 29.851562 C 26.5625 29.851562 26.5625 29.851562 26.601562 29.851562 C 26.636719 29.890625 26.636719 29.890625 26.675781 29.929688 L 35.996094 33.136719 C 36.035156 33.136719 36.035156 33.136719 36.070312 33.136719 C 36.109375 33.136719 36.109375 33.136719 36.109375 33.136719 C 36.148438 33.171875 36.183594 33.171875 36.222656 33.171875 C 36.261719 33.171875 36.335938 33.136719 36.375 33.097656 C 40.789062 27.929688 40.789062 27.851562 40.789062 27.738281 C 40.789062 27.703125 40.75 27.625 40.714844 27.589844 C 40.675781 27.589844 40.636719 27.511719 31.390625 24.269531 C 31.050781 24.15625 29.050781 23.511719 25.46875 22.378906 Z M 26.636719 29.285156 L 26.410156 28.984375 C 26.335938 28.910156 26.222656 28.871094 26.148438 28.945312 C 26.070312 29.023438 26.035156 29.136719 26.109375 29.210938 L 26.222656 29.363281 L 20.863281 27.324219 C 20.863281 27.285156 20.863281 27.285156 20.863281 27.25 C 21.316406 27.398438 21.84375 27.589844 22.148438 27.589844 C 22.261719 27.589844 22.335938 27.511719 22.335938 27.398438 C 22.335938 27.285156 22.261719 27.210938 22.148438 27.210938 C 21.808594 27.210938 21.015625 26.910156 20.597656 26.757812 C 21.128906 26.644531 22.296875 26.496094 23.390625 26.382812 C 23.429688 26.382812 27.46875 25.890625 28.375 25.738281 C 28.710938 25.703125 28.9375 25.664062 29.089844 25.664062 C 28.863281 25.816406 28.5625 26.042969 28.375 26.117188 C 28.296875 26.15625 28.261719 26.269531 28.296875 26.382812 C 28.335938 26.457031 28.410156 26.496094 28.449219 26.496094 C 28.488281 26.496094 28.523438 26.496094 28.523438 26.457031 C 28.710938 26.34375 29.015625 26.15625 29.242188 25.964844 C 29.203125 26.15625 29.128906 26.417969 28.9375 26.605469 C 28.902344 26.683594 28.902344 26.757812 28.9375 26.832031 Z M 29.695312 25.625 C 29.695312 25.589844 29.695312 25.589844 29.695312 25.589844 C 29.695312 25.550781 29.695312 25.511719 29.65625 25.511719 C 29.65625 25.511719 29.65625 25.511719 29.617188 25.476562 C 29.582031 25.4375 29.582031 25.4375 29.542969 25.398438 C 29.390625 25.285156 29.128906 25.25 28.296875 25.363281 C 27.429688 25.511719 23.390625 26.003906 23.355469 26.003906 C 20.070312 26.304688 20.035156 26.53125 19.996094 26.683594 C 19.996094 26.683594 19.996094 26.71875 19.996094 26.71875 C 19.996094 26.757812 19.996094 26.832031 20.035156 26.871094 C 20.070312 26.945312 20.109375 26.984375 20.148438 27.058594 L 18.296875 26.34375 C 27.015625 25.363281 29.957031 24.945312 30.976562 24.757812 L 29.617188 26.191406 C 29.695312 25.929688 29.695312 25.738281 29.695312 25.625 Z M 19.582031 25.816406 C 19.84375 25.777344 20.375 25.738281 20.75 25.664062 C 20.863281 25.664062 20.9375 25.550781 20.902344 25.4375 C 20.902344 25.324219 20.789062 25.25 20.675781 25.285156 C 20.375 25.324219 19.957031 25.363281 19.65625 25.398438 C 20.035156 25.058594 20.902344 24.34375 21.730469 23.738281 C 22.148438 23.398438 22.597656 23.023438 22.824219 22.832031 C 22.824219 23.023438 22.863281 23.210938 22.9375 23.324219 C 22.976562 23.363281 23.050781 23.398438 23.089844 23.398438 C 23.128906 23.398438 23.164062 23.398438 23.203125 23.363281 C 23.277344 23.324219 23.316406 23.171875 23.277344 23.097656 C 23.242188 23.058594 23.242188 22.871094 23.242188 22.71875 C 23.46875 22.757812 23.882812 22.796875 24.183594 22.945312 C 24.675781 23.136719 26.523438 23.703125 26.75 23.738281 C 26.863281 23.738281 27.617188 24.003906 28.335938 24.269531 C 27.996094 24.382812 27.46875 24.492188 27.164062 24.53125 C 27.050781 24.53125 26.976562 24.605469 26.976562 24.71875 C 26.976562 24.796875 27.015625 24.871094 27.089844 24.910156 C 24.902344 25.171875 22.109375 25.511719 19.582031 25.816406 Z M 27.84375 24.832031 C 28.109375 24.757812 28.410156 24.683594 28.5625 24.644531 C 28.5625 24.683594 28.523438 24.71875 28.449219 24.71875 C 28.449219 24.71875 28.410156 24.757812 28.410156 24.757812 C 28.261719 24.757812 28.035156 24.796875 27.84375 24.832031 Z M 22.183594 22.304688 C 22.410156 22.117188 22.597656 22.042969 22.863281 22.042969 C 23.089844 22.042969 23.390625 22.117188 23.84375 22.269531 C 24.070312 22.34375 24.636719 22.53125 25.355469 22.757812 C 26.902344 23.25 29.503906 24.042969 30.636719 24.457031 C 30.222656 24.53125 29.65625 24.605469 28.9375 24.683594 C 28.9375 24.683594 28.9375 24.644531 28.9375 24.644531 C 28.976562 24.34375 28.75 24.117188 28.710938 24.078125 C 28.675781 24.042969 28.675781 24.042969 28.636719 24.042969 C 28.375 23.929688 26.976562 23.4375 26.75 23.398438 C 26.601562 23.363281 24.789062 22.832031 24.261719 22.605469 C 23.730469 22.417969 23.050781 22.304688 22.824219 22.378906 C 22.789062 22.378906 22.675781 22.417969 21.46875 23.476562 C 20.410156 24.269531 19.164062 25.25 19.089844 25.511719 C 19.050781 25.664062 19.089844 25.777344 19.128906 25.890625 C 18.75 25.929688 18.371094 25.964844 18.035156 26.003906 C 19.128906 25.023438 21.769531 22.605469 22.183594 22.304688 Z M 28.902344 30.304688 C 28.789062 30.230469 28.675781 30.117188 28.601562 30.042969 C 28.675781 30.042969 28.710938 30.042969 28.789062 30.042969 C 28.863281 30.042969 28.9375 30.042969 29.015625 30.042969 C 29.128906 30.042969 29.203125 29.929688 29.164062 29.816406 C 29.164062 29.703125 29.050781 29.625 28.9375 29.664062 C 28.601562 29.703125 28.375 29.625 28.261719 29.589844 C 28.296875 29.363281 29.050781 28.34375 29.277344 28.078125 C 29.429688 27.890625 30.675781 26.757812 31.128906 26.34375 C 31.164062 26.304688 31.203125 26.269531 31.242188 26.269531 C 31.242188 26.53125 31.242188 26.945312 31.164062 27.136719 C 31.128906 27.25 31.164062 27.324219 31.277344 27.363281 C 31.316406 27.363281 31.316406 27.363281 31.355469 27.363281 C 31.429688 27.363281 31.503906 27.324219 31.542969 27.25 C 31.617188 27.023438 31.65625 26.644531 31.65625 26.382812 C 31.695312 26.457031 31.695312 26.496094 31.730469 26.53125 C 31.808594 26.644531 32.449219 27.929688 32.824219 28.683594 C 33.46875 29.777344 34.183594 31.023438 34.488281 31.625 C 34.296875 31.589844 33.921875 31.511719 33.769531 31.398438 C 33.695312 31.324219 33.582031 31.363281 33.503906 31.4375 C 33.429688 31.511719 33.46875 31.625 33.542969 31.703125 C 33.730469 31.816406 33.996094 31.890625 34.183594 31.964844 C 34.070312 31.964844 33.996094 32.003906 33.882812 32.003906 C 33.84375 32.003906 33.808594 32.003906 33.808594 32.042969 Z M 34.601562 32.269531 C 34.976562 32.15625 35.015625 32.003906 35.015625 31.964844 C 35.015625 31.890625 35.050781 31.703125 33.203125 28.53125 C 32.148438 26.382812 32.070312 26.304688 32.070312 26.304688 C 32.070312 26.304688 32.070312 26.269531 32.035156 26.269531 C 31.996094 26.117188 31.882812 25.890625 31.617188 25.816406 C 31.429688 25.777344 31.203125 25.851562 30.9375 26.078125 C 30.863281 26.15625 29.242188 27.625 29.050781 27.851562 C 28.976562 27.929688 27.957031 29.285156 27.957031 29.625 C 27.957031 29.664062 27.957031 29.738281 27.996094 29.777344 C 27.996094 29.816406 27.996094 29.851562 28.035156 29.890625 C 28.070312 29.964844 28.109375 30.042969 28.148438 30.078125 L 26.902344 29.664062 L 31.390625 24.910156 L 35.695312 32.683594 Z M 36.183594 32.796875 L 31.808594 24.832031 C 34.714844 25.851562 39.355469 27.511719 40.335938 27.851562 C 39.769531 28.570312 37.65625 31.058594 36.183594 32.796875 Z M 36.183594 32.796875 " fill-opacity="1" fill-rule="nonzero"/><path fill="#000000" d="M 32.070312 14.457031 C 31.203125 14.191406 26.9375 12.871094 26.488281 12.910156 C 26.335938 12.910156 26.261719 12.984375 26.183594 13.097656 C 26.035156 13.398438 26.335938 14.003906 26.488281 14.265625 C 26.488281 14.265625 26.488281 14.265625 26.488281 14.304688 C 26.488281 14.304688 27.316406 15.363281 27.84375 16.230469 C 28.410156 17.171875 29.996094 19.363281 30.824219 20.34375 C 31.089844 20.683594 31.355469 20.832031 31.542969 20.832031 C 31.582031 20.832031 31.617188 20.832031 31.65625 20.796875 C 31.996094 20.683594 32.035156 20.191406 32.035156 20.117188 C 32.070312 20.003906 32.714844 16.945312 32.789062 15.816406 C 32.902344 14.605469 32.070312 14.457031 32.070312 14.457031 Z M 32.449219 15.851562 C 32.375 16.945312 31.695312 20.078125 31.695312 20.117188 C 31.695312 20.269531 31.617188 20.417969 31.582031 20.457031 C 31.617188 20.230469 31.65625 19.738281 31.582031 19.398438 C 31.542969 19.285156 31.46875 19.25 31.355469 19.25 C 31.242188 19.285156 31.203125 19.363281 31.203125 19.476562 C 31.242188 19.703125 31.242188 20.003906 31.203125 20.230469 C 31.164062 20.191406 31.128906 20.15625 31.089844 20.117188 C 30.261719 19.136719 28.710938 16.945312 28.148438 16.042969 C 27.617188 15.171875 26.863281 14.191406 26.789062 14.078125 C 26.601562 13.777344 26.449219 13.363281 26.488281 13.324219 C 26.824219 13.324219 29.996094 14.265625 31.996094 14.871094 C 31.996094 14.871094 32.109375 14.871094 32.261719 15.023438 L 32.035156 15.023438 C 31.921875 15.023438 31.84375 15.136719 31.882812 15.25 C 31.882812 15.363281 31.957031 15.398438 32.070312 15.398438 C 32.070312 15.398438 32.070312 15.398438 32.109375 15.398438 L 32.449219 15.363281 C 32.449219 15.476562 32.449219 15.625 32.449219 15.851562 Z M 32.449219 15.851562 " fill-opacity="1" fill-rule="nonzero"/><path fill="#000000" d="M 27.277344 18.417969 C 27.242188 18.417969 27.203125 18.417969 27.164062 18.417969 L 26.636719 16.796875 C 26.601562 16.683594 26.488281 16.644531 26.410156 16.683594 C 26.296875 16.71875 26.261719 16.832031 26.296875 16.910156 L 26.789062 18.417969 C 26.636719 18.457031 26.410156 18.570312 26.070312 18.71875 C 25.957031 18.757812 25.921875 18.871094 25.996094 18.984375 C 26.035156 19.058594 26.109375 19.097656 26.183594 19.097656 C 26.222656 19.097656 26.222656 19.097656 26.261719 19.097656 C 26.75 18.871094 26.976562 18.796875 27.050781 18.757812 C 27.050781 18.757812 27.050781 18.796875 27.089844 18.796875 C 27.769531 19.285156 28.523438 19.816406 28.601562 19.929688 C 28.636719 19.964844 28.675781 20.003906 28.75 20.003906 C 28.789062 20.003906 28.824219 20.003906 28.863281 19.964844 C 28.9375 19.890625 28.976562 19.777344 28.902344 19.703125 C 28.710938 19.476562 27.617188 18.683594 27.277344 18.417969 Z M 27.277344 18.417969 " fill-opacity="1" fill-rule="nonzero"/><path fill="#000000" d="M 29.316406 20.003906 C 29.242188 19.929688 29.128906 19.929688 29.050781 20.042969 C 28.976562 20.117188 28.976562 20.230469 29.050781 20.304688 C 29.203125 20.417969 29.355469 20.605469 29.390625 20.683594 C 29.429688 20.757812 29.503906 20.796875 29.582031 20.796875 C 29.617188 20.796875 29.617188 20.796875 29.65625 20.796875 C 29.769531 20.757812 29.808594 20.644531 29.769531 20.53125 C 29.695312 20.34375 29.355469 20.042969 29.316406 20.003906 Z M 29.316406 20.003906 " fill-opacity="1" fill-rule="nonzero"/><path fill="#000000" d="M 25.46875 18.945312 C 25.46875 18.945312 25.277344 18.984375 25.089844 19.097656 C 25.015625 19.136719 24.976562 19.25 25.015625 19.363281 C 25.050781 19.4375 25.128906 19.476562 25.164062 19.476562 C 25.203125 19.476562 25.242188 19.476562 25.242188 19.4375 C 25.390625 19.363281 25.503906 19.324219 25.503906 19.324219 C 25.617188 19.324219 25.695312 19.210938 25.65625 19.097656 C 25.617188 18.984375 25.582031 18.945312 25.46875 18.945312 Z M 25.46875 18.945312 " fill-opacity="1" fill-rule="nonzero"/><path fill="#000000" d="M 26.261719 15.964844 C 26.261719 15.964844 26.296875 15.964844 26.296875 15.964844 C 26.410156 15.929688 26.449219 15.816406 26.410156 15.738281 C 26.375 15.625 26.222656 15.097656 26.035156 14.871094 C 25.957031 14.796875 25.84375 14.796875 25.769531 14.871094 C 25.695312 14.945312 25.695312 15.058594 25.769531 15.136719 C 25.84375 15.25 25.996094 15.625 26.070312 15.851562 C 26.070312 15.929688 26.148438 15.964844 26.261719 15.964844 Z M 26.261719 15.964844 " fill-opacity="1" fill-rule="nonzero"/><path fill="#000000" d="M 27.242188 13.476562 C 27.128906 13.4375 27.050781 13.511719 27.015625 13.589844 C 26.976562 13.664062 27.050781 13.777344 27.128906 13.816406 C 27.390625 13.890625 27.84375 14.078125 27.996094 14.152344 C 28.035156 14.191406 28.070312 14.191406 28.109375 14.191406 C 28.183594 14.191406 28.222656 14.152344 28.261719 14.117188 C 28.335938 14.042969 28.296875 13.929688 28.222656 13.851562 C 27.957031 13.738281 27.316406 13.511719 27.242188 13.476562 Z M 27.242188 13.476562 " fill-opacity="1" fill-rule="nonzero"/><path fill="#000000" d="M 31.316406 15.171875 C 31.128906 15.25 30.636719 15.550781 30.523438 15.625 C 30.109375 15.171875 29.015625 14.457031 28.863281 14.378906 C 28.789062 14.34375 28.675781 14.34375 28.601562 14.457031 C 28.5625 14.53125 28.5625 14.644531 28.675781 14.71875 C 29.015625 14.945312 30.035156 15.589844 30.261719 15.929688 C 30.5625 16.304688 30.824219 17.738281 30.824219 17.929688 C 30.824219 18.042969 30.902344 18.117188 31.015625 18.117188 C 31.128906 18.117188 31.203125 18.042969 31.203125 17.929688 C 31.203125 17.738281 30.976562 16.605469 30.714844 15.964844 C 30.9375 15.816406 31.316406 15.589844 31.429688 15.550781 C 31.542969 15.511719 31.582031 15.398438 31.542969 15.324219 C 31.503906 15.210938 31.429688 15.136719 31.316406 15.171875 Z M 31.316406 15.171875 " fill-opacity="1" fill-rule="nonzero"/><path fill="#000000" d="M 35.582031 20.042969 C 35.582031 20.042969 35.617188 20.042969 35.617188 20.042969 C 35.84375 20.003906 36.789062 18.570312 37.050781 18.003906 C 37.050781 18.003906 37.050781 18.003906 37.089844 18.003906 C 37.089844 18.003906 38.675781 17.929688 38.902344 17.929688 C 39.015625 17.929688 39.089844 17.851562 39.089844 17.738281 C 39.089844 17.625 39.015625 17.550781 38.902344 17.550781 C 38.675781 17.550781 37.203125 17.625 37.089844 17.625 C 36.976562 17.324219 36.601562 16.945312 36.449219 16.757812 C 36.375 16.683594 36.261719 16.683594 36.183594 16.757812 C 36.109375 16.832031 36.109375 16.945312 36.183594 17.023438 C 36.488281 17.363281 36.75 17.738281 36.789062 17.816406 C 36.75 18.078125 35.695312 19.550781 35.503906 19.738281 C 35.429688 19.777344 35.390625 19.851562 35.429688 19.929688 C 35.429688 19.964844 35.503906 20.042969 35.582031 20.042969 Z M 35.582031 20.042969 " fill-opacity="1" fill-rule="nonzero"/><path fill="#000000" d="M 33.429688 21.777344 C 33.503906 21.816406 33.617188 21.851562 33.695312 21.851562 C 33.808594 21.851562 33.921875 21.816406 34.035156 21.777344 C 34.601562 21.511719 35.882812 20.871094 35.882812 20.871094 C 35.882812 20.871094 37.203125 20.230469 38.261719 19.851562 C 38.5625 19.738281 41.316406 18.457031 41.542969 18.078125 C 41.617188 17.964844 41.617188 17.816406 41.542969 17.703125 C 41.390625 17.363281 40.863281 17.058594 40.601562 17.023438 C 40.449219 16.984375 38.675781 16.417969 37.355469 16.042969 C 36.222656 15.703125 35.242188 15.398438 35.089844 15.324219 C 34.523438 15.171875 34.261719 15.738281 34.183594 15.890625 C 34.035156 16.191406 33.203125 20.945312 33.203125 21.023438 C 33.203125 21.398438 33.242188 21.664062 33.429688 21.777344 Z M 33.617188 21.058594 C 33.65625 20.757812 34.449219 16.304688 34.5625 16.042969 C 34.601562 15.929688 34.675781 15.851562 34.714844 15.777344 L 35.242188 16.191406 C 35.277344 16.230469 35.316406 16.230469 35.355469 16.230469 C 35.429688 16.230469 35.46875 16.191406 35.503906 16.15625 C 35.582031 16.078125 35.542969 15.964844 35.46875 15.890625 L 35.277344 15.777344 C 35.695312 15.890625 36.449219 16.15625 37.277344 16.378906 C 39.164062 16.984375 40.410156 17.363281 40.5625 17.398438 C 40.675781 17.398438 40.789062 17.511719 40.941406 17.589844 C 40.789062 17.550781 40.601562 17.511719 40.449219 17.511719 C 40.335938 17.511719 40.261719 17.589844 40.261719 17.703125 C 40.261719 17.816406 40.335938 17.890625 40.449219 17.890625 C 40.636719 17.890625 40.902344 17.964844 41.089844 18.003906 C 40.5625 18.378906 38.636719 19.324219 38.148438 19.511719 C 37.050781 19.929688 35.730469 20.570312 35.730469 20.570312 C 35.730469 20.570312 34.714844 21.058594 34.070312 21.363281 C 34.183594 21.210938 34.375 21.023438 34.488281 20.945312 C 34.5625 20.871094 34.5625 20.757812 34.523438 20.683594 C 34.449219 20.605469 34.335938 20.605469 34.261719 20.644531 C 34.035156 20.832031 33.730469 21.210938 33.582031 21.363281 C 33.582031 21.285156 33.582031 21.171875 33.617188 21.058594 Z M 33.617188 21.058594 " fill-opacity="1" fill-rule="nonzero"/><path fill="#000000" d="M 42.109375 19.136719 C 41.808594 19.058594 41.390625 19.25 40.902344 19.511719 C 40.714844 19.589844 40.523438 19.703125 40.335938 19.777344 C 39.769531 20.003906 34.675781 22.417969 34.410156 22.53125 C 34.148438 22.644531 34.035156 22.796875 34.070312 22.945312 C 34.109375 23.324219 34.976562 23.589844 35.695312 23.703125 C 35.730469 23.703125 37.84375 24.492188 39.316406 24.910156 C 39.65625 25.023438 39.957031 25.058594 40.222656 25.058594 C 40.488281 25.058594 40.714844 25.023438 40.863281 24.910156 C 41.128906 24.757812 41.203125 24.570312 41.203125 24.53125 C 41.242188 24.417969 42.070312 21.589844 42.222656 21.058594 C 42.601562 19.703125 42.410156 19.398438 42.375 19.324219 C 42.296875 19.210938 42.222656 19.171875 42.109375 19.136719 Z M 40.828125 24.417969 C 40.828125 24.417969 40.828125 24.457031 40.789062 24.492188 C 40.789062 24.304688 40.75 24.042969 40.714844 23.964844 C 40.675781 23.851562 40.5625 23.816406 40.488281 23.851562 C 40.375 23.890625 40.335938 24.003906 40.375 24.078125 C 40.410156 24.15625 40.410156 24.417969 40.449219 24.644531 C 40.449219 24.644531 40.449219 24.644531 40.449219 24.683594 C 40.222656 24.71875 39.921875 24.71875 39.429688 24.570312 C 37.957031 24.15625 35.84375 23.363281 35.808594 23.363281 C 35.390625 23.285156 35.015625 23.171875 34.75 23.058594 C 34.976562 23.023438 35.277344 23.023438 35.65625 22.945312 C 35.769531 22.945312 35.84375 22.832031 35.808594 22.71875 C 35.769531 22.605469 35.695312 22.53125 35.582031 22.570312 C 35.390625 22.605469 35.242188 22.605469 35.089844 22.644531 C 36.449219 22.003906 40.035156 20.304688 40.488281 20.117188 C 40.675781 20.042969 40.863281 19.929688 41.054688 19.851562 C 41.277344 19.738281 41.503906 19.625 41.730469 19.550781 C 41.503906 19.738281 41.203125 20.003906 41.089844 20.15625 C 41.015625 20.230469 41.054688 20.34375 41.128906 20.417969 C 41.164062 20.457031 41.203125 20.457031 41.242188 20.457031 C 41.316406 20.457031 41.355469 20.417969 41.390625 20.378906 C 41.46875 20.269531 41.769531 19.964844 42.035156 19.777344 C 42.035156 20.003906 41.996094 20.34375 41.808594 20.984375 C 41.695312 21.476562 40.828125 24.417969 40.828125 24.417969 Z M 40.828125 24.417969 " fill-opacity="1" fill-rule="nonzero"/><path fill="#000000" d="M 40.222656 21.210938 C 40.035156 21.511719 39.316406 22.230469 39.128906 22.457031 L 37.316406 22.457031 C 37.203125 22.457031 37.128906 22.53125 37.128906 22.644531 C 37.128906 22.757812 37.203125 22.832031 37.316406 22.832031 L 39.089844 22.832031 C 39.089844 22.871094 39.128906 22.871094 39.128906 22.910156 C 39.503906 23.171875 39.957031 23.589844 39.996094 23.703125 C 40.035156 23.777344 40.109375 23.851562 40.183594 23.851562 C 40.183594 23.851562 40.222656 23.851562 40.222656 23.851562 C 40.335938 23.816406 40.375 23.738281 40.375 23.625 C 40.296875 23.324219 39.730469 22.871094 39.429688 22.644531 C 39.695312 22.378906 40.296875 21.703125 40.488281 21.4375 C 40.5625 21.363281 40.523438 21.25 40.449219 21.171875 C 40.410156 21.097656 40.296875 21.097656 40.222656 21.210938 Z M 40.222656 21.210938 " fill-opacity="1" fill-rule="nonzero"/><path fill="#000000" d="M 26.863281 27.058594 C 26.863281 27.058594 26.335938 27.25 25.390625 27.4375 C 25.089844 27.476562 23.996094 27.4375 23.582031 27.398438 C 23.46875 27.398438 23.390625 27.476562 23.390625 27.589844 C 23.390625 27.703125 23.46875 27.777344 23.582031 27.777344 C 23.695312 27.777344 24.449219 27.851562 25.015625 27.851562 C 25.089844 27.851562 25.128906 27.851562 25.203125 27.851562 C 25.242188 28.042969 25.46875 28.71875 25.921875 28.832031 C 25.921875 28.832031 25.957031 28.832031 25.957031 28.832031 C 26.035156 28.832031 26.109375 28.757812 26.148438 28.683594 C 26.183594 28.570312 26.109375 28.496094 25.996094 28.457031 C 25.808594 28.417969 25.617188 28.042969 25.582031 27.816406 C 26.523438 27.664062 27.015625 27.4375 27.015625 27.4375 C 27.128906 27.398438 27.164062 27.285156 27.128906 27.210938 C 27.089844 27.097656 26.976562 27.023438 26.863281 27.058594 Z M 26.863281 27.058594 " fill-opacity="1" fill-rule="nonzero"/><path fill="#000000" d="M 32.523438 25.890625 C 32.523438 25.890625 32.523438 25.929688 32.523438 25.929688 C 32.523438 25.964844 33.65625 28.003906 33.882812 28.417969 C 34.070312 28.796875 35.355469 30.945312 35.390625 30.984375 C 35.46875 31.210938 35.808594 31.964844 36.222656 32.003906 C 36.261719 32.003906 36.261719 32.003906 36.296875 32.003906 C 36.675781 32.003906 37.164062 31.511719 37.242188 31.398438 C 37.769531 30.757812 39.46875 28.605469 39.582031 28.34375 C 39.730469 27.929688 39.164062 27.625 38.941406 27.511719 C 38.070312 27.097656 35.316406 26.269531 35.203125 26.230469 L 33.730469 25.664062 C 33.429688 25.511719 32.863281 25.25 32.601562 25.476562 C 32.5625 25.550781 32.488281 25.664062 32.523438 25.890625 Z M 35.089844 26.605469 C 35.128906 26.605469 37.921875 27.4375 38.75 27.851562 C 38.863281 27.890625 38.902344 27.929688 38.976562 27.964844 C 38.863281 28.078125 38.75 28.15625 38.75 28.15625 C 38.636719 28.191406 38.601562 28.269531 38.601562 28.382812 C 38.601562 28.457031 38.714844 28.53125 38.789062 28.53125 C 38.789062 28.53125 38.828125 28.53125 38.828125 28.53125 C 38.863281 28.53125 38.902344 28.53125 39.089844 28.382812 C 38.75 28.871094 37.808594 30.078125 36.941406 31.136719 C 36.789062 31.285156 36.5625 31.511719 36.375 31.550781 C 36.410156 31.363281 36.449219 31.097656 36.449219 31.023438 C 36.449219 30.910156 36.335938 30.832031 36.261719 30.871094 C 36.148438 30.871094 36.070312 30.984375 36.070312 31.058594 C 36.070312 31.097656 36.070312 31.25 36.035156 31.398438 C 35.921875 31.25 35.808594 31.023438 35.695312 30.796875 C 35.695312 30.757812 34.375 28.605469 34.183594 28.191406 C 34.070312 27.964844 33.695312 27.285156 33.390625 26.683594 C 33.429688 26.71875 33.46875 26.757812 33.503906 26.796875 C 33.542969 26.832031 33.582031 26.832031 33.617188 26.832031 C 33.695312 26.832031 33.730469 26.796875 33.769531 26.757812 C 33.84375 26.683594 33.808594 26.570312 33.730469 26.496094 C 33.542969 26.382812 33.355469 26.078125 33.203125 25.816406 C 33.316406 25.851562 33.46875 25.929688 33.582031 25.964844 Z M 35.089844 26.605469 " fill-opacity="1" fill-rule="nonzero"/><path fill="#000000" d="M 35.316406 28.457031 C 35.542969 28.796875 35.730469 29.023438 35.882812 29.136719 C 35.882812 29.171875 35.957031 29.929688 35.996094 30.191406 C 36.035156 30.269531 36.109375 30.34375 36.183594 30.34375 C 36.183594 30.34375 36.222656 30.34375 36.222656 30.34375 C 36.335938 30.304688 36.375 30.230469 36.375 30.117188 C 36.335938 29.929688 36.296875 29.476562 36.261719 29.210938 C 36.902344 29.171875 38.070312 28.871094 38.261719 28.605469 C 38.335938 28.53125 38.296875 28.417969 38.222656 28.34375 C 38.148438 28.269531 38.035156 28.304688 37.957031 28.382812 C 37.808594 28.605469 36.335938 28.910156 36.109375 28.832031 C 35.996094 28.796875 35.808594 28.496094 35.65625 28.269531 C 35.503906 28.078125 35.355469 27.851562 35.203125 27.664062 C 35.128906 27.589844 35.015625 27.589844 34.9375 27.625 C 34.863281 27.703125 34.863281 27.816406 34.902344 27.890625 C 35.015625 28.078125 35.164062 28.269531 35.316406 28.457031 Z M 35.316406 28.457031 " fill-opacity="1" fill-rule="nonzero"/><path fill="#000000" d="M 32.5625 30.269531 C 32.449219 30.230469 31.957031 29.738281 31.582031 29.285156 C 31.617188 29.171875 31.617188 28.910156 31.617188 28.382812 C 31.617188 28.269531 31.542969 28.191406 31.429688 28.191406 C 31.316406 28.191406 31.242188 28.269531 31.242188 28.382812 C 31.242188 28.910156 31.242188 29.136719 31.203125 29.210938 C 30.9375 29.324219 29.957031 29.511719 29.808594 29.511719 C 29.695312 29.511719 29.617188 29.589844 29.617188 29.703125 C 29.617188 29.816406 29.695312 29.890625 29.808594 29.890625 C 29.808594 29.890625 30.863281 29.738281 31.316406 29.550781 C 31.65625 29.929688 32.222656 30.53125 32.449219 30.609375 C 32.449219 30.609375 32.488281 30.609375 32.488281 30.609375 C 32.5625 30.609375 32.636719 30.570312 32.675781 30.457031 C 32.714844 30.417969 32.675781 30.304688 32.5625 30.269531 Z M 32.5625 30.269531 " fill-opacity="1" fill-rule="nonzero"/><path fill="#000000" d="M 25.617188 24.53125 C 25.242188 24.53125 24.296875 24.34375 24.070312 24.304688 C 23.996094 24.191406 23.84375 24.003906 23.769531 23.890625 C 23.730469 23.777344 23.617188 23.738281 23.542969 23.777344 C 23.46875 23.816406 23.390625 23.929688 23.429688 24.003906 C 23.503906 24.15625 23.617188 24.34375 23.695312 24.457031 C 23.46875 24.570312 22.976562 24.796875 22.410156 24.910156 C 22.296875 24.945312 22.261719 25.023438 22.296875 25.136719 C 22.335938 25.210938 22.410156 25.285156 22.484375 25.285156 C 22.484375 25.285156 22.523438 25.285156 22.523438 25.285156 C 23.277344 25.097656 23.957031 24.757812 23.957031 24.757812 C 23.996094 24.757812 23.996094 24.71875 24.035156 24.683594 C 24.335938 24.757812 25.242188 24.910156 25.617188 24.910156 C 25.730469 24.910156 25.808594 24.832031 25.808594 24.71875 C 25.808594 24.605469 25.730469 24.53125 25.617188 24.53125 Z M 25.617188 24.53125 " fill-opacity="1" fill-rule="nonzero"/><path fill="#000000" d="M 29.582031 35.023438 C 30.375 35.023438 30.601562 34.832031 30.863281 34.53125 C 30.9375 34.457031 30.976562 34.34375 30.9375 34.230469 C 30.789062 33.703125 29.390625 32.945312 28.863281 32.757812 C 28.5625 32.644531 27.882812 32.34375 27.128906 32.003906 C 26.109375 31.550781 24.9375 30.984375 24.335938 30.796875 C 23.429688 30.496094 20.035156 29.476562 18.863281 29.363281 C 17.769531 29.25 17.503906 29.511719 17.46875 29.964844 C 17.429688 30.269531 17.769531 30.570312 18.523438 31.171875 C 18.710938 31.363281 18.976562 31.550781 19.242188 31.777344 C 20.296875 32.683594 22.710938 33.550781 22.824219 33.589844 C 23.808594 33.964844 27.316406 34.871094 28.824219 35.023438 C 29.089844 35.023438 29.355469 35.023438 29.582031 35.023438 Z M 17.808594 30.003906 C 17.808594 29.851562 17.84375 29.703125 18.371094 29.703125 C 18.484375 29.703125 18.636719 29.703125 18.789062 29.738281 C 19.84375 29.851562 23.015625 30.796875 24.148438 31.171875 C 24.710938 31.363281 25.882812 31.890625 26.902344 32.382812 C 27.695312 32.71875 28.335938 33.058594 28.675781 33.171875 C 29.390625 33.4375 30.488281 34.15625 30.523438 34.382812 C 30.375 34.570312 30.222656 34.722656 29.65625 34.722656 C 29.65625 34.722656 28.449219 34.117188 27.695312 33.664062 C 26.976562 33.210938 25.582031 32.683594 23.355469 31.964844 C 21.316406 31.324219 18.5625 30.609375 18.523438 30.609375 C 18.449219 30.609375 18.410156 30.609375 18.371094 30.644531 C 18.109375 30.304688 17.84375 30.078125 17.808594 30.003906 Z M 22.902344 33.210938 C 22.863281 33.210938 20.449219 32.34375 19.429688 31.4375 C 19.242188 31.285156 19.089844 31.136719 18.9375 31.023438 C 19.808594 31.25 21.730469 31.777344 23.277344 32.269531 C 25.46875 32.945312 26.824219 33.476562 27.503906 33.929688 C 27.882812 34.15625 28.375 34.417969 28.75 34.644531 C 27.277344 34.496094 23.84375 33.589844 22.902344 33.210938 Z M 22.902344 33.210938 " fill-opacity="1" fill-rule="nonzero"/><path fill="#000000" d="M 26.183594 32.644531 C 27.503906 33.171875 29.429688 34.34375 29.429688 34.34375 C 29.46875 34.34375 29.503906 34.382812 29.542969 34.382812 C 29.617188 34.382812 29.65625 34.34375 29.695312 34.304688 C 29.730469 34.230469 29.730469 34.117188 29.617188 34.042969 C 29.542969 34.003906 27.65625 32.832031 26.296875 32.304688 C 26.183594 32.269531 26.109375 32.304688 26.035156 32.417969 C 26.035156 32.496094 26.070312 32.609375 26.183594 32.644531 Z M 26.183594 32.644531 " fill-opacity="1" fill-rule="nonzero"/><path fill="#000000" d="M 23.957031 31.777344 C 24.636719 31.929688 25.242188 32.269531 25.242188 32.269531 C 25.277344 32.269531 25.316406 32.304688 25.316406 32.304688 C 25.390625 32.304688 25.429688 32.269531 25.46875 32.191406 C 25.503906 32.117188 25.503906 32.003906 25.390625 31.929688 C 25.355469 31.929688 24.75 31.550781 23.996094 31.398438 C 23.882812 31.363281 23.808594 31.4375 23.769531 31.550781 C 23.808594 31.664062 23.84375 31.777344 23.957031 31.777344 Z M 23.957031 31.777344 " fill-opacity="1" fill-rule="nonzero"/><path fill="#000000" d="M 18.410156 30.34375 C 18.410156 30.34375 19.882812 30.644531 21.390625 30.984375 C 22.5625 31.285156 22.824219 31.398438 22.863281 31.4375 C 22.902344 31.476562 22.9375 31.511719 23.015625 31.511719 C 23.050781 31.511719 23.050781 31.511719 23.089844 31.511719 C 23.203125 31.476562 23.242188 31.363281 23.203125 31.285156 C 23.164062 31.210938 23.128906 31.058594 21.503906 30.644531 C 19.996094 30.269531 18.523438 30.003906 18.523438 29.964844 C 18.410156 29.929688 18.335938 30.003906 18.296875 30.117188 C 18.261719 30.230469 18.335938 30.304688 18.410156 30.34375 Z M 18.410156 30.34375 " fill-opacity="1" fill-rule="nonzero"/><path fill="#000000" d="M 28.070312 9.929688 C 28.109375 9.929688 30.222656 11.4375 33.242188 12.417969 C 36.261719 13.398438 39.808594 13.851562 39.84375 13.851562 C 39.84375 13.851562 39.882812 13.851562 39.882812 13.851562 C 40.070312 13.851562 40.902344 13.816406 41.128906 13.324219 C 41.277344 13.023438 41.164062 12.605469 40.75 12.152344 C 39.542969 10.683594 35.882812 9.511719 35.730469 9.4375 C 35.617188 9.398438 32.5625 8.570312 30.902344 8.570312 C 29.277344 8.570312 28.824219 8.53125 28.824219 8.53125 C 28.824219 8.53125 28.335938 8.53125 28.070312 8.871094 C 27.882812 9.097656 27.84375 9.4375 27.957031 9.851562 C 27.996094 9.851562 28.035156 9.890625 28.070312 9.929688 Z M 35.65625 9.816406 C 35.695312 9.816406 39.355469 11.023438 40.488281 12.378906 C 40.523438 12.417969 40.523438 12.457031 40.5625 12.457031 C 40.035156 12.417969 38.902344 12.304688 37.730469 12.117188 C 36.296875 11.851562 30.902344 9.964844 30.261719 9.738281 C 29.164062 9.363281 29.050781 9.058594 29.050781 9.023438 C 29.050781 8.984375 29.050781 8.945312 29.050781 8.910156 C 29.316406 8.910156 29.882812 8.945312 30.9375 8.945312 C 32.5625 8.945312 35.65625 9.816406 35.65625 9.816406 Z M 28.410156 9.097656 C 28.488281 8.984375 28.636719 8.945312 28.710938 8.910156 C 28.710938 8.945312 28.675781 9.058594 28.710938 9.210938 C 28.824219 9.511719 29.316406 9.816406 30.148438 10.117188 C 30.75 10.34375 36.183594 12.265625 37.65625 12.492188 C 39.089844 12.757812 40.488281 12.832031 40.789062 12.871094 C 40.828125 12.984375 40.828125 13.097656 40.789062 13.171875 C 40.675781 13.4375 40.035156 13.476562 39.84375 13.476562 C 39.808594 13.476562 36.296875 13.058594 33.316406 12.078125 C 30.601562 11.210938 28.636719 9.890625 28.296875 9.664062 C 28.296875 9.398438 28.296875 9.210938 28.410156 9.097656 Z M 28.410156 9.097656 " fill-opacity="1" fill-rule="nonzero"/><path fill="#000000" d="M 36.222656 12.71875 C 37.316406 13.058594 39.769531 13.363281 39.882812 13.363281 C 39.882812 13.363281 39.882812 13.363281 39.921875 13.363281 C 40.035156 13.363281 40.109375 13.285156 40.109375 13.210938 C 40.109375 13.097656 40.035156 13.023438 39.957031 12.984375 C 39.921875 12.984375 37.429688 12.683594 36.375 12.34375 C 36.261719 12.304688 36.183594 12.378906 36.148438 12.457031 C 36.070312 12.605469 36.148438 12.71875 36.222656 12.71875 Z M 36.222656 12.71875 " fill-opacity="1" fill-rule="nonzero"/><path fill="#000000" d="M 33.164062 11.777344 C 33.695312 12.078125 35.050781 12.417969 35.316406 12.417969 C 35.429688 12.417969 35.503906 12.34375 35.503906 12.230469 C 35.503906 12.117188 35.429688 12.039062 35.316406 12.039062 C 35.164062 12.039062 33.882812 11.738281 33.355469 11.4375 C 33.277344 11.398438 33.164062 11.4375 33.089844 11.511719 C 33.015625 11.625 33.050781 11.738281 33.164062 11.777344 Z M 33.164062 11.777344 " fill-opacity="1" fill-rule="nonzero"/><path fill="#000000" d="M 32.375 11.4375 C 32.449219 11.4375 32.523438 11.398438 32.5625 11.324219 C 32.601562 11.210938 32.5625 11.136719 32.449219 11.097656 C 31.542969 10.757812 29.617188 10.003906 29.617188 10.003906 L 29.46875 10.34375 C 29.46875 10.34375 31.390625 11.097656 32.296875 11.4375 C 32.335938 11.4375 32.335938 11.4375 32.375 11.4375 Z M 32.375 11.4375 " fill-opacity="1" fill-rule="nonzero"/><path fill="#000000" d="M 38.335938 14.003906 C 38.222656 14.003906 38.148438 14.042969 38.109375 14.152344 C 38.109375 14.265625 38.148438 14.34375 38.261719 14.378906 C 38.863281 14.457031 39.355469 14.53125 39.769531 14.53125 C 40.714844 14.53125 41.242188 14.34375 41.503906 14.117188 C 41.808594 13.890625 41.84375 13.664062 41.84375 13.625 C 41.84375 13.511719 41.808594 13.4375 41.695312 13.398438 C 41.582031 13.363281 41.503906 13.4375 41.46875 13.550781 C 41.503906 13.589844 41.277344 14.457031 38.335938 14.003906 Z M 38.335938 14.003906 " fill-opacity="1" fill-rule="nonzero"/><path fill="#000000" d="M 37.695312 13.890625 C 37.695312 13.890625 36.828125 13.777344 36.035156 13.511719 C 35.921875 13.476562 35.84375 13.550781 35.808594 13.625 C 35.769531 13.738281 35.84375 13.816406 35.921875 13.851562 C 36.75 14.117188 37.617188 14.230469 37.65625 14.230469 C 37.65625 14.230469 37.65625 14.230469 37.695312 14.230469 C 37.769531 14.230469 37.882812 14.152344 37.882812 14.078125 C 37.882812 14.003906 37.808594 13.890625 37.695312 13.890625 Z M 37.695312 13.890625 " fill-opacity="1" fill-rule="nonzero"/><path fill="#000000" d="M 27.808594 10.832031 C 27.84375 10.871094 27.84375 10.871094 27.882812 10.871094 C 27.957031 10.871094 27.996094 10.832031 28.035156 10.757812 C 28.070312 10.683594 28.070312 10.570312 27.957031 10.492188 C 27.617188 10.304688 27.390625 10.039062 27.316406 9.738281 C 27.203125 9.324219 27.429688 8.984375 27.429688 8.984375 C 27.46875 8.910156 27.46875 8.796875 27.355469 8.71875 C 27.277344 8.683594 27.164062 8.683594 27.089844 8.796875 C 27.089844 8.832031 26.789062 9.285156 26.9375 9.851562 C 27.050781 10.230469 27.355469 10.570312 27.808594 10.832031 Z M 27.808594 10.832031 " fill-opacity="1" fill-rule="nonzero"/><path fill="#000000" d="M 29.957031 11.550781 L 28.75 10.984375 C 28.636719 10.945312 28.5625 10.984375 28.488281 11.058594 C 28.449219 11.136719 28.488281 11.25 28.5625 11.324219 L 29.769531 11.890625 C 29.808594 11.890625 29.808594 11.890625 29.84375 11.890625 C 29.921875 11.890625 29.996094 11.851562 30.035156 11.777344 C 30.070312 11.703125 30.035156 11.589844 29.957031 11.550781 Z M 29.957031 11.550781 " fill-opacity="1" fill-rule="nonzero"/><path fill="#000000" d="M 31.355469 34.871094 C 31.355469 34.871094 30.75 35.363281 28.75 35.171875 C 28.636719 35.171875 28.5625 35.25 28.5625 35.363281 C 28.5625 35.476562 28.636719 35.550781 28.75 35.550781 C 29.089844 35.589844 29.355469 35.589844 29.617188 35.589844 C 31.089844 35.589844 31.542969 35.210938 31.617188 35.136719 C 31.695312 35.058594 31.695312 34.945312 31.617188 34.871094 C 31.542969 34.832031 31.429688 34.796875 31.355469 34.871094 Z M 31.355469 34.871094 " fill-opacity="1" fill-rule="nonzero"/><path fill="#000000" d="M 27.921875 35.058594 C 27.921875 35.058594 27.355469 35.023438 26.75 34.832031 C 26.636719 34.796875 26.5625 34.832031 26.523438 34.945312 C 26.488281 35.058594 26.523438 35.136719 26.636719 35.171875 C 27.277344 35.398438 27.882812 35.4375 27.921875 35.4375 C 28.035156 35.4375 28.109375 35.363281 28.109375 35.25 C 28.070312 35.171875 27.996094 35.097656 27.921875 35.058594 Z M 27.921875 35.058594 " fill-opacity="1" fill-rule="nonzero"/><path fill="#000000" d="M 17.65625 30.683594 C 17.542969 30.609375 17.050781 30.078125 16.976562 29.664062 C 16.976562 29.550781 16.976562 29.476562 17.050781 29.398438 C 17.46875 28.945312 17.957031 28.984375 17.996094 28.984375 C 18.109375 28.984375 18.183594 28.910156 18.183594 28.832031 C 18.183594 28.71875 18.109375 28.644531 18.035156 28.644531 C 17.996094 28.644531 17.316406 28.570312 16.789062 29.171875 C 16.675781 29.285156 16.5625 29.511719 16.636719 29.890625 C 16.789062 30.417969 17.355469 31.023438 17.503906 31.058594 C 17.542969 31.058594 17.542969 31.058594 17.582031 31.058594 C 17.65625 31.058594 17.730469 31.023438 17.769531 30.945312 C 17.808594 30.796875 17.769531 30.683594 17.65625 30.683594 Z M 17.65625 30.683594 " fill-opacity="1" fill-rule="nonzero"/><path fill="#000000" d="M 20.484375 29.171875 C 20.523438 29.171875 20.523438 29.171875 20.5625 29.171875 C 20.636719 29.171875 20.710938 29.136719 20.75 29.058594 C 20.789062 28.945312 20.75 28.871094 20.675781 28.796875 C 19.957031 28.457031 18.789062 28.417969 18.75 28.417969 C 18.636719 28.417969 18.5625 28.496094 18.5625 28.605469 C 18.5625 28.71875 18.636719 28.796875 18.75 28.796875 C 18.710938 28.832031 19.808594 28.871094 20.484375 29.171875 Z M 20.484375 29.171875 " fill-opacity="1" fill-rule="nonzero"/></svg>