<svg xmlns="http://www.w3.org/2000/svg" xmlns:xlink="http://www.w3.org/1999/xlink" width="82" zoomAndPan="magnify" viewBox="0 0 61.5 45.749999" height="61" preserveAspectRatio="xMidYMid meet" version="1.0"><defs><clipPath id="07b0f29cc9"><path d="M 21.535156 6.660156 L 39.390625 6.660156 L 39.390625 40.882812 L 21.535156 40.882812 Z M 21.535156 6.660156 " clip-rule="nonzero"/></clipPath></defs><g clip-path="url(#07b0f29cc9)"><path fill="#000000" d="M 39.390625 9.289062 C 39.390625 9.136719 39.269531 9.015625 39.121094 9.015625 L 37.386719 9.015625 L 37.386719 8.070312 C 37.386719 7.921875 37.265625 7.796875 37.117188 7.796875 L 35.097656 7.796875 L 35.097656 6.9375 C 35.097656 6.789062 34.976562 6.667969 34.828125 6.667969 L 29.675781 6.667969 C 29.527344 6.667969 29.40625 6.789062 29.40625 6.9375 L 29.40625 7.796875 L 27.386719 7.796875 C 27.238281 7.796875 27.117188 7.921875 27.117188 8.070312 L 27.117188 9.015625 L 25.382812 9.015625 C 25.234375 9.015625 25.113281 9.136719 25.113281 9.289062 L 25.113281 10.703125 C 25.113281 10.714844 25.117188 10.722656 25.117188 10.734375 L 25.113281 10.734375 L 25.371094 12.933594 L 23.855469 12.933594 C 22.578125 12.933594 21.535156 13.964844 21.535156 15.230469 L 21.535156 21.328125 C 21.535156 22.597656 22.578125 23.625 23.855469 23.625 L 26.621094 23.625 L 26.984375 26.726562 C 27.078125 27.539062 27.554688 28.265625 28.261719 28.671875 L 28.371094 28.734375 L 28.246094 28.734375 C 28.097656 28.734375 27.972656 28.855469 27.972656 29.003906 L 27.972656 30.828125 L 27.886719 30.882812 C 27.046875 31.378906 26.492188 32.21875 26.363281 33.183594 L 25.5625 39.332031 C 25.511719 39.71875 25.628906 40.109375 25.886719 40.402344 C 26.152344 40.703125 26.53125 40.875 26.933594 40.875 L 37.570312 40.875 C 37.972656 40.875 38.351562 40.703125 38.613281 40.402344 C 38.871094 40.109375 38.992188 39.71875 38.941406 39.332031 L 38.140625 33.183594 C 38.011719 32.21875 37.457031 31.378906 36.617188 30.882812 L 36.53125 30.832031 L 36.53125 29.003906 C 36.53125 28.855469 36.410156 28.734375 36.257812 28.734375 L 36.132812 28.734375 L 36.242188 28.671875 C 36.949219 28.265625 37.425781 27.539062 37.519531 26.726562 L 39.390625 10.734375 C 39.390625 10.726562 39.386719 10.722656 39.386719 10.71875 C 39.386719 10.710938 39.390625 10.707031 39.390625 10.703125 Z M 29.945312 7.210938 L 34.558594 7.210938 L 34.558594 7.796875 L 29.945312 7.796875 Z M 27.65625 8.339844 L 36.847656 8.339844 L 36.847656 9.015625 L 27.65625 9.015625 Z M 25.652344 9.558594 L 38.851562 9.558594 L 38.851562 10.429688 L 25.652344 10.429688 Z M 32.824219 22.488281 L 33.414062 22.488281 L 33.414062 27.035156 L 31.089844 27.035156 L 31.089844 22.488281 L 31.679688 22.488281 C 31.828125 22.488281 31.949219 22.363281 31.949219 22.214844 L 31.949219 10.972656 L 32.554688 10.972656 L 32.554688 22.214844 C 32.554688 22.363281 32.675781 22.488281 32.824219 22.488281 Z M 35.988281 29.277344 L 35.988281 30.714844 L 28.515625 30.714844 L 28.515625 29.277344 Z M 30.550781 27.882812 C 30.34375 27.863281 30.078125 27.804688 29.820312 27.644531 C 29.785156 27.621094 29.753906 27.601562 29.722656 27.578125 L 30.550781 27.578125 Z M 31.089844 28.734375 L 31.089844 27.578125 L 33.414062 27.578125 L 33.414062 28.734375 Z M 33.953125 27.578125 L 34.777344 27.578125 C 34.746094 27.601562 34.714844 27.621094 34.683594 27.644531 C 34.425781 27.804688 34.160156 27.863281 33.953125 27.882812 Z M 26.347656 21.289062 L 24.941406 21.289062 C 24.253906 21.289062 23.699219 20.773438 23.699219 20.140625 L 23.699219 16.421875 C 23.699219 15.789062 24.253906 15.273438 24.941406 15.273438 L 25.644531 15.273438 Z M 23.855469 23.082031 C 22.875 23.082031 22.078125 22.296875 22.078125 21.328125 L 22.078125 15.230469 C 22.078125 14.265625 22.875 13.476562 23.855469 13.476562 L 25.433594 13.476562 L 25.582031 14.730469 L 24.941406 14.730469 C 23.957031 14.730469 23.15625 15.488281 23.15625 16.421875 L 23.15625 20.140625 C 23.15625 21.074219 23.957031 21.832031 24.941406 21.832031 L 26.414062 21.832031 L 26.558594 23.085938 L 23.855469 23.085938 Z M 28.53125 28.199219 C 27.972656 27.878906 27.59375 27.304688 27.523438 26.664062 L 25.6875 10.972656 L 31.410156 10.972656 L 31.410156 21.945312 L 30.820312 21.945312 C 30.671875 21.945312 30.550781 22.066406 30.550781 22.214844 L 30.550781 27.035156 L 29.101562 27.035156 C 29.003906 27.035156 28.914062 27.089844 28.867188 27.179688 C 28.816406 27.265625 28.824219 27.371094 28.875 27.453125 C 29.046875 27.71875 29.269531 27.9375 29.53125 28.101562 C 29.898438 28.332031 30.269531 28.40625 30.550781 28.425781 L 30.550781 28.734375 L 29.460938 28.734375 Z M 37.601562 33.253906 L 38.40625 39.402344 C 38.4375 39.636719 38.367188 39.863281 38.207031 40.046875 C 38.046875 40.226562 37.816406 40.332031 37.570312 40.332031 L 26.933594 40.332031 C 26.6875 40.332031 26.453125 40.226562 26.292969 40.046875 C 26.136719 39.863281 26.066406 39.636719 26.097656 39.402344 L 26.902344 33.253906 C 27.003906 32.457031 27.464844 31.761719 28.164062 31.347656 L 28.320312 31.257812 L 36.183594 31.257812 L 36.339844 31.347656 C 37.039062 31.761719 37.5 32.457031 37.601562 33.253906 Z M 36.980469 26.664062 C 36.90625 27.304688 36.53125 27.878906 35.972656 28.199219 L 35.042969 28.734375 L 33.953125 28.734375 L 33.953125 28.425781 C 34.234375 28.40625 34.605469 28.332031 34.972656 28.101562 C 35.234375 27.9375 35.457031 27.71875 35.625 27.453125 C 35.679688 27.371094 35.683594 27.265625 35.636719 27.179688 C 35.589844 27.089844 35.5 27.035156 35.398438 27.035156 L 33.953125 27.035156 L 33.953125 22.214844 C 33.953125 22.066406 33.832031 21.945312 33.683594 21.945312 L 33.09375 21.945312 L 33.09375 10.972656 L 38.816406 10.972656 Z M 36.980469 26.664062 " fill-opacity="1" fill-rule="nonzero"/></g><path fill="#000000" d="M 32.25 23.074219 C 32.101562 23.074219 31.980469 23.195312 31.980469 23.347656 L 31.980469 25.894531 C 31.980469 26.042969 32.101562 26.164062 32.25 26.164062 C 32.402344 26.164062 32.523438 26.042969 32.523438 25.894531 L 32.523438 23.347656 C 32.523438 23.195312 32.402344 23.074219 32.25 23.074219 Z M 32.25 23.074219 " fill-opacity="1" fill-rule="nonzero"/><path fill="#000000" d="M 32.25 33.257812 C 30.683594 33.257812 29.40625 34.523438 29.40625 36.078125 C 29.40625 37.632812 30.683594 38.894531 32.25 38.894531 C 33.820312 38.894531 35.097656 37.632812 35.097656 36.078125 C 35.097656 34.523438 33.820312 33.257812 32.25 33.257812 Z M 32.25 38.351562 C 30.980469 38.351562 29.945312 37.332031 29.945312 36.078125 C 29.945312 34.824219 30.980469 33.800781 32.25 33.800781 C 33.523438 33.800781 34.558594 34.824219 34.558594 36.078125 C 34.558594 37.332031 33.523438 38.351562 32.25 38.351562 Z M 32.25 38.351562 " fill-opacity="1" fill-rule="nonzero"/><path fill="#000000" d="M 33.054688 34.554688 L 32.648438 35.09375 C 32.527344 35.046875 32.390625 35.019531 32.25 35.019531 C 31.664062 35.019531 31.183594 35.492188 31.183594 36.078125 C 31.183594 36.660156 31.664062 37.136719 32.25 37.136719 C 32.839844 37.136719 33.320312 36.660156 33.320312 36.078125 C 33.320312 35.828125 33.230469 35.601562 33.082031 35.421875 L 33.488281 34.882812 C 33.578125 34.761719 33.554688 34.589844 33.433594 34.5 C 33.3125 34.410156 33.144531 34.433594 33.054688 34.554688 Z M 32.25 36.59375 C 31.960938 36.59375 31.722656 36.363281 31.722656 36.078125 C 31.722656 35.792969 31.960938 35.5625 32.25 35.5625 C 32.542969 35.5625 32.777344 35.792969 32.777344 36.078125 C 32.777344 36.363281 32.542969 36.59375 32.25 36.59375 Z M 32.25 36.59375 " fill-opacity="1" fill-rule="nonzero"/></svg>