<svg xmlns="http://www.w3.org/2000/svg" xmlns:xlink="http://www.w3.org/1999/xlink" width="82" zoomAndPan="magnify" viewBox="0 0 61.5 45.749999" height="61" preserveAspectRatio="xMidYMid meet" version="1.0"><defs><clipPath id="52469d41ed"><path d="M 19 7.648438 L 38.660156 7.648438 L 38.660156 41.125 L 19 41.125 Z M 19 7.648438 " clip-rule="nonzero"/></clipPath><clipPath id="47b7cbef05"><path d="M 17.085938 23 L 34 23 L 34 36 L 17.085938 36 Z M 17.085938 23 " clip-rule="nonzero"/></clipPath></defs><g clip-path="url(#52469d41ed)"><path fill="#000000" d="M 38.296875 7.753906 L 19.773438 7.753906 C 19.574219 7.753906 19.410156 7.917969 19.410156 8.117188 L 19.410156 19.816406 C 19.410156 19.875 19.457031 19.988281 19.523438 20.078125 C 19.851562 20.519531 21.320312 22.257812 21.332031 22.269531 C 21.402344 22.339844 21.492188 22.375 21.589844 22.375 L 26.675781 22.375 L 26.675781 22.742188 C 26.675781 22.945312 26.835938 23.109375 27.039062 23.109375 C 27.238281 23.109375 27.402344 22.945312 27.402344 22.742188 L 27.402344 22.375 L 33.574219 22.375 L 33.574219 35.539062 L 21.589844 35.539062 C 21.417969 35.539062 21.417969 35.539062 20.253906 36.722656 C 19.988281 36.996094 19.722656 37.265625 19.515625 37.472656 C 19.449219 37.542969 19.410156 37.632812 19.410156 37.730469 L 19.410156 40.65625 C 19.410156 40.859375 19.574219 41.023438 19.773438 41.023438 L 38.296875 41.023438 C 38.5 41.023438 38.660156 40.859375 38.660156 40.65625 L 38.660156 8.117188 C 38.660156 7.917969 38.5 7.753906 38.296875 7.753906 Z M 37.933594 8.484375 L 37.933594 31.152344 L 34.300781 31.152344 L 34.300781 22.011719 C 34.300781 22 34.300781 21.957031 34.300781 21.945312 C 34.300781 20.71875 33.488281 19.453125 32.125 19.453125 L 20.136719 19.453125 L 20.136719 8.484375 Z M 20.542969 20.183594 L 32.125 20.183594 C 32.917969 20.183594 33.441406 20.894531 33.554688 21.644531 L 21.757812 21.644531 C 21.527344 21.367188 20.960938 20.6875 20.542969 20.183594 Z M 21.730469 36.269531 L 33.539062 36.269531 C 33.511719 36.402344 33.46875 36.523438 33.414062 36.636719 C 33.1875 37.09375 32.730469 37.367188 32.125 37.367188 L 20.644531 37.367188 C 20.6875 37.324219 21.546875 36.445312 21.730469 36.269531 Z M 20.136719 40.292969 L 20.136719 38.097656 L 32.125 38.097656 C 33.40625 38.097656 34.300781 37.195312 34.300781 35.902344 L 34.300781 31.882812 L 37.933594 31.882812 L 37.933594 40.292969 Z M 36.097656 27.496094 L 36.203125 27.496094 C 36.777344 27.496094 37.207031 26.953125 37.207031 26.398438 L 37.207031 13.238281 C 37.207031 12.679688 36.765625 12.140625 36.203125 12.140625 L 36.097656 12.140625 C 35.507812 12.140625 35.027344 12.6875 35.027344 13.238281 L 35.027344 26.398438 C 35.027344 26.933594 35.507812 27.496094 36.097656 27.496094 Z M 35.753906 13.238281 C 35.753906 13.085938 35.9375 12.871094 36.097656 12.871094 L 36.203125 12.871094 C 36.367188 12.871094 36.480469 13.082031 36.480469 13.238281 L 36.480469 26.398438 C 36.480469 26.578125 36.332031 26.765625 36.203125 26.765625 L 36.097656 26.765625 C 35.9375 26.765625 35.753906 26.542969 35.753906 26.398438 Z M 35.824219 36.683594 C 35.054688 36.683594 34.429688 37.3125 34.429688 38.085938 C 34.429688 38.859375 35.054688 39.488281 35.824219 39.488281 C 36.589844 39.488281 37.21875 38.859375 37.21875 38.085938 C 37.21875 37.3125 36.59375 36.683594 35.824219 36.683594 Z M 35.824219 38.757812 C 35.457031 38.757812 35.15625 38.457031 35.15625 38.085938 C 35.15625 37.714844 35.457031 37.414062 35.824219 37.414062 C 36.191406 37.414062 36.492188 37.714844 36.492188 38.085938 C 36.492188 38.457031 36.191406 38.757812 35.824219 38.757812 Z M 21.226562 12.871094 C 21.429688 12.871094 21.589844 12.707031 21.589844 12.507812 L 21.589844 11.410156 C 21.589844 11.207031 21.429688 11.042969 21.226562 11.042969 C 21.027344 11.042969 20.863281 11.207031 20.863281 11.410156 L 20.863281 12.507812 C 20.863281 12.707031 21.027344 12.871094 21.226562 12.871094 Z M 21.226562 18.355469 C 21.429688 18.355469 21.589844 18.191406 21.589844 17.988281 L 21.589844 13.601562 C 21.589844 13.402344 21.429688 13.238281 21.226562 13.238281 C 21.027344 13.238281 20.863281 13.402344 20.863281 13.601562 L 20.863281 17.988281 C 20.863281 18.191406 21.027344 18.355469 21.226562 18.355469 Z M 21.226562 18.355469 " fill-opacity="1" fill-rule="nonzero"/></g><g clip-path="url(#47b7cbef05)"><path fill="#000000" d="M 22.726562 28.582031 C 22.535156 28.519531 22.332031 28.625 22.269531 28.816406 C 21.972656 29.738281 21.824219 30.722656 21.824219 31.742188 C 21.824219 32.015625 21.835938 32.292969 21.855469 32.5625 C 21.871094 32.753906 22.03125 32.898438 22.21875 32.898438 C 22.230469 32.898438 22.238281 32.898438 22.25 32.898438 C 22.449219 32.882812 22.597656 32.707031 22.582031 32.503906 C 22.558594 32.25 22.550781 31.996094 22.550781 31.742188 C 22.550781 30.800781 22.6875 29.890625 22.960938 29.039062 C 23.023438 28.847656 22.917969 28.644531 22.726562 28.582031 Z M 23.183594 26.878906 C 23.023438 27.125 22.871094 27.390625 22.734375 27.667969 C 22.644531 27.847656 22.714844 28.066406 22.894531 28.15625 C 22.949219 28.183594 23.003906 28.195312 23.058594 28.195312 C 23.191406 28.195312 23.320312 28.121094 23.382812 27.992188 C 23.507812 27.746094 23.644531 27.507812 23.789062 27.285156 C 23.902344 27.117188 23.855469 26.890625 23.6875 26.777344 C 23.519531 26.667969 23.296875 26.710938 23.183594 26.878906 Z M 20.652344 31.851562 C 20.65625 32.429688 20.703125 33.007812 20.796875 33.566406 C 20.929688 34.34375 21.503906 35.171875 22.316406 35.171875 L 31.761719 35.171875 C 32.496094 35.171875 33.066406 34.621094 33.207031 33.769531 C 33.28125 33.328125 33.269531 32.792969 33.253906 32.273438 C 33.25 32.089844 33.242188 31.910156 33.242188 31.742188 C 33.242188 29.96875 32.824219 28.273438 32.070312 26.875 L 32.820312 25.078125 C 32.867188 24.964844 32.855469 24.835938 32.789062 24.734375 C 32.722656 24.632812 32.609375 24.570312 32.488281 24.570312 L 28.414062 24.570312 C 28.203125 23.871094 27.714844 23.472656 27.039062 23.472656 C 26.359375 23.472656 25.871094 23.871094 25.660156 24.570312 L 23.769531 24.570312 C 23.738281 24.570312 23.710938 24.578125 23.683594 24.585938 C 23.671875 24.578125 23.664062 24.5625 23.652344 24.554688 L 23.589844 24.511719 C 21.855469 23.316406 19.46875 23.757812 18.273438 25.5 C 17.078125 27.234375 17.503906 29.636719 19.21875 30.851562 L 20.589844 31.820312 C 20.609375 31.832031 20.628906 31.839844 20.652344 31.851562 Z M 20.859375 29.667969 L 20.316406 29.28125 C 19.449219 28.667969 19.234375 27.460938 19.835938 26.589844 C 20.195312 26.066406 20.789062 25.753906 21.425781 25.753906 C 21.761719 25.753906 22.085938 25.84375 22.367188 26.007812 C 21.65625 27.054688 21.132812 28.324219 20.859375 29.667969 Z M 31.9375 25.300781 L 31.601562 26.105469 C 31.40625 25.820312 31.195312 25.550781 30.964844 25.300781 Z M 27.039062 24.203125 C 27.164062 24.203125 27.449219 24.207031 27.636719 24.570312 L 26.441406 24.570312 C 26.628906 24.207031 26.914062 24.203125 27.039062 24.203125 Z M 29.9375 25.300781 C 29.953125 25.320312 29.96875 25.335938 29.984375 25.351562 C 30.503906 25.816406 30.957031 26.386719 31.328125 27.03125 C 31.339844 27.066406 31.355469 27.097656 31.378906 27.125 C 32.109375 28.433594 32.515625 30.046875 32.515625 31.742188 C 32.515625 31.914062 32.523438 32.101562 32.527344 32.292969 C 32.539062 32.753906 32.554688 33.277344 32.492188 33.648438 C 32.460938 33.835938 32.316406 34.441406 31.761719 34.441406 L 22.316406 34.441406 C 21.9375 34.441406 21.59375 33.925781 21.511719 33.445312 C 21.421875 32.890625 21.371094 32.320312 21.371094 31.742188 C 21.371094 29.265625 22.363281 26.757812 23.910156 25.300781 Z M 18.871094 25.914062 C 19.824219 24.527344 21.714844 24.160156 23.113281 25.074219 C 23.007812 25.183594 22.910156 25.300781 22.8125 25.417969 C 22.398438 25.160156 21.921875 25.023438 21.425781 25.023438 C 20.550781 25.023438 19.734375 25.453125 19.238281 26.171875 C 18.410156 27.375 18.707031 29.039062 19.898438 29.878906 L 20.679688 30.433594 C 20.695312 30.445312 20.714844 30.449219 20.730469 30.457031 C 20.707031 30.636719 20.691406 30.8125 20.675781 30.988281 L 19.636719 30.25 C 18.246094 29.269531 17.902344 27.324219 18.871094 25.914062 Z M 18.871094 25.914062 " fill-opacity="1" fill-rule="nonzero"/></g></svg>