<svg xmlns="http://www.w3.org/2000/svg" xmlns:xlink="http://www.w3.org/1999/xlink" width="82" zoomAndPan="magnify" viewBox="0 0 61.5 45.749999" height="61" preserveAspectRatio="xMidYMid meet" version="1.0"><defs><clipPath id="14287a7a10"><path d="M 24.308594 13.089844 L 36.953125 13.089844 L 36.953125 30.941406 L 24.308594 30.941406 Z M 24.308594 13.089844 " clip-rule="nonzero"/></clipPath></defs><g clip-path="url(#14287a7a10)"><path fill="#100f0d" d="M 29.472656 23.5625 C 29.265625 23.5625 29.097656 23.402344 29.097656 23.203125 C 29.097656 23.007812 29.265625 22.847656 29.472656 22.847656 C 29.675781 22.847656 29.84375 23.007812 29.84375 23.203125 L 29.84375 23.5625 Z M 31.421875 23.203125 C 31.421875 23.007812 31.589844 22.847656 31.796875 22.847656 C 32 22.847656 32.167969 23.007812 32.167969 23.203125 C 32.167969 23.402344 32 23.5625 31.796875 23.5625 L 31.421875 23.5625 Z M 33.09375 26.640625 L 31.421875 26.640625 L 31.421875 24.136719 L 31.796875 24.136719 C 31.804688 24.136719 31.816406 24.136719 31.824219 24.136719 C 32.34375 24.121094 32.761719 23.707031 32.761719 23.203125 C 32.761719 22.691406 32.328125 22.273438 31.796875 22.273438 C 31.273438 22.273438 30.84375 22.675781 30.828125 23.175781 C 30.828125 23.183594 30.828125 23.195312 30.828125 23.203125 L 30.828125 23.5625 L 30.4375 23.5625 L 30.4375 23.203125 C 30.4375 23.195312 30.4375 23.183594 30.4375 23.175781 C 30.421875 22.675781 29.996094 22.273438 29.472656 22.273438 C 28.9375 22.273438 28.503906 22.691406 28.503906 23.203125 C 28.503906 23.707031 28.921875 24.121094 29.441406 24.136719 C 29.453125 24.136719 29.460938 24.136719 29.472656 24.136719 L 29.84375 24.136719 L 29.84375 26.640625 L 28.175781 26.640625 C 27.816406 25.160156 27.125 23.777344 26.167969 22.632812 C 25.347656 21.644531 24.910156 20.453125 24.910156 19.1875 C 24.910156 16.167969 27.457031 13.695312 30.59375 13.675781 C 30.605469 13.675781 30.621094 13.675781 30.632812 13.675781 C 32.15625 13.675781 33.585938 14.242188 34.664062 15.273438 C 35.753906 16.316406 36.355469 17.707031 36.355469 19.183594 C 36.355469 20.425781 35.9375 21.601562 35.144531 22.574219 C 34.160156 23.789062 33.457031 25.1875 33.09375 26.640625 Z M 33.84375 27.546875 C 33.84375 27.734375 33.6875 27.882812 33.496094 27.882812 L 27.773438 27.882812 C 27.578125 27.882812 27.421875 27.734375 27.421875 27.546875 C 27.421875 27.363281 27.578125 27.210938 27.773438 27.210938 L 33.496094 27.210938 C 33.6875 27.210938 33.84375 27.363281 33.84375 27.546875 Z M 33.496094 29.128906 L 27.773438 29.128906 C 27.578125 29.128906 27.421875 28.976562 27.421875 28.792969 C 27.421875 28.605469 27.578125 28.457031 27.773438 28.457031 L 33.496094 28.457031 C 33.6875 28.457031 33.84375 28.605469 33.84375 28.792969 C 33.84375 28.976562 33.6875 29.128906 33.496094 29.128906 Z M 32.285156 30.175781 C 32.253906 30.292969 32.144531 30.371094 32.019531 30.371094 L 29.25 30.371094 C 29.125 30.371094 29.015625 30.292969 28.980469 30.175781 L 28.84375 29.699219 L 32.421875 29.699219 Z M 30.4375 26.640625 L 30.4375 24.136719 L 30.828125 24.136719 L 30.828125 26.640625 Z M 36.949219 19.183594 C 36.949219 17.550781 36.289062 16.019531 35.085938 14.867188 C 33.882812 13.71875 32.285156 13.089844 30.589844 13.101562 C 27.128906 13.125 24.316406 15.855469 24.316406 19.1875 C 24.316406 20.566406 24.8125 21.917969 25.703125 22.992188 C 26.582031 24.042969 27.222656 25.304688 27.566406 26.660156 C 27.144531 26.75 26.828125 27.113281 26.828125 27.546875 C 26.828125 27.789062 26.925781 28.007812 27.085938 28.171875 C 26.925781 28.332031 26.828125 28.550781 26.828125 28.792969 C 26.828125 29.292969 27.25 29.699219 27.773438 29.699219 L 28.230469 29.699219 L 28.410156 30.328125 C 28.511719 30.691406 28.859375 30.945312 29.25 30.945312 L 32.019531 30.945312 C 32.410156 30.945312 32.753906 30.691406 32.859375 30.328125 L 33.039062 29.699219 L 33.496094 29.699219 C 34.015625 29.699219 34.4375 29.292969 34.4375 28.792969 C 34.4375 28.550781 34.339844 28.332031 34.179688 28.171875 C 34.339844 28.007812 34.4375 27.789062 34.4375 27.546875 C 34.4375 27.117188 34.121094 26.753906 33.703125 26.664062 C 34.050781 25.332031 34.707031 24.046875 35.613281 22.929688 C 36.488281 21.851562 36.949219 20.554688 36.949219 19.183594 " fill-opacity="1" fill-rule="nonzero"/></g></svg>