<svg xmlns="http://www.w3.org/2000/svg" xmlns:xlink="http://www.w3.org/1999/xlink" width="82" zoomAndPan="magnify" viewBox="0 0 61.5 45.749999" height="61" preserveAspectRatio="xMidYMid meet" version="1.0"><defs><clipPath id="4c0dce8b67"><path d="M 18.917969 11.667969 L 41.980469 11.667969 L 41.980469 29.519531 L 18.917969 29.519531 Z M 18.917969 11.667969 " clip-rule="nonzero"/></clipPath></defs><g clip-path="url(#4c0dce8b67)"><path fill="#000000" d="M 39.9375 11.667969 L 20.964844 11.667969 C 19.84375 11.667969 18.929688 12.566406 18.929688 13.675781 L 18.929688 25.726562 C 18.929688 26.835938 19.84375 27.734375 20.964844 27.734375 L 21.6875 27.734375 C 21.894531 28.753906 22.808594 29.519531 23.898438 29.519531 C 24.992188 29.519531 25.902344 28.753906 26.113281 27.734375 L 34.789062 27.734375 C 35 28.753906 35.910156 29.519531 37.003906 29.519531 C 38.09375 29.519531 39.007812 28.753906 39.214844 27.734375 L 39.9375 27.734375 C 41.058594 27.734375 41.972656 26.835938 41.972656 25.726562 L 41.972656 13.675781 C 41.972656 12.566406 41.058594 11.667969 39.9375 11.667969 Z M 23.898438 28.628906 C 23.3125 28.628906 22.808594 28.253906 22.621094 27.734375 L 25.175781 27.734375 C 24.992188 28.253906 24.488281 28.628906 23.898438 28.628906 Z M 37.003906 28.628906 C 36.414062 28.628906 35.910156 28.253906 35.726562 27.734375 L 38.28125 27.734375 C 38.09375 28.253906 37.589844 28.628906 37.003906 28.628906 Z M 41.070312 25.726562 C 41.070312 26.34375 40.5625 26.84375 39.9375 26.84375 L 20.964844 26.84375 C 20.339844 26.84375 19.832031 26.34375 19.832031 25.726562 L 19.832031 13.675781 C 19.832031 13.058594 20.339844 12.558594 20.964844 12.558594 L 39.9375 12.558594 C 40.5625 12.558594 41.070312 13.058594 41.070312 13.675781 Z M 41.070312 25.726562 " fill-opacity="1" fill-rule="nonzero"/></g><path fill="#000000" d="M 35.195312 13.453125 L 21.1875 13.453125 C 20.9375 13.453125 20.738281 13.652344 20.738281 13.898438 L 20.738281 25.503906 C 20.738281 25.75 20.9375 25.949219 21.1875 25.949219 L 35.195312 25.949219 C 35.445312 25.949219 35.648438 25.75 35.648438 25.503906 L 35.648438 13.898438 C 35.648438 13.652344 35.445312 13.453125 35.195312 13.453125 Z M 34.742188 14.34375 L 34.742188 22.824219 L 31.648438 22.824219 C 32.164062 22.296875 32.484375 21.582031 32.484375 20.789062 L 32.484375 20.148438 C 32.484375 19.902344 32.28125 19.699219 32.03125 19.699219 L 24.351562 19.699219 C 24.101562 19.699219 23.898438 19.902344 23.898438 20.148438 L 23.898438 20.789062 C 23.898438 21.582031 24.21875 22.296875 24.734375 22.824219 L 21.640625 22.824219 L 21.640625 14.34375 Z M 24.804688 20.789062 L 24.804688 20.59375 L 31.582031 20.59375 L 31.582031 20.789062 C 31.582031 21.914062 30.65625 22.824219 29.519531 22.824219 L 26.863281 22.824219 C 25.726562 22.824219 24.804688 21.914062 24.804688 20.789062 Z M 21.640625 25.058594 L 21.640625 23.71875 C 23.296875 23.71875 33.695312 23.71875 34.742188 23.71875 L 34.742188 25.058594 Z M 21.640625 25.058594 " fill-opacity="1" fill-rule="nonzero"/><path fill="#000000" d="M 39.714844 13.453125 L 37.003906 13.453125 C 36.753906 13.453125 36.550781 13.652344 36.550781 13.898438 L 36.550781 15.683594 C 36.550781 15.929688 36.753906 16.128906 37.003906 16.128906 L 39.714844 16.128906 C 39.960938 16.128906 40.164062 15.929688 40.164062 15.683594 L 40.164062 13.898438 C 40.164062 13.652344 39.960938 13.453125 39.714844 13.453125 Z M 39.261719 15.238281 L 37.453125 15.238281 L 37.453125 14.34375 L 39.261719 14.34375 Z M 39.261719 15.238281 " fill-opacity="1" fill-rule="nonzero"/><path fill="#000000" d="M 38.359375 22.378906 C 37.359375 22.378906 36.550781 23.179688 36.550781 24.164062 C 36.550781 25.148438 37.359375 25.949219 38.359375 25.949219 C 39.355469 25.949219 40.164062 25.148438 40.164062 24.164062 C 40.164062 23.179688 39.355469 22.378906 38.359375 22.378906 Z M 38.359375 25.058594 C 37.859375 25.058594 37.453125 24.65625 37.453125 24.164062 C 37.453125 23.671875 37.859375 23.273438 38.359375 23.273438 C 38.855469 23.273438 39.261719 23.671875 39.261719 24.164062 C 39.261719 24.65625 38.855469 25.058594 38.359375 25.058594 Z M 38.359375 25.058594 " fill-opacity="1" fill-rule="nonzero"/><path fill="#000000" d="M 37.003906 17.914062 L 37.453125 17.914062 C 37.703125 17.914062 37.90625 17.714844 37.90625 17.46875 C 37.90625 17.222656 37.703125 17.023438 37.453125 17.023438 L 37.003906 17.023438 C 36.753906 17.023438 36.550781 17.222656 36.550781 17.46875 C 36.550781 17.714844 36.753906 17.914062 37.003906 17.914062 Z M 37.003906 17.914062 " fill-opacity="1" fill-rule="nonzero"/><path fill="#000000" d="M 39.714844 17.023438 L 39.261719 17.023438 C 39.011719 17.023438 38.808594 17.222656 38.808594 17.46875 C 38.808594 17.714844 39.011719 17.914062 39.261719 17.914062 L 39.714844 17.914062 C 39.960938 17.914062 40.164062 17.714844 40.164062 17.46875 C 40.164062 17.222656 39.960938 17.023438 39.714844 17.023438 Z M 39.714844 17.023438 " fill-opacity="1" fill-rule="nonzero"/><path fill="#000000" d="M 37.003906 19.699219 L 37.453125 19.699219 C 37.703125 19.699219 37.90625 19.5 37.90625 19.253906 C 37.90625 19.007812 37.703125 18.808594 37.453125 18.808594 L 37.003906 18.808594 C 36.753906 18.808594 36.550781 19.007812 36.550781 19.253906 C 36.550781 19.5 36.753906 19.699219 37.003906 19.699219 Z M 37.003906 19.699219 " fill-opacity="1" fill-rule="nonzero"/><path fill="#000000" d="M 39.714844 18.808594 L 39.261719 18.808594 C 39.011719 18.808594 38.808594 19.007812 38.808594 19.253906 C 38.808594 19.5 39.011719 19.699219 39.261719 19.699219 L 39.714844 19.699219 C 39.960938 19.699219 40.164062 19.5 40.164062 19.253906 C 40.164062 19.007812 39.960938 18.808594 39.714844 18.808594 Z M 39.714844 18.808594 " fill-opacity="1" fill-rule="nonzero"/><path fill="#000000" d="M 37.003906 21.484375 L 37.453125 21.484375 C 37.703125 21.484375 37.90625 21.285156 37.90625 21.039062 C 37.90625 20.792969 37.703125 20.59375 37.453125 20.59375 L 37.003906 20.59375 C 36.753906 20.59375 36.550781 20.792969 36.550781 21.039062 C 36.550781 21.285156 36.753906 21.484375 37.003906 21.484375 Z M 37.003906 21.484375 " fill-opacity="1" fill-rule="nonzero"/><path fill="#000000" d="M 39.714844 20.59375 L 39.261719 20.59375 C 39.011719 20.59375 38.808594 20.792969 38.808594 21.039062 C 38.808594 21.285156 39.011719 21.484375 39.261719 21.484375 L 39.714844 21.484375 C 39.960938 21.484375 40.164062 21.285156 40.164062 21.039062 C 40.164062 20.792969 39.960938 20.59375 39.714844 20.59375 Z M 39.714844 20.59375 " fill-opacity="1" fill-rule="nonzero"/><path fill="#000000" d="M 25.847656 17.605469 L 25.417969 18.054688 C 25.246094 18.234375 25.253906 18.515625 25.4375 18.6875 C 25.617188 18.855469 25.90625 18.847656 26.074219 18.667969 L 26.617188 18.101562 C 26.769531 17.941406 26.847656 17.574219 26.703125 17.253906 C 26.605469 17.03125 26.417969 16.859375 26.1875 16.777344 L 26.617188 16.324219 C 26.789062 16.144531 26.78125 15.863281 26.597656 15.695312 C 26.417969 15.523438 26.132812 15.53125 25.960938 15.710938 C 25.425781 16.28125 25.390625 16.285156 25.339844 16.398438 C 25.117188 16.871094 25.355469 17.429688 25.847656 17.605469 Z M 25.847656 17.605469 " fill-opacity="1" fill-rule="nonzero"/><path fill="#000000" d="M 28.105469 17.605469 L 27.675781 18.054688 C 27.503906 18.234375 27.515625 18.515625 27.695312 18.6875 C 27.878906 18.855469 28.164062 18.847656 28.335938 18.667969 C 28.867188 18.097656 28.902344 18.097656 28.957031 17.980469 C 29.175781 17.511719 28.941406 16.953125 28.445312 16.777344 L 28.878906 16.324219 C 29.046875 16.144531 29.039062 15.863281 28.859375 15.695312 C 28.675781 15.523438 28.390625 15.53125 28.21875 15.710938 C 27.6875 16.28125 27.652344 16.285156 27.597656 16.398438 C 27.375 16.871094 27.613281 17.429688 28.105469 17.605469 Z M 28.105469 17.605469 " fill-opacity="1" fill-rule="nonzero"/><path fill="#000000" d="M 30.367188 17.605469 L 29.9375 18.054688 C 29.765625 18.234375 29.773438 18.515625 29.953125 18.6875 C 30.136719 18.855469 30.421875 18.847656 30.59375 18.667969 L 31.132812 18.101562 C 31.285156 17.941406 31.367188 17.574219 31.222656 17.253906 C 31.125 17.03125 30.9375 16.859375 30.707031 16.777344 L 31.136719 16.324219 C 31.308594 16.144531 31.300781 15.863281 31.117188 15.695312 C 30.9375 15.523438 30.648438 15.53125 30.480469 15.710938 C 29.945312 16.28125 29.910156 16.285156 29.855469 16.398438 C 29.636719 16.871094 29.871094 17.429688 30.367188 17.605469 Z M 30.367188 17.605469 " fill-opacity="1" fill-rule="nonzero"/></svg>