<svg xmlns="http://www.w3.org/2000/svg" xmlns:xlink="http://www.w3.org/1999/xlink" width="82" zoomAndPan="magnify" viewBox="0 0 61.5 45.749999" height="61" preserveAspectRatio="xMidYMid meet" version="1.0"><defs><clipPath id="264c2724c5"><path d="M 15.765625 12.839844 L 36.597656 12.839844 L 36.597656 28.460938 L 15.765625 28.460938 Z M 15.765625 12.839844 " clip-rule="nonzero"/></clipPath><clipPath id="57bd818a4d"><path d="M 30 17 L 36.597656 17 L 36.597656 28.460938 L 30 28.460938 Z M 30 17 " clip-rule="nonzero"/></clipPath></defs><g clip-path="url(#264c2724c5)"><path fill="#000000" d="M 26.832031 25.207031 L 26.832031 26.507812 L 25.53125 26.507812 L 25.53125 25.207031 Z M 29.054688 27.808594 L 23.308594 27.808594 C 23.441406 27.429688 23.804688 27.15625 24.226562 27.15625 L 28.132812 27.15625 C 28.558594 27.15625 28.917969 27.429688 29.054688 27.808594 Z M 35.621094 12.839844 L 16.742188 12.839844 C 16.203125 12.839844 15.765625 13.277344 15.765625 13.816406 L 15.765625 24.230469 C 15.765625 24.769531 16.203125 25.207031 16.742188 25.207031 L 24.878906 25.207031 L 24.878906 26.507812 L 24.226562 26.507812 C 23.328125 26.507812 22.601562 27.238281 22.601562 28.132812 C 22.601562 28.3125 22.746094 28.460938 22.925781 28.460938 L 29.433594 28.460938 C 29.613281 28.460938 29.761719 28.3125 29.761719 28.132812 C 29.761719 27.238281 29.03125 26.507812 28.132812 26.507812 L 27.480469 26.507812 L 27.480469 25.207031 L 29.761719 25.207031 C 29.941406 25.207031 30.085938 25.058594 30.085938 24.878906 C 30.085938 24.699219 29.941406 24.554688 29.761719 24.554688 L 16.742188 24.554688 C 16.5625 24.554688 16.417969 24.410156 16.417969 24.230469 L 16.417969 13.816406 C 16.417969 13.636719 16.5625 13.492188 16.742188 13.492188 L 35.621094 13.492188 C 35.796875 13.492188 35.945312 13.636719 35.945312 13.816406 L 35.945312 16.417969 C 35.945312 16.597656 36.089844 16.746094 36.269531 16.746094 C 36.449219 16.746094 36.597656 16.597656 36.597656 16.417969 L 36.597656 13.816406 C 36.597656 13.277344 36.160156 12.839844 35.621094 12.839844 " fill-opacity="1" fill-rule="nonzero"/></g><g clip-path="url(#57bd818a4d)"><path fill="#000000" d="M 31.714844 18.046875 C 31.535156 18.046875 31.386719 18.191406 31.386719 18.371094 L 31.386719 27.484375 C 31.386719 27.664062 31.535156 27.808594 31.714844 27.808594 L 35.621094 27.808594 C 35.796875 27.808594 35.945312 27.664062 35.945312 27.484375 L 35.945312 18.371094 C 35.945312 18.191406 35.796875 18.046875 35.621094 18.046875 Z M 35.621094 28.460938 L 31.714844 28.460938 C 31.175781 28.460938 30.738281 28.023438 30.738281 27.484375 L 30.738281 18.371094 C 30.738281 17.832031 31.175781 17.394531 31.714844 17.394531 L 35.621094 17.394531 C 36.160156 17.394531 36.597656 17.832031 36.597656 18.371094 L 36.597656 27.484375 C 36.597656 28.023438 36.160156 28.460938 35.621094 28.460938 " fill-opacity="1" fill-rule="nonzero"/></g><path fill="#000000" d="M 33.667969 23.253906 C 33.128906 23.253906 32.691406 23.691406 32.691406 24.230469 C 32.691406 24.769531 33.128906 25.207031 33.667969 25.207031 C 34.207031 25.207031 34.644531 24.769531 34.644531 24.230469 C 34.644531 23.691406 34.207031 23.253906 33.667969 23.253906 Z M 33.667969 25.855469 C 32.769531 25.855469 32.039062 25.125 32.039062 24.230469 C 32.039062 23.332031 32.769531 22.601562 33.667969 22.601562 C 34.5625 22.601562 35.292969 23.332031 35.292969 24.230469 C 35.292969 25.125 34.5625 25.855469 33.667969 25.855469 " fill-opacity="1" fill-rule="nonzero"/><path fill="#000000" d="M 32.691406 19.023438 C 32.691406 19.203125 32.542969 19.347656 32.363281 19.347656 C 32.183594 19.347656 32.039062 19.203125 32.039062 19.023438 C 32.039062 18.84375 32.183594 18.695312 32.363281 18.695312 C 32.542969 18.695312 32.691406 18.84375 32.691406 19.023438 " fill-opacity="1" fill-rule="nonzero"/><path fill="#000000" d="M 33.992188 19.023438 C 33.992188 19.203125 33.847656 19.347656 33.667969 19.347656 C 33.488281 19.347656 33.339844 19.203125 33.339844 19.023438 C 33.339844 18.84375 33.488281 18.695312 33.667969 18.695312 C 33.847656 18.695312 33.992188 18.84375 33.992188 19.023438 " fill-opacity="1" fill-rule="nonzero"/><path fill="#000000" d="M 35.292969 19.023438 C 35.292969 19.203125 35.148438 19.347656 34.96875 19.347656 C 34.789062 19.347656 34.644531 19.203125 34.644531 19.023438 C 34.644531 18.84375 34.789062 18.695312 34.96875 18.695312 C 35.148438 18.695312 35.292969 18.84375 35.292969 19.023438 " fill-opacity="1" fill-rule="nonzero"/><path fill="#000000" d="M 32.691406 20.324219 C 32.691406 20.503906 32.542969 20.648438 32.363281 20.648438 C 32.183594 20.648438 32.039062 20.503906 32.039062 20.324219 C 32.039062 20.144531 32.183594 20 32.363281 20 C 32.542969 20 32.691406 20.144531 32.691406 20.324219 " fill-opacity="1" fill-rule="nonzero"/><path fill="#000000" d="M 33.992188 20.324219 C 33.992188 20.503906 33.847656 20.648438 33.667969 20.648438 C 33.488281 20.648438 33.339844 20.503906 33.339844 20.324219 C 33.339844 20.144531 33.488281 20 33.667969 20 C 33.847656 20 33.992188 20.144531 33.992188 20.324219 " fill-opacity="1" fill-rule="nonzero"/><path fill="#000000" d="M 35.292969 20.324219 C 35.292969 20.503906 35.148438 20.648438 34.96875 20.648438 C 34.789062 20.648438 34.644531 20.503906 34.644531 20.324219 C 34.644531 20.144531 34.789062 20 34.96875 20 C 35.148438 20 35.292969 20.144531 35.292969 20.324219 " fill-opacity="1" fill-rule="nonzero"/><path fill="#000000" d="M 32.691406 21.625 C 32.691406 21.804688 32.542969 21.949219 32.363281 21.949219 C 32.183594 21.949219 32.039062 21.804688 32.039062 21.625 C 32.039062 21.445312 32.183594 21.300781 32.363281 21.300781 C 32.542969 21.300781 32.691406 21.445312 32.691406 21.625 " fill-opacity="1" fill-rule="nonzero"/><path fill="#000000" d="M 33.992188 21.625 C 33.992188 21.804688 33.847656 21.949219 33.667969 21.949219 C 33.488281 21.949219 33.339844 21.804688 33.339844 21.625 C 33.339844 21.445312 33.488281 21.300781 33.667969 21.300781 C 33.847656 21.300781 33.992188 21.445312 33.992188 21.625 " fill-opacity="1" fill-rule="nonzero"/><path fill="#000000" d="M 35.292969 21.625 C 35.292969 21.804688 35.148438 21.949219 34.96875 21.949219 C 34.789062 21.949219 34.644531 21.804688 34.644531 21.625 C 34.644531 21.445312 34.789062 21.300781 34.96875 21.300781 C 35.148438 21.300781 35.292969 21.445312 35.292969 21.625 " fill-opacity="1" fill-rule="nonzero"/><path fill="#000000" d="M 32.691406 26.832031 C 32.691406 27.011719 32.542969 27.15625 32.363281 27.15625 C 32.183594 27.15625 32.039062 27.011719 32.039062 26.832031 C 32.039062 26.652344 32.183594 26.507812 32.363281 26.507812 C 32.542969 26.507812 32.691406 26.652344 32.691406 26.832031 " fill-opacity="1" fill-rule="nonzero"/><path fill="#000000" d="M 33.992188 26.832031 C 33.992188 27.011719 33.847656 27.15625 33.667969 27.15625 C 33.488281 27.15625 33.339844 27.011719 33.339844 26.832031 C 33.339844 26.652344 33.488281 26.507812 33.667969 26.507812 C 33.847656 26.507812 33.992188 26.652344 33.992188 26.832031 " fill-opacity="1" fill-rule="nonzero"/><path fill="#000000" d="M 35.292969 26.832031 C 35.292969 27.011719 35.148438 27.15625 34.96875 27.15625 C 34.789062 27.15625 34.644531 27.011719 34.644531 26.832031 C 34.644531 26.652344 34.789062 26.507812 34.96875 26.507812 C 35.148438 26.507812 35.292969 26.652344 35.292969 26.832031 " fill-opacity="1" fill-rule="nonzero"/></svg>